<?xml version="1.0" encoding="UTF-8" standalone="no"?>
<svg
   xmlns:dc="http://purl.org/dc/elements/1.1/"
   xmlns:cc="http://creativecommons.org/ns#"
   xmlns:rdf="http://www.w3.org/1999/02/22-rdf-syntax-ns#"
   xmlns:svg="http://www.w3.org/2000/svg"
   xmlns="http://www.w3.org/2000/svg"
   xmlns:sodipodi="http://sodipodi.sourceforge.net/DTD/sodipodi-0.dtd"
   xmlns:inkscape="http://www.inkscape.org/namespaces/inkscape"
   width="20mm"
   height="20mm"
   viewBox="0 0 20 20"
   version="1.1"
   id="nuulogo"
   sodipodi:docname="icon_2018.svg"
   inkscape:version="0.92.4 (5da689c313, 2019-01-14)"
   inkscape:export-filename="/home/awt/code/nuu/mod/nuu/artwork/icon_2018.png"
   inkscape:export-xdpi="650.23999"
   inkscape:export-ydpi="650.23999">
  <metadata
     id="metadata16">
    <rdf:RDF>
      <cc:Work
         rdf:about="">
        <dc:format>image/svg+xml</dc:format>
        <dc:type
           rdf:resource="http://purl.org/dc/dcmitype/StillImage" />
        <dc:title />
      </cc:Work>
    </rdf:RDF>
  </metadata>
  <sodipodi:namedview
     pagecolor="#ffffff"
     bordercolor="#666666"
     borderopacity="1"
     objecttolerance="10"
     gridtolerance="10"
     guidetolerance="10"
     inkscape:pageopacity="0"
     inkscape:pageshadow="2"
     inkscape:window-width="1920"
     inkscape:window-height="1043"
     id="namedview14"
     showgrid="false"
     inkscape:zoom="6.6010402"
     inkscape:cx="-14.197175"
     inkscape:cy="20.682353"
     inkscape:window-x="0"
     inkscape:window-y="1098"
     inkscape:window-maximized="0"
     inkscape:current-layer="layer1" />
  <defs
     id="defs912">
    <clipPath
       clipPathUnits="userSpaceOnUse"
       id="clipPath905">
      <rect
         id="rect903"
         width="20"
         height="20"
         x="40"
         y="97"
         rx="5"
         ry="5"
         style="opacity:1;fill:#ff0000;fill-opacity:1;stroke:none;stroke-width:6.01288509;stroke-linejoin:round;stroke-miterlimit:4;stroke-dasharray:none;stroke-opacity:1" />
    </clipPath>
  </defs>
  <g
     id="layer1"
     transform="translate(-206.20238,-303.63094)">
    <path
       style="fill:#333333;fill-rule:evenodd;stroke:#cecece;stroke-width:0.99999998;stroke-linecap:butt;stroke-linejoin:round;stroke-miterlimit:4;stroke-dasharray:none;stroke-opacity:1"
       clip-path="none"
       d="M 18.898438 0 C 8.4291459 0 0 8.4291459 0 18.898438 L 0 56.693359 C 0 67.162651 8.4291459 75.589844 18.898438 75.589844 L 24.566406 75.589844 L 24.566406 37.794922 L 51.023438 37.794922 L 51.023438 75.589844 L 56.693359 75.589844 C 67.162651 75.589844 75.589844 67.162651 75.589844 56.693359 L 75.589844 18.898438 C 75.589844 8.4291459 67.162651 0 56.693359 0 L 18.898438 0 z "
       transform="matrix(0.26458333,0,0,0.26458333,206.20238,303.63094)"
       id="path839" />
    <path
       style="fill:#333333;fill-rule:evenodd;stroke:#cecece;stroke-width:0.99999998;stroke-linecap:butt;stroke-linejoin:miter;stroke-miterlimit:4;stroke-dasharray:none;stroke-opacity:1"
       clip-path="none"
       d="M 34.197266 40.599609 C 32.204517 40.599609 30.601562 42.204517 30.601562 44.197266 L 30.601562 51.390625 C 30.601562 53.383374 32.204517 54.988281 34.197266 54.988281 L 41.392578 54.988281 C 43.385327 54.988281 44.990234 53.383374 44.990234 51.390625 L 44.990234 44.197266 C 44.990234 42.204517 43.385327 40.599609 41.392578 40.599609 L 40.3125 40.599609 L 40.3125 47.792969 L 35.277344 47.792969 L 35.277344 40.599609 L 34.197266 40.599609 z "
       transform="matrix(0.26458333,0,0,0.26458333,206.20238,303.63094)"
       id="path875" />
    <path
       style="fill:#333333;fill-rule:evenodd;stroke:#cecece;stroke-width:0.99999998;stroke-linecap:butt;stroke-linejoin:miter;stroke-miterlimit:4;stroke-dasharray:none;stroke-opacity:1"
       clip-path="none"
       d="M 34.197266 58.623047 C 32.204517 58.623047 30.601562 60.227954 30.601562 62.220703 L 30.601562 69.414062 C 30.601562 71.406811 32.204517 73.011719 34.197266 73.011719 L 41.392578 73.011719 C 43.385327 73.011719 44.990234 71.406811 44.990234 69.414062 L 44.990234 62.220703 C 44.990234 60.227954 43.385327 58.623047 41.392578 58.623047 L 40.3125 58.623047 L 40.3125 65.818359 L 35.277344 65.818359 L 35.277344 58.623047 L 34.197266 58.623047 z "
       transform="matrix(0.26458333,0,0,0.26458333,206.20238,303.63094)"
       id="path971" />
  </g>
</svg>
