<?xml version="1.0" encoding="UTF-8" standalone="no"?>
<svg width="63.970978mm" height="20mm" viewBox="0 0 63.970978 20" version="1.1" id="nuulogo">
<defs id="defs912">
  <clipPath clipPathUnits="userSpaceOnUse" id="clipPath881">
    <rect id="rect883" width="20" height="20" x="40" y="97" rx="5" ry="5"
     style="opacity:1;fill:#ff0000;fill-opacity:1;stroke:none;stroke-width:6.01288509;stroke-linejoin:round;stroke-miterlimit:4;stroke-dasharray:none;stroke-opacity:1" />
  </clipPath>
  <clipPath clipPathUnits="userSpaceOnUse" id="clipPath905">
    <rect id="rect903" width="20" height="20" x="40" y="97" rx="5" ry="5"
     style="opacity:1;fill:#ff0000;fill-opacity:1;stroke:none;stroke-width:6.01288509;stroke-linejoin:round;stroke-miterlimit:4;stroke-dasharray:none;stroke-opacity:1" />
  </clipPath>
  <clipPath clipPathUnits="userSpaceOnUse" id="clipPath877">
    <rect ry="5" rx="5" y="97" x="40" height="20" width="20" id="rect879"
     style="opacity:1;fill:#ff0000;fill-opacity:1;stroke:none;stroke-width:6.01288509;stroke-linejoin:round;stroke-miterlimit:4;stroke-dasharray:none;stroke-opacity:1" />
  </clipPath>
</defs>
<g id="layer1" transform="translate(-184.21689,-303.63095)">
<path
   style="fill:#333333;fill-rule:evenodd;stroke:none;stroke-width:0.26499999;stroke-linecap:butt;stroke-linejoin:miter;stroke-miterlimit:4;stroke-dasharray:none;stroke-opacity:1"
   d="m 46.5,107 v 10 H 39.999999 V 97 L 46.5,97.000001 53.5,107 V 97.000001 L 60.000001,97 v 20 H 53.5 Z"
   id="path839"
   clip-path="url(#clipPath877)"
   transform="translate(144.21689,206.63095)" />
<path
   id="path875"
   d="M 39.999999,117 V 97 L 46.5,97.000001 V 107 h 7 V 97.000001 L 60.000001,97 v 20 z"
   style="fill:#333333;fill-rule:evenodd;stroke:none;stroke-width:0.26499999;stroke-linecap:butt;stroke-linejoin:miter;stroke-miterlimit:4;stroke-dasharray:none;stroke-opacity:1"
   clip-path="url(#clipPath881)"
   transform="translate(166.18788,206.63095)" />
<path
   transform="translate(188.18787,206.63095)"
   clip-path="url(#clipPath881)"
   style="fill:#333333;fill-rule:evenodd;stroke:none;stroke-width:0.26499999;stroke-linecap:butt;stroke-linejoin:miter;stroke-miterlimit:4;stroke-dasharray:none;stroke-opacity:1"
   d="M 39.999999,117 V 97 L 46.5,97.000001 V 107 h 7 V 97.000001 L 60.000001,97 v 20 z"
   id="path891" />
</g>
</svg>
