<?xml version="1.0" encoding="UTF-8" standalone="no"?>
<!-- Created with Inkscape (http://www.inkscape.org/) -->

<svg
   xmlns:dc="http://purl.org/dc/elements/1.1/"
   xmlns:cc="http://creativecommons.org/ns#"
   xmlns:rdf="http://www.w3.org/1999/02/22-rdf-syntax-ns#"
   xmlns:svg="http://www.w3.org/2000/svg"
   xmlns="http://www.w3.org/2000/svg"
   xmlns:sodipodi="http://sodipodi.sourceforge.net/DTD/sodipodi-0.dtd"
   xmlns:inkscape="http://www.inkscape.org/namespaces/inkscape"
   width="65.758453mm"
   height="55.669186mm"
   viewBox="0 0 65.758453 55.669186"
   version="1.1"
   id="svg11132"
   inkscape:version="0.92.4 (5da689c313, 2019-01-14)"
   sodipodi:docname="admiralassembly.svg">
  <defs
     id="defs11126" />
  <sodipodi:namedview
     id="base"
     pagecolor="#ffffff"
     bordercolor="#666666"
     borderopacity="1.0"
     inkscape:pageopacity="0.0"
     inkscape:pageshadow="2"
     inkscape:zoom="0.35"
     inkscape:cx="-1064.3035"
     inkscape:cy="130.91589"
     inkscape:document-units="mm"
     inkscape:current-layer="layer1"
     showgrid="false"
     inkscape:window-width="1920"
     inkscape:window-height="1043"
     inkscape:window-x="0"
     inkscape:window-y="1098"
     inkscape:window-maximized="0" />
  <metadata
     id="metadata11129">
    <rdf:RDF>
      <cc:Work
         rdf:about="">
        <dc:format>image/svg+xml</dc:format>
        <dc:type
           rdf:resource="http://purl.org/dc/dcmitype/StillImage" />
        <dc:title></dc:title>
      </cc:Work>
    </rdf:RDF>
  </metadata>
  <g
     inkscape:label="Layer 1"
     inkscape:groupmode="layer"
     id="layer1"
     transform="translate(-239.26364,-127.80231)">
    <g
       id="g1472"
       inkscape:export-filename="/home/flyc0r/nuulogos3.png"
       inkscape:export-xdpi="64.722214"
       inkscape:export-ydpi="64.722214"
       transform="matrix(0.24795704,0,0,0.24795704,307.91752,133.68594)">
      <path
         inkscape:connector-curvature="0"
         style="fill:#000000;fill-opacity:1;stroke:none;stroke-width:2.45647097;stroke-miterlimit:4;stroke-dasharray:none;stroke-dashoffset:0;stroke-opacity:1"
         d="m -245.11872,-23.728428 h 201.682139 c 17.594722,0 31.759426,14.1647042 31.759426,31.7594262 V 169.02356 c 0,17.59472 -14.164704,31.75943 -31.759426,31.75943 H -245.11872 c -17.59472,0 -31.75942,-14.16471 -31.75942,-31.75943 V 8.0309982 c 0,-17.594722 14.1647,-31.7594262 31.75942,-31.7594262 z"
         id="rect1458" />
      <g
         aria-label="A"
         transform="scale(0.87282063,1.1457108)"
         style="font-style:normal;font-variant:normal;font-weight:normal;font-stretch:normal;font-size:147.03829956px;line-height:1.25;font-family:'Ubuntu Condensed';-inkscape-font-specification:'Ubuntu Condensed, Normal';font-variant-ligatures:normal;font-variant-caps:normal;font-variant-numeric:normal;font-feature-settings:normal;text-align:start;letter-spacing:0px;word-spacing:0px;writing-mode:lr-tb;text-anchor:start;fill:#d4aa00;fill-opacity:1;stroke:none;stroke-width:3.67597342"
         id="text1444">
        <path
           inkscape:connector-curvature="0"
           d="m -228.27987,-15.295811 q 3.52892,11.0278722 6.9108,22.3498213 3.52892,11.1749107 6.76376,23.5261277 3.38188,12.351217 6.61672,26.172818 3.38188,13.8216 6.76376,29.848774 h -13.23344 q -1.17631,-6.616723 -2.49965,-13.086408 -1.17631,-6.469685 -2.49965,-12.939371 h -32.05435 q -1.47039,6.469686 -2.64669,12.939371 -1.17631,6.469685 -2.35262,13.086408 h -12.79233 q 3.23484,-16.027174 6.61673,-29.848774 3.38188,-13.821601 6.61672,-26.172818 3.38188,-12.351217 6.76376,-23.5261277 3.52892,-11.3219491 7.05784,-22.3498213 z m -7.20488,14.99790631 q -3.67596,12.20417869 -7.05784,24.55539569 -3.38188,12.351217 -6.46968,25.290588 h 26.90801 q -2.94077,-12.939371 -6.32265,-25.290588 -3.38188,-12.351217 -7.05784,-24.55539569 z"
           style="font-style:normal;font-variant:normal;font-weight:normal;font-stretch:normal;font-size:147.03829956px;font-family:'Ubuntu Condensed';-inkscape-font-specification:'Ubuntu Condensed, Normal';font-variant-ligatures:normal;font-variant-caps:normal;font-variant-numeric:normal;font-feature-settings:normal;text-align:start;writing-mode:lr-tb;text-anchor:start;fill:#d4aa00;stroke-width:3.67597342"
           id="path9198" />
      </g>
      <g
         aria-label="A"
         style="font-style:normal;font-variant:normal;font-weight:normal;font-stretch:normal;font-size:202.23683167px;line-height:1.25;font-family:'Ubuntu Condensed';-inkscape-font-specification:'Ubuntu Condensed, Normal';font-variant-ligatures:normal;font-variant-caps:normal;font-variant-numeric:normal;font-feature-settings:normal;text-align:start;letter-spacing:0px;word-spacing:0px;writing-mode:lr-tb;text-anchor:start;fill:#d4aa00;fill-opacity:1;stroke:none;stroke-width:5.05594254"
         id="text1448">
        <path
           inkscape:connector-curvature="0"
           d="m -205.3566,47.803901 q 4.85369,15.167762 9.50513,30.739998 4.85369,15.37 9.3029,32.357891 4.65145,16.9879 9.10066,35.99816 4.65144,19.01026 9.30289,41.05408 h -18.20131 q -1.6179,-9.10066 -3.43803,-17.99908 -1.61789,-8.89842 -3.43803,-17.79684 h -44.08763 q -2.02236,8.89842 -3.64026,17.79684 -1.61789,8.89842 -3.23579,17.99908 h -17.5946 q 4.44921,-22.04382 9.10066,-41.05408 4.65144,-19.01026 9.10065,-35.99816 4.65145,-16.987891 9.3029,-32.357891 4.85368,-15.572236 9.70736,-30.739998 z m -9.9096,20.628157 q -5.05592,16.785657 -9.70737,33.773552 -4.65145,16.98789 -8.89842,34.78473 h 37.00934 q -4.04474,-17.79684 -8.69618,-34.78473 -4.65145,-16.987895 -9.70737,-33.773552 z"
           style="font-style:normal;font-variant:normal;font-weight:normal;font-stretch:normal;font-size:202.23683167px;font-family:'Ubuntu Condensed';-inkscape-font-specification:'Ubuntu Condensed, Normal';font-variant-ligatures:normal;font-variant-caps:normal;font-variant-numeric:normal;font-feature-settings:normal;text-align:start;writing-mode:lr-tb;text-anchor:start;fill:#d4aa00;stroke-width:5.05594254"
           id="path9201" />
      </g>
      <g
         aria-label="dmiral"
         style="font-style:normal;font-variant:normal;font-weight:500;font-stretch:normal;font-size:35.74344254px;line-height:1.25;font-family:Digitalt;-inkscape-font-specification:'Digitalt, Medium';font-variant-ligatures:normal;font-variant-caps:normal;font-variant-numeric:normal;font-feature-settings:normal;text-align:start;letter-spacing:0px;word-spacing:0px;writing-mode:lr-tb;text-anchor:start;fill:#d4aa00;fill-opacity:1;stroke:none;stroke-width:1.10831046"
         id="text1452">
        <path
           inkscape:connector-curvature="0"
           d="m -164.03908,88.019628 c 0,-1.715685 0,-3.21691 0.0357,-4.718135 h 0.60764 c 0.96507,0 1.67994,0.464665 1.67994,4.718135 0,4.253469 -0.71487,4.753878 -1.67994,4.753878 h -0.60764 c -0.0357,-1.501225 -0.0357,-3.00245 -0.0357,-4.753878 z m -7.0772,0 c 0,3.574344 0.0715,6.64828 0.0715,10.008164 0,0.21446 0.14298,0.357434 0.35744,0.357434 2.46629,0.250204 4.71813,0.428921 6.68402,0.428921 6.0049,0 9.75796,-1.858659 9.75796,-10.794519 0,-8.399709 -3.78881,-10.973237 -9.82945,-10.973237 -2.00163,0 -4.6109,0.250204 -6.96997,0.607638 0,3.574345 -0.0715,6.791255 -0.0715,10.365599 z"
           style="font-style:normal;font-variant:normal;font-weight:500;font-stretch:normal;font-size:35.74344254px;font-family:Digitalt;-inkscape-font-specification:'Digitalt, Medium';font-variant-ligatures:normal;font-variant-caps:normal;font-variant-numeric:normal;font-feature-settings:normal;text-align:start;writing-mode:lr-tb;text-anchor:start;fill:#d4aa00;stroke-width:1.10831046"
           id="path9204" />
        <path
           inkscape:connector-curvature="0"
           d="m -152.4085,88.019628 c 0,3.574344 0.0715,7.005714 0.14297,10.365598 0,0.214461 0.14298,0.357435 0.35744,0.357435 1.17953,0.07149 2.60927,0.10723 3.46711,0.10723 1.17953,0 1.82292,-0.03574 2.96671,-0.10723 l -0.14298,-9.686473 3.89604,7.8993 0.35743,0.07149 0.39318,-0.07149 4.07475,-8.292478 c 0,3.359883 0.14298,6.576793 0.21446,9.722216 0,0.214461 0.14298,0.357435 0.35744,0.357435 1.17953,0.07149 2.43055,0.10723 3.28839,0.10723 1.17954,0 1.75143,-0.03574 2.78799,-0.10723 0.0715,-3.574345 0.14298,-7.148689 0.14298,-10.723033 0,-3.574344 -0.0715,-7.005715 -0.14298,-10.365599 0,-0.178717 -0.17871,-0.321691 -0.35743,-0.357434 -1.00082,-0.03574 -2.10886,-0.07149 -3.32414,-0.07149 -1.00082,0 -1.85866,0.03574 -2.50204,0.10723 -0.17872,0 -0.32169,0.178718 -0.42892,0.321691 l -4.50368,9.186065 -4.46793,-9.186065 c -0.0715,-0.142973 -0.21446,-0.321691 -0.39318,-0.357434 -1.0723,-0.03574 -1.8944,-0.07149 -3.10968,-0.07149 -1.17953,0 -1.82291,0.03574 -2.93096,0.07149 -0.10723,3.574344 -0.14297,7.148689 -0.14297,10.723033 z"
           style="font-style:normal;font-variant:normal;font-weight:500;font-stretch:normal;font-size:35.74344254px;font-family:Digitalt;-inkscape-font-specification:'Digitalt, Medium';font-variant-ligatures:normal;font-variant-caps:normal;font-variant-numeric:normal;font-feature-settings:normal;text-align:start;writing-mode:lr-tb;text-anchor:start;fill:#d4aa00;stroke-width:1.10831046"
           id="path9206" />
        <path
           inkscape:connector-curvature="0"
           d="m -127.55564,88.019628 c 0,3.574344 0.0715,7.005714 0.14298,10.365598 0,0.214461 0.14297,0.357435 0.35743,0.357435 1.17953,0.07149 2.43055,0.10723 3.64583,0.10723 1.17953,0 2.00163,-0.03574 3.14542,-0.10723 0.0715,-3.574345 0.14298,-7.148689 0.14298,-10.723033 0,-3.574344 -0.0715,-7.005715 -0.14298,-10.365599 0,-0.178717 -0.17871,-0.357434 -0.35743,-0.357434 -1.21528,-0.03574 -2.4663,-0.07149 -3.68158,-0.07149 -1.17953,0 -2.00163,0.03574 -3.10967,0.07149 -0.10723,3.574344 -0.14298,7.148689 -0.14298,10.723033 z"
           style="font-style:normal;font-variant:normal;font-weight:500;font-stretch:normal;font-size:35.74344254px;font-family:Digitalt;-inkscape-font-specification:'Digitalt, Medium';font-variant-ligatures:normal;font-variant-caps:normal;font-variant-numeric:normal;font-feature-settings:normal;text-align:start;writing-mode:lr-tb;text-anchor:start;fill:#d4aa00;stroke-width:1.10831046"
           id="path9208" />
        <path
           inkscape:connector-curvature="0"
           d="m -117.50112,87.554963 c 0,3.574344 0.0715,7.470379 0.0715,10.830263 0,0.214461 0.14297,0.357435 0.35743,0.357435 1.21528,0.07149 2.43056,0.07149 3.64583,0.07149 1.03656,0 2.07312,0 3.14543,-0.07149 -0.0357,-2.787989 -0.14298,-5.861925 -0.17872,-8.792887 0.14297,0 0.32169,0 0.46466,0 0.71487,2.466297 1.71569,5.50449 2.71651,8.542682 0.0715,0.214461 0.35743,0.357435 0.53615,0.357435 0.96507,0.07149 1.93014,0.10723 2.89522,0.10723 1.25102,0 2.53778,-0.07149 3.71731,-0.21446 -0.60763,-2.680759 -1.42973,-5.254287 -2.82373,-8.042275 -0.50041,-0.822099 -1.17953,-1.393994 -2.00163,-1.679942 2.35907,-1.108047 3.82455,-3.109679 3.82455,-5.754694 0,-5.790438 -3.64583,-6.219359 -8.97161,-6.219359 -2.00163,0 -4.96834,0.250204 -7.3274,0.607638 0,3.574345 -0.0715,6.32659 -0.0715,9.900934 z m 7.04146,-2.001633 c 0,-1.14379 0,-2.18035 0,-3.21691 0.2502,-0.03574 0.57189,-0.03574 0.85784,-0.03574 1.28677,0 1.6442,0.607638 1.6442,1.715685 0,0.92933 -0.78636,1.536968 -1.8944,1.536968 z"
           style="font-style:normal;font-variant:normal;font-weight:500;font-stretch:normal;font-size:35.74344254px;font-family:Digitalt;-inkscape-font-specification:'Digitalt, Medium';font-variant-ligatures:normal;font-variant-caps:normal;font-variant-numeric:normal;font-feature-settings:normal;text-align:start;writing-mode:lr-tb;text-anchor:start;fill:#d4aa00;stroke-width:1.10831046"
           id="path9210" />
        <path
           inkscape:connector-curvature="0"
           d="m -100.11584,98.456713 c 0,0.178717 0.142974,0.285948 0.321691,0.285948 1.179534,0.07149 2.430555,0.10723 3.645832,0.10723 1.179533,0 1.822915,-0.03574 2.966705,-0.10723 0.250204,-1.286764 0.464665,-2.609272 0.679126,-3.931779 h 3.32414 c 0.178717,1.215277 0.393178,2.430554 0.643382,3.574344 0.03574,0.214461 0.214461,0.357435 0.393178,0.357435 1.25102,0.10723 2.28758,0.10723 3.502857,0.10723 1.215277,0 2.001633,-0.03574 3.10968,-0.10723 -1.03656,-6.934228 -2.716502,-14.225891 -4.074753,-21.088632 -0.03574,-0.178717 -0.214461,-0.357434 -0.393178,-0.357434 -1.715685,-0.03574 -3.395627,-0.07149 -5.111312,-0.07149 -1.679942,0 -3.32414,0 -4.932595,0.07149 -1.322507,6.612537 -2.823732,13.511021 -3.896035,20.052071 -0.07149,0.357435 -0.178718,1.03656 -0.178718,1.108047 z m 8.220992,-8.292479 c 0.285948,-2.680758 0.571895,-5.361516 0.893586,-8.006531 0.357435,2.680758 0.714869,5.361517 1.108047,8.006531 z"
           style="font-style:normal;font-variant:normal;font-weight:500;font-stretch:normal;font-size:35.74344254px;font-family:Digitalt;-inkscape-font-specification:'Digitalt, Medium';font-variant-ligatures:normal;font-variant-caps:normal;font-variant-numeric:normal;font-feature-settings:normal;text-align:start;writing-mode:lr-tb;text-anchor:start;fill:#d4aa00;stroke-width:1.10831046"
           id="path9212" />
        <path
           inkscape:connector-curvature="0"
           d="m -80.2235,88.019628 c 0,3.574344 0.07149,7.005714 0.142973,10.365598 0,0.214461 0.142974,0.357435 0.357435,0.357435 1.179533,0.07149 6.362333,0.178717 7.57761,0.178717 1.179533,0 4.146239,-0.03574 5.290029,-0.107231 0,-0.893586 0,-1.751428 0,-2.609271 0,-1.000816 0,-2.001633 0,-3.109679 -0.03574,-0.178718 -0.178717,-0.357435 -0.357434,-0.357435 -1.215277,-0.03574 -4.25347,-0.07149 -5.468747,-0.07149 h -0.142974 c 0,-1.501224 0.03574,-3.038192 0.03574,-4.646647 0,-3.574344 -0.07149,-7.005715 -0.142974,-10.365599 0,-0.178717 -0.178717,-0.357434 -0.357434,-0.357434 -1.215278,-0.03574 -2.466298,-0.07149 -3.681575,-0.07149 -1.179534,0 -2.001633,0.03574 -3.10968,0.07149 -0.10723,3.574344 -0.142973,7.148689 -0.142973,10.723033 z"
           style="font-style:normal;font-variant:normal;font-weight:500;font-stretch:normal;font-size:35.74344254px;font-family:Digitalt;-inkscape-font-specification:'Digitalt, Medium';font-variant-ligatures:normal;font-variant-caps:normal;font-variant-numeric:normal;font-feature-settings:normal;text-align:start;writing-mode:lr-tb;text-anchor:start;fill:#d4aa00;stroke-width:1.10831046"
           id="path9214" />
      </g>
      <g
         aria-label="ssembly"
         style="font-style:normal;font-variant:normal;font-weight:500;font-stretch:normal;font-size:35.74344254px;line-height:1.25;font-family:Digitalt;-inkscape-font-specification:'Digitalt, Medium';font-variant-ligatures:normal;font-variant-caps:normal;font-variant-numeric:normal;font-feature-settings:normal;text-align:start;letter-spacing:0px;word-spacing:0px;writing-mode:lr-tb;text-anchor:start;fill:#d4aa00;fill-opacity:1;stroke:none;stroke-width:0.6788376"
         id="text1456">
        <path
           inkscape:connector-curvature="0"
           d="m -165.30723,184.29283 c 2.4663,0.28595 5.11131,0.39318 7.54187,0.39318 4.82536,0 8.75714,-1.32251 8.75714,-7.00571 0,-4.96834 -4.43219,-6.29085 -7.39889,-7.18444 -1.46548,-0.42892 -2.57353,-0.75061 -2.57353,-1.39399 0,-0.64338 0.71487,-1.00082 1.82292,-1.00082 2.21609,0 4.75387,0.71487 6.43381,1.46548 l 0.8221,-5.96915 c -2.39481,-0.46466 -4.82536,-0.78636 -6.89848,-0.78636 -4.89685,0 -8.4712,0.42893 -8.4712,6.21936 0,5.50449 3.96753,6.64828 6.64828,7.3989 1.394,0.39317 2.43056,0.67912 2.43056,1.39399 0,0.5719 -0.5719,1.28676 -1.93015,1.28676 -1.60845,0 -3.82455,-0.46466 -6.32659,-1.25102 z"
           style="font-style:normal;font-variant:normal;font-weight:500;font-stretch:normal;font-size:35.74344254px;font-family:Digitalt;-inkscape-font-specification:'Digitalt, Medium';font-variant-ligatures:normal;font-variant-caps:normal;font-variant-numeric:normal;font-feature-settings:normal;text-align:start;writing-mode:lr-tb;text-anchor:start;fill:#d4aa00;stroke-width:0.6788376"
           id="path9217" />
        <path
           inkscape:connector-curvature="0"
           d="m -147.92419,184.29283 c 2.4663,0.28595 5.11131,0.39318 7.54187,0.39318 4.82536,0 8.75714,-1.32251 8.75714,-7.00571 0,-4.96834 -4.43219,-6.29085 -7.39889,-7.18444 -1.46548,-0.42892 -2.57353,-0.75061 -2.57353,-1.39399 0,-0.64338 0.71487,-1.00082 1.82292,-1.00082 2.21609,0 4.75387,0.71487 6.43382,1.46548 l 0.8221,-5.96915 c -2.39482,-0.46466 -4.82537,-0.78636 -6.89849,-0.78636 -4.89685,0 -8.47119,0.42893 -8.47119,6.21936 0,5.50449 3.96752,6.64828 6.64828,7.3989 1.39399,0.39317 2.43055,0.67912 2.43055,1.39399 0,0.5719 -0.5719,1.28676 -1.93015,1.28676 -1.60845,0 -3.82454,-0.46466 -6.32659,-1.25102 z"
           style="font-style:normal;font-variant:normal;font-weight:500;font-stretch:normal;font-size:35.74344254px;font-family:Digitalt;-inkscape-font-specification:'Digitalt, Medium';font-variant-ligatures:normal;font-variant-caps:normal;font-variant-numeric:normal;font-feature-settings:normal;text-align:start;writing-mode:lr-tb;text-anchor:start;fill:#d4aa00;stroke-width:0.6788376"
           id="path9219" />
        <path
           inkscape:connector-curvature="0"
           d="m -129.90279,173.78426 c 0,3.57435 0.0715,7.00572 0.14297,10.3656 0,0.21446 0.14298,0.35743 0.35744,0.35743 1.17953,0.0715 6.36233,0.17872 7.57761,0.17872 1.17953,0 5.00408,-0.0357 6.14787,-0.10723 0,-0.89359 0,-1.75143 0,-2.60927 0,-1.00082 0,-2.00163 0,-3.10968 -0.0357,-0.17872 -0.17872,-0.35743 -0.35744,-0.35743 -1.21527,-0.0358 -5.11131,-0.0715 -6.32658,-0.0715 h -0.46467 c 0,-0.60764 0,-1.21528 0,-1.85866 h 4.64665 c 0,-0.85784 0,-1.60846 0,-2.35907 0,-0.85784 0,-1.71568 0,-2.7165 -0.0358,-0.17872 -0.17872,-0.35743 -0.35744,-0.35743 -0.92933,0 -2.85947,-0.0358 -4.28921,-0.0358 0,-0.64338 0,-1.28676 0,-1.8944 0.60764,0 1.10805,0 1.39399,0 1.17954,0 4.53942,0 5.68321,-0.0715 0,-0.89358 0,-1.75143 0,-2.60927 0,-1.00081 0,-2.00163 0,-3.10968 -0.0357,-0.17871 -0.17872,-0.35743 -0.35743,-0.35743 -1.21528,-0.0358 -5.03983,-0.0715 -6.2551,-0.0715 -1.17954,0 -6.29085,0.0357 -7.3989,0.0715 -0.10723,3.57434 -0.14297,7.14869 -0.14297,10.72303 z"
           style="font-style:normal;font-variant:normal;font-weight:500;font-stretch:normal;font-size:35.74344254px;font-family:Digitalt;-inkscape-font-specification:'Digitalt, Medium';font-variant-ligatures:normal;font-variant-caps:normal;font-variant-numeric:normal;font-feature-settings:normal;text-align:start;writing-mode:lr-tb;text-anchor:start;fill:#d4aa00;stroke-width:0.6788376"
           id="path9221" />
        <path
           inkscape:connector-curvature="0"
           d="m -113.70654,173.78426 c 0,3.57435 0.0715,7.00572 0.14297,10.3656 0,0.21446 0.14297,0.35743 0.35743,0.35743 1.17954,0.0715 2.60928,0.10723 3.46712,0.10723 1.17953,0 1.82291,-0.0357 2.9667,-0.10723 l -0.14297,-9.68647 3.89604,7.8993 0.35743,0.0715 0.39318,-0.0715 4.07475,-8.29248 c 0,3.35989 0.142974,6.5768 0.214461,9.72222 0,0.21446 0.142974,0.35743 0.357434,0.35743 1.179534,0.0715 2.430554,0.10723 3.288397,0.10723 1.179533,0 1.751429,-0.0357 2.787988,-0.10723 0.07149,-3.57434 0.142974,-7.14868 0.142974,-10.72303 0,-3.57434 -0.07149,-7.00571 -0.142974,-10.3656 0,-0.17871 -0.178717,-0.32169 -0.357434,-0.35743 -1.000816,-0.0358 -2.108863,-0.0715 -3.32414,-0.0715 -1.000817,0 -1.858659,0.0357 -2.502041,0.10723 -0.178717,0 -0.321691,0.17872 -0.428921,0.32169 l -4.503674,9.18607 -4.46793,-9.18607 c -0.0715,-0.14297 -0.21446,-0.32169 -0.39318,-0.35743 -1.0723,-0.0358 -1.8944,-0.0715 -3.10968,-0.0715 -1.17953,0 -1.82291,0.0357 -2.93096,0.0715 -0.10723,3.57434 -0.14297,7.14869 -0.14297,10.72303 z"
           style="font-style:normal;font-variant:normal;font-weight:500;font-stretch:normal;font-size:35.74344254px;font-family:Digitalt;-inkscape-font-specification:'Digitalt, Medium';font-variant-ligatures:normal;font-variant-caps:normal;font-variant-numeric:normal;font-feature-settings:normal;text-align:start;writing-mode:lr-tb;text-anchor:start;fill:#d4aa00;stroke-width:0.6788376"
           id="path9223" />
        <path
           inkscape:connector-curvature="0"
           d="m -81.776479,170.92479 c 0,-1.10805 0,-2.03738 0.03574,-2.93097 0.07149,-0.0357 0.285948,-0.0357 0.428922,-0.0357 0.929329,0 1.858659,0.46466 1.858659,1.42974 0,1.00081 -0.965073,1.53697 -2.07312,1.53697 z m 0.03574,5.29003 h 0.893586 c 0.965073,0 1.644199,0.60763 1.644199,1.42973 0,0.92933 -0.536152,1.46548 -1.894403,1.46548 h -0.571895 c -0.03574,-0.96507 -0.07149,-1.93014 -0.07149,-2.89521 z m -7.041458,-2.89522 c 0,3.57434 0.07149,7.18443 0.07149,10.54431 0,0.21446 0.142974,0.39318 0.357435,0.42892 2.466297,0.28595 5.182799,0.39318 7.613353,0.39318 4.825365,0 8.685656,-0.96507 8.685656,-6.64828 0,-1.71568 -1.179533,-3.2884 -3.145423,-4.39644 1.286764,-1.10805 2.07312,-2.7165 2.07312,-4.61091 0,-5.79043 -3.645831,-6.21936 -8.61417,-6.21936 -2.001632,0 -4.610904,0.25021 -6.969971,0.60764 0,3.57435 -0.07149,6.32659 -0.07149,9.90094 z"
           style="font-style:normal;font-variant:normal;font-weight:500;font-stretch:normal;font-size:35.74344254px;font-family:Digitalt;-inkscape-font-specification:'Digitalt, Medium';font-variant-ligatures:normal;font-variant-caps:normal;font-variant-numeric:normal;font-feature-settings:normal;text-align:start;writing-mode:lr-tb;text-anchor:start;fill:#d4aa00;stroke-width:0.6788376"
           id="path9225" />
        <path
           inkscape:connector-curvature="0"
           d="m -70.423467,173.78426 c 0,3.57435 0.07149,7.00572 0.142974,10.3656 0,0.21446 0.142974,0.35743 0.357434,0.35743 1.179534,0.0715 6.362333,0.17872 7.57761,0.17872 1.179534,0 4.14624,-0.0357 5.29003,-0.10723 0,-0.89359 0,-1.75143 0,-2.60927 0,-1.00082 0,-2.00163 0,-3.10968 -0.03574,-0.17872 -0.178717,-0.35743 -0.357435,-0.35743 -1.215277,-0.0358 -4.253469,-0.0715 -5.468746,-0.0715 h -0.142974 c 0,-1.50123 0.03574,-3.03819 0.03574,-4.64665 0,-3.57434 -0.07149,-7.00571 -0.142973,-10.3656 0,-0.17871 -0.178718,-0.35743 -0.357435,-0.35743 -1.215277,-0.0358 -2.466297,-0.0715 -3.681574,-0.0715 -1.179534,0 -2.001633,0.0357 -3.10968,0.0715 -0.10723,3.57434 -0.142974,7.14869 -0.142974,10.72303 z"
           style="font-style:normal;font-variant:normal;font-weight:500;font-stretch:normal;font-size:35.74344254px;font-family:Digitalt;-inkscape-font-specification:'Digitalt, Medium';font-variant-ligatures:normal;font-variant-caps:normal;font-variant-numeric:normal;font-feature-settings:normal;text-align:start;writing-mode:lr-tb;text-anchor:start;fill:#d4aa00;stroke-width:0.6788376"
           id="path9227" />
        <path
           inkscape:connector-curvature="0"
           d="m -58.936419,163.2042 c 0.607639,2.7165 1.572712,6.36233 2.966706,9.11458 0.822099,1.39399 1.822916,2.50204 2.895219,3.35988 -0.03574,2.89522 -0.03574,5.71895 -0.03574,8.4712 0,0.21446 0.142974,0.35743 0.357435,0.35743 1.179533,0.0715 2.502041,0.10723 3.717318,0.10723 1.179533,0 2.073119,-0.0357 3.21691,-0.10723 -0.03574,-2.93096 -0.07149,-5.86192 -0.107231,-8.82863 1.072304,-0.85784 2.07312,-1.96589 2.895219,-3.35988 1.393994,-2.75225 2.359067,-6.39808 2.966706,-9.11458 -1.179534,-0.14297 -2.466298,-0.21446 -3.717318,-0.21446 -0.965073,0 -1.930146,0.0357 -2.895219,0.10723 -0.178717,0 -0.464665,0.14298 -0.536152,0.35744 -0.786355,2.39481 -1.644198,5.36151 -2.28758,7.79207 -0.679125,-2.43056 -1.501225,-5.39726 -2.28758,-7.79207 -0.07149,-0.21446 -0.357435,-0.35744 -0.536152,-0.35744 -0.965073,-0.0715 -1.930146,-0.10723 -2.895219,-0.10723 -1.286764,0 -2.537784,0.0715 -3.717318,0.21446 z"
           style="font-style:normal;font-variant:normal;font-weight:500;font-stretch:normal;font-size:35.74344254px;font-family:Digitalt;-inkscape-font-specification:'Digitalt, Medium';font-variant-ligatures:normal;font-variant-caps:normal;font-variant-numeric:normal;font-feature-settings:normal;text-align:start;writing-mode:lr-tb;text-anchor:start;fill:#d4aa00;stroke-width:0.6788376"
           id="path9229" />
      </g>
      <path
         inkscape:connector-curvature="0"
         transform="matrix(0.80692385,0.19772374,-0.16276127,0.98025778,36.307915,25.845647)"
         style="fill:#ffcc00;fill-opacity:1;stroke:none;stroke-width:2.02119303;stroke-miterlimit:4;stroke-dasharray:none;stroke-dashoffset:0;stroke-opacity:1"
         inkscape:transform-center-x="-0.034121195"
         inkscape:transform-center-y="-4.2099267"
         d="m -89.9525,57.149469 -28.33382,-8.393467 -22.97722,18.582342 -0.77297,-29.540792 -24.77321,-16.11037 27.8561,-9.863747 7.66653,-28.539098 17.98899,23.4446619 29.511387,-1.5277631 -16.738297,24.3533442 z"
         id="path1460" />
    </g>
  </g>
</svg>
