<?xml version="1.0" encoding="UTF-8" standalone="no"?>
<!-- Created with Inkscape (http://www.inkscape.org/) -->

<svg
   xmlns:dc="http://purl.org/dc/elements/1.1/"
   xmlns:cc="http://creativecommons.org/ns#"
   xmlns:rdf="http://www.w3.org/1999/02/22-rdf-syntax-ns#"
   xmlns:svg="http://www.w3.org/2000/svg"
   xmlns="http://www.w3.org/2000/svg"
   xmlns:sodipodi="http://sodipodi.sourceforge.net/DTD/sodipodi-0.dtd"
   xmlns:inkscape="http://www.inkscape.org/namespaces/inkscape"
   width="75.637878mm"
   height="30.546619mm"
   viewBox="0 0 75.637878 30.546619"
   version="1.1"
   id="svg2918"
   inkscape:version="0.92.4 (5da689c313, 2019-01-14)"
   sodipodi:docname="faypoe.svg">
  <defs
     id="defs2912" />
  <sodipodi:namedview
     id="base"
     pagecolor="#ffffff"
     bordercolor="#666666"
     borderopacity="1.0"
     inkscape:pageopacity="0.0"
     inkscape:pageshadow="2"
     inkscape:zoom="0.35"
     inkscape:cx="-417.06228"
     inkscape:cy="57.725892"
     inkscape:document-units="mm"
     inkscape:current-layer="layer1"
     showgrid="false"
     inkscape:window-width="1920"
     inkscape:window-height="1043"
     inkscape:window-x="0"
     inkscape:window-y="1098"
     inkscape:window-maximized="0" />
  <metadata
     id="metadata2915">
    <rdf:RDF>
      <cc:Work
         rdf:about="">
        <dc:format>image/svg+xml</dc:format>
        <dc:type
           rdf:resource="http://purl.org/dc/dcmitype/StillImage" />
        <dc:title></dc:title>
      </cc:Work>
    </rdf:RDF>
  </metadata>
  <g
     inkscape:label="Layer 1"
     inkscape:groupmode="layer"
     id="layer1"
     transform="translate(-68.014395,-133.56002)">
    <g
       id="g2837"
       transform="matrix(0.24795704,0,0,0.24795704,509.35871,52.08744)">
      <g
         aria-label="Fay"
         style="font-style:normal;font-variant:normal;font-weight:normal;font-stretch:condensed;font-size:83.04125214px;line-height:1.25;font-family:Impact;-inkscape-font-specification:'Impact, Condensed';font-variant-ligatures:normal;font-variant-caps:normal;font-variant-numeric:normal;font-feature-settings:normal;text-align:start;letter-spacing:0px;word-spacing:0px;writing-mode:lr-tb;text-anchor:start;fill:#5fd35f;fill-opacity:1;stroke:none;stroke-width:2.07609367"
         id="text2336">
        <path
           inkscape:connector-curvature="0"
           d="m -1710.047,338.71943 h 28.9103 v 13.13739 h -11.8398 v 12.44808 h 10.5423 v 12.48862 h -10.5423 v 27.57229 h -17.0705 z"
           style="font-style:normal;font-variant:normal;font-weight:normal;font-stretch:condensed;font-size:83.04125214px;font-family:Impact;-inkscape-font-specification:'Impact, Condensed';font-variant-ligatures:normal;font-variant-caps:normal;font-variant-numeric:normal;font-feature-settings:normal;text-align:start;writing-mode:lr-tb;text-anchor:start;fill:#5fd35f;stroke-width:2.07609367"
           id="path9691" />
        <path
           inkscape:connector-curvature="0"
           d="m -1662.8092,371.40071 h -15.3675 v -3.60873 q 0,-6.24431 1.4192,-9.60975 1.4597,-3.40599 5.7983,-6.00103 4.3385,-2.59504 11.2722,-2.59504 8.3122,0 12.5291,2.95997 4.217,2.91942 5.0685,7.21745 0.8515,4.25749 0.8515,17.59761 v 27.00462 h -15.9352 v -4.7846 q -1.5002,2.87887 -3.8925,4.33858 -2.3518,1.41916 -5.6361,1.41916 -4.2981,0 -7.9068,-2.3923 -3.5682,-2.43285 -3.5682,-10.58289 v -4.41968 q 0,-6.04157 1.9057,-8.23114 1.9058,-2.18956 9.4476,-5.10898 8.069,-3.1627 8.6366,-4.25749 0.5677,-1.09478 0.5677,-4.46022 0,-4.21694 -0.6488,-5.47391 -0.6082,-1.29752 -2.0679,-1.29752 -1.6624,0 -2.0679,1.09478 -0.4055,1.05424 -0.4055,5.55501 z m 5.1901,7.37964 q -3.9331,2.87887 -4.5819,4.82515 -0.6082,1.94628 -0.6082,5.59555 0,4.1764 0.5271,5.39282 0.5677,1.21642 2.1896,1.21642 1.5408,0 1.9868,-0.93259 0.4866,-0.97314 0.4866,-5.02789 z"
           style="font-style:normal;font-variant:normal;font-weight:normal;font-stretch:condensed;font-size:83.04125214px;font-family:Impact;-inkscape-font-specification:'Impact, Condensed';font-variant-ligatures:normal;font-variant-caps:normal;font-variant-numeric:normal;font-feature-settings:normal;text-align:start;writing-mode:lr-tb;text-anchor:start;fill:#5fd35f;stroke-width:2.07609367"
           id="path9693" />
        <path
           inkscape:connector-curvature="0"
           d="m -1601.2987,350.5593 -4.7035,38.92559 q -1.0947,9.24482 -1.8651,12.61026 -0.7299,3.36545 -2.4734,5.55501 -1.7436,2.18956 -4.8657,3.20325 -3.0817,1.05424 -9.8936,1.05424 h -9.9342 v -8.59607 q 3.8115,0 4.9063,-0.36493 1.0948,-0.40547 1.0948,-1.74354 0,-0.64876 -1.0137,-5.6361 l -8.961,-45.00771 h 14.8809 l 5.3523,36.29 2.595,-36.29 z"
           style="font-style:normal;font-variant:normal;font-weight:normal;font-stretch:condensed;font-size:83.04125214px;font-family:Impact;-inkscape-font-specification:'Impact, Condensed';font-variant-ligatures:normal;font-variant-caps:normal;font-variant-numeric:normal;font-feature-settings:normal;text-align:start;writing-mode:lr-tb;text-anchor:start;fill:#5fd35f;stroke-width:2.07609367"
           id="path9695" />
      </g>
      <g
         aria-label="Poe"
         style="font-style:normal;font-variant:normal;font-weight:normal;font-stretch:condensed;font-size:86.81022644px;line-height:1.25;font-family:Impact;-inkscape-font-specification:'Impact, Condensed';font-variant-ligatures:normal;font-variant-caps:normal;font-variant-numeric:normal;font-feature-settings:normal;text-align:start;letter-spacing:0px;word-spacing:0px;writing-mode:lr-tb;text-anchor:start;fill:#165016;fill-opacity:1;stroke:none;stroke-width:2.17025685"
         id="text2340">
        <path
           inkscape:connector-curvature="0"
           d="m -1601.1515,378.40408 h 17.9725 q 7.2907,0 11.1904,1.14447 3.942,1.14447 5.8919,3.30625 1.9922,2.16178 2.6704,5.25609 0.7206,3.05192 0.7206,9.49487 v 5.97668 q 0,6.57011 -1.3564,9.57964 -1.3564,3.00954 -5.0018,4.62027 -3.603,1.61074 -9.4525,1.61074 h -4.7898 v 27.63685 h -17.8453 z m 17.8453,11.74142 v 17.46378 q 0.763,0.0424 1.314,0.0424 2.4585,0 3.3911,-1.18686 0.9749,-1.22925 0.9749,-5.04415 v -5.63758 q 0,-3.51819 -1.1021,-4.57788 -1.1021,-1.0597 -4.5779,-1.0597 z"
           style="font-style:normal;font-variant:normal;font-weight:normal;font-stretch:condensed;font-size:86.81022644px;font-family:Impact;-inkscape-font-specification:'Impact, Condensed';font-variant-ligatures:normal;font-variant-caps:normal;font-variant-numeric:normal;font-feature-settings:normal;text-align:start;writing-mode:lr-tb;text-anchor:start;fill:#165016;stroke-width:2.17025685"
           id="path9698" />
        <path
           inkscape:connector-curvature="0"
           d="m -1519.343,410.53404 v 13.77603 q 0,7.58742 -0.763,11.148 -0.763,3.51818 -3.2638,6.61249 -2.5009,3.05193 -6.443,4.5355 -3.8997,1.44119 -8.9862,1.44119 -5.68,0 -9.622,-1.22925 -3.9421,-1.27164 -6.1463,-3.77252 -2.1617,-2.54326 -3.0943,-6.10384 -0.9325,-3.60296 -0.9325,-10.7665 v -14.41186 q 0,-7.84174 1.6955,-12.25007 1.6955,-4.40833 6.1039,-7.07877 4.4083,-2.67043 11.2751,-2.67043 5.7648,0 9.8764,1.7379 4.154,1.69551 6.4005,4.45072 2.2466,2.75521 3.0519,5.67997 0.8478,2.92476 0.8478,8.90144 z m -17.1247,-4.23878 q 0,-4.32356 -0.4662,-5.42564 -0.4663,-1.14447 -1.9923,-1.14447 -1.5259,0 -2.0346,1.14447 -0.5086,1.10208 -0.5086,5.42564 v 25.39029 q 0,3.98446 0.5086,5.2137 0.5087,1.18686 1.9923,1.18686 1.5259,0 1.9922,-1.10208 0.5086,-1.10209 0.5086,-4.74744 z"
           style="font-style:normal;font-variant:normal;font-weight:normal;font-stretch:condensed;font-size:86.81022644px;font-family:Impact;-inkscape-font-specification:'Impact, Condensed';font-variant-ligatures:normal;font-variant-caps:normal;font-variant-numeric:normal;font-feature-settings:normal;text-align:start;writing-mode:lr-tb;text-anchor:start;fill:#165016;stroke-width:2.17025685"
           id="path9700" />
        <path
           inkscape:connector-curvature="0"
           d="m -1474.8782,419.90174 h -22.1688 v 12.1653 q 0,3.8149 0.551,4.91699 0.5511,1.10208 2.1194,1.10208 1.9499,0 2.5857,-1.44118 0.6782,-1.48358 0.6782,-5.67997 v -7.41787 h 16.2345 v 4.15401 q 0,5.2137 -0.6782,8.01129 -0.6358,2.7976 -3.0519,5.97668 -2.4161,3.17909 -6.1462,4.78983 -3.6878,1.56835 -9.283,1.56835 -5.4256,0 -9.5796,-1.56835 -4.154,-1.56835 -6.4854,-4.28117 -2.2889,-2.75521 -3.179,-6.01907 -0.8902,-3.30625 -0.8902,-9.57964 v -16.40409 q 0,-7.37547 1.9922,-11.61425 1.9923,-4.28117 6.5278,-6.52773 4.5355,-2.28894 10.4274,-2.28894 7.2059,0 11.8686,2.75521 4.705,2.71282 6.5701,7.24831 1.9074,4.49311 1.9074,12.67396 z m -17.167,-9.15576 v -4.11162 q 0,-4.36595 -0.4663,-5.63758 -0.4663,-1.27163 -1.9075,-1.27163 -1.7803,0 -2.2041,1.10208 -0.4239,1.05969 -0.4239,5.80713 v 4.11162 z"
           style="font-style:normal;font-variant:normal;font-weight:normal;font-stretch:condensed;font-size:86.81022644px;font-family:Impact;-inkscape-font-specification:'Impact, Condensed';font-variant-ligatures:normal;font-variant-caps:normal;font-variant-numeric:normal;font-feature-settings:normal;text-align:start;writing-mode:lr-tb;text-anchor:start;fill:#165016;stroke-width:2.17025685"
           id="path9702" />
      </g>
      <g
         aria-label="P"
         style="font-style:normal;font-variant:normal;font-weight:normal;font-stretch:condensed;font-size:130.83305359px;line-height:1.25;font-family:Impact;-inkscape-font-specification:'Impact, Condensed';font-variant-ligatures:normal;font-variant-caps:normal;font-variant-numeric:normal;font-feature-settings:normal;text-align:start;letter-spacing:0px;word-spacing:0px;writing-mode:lr-tb;text-anchor:start;fill:#165016;fill-opacity:1;stroke:none;stroke-width:3.2708261"
         id="text2354">
        <path
           inkscape:connector-curvature="0"
           d="m -1767.6045,348.34148 h 27.0865 q 10.988,0 16.8652,1.72485 5.9412,1.72485 8.8798,4.9829 3.0025,3.25805 4.0247,7.92153 1.086,4.5996 1.086,14.30987 v 9.00755 q 0,9.90191 -2.0443,14.43763 -2.0443,4.53571 -7.5382,6.96328 -5.4301,2.42757 -14.246,2.42757 h -7.2188 v 41.65193 h -26.8949 z m 26.8949,17.69568 v 26.31993 q 1.1499,0.0639 1.9804,0.0639 3.7052,0 5.1106,-1.78873 1.4693,-1.85262 1.4693,-7.60211 v -8.49649 q 0,-5.30231 -1.6609,-6.8994 -1.661,-1.59708 -6.8994,-1.59708 z"
           style="font-style:normal;font-variant:normal;font-weight:normal;font-stretch:condensed;font-size:130.83305359px;font-family:Impact;-inkscape-font-specification:'Impact, Condensed';font-variant-ligatures:normal;font-variant-caps:normal;font-variant-numeric:normal;font-feature-settings:normal;text-align:start;writing-mode:lr-tb;text-anchor:start;fill:#165016;stroke-width:3.2708261"
           id="path9705" />
      </g>
      <g
         aria-label="F"
         style="font-style:normal;font-variant:normal;font-weight:normal;font-stretch:condensed;font-size:130.83305359px;line-height:1.25;font-family:Impact;-inkscape-font-specification:'Impact, Condensed';font-variant-ligatures:normal;font-variant-caps:normal;font-variant-numeric:normal;font-feature-settings:normal;text-align:start;letter-spacing:0px;word-spacing:0px;writing-mode:lr-tb;text-anchor:start;fill:#5fd35f;fill-opacity:1;stroke:none;stroke-width:3.2708261"
         id="text2358">
        <path
           inkscape:connector-curvature="0"
           d="m -1779.9225,328.5754 h 45.5488 v 20.69819 h -18.6539 v 19.61219 h 16.6096 v 19.67606 h -16.6096 v 43.44066 h -26.8949 z"
           style="font-style:normal;font-variant:normal;font-weight:normal;font-stretch:condensed;font-size:130.83305359px;font-family:Impact;-inkscape-font-specification:'Impact, Condensed';font-variant-ligatures:normal;font-variant-caps:normal;font-variant-numeric:normal;font-feature-settings:normal;text-align:start;writing-mode:lr-tb;text-anchor:start;fill:#5fd35f;stroke-width:3.2708261"
           id="path9708" />
      </g>
    </g>
  </g>
</svg>
