<?xml version="1.0" encoding="UTF-8" standalone="no"?>
<!-- Created with Inkscape (http://www.inkscape.org/) -->

<svg
   xmlns:dc="http://purl.org/dc/elements/1.1/"
   xmlns:cc="http://creativecommons.org/ns#"
   xmlns:rdf="http://www.w3.org/1999/02/22-rdf-syntax-ns#"
   xmlns:svg="http://www.w3.org/2000/svg"
   xmlns="http://www.w3.org/2000/svg"
   xmlns:sodipodi="http://sodipodi.sourceforge.net/DTD/sodipodi-0.dtd"
   xmlns:inkscape="http://www.inkscape.org/namespaces/inkscape"
   width="118.49628mm"
   height="39.981483mm"
   viewBox="0 0 118.49628 39.981483"
   version="1.1"
   id="svg4214"
   inkscape:version="0.92.4 (5da689c313, 2019-01-14)"
   sodipodi:docname="ganymede_gas.svg">
  <defs
     id="defs4208" />
  <sodipodi:namedview
     id="base"
     pagecolor="#ffffff"
     bordercolor="#666666"
     borderopacity="1.0"
     inkscape:pageopacity="0.0"
     inkscape:pageshadow="2"
     inkscape:zoom="0.35"
     inkscape:cx="-816.07003"
     inkscape:cy="144.12699"
     inkscape:document-units="mm"
     inkscape:current-layer="layer1"
     showgrid="false"
     inkscape:window-width="1920"
     inkscape:window-height="1043"
     inkscape:window-x="0"
     inkscape:window-y="1098"
     inkscape:window-maximized="0" />
  <metadata
     id="metadata4211">
    <rdf:RDF>
      <cc:Work
         rdf:about="">
        <dc:format>image/svg+xml</dc:format>
        <dc:type
           rdf:resource="http://purl.org/dc/dcmitype/StillImage" />
        <dc:title></dc:title>
      </cc:Work>
    </rdf:RDF>
  </metadata>
  <g
     inkscape:label="Layer 1"
     inkscape:groupmode="layer"
     id="layer1"
     transform="translate(-173.58519,-146.98545)">
    <g
       id="g2123"
       transform="matrix(0.33770181,0,0,0.33770181,522.45092,-64.653035)"
       inkscape:export-filename="/home/flyc0r/nuulogos3.png"
       inkscape:export-xdpi="64.722214"
       inkscape:export-ydpi="64.722214">
      <path
         inkscape:connector-curvature="0"
         style="opacity:1;fill:#00ff00;fill-opacity:1;stroke:#2c2a15;stroke-width:5;stroke-miterlimit:4;stroke-dasharray:none;stroke-dashoffset:0;stroke-opacity:1"
         d="m -684.66823,685.89868 a 172.94511,56.69643 0 0 1 -172.94511,56.69643 172.94511,56.69643 0 0 1 -172.94516,-56.69643 172.94511,56.69643 0 0 1 172.94516,-56.69643 172.94511,56.69643 0 0 1 172.94511,56.69643 z"
         id="path2114" />
      <g
         aria-label="Ganymede Gas  "
         style="font-style:normal;font-variant:normal;font-weight:normal;font-stretch:normal;font-size:49.85261154px;line-height:1.25;font-family:'Ubuntu Condensed';-inkscape-font-specification:'Ubuntu Condensed, Normal';font-variant-ligatures:normal;font-variant-caps:normal;font-variant-numeric:normal;font-feature-settings:normal;text-align:center;letter-spacing:0px;word-spacing:0px;writing-mode:lr-tb;text-anchor:middle;fill:#000000;fill-opacity:1;stroke:#decd11;stroke-width:0.84600002;stroke-miterlimit:4;stroke-dasharray:none;stroke-opacity:1"
         id="text4530">
        <path
           inkscape:connector-curvature="0"
           d="m -988.32181,674.10721 q 0,-4.88556 0.89734,-8.32539 0.89735,-3.43983 2.54249,-5.58349 1.69499,-2.19351 4.03806,-3.14071 2.39292,-0.99705 5.33423,-0.99705 2.24337,0 4.08791,0.64808 1.84455,0.59823 2.99116,1.39587 l -1.39587,3.73895 q -1.14661,-0.79764 -2.49263,-1.29617 -1.34603,-0.54838 -3.09087,-0.54838 -4.33717,0 -6.23157,3.53954 -1.8944,3.48968 -1.8944,10.56875 0,3.7888 0.54838,6.48084 0.59823,2.69204 1.64513,4.38703 1.04691,1.69499 2.54249,2.49263 1.49557,0.79764 3.34012,0.79764 1.54543,0 2.64219,-0.34897 v -13.51005 h 4.48673 v 16.25195 q -1.34602,0.64808 -3.34012,1.09676 -1.99411,0.44867 -4.18762,0.44867 -2.69204,0 -4.98526,-1.04691 -2.29322,-1.09675 -3.98821,-3.29027 -1.64514,-2.24337 -2.59234,-5.63334 -0.89734,-3.43983 -0.89734,-8.12598 z"
           style="font-style:normal;font-variant:normal;font-weight:normal;font-stretch:normal;font-size:49.85261154px;font-family:'Ubuntu Condensed';-inkscape-font-specification:'Ubuntu Condensed, Normal';font-variant-ligatures:normal;font-variant-caps:normal;font-variant-numeric:normal;font-feature-settings:normal;text-align:center;writing-mode:lr-tb;text-anchor:middle;stroke:#decd11;stroke-width:0.84600002;stroke-miterlimit:4;stroke-dasharray:none;stroke-opacity:1"
           id="path9341" />
        <path
           inkscape:connector-curvature="0"
           d="m -960.58429,665.78182 q 1.29617,-0.54837 2.7419,-0.84749 1.44572,-0.34897 3.14071,-0.34897 3.48968,0 5.6832,2.19352 2.19351,2.14366 2.19351,6.7301 v 17.34871 q -1.79469,0.49852 -3.68909,0.79764 -1.84455,0.29912 -3.63924,0.29912 -1.79469,0 -3.38998,-0.44868 -1.54543,-0.44867 -2.74189,-1.44572 -1.14661,-0.99706 -1.84455,-2.49263 -0.69794,-1.54544 -0.69794,-3.73895 0,-2.04396 0.59824,-3.53954 0.64808,-1.54543 1.74484,-2.54248 1.09676,-1.0469 2.59233,-1.54543 1.49558,-0.54838 3.24042,-0.54838 1.64514,0 3.63924,0.39882 v -2.39292 q 0,-2.89145 -1.14661,-4.03806 -1.09675,-1.14661 -3.19056,-1.14661 -1.14661,0 -2.19352,0.24926 -0.99705,0.19941 -2.14366,0.69794 z m 2.04396,17.9968 q 0,2.29322 1.19646,3.38997 1.19646,1.09676 3.38998,1.09676 1.34602,0 2.9413,-0.34897 V 679.591 q -1.49557,-0.39882 -2.9413,-0.39882 -0.9472,0 -1.79469,0.24926 -0.8475,0.19941 -1.49558,0.74779 -0.59823,0.49853 -0.9472,1.39587 -0.34897,0.8475 -0.34897,2.19352 z"
           style="font-style:normal;font-variant:normal;font-weight:normal;font-stretch:normal;font-size:49.85261154px;font-family:'Ubuntu Condensed';-inkscape-font-specification:'Ubuntu Condensed, Normal';font-variant-ligatures:normal;font-variant-caps:normal;font-variant-numeric:normal;font-feature-settings:normal;text-align:center;writing-mode:lr-tb;text-anchor:middle;stroke:#decd11;stroke-width:0.84600002;stroke-miterlimit:4;stroke-dasharray:none;stroke-opacity:1"
           id="path9343" />
        <path
           inkscape:connector-curvature="0"
           d="m -939.36733,665.98124 q 1.84455,-0.54838 3.98821,-0.89735 2.14366,-0.39882 3.93836,-0.39882 1.94425,0 3.53953,0.54838 1.59529,0.49852 2.69205,1.74484 1.14661,1.24631 1.74484,3.38997 0.64808,2.09381 0.64808,5.23453 v 15.80328 h -4.28732 v -15.45431 q 0,-3.88851 -0.99706,-5.6832 -0.99705,-1.79469 -3.73894,-1.79469 -1.44573,0 -3.24042,0.49852 v 22.43368 h -4.28733 z"
           style="font-style:normal;font-variant:normal;font-weight:normal;font-stretch:normal;font-size:49.85261154px;font-family:'Ubuntu Condensed';-inkscape-font-specification:'Ubuntu Condensed, Normal';font-variant-ligatures:normal;font-variant-caps:normal;font-variant-numeric:normal;font-feature-settings:normal;text-align:center;writing-mode:lr-tb;text-anchor:middle;stroke:#decd11;stroke-width:0.84600002;stroke-miterlimit:4;stroke-dasharray:none;stroke-opacity:1"
           id="path9345" />
        <path
           inkscape:connector-curvature="0"
           d="m -909.96675,685.97213 q 1.44572,-4.98526 2.64219,-10.02037 1.19646,-5.03512 2.29322,-10.71831 h 4.23747 q -0.74779,3.63924 -1.64514,7.17877 -0.84749,3.53954 -1.79469,6.82981 -0.89735,3.29027 -1.84455,6.23158 -0.89735,2.89145 -1.69499,5.28437 -0.9472,2.79175 -1.84454,4.68615 -0.8475,1.94425 -1.8944,3.09086 -0.99706,1.19646 -2.19352,1.69499 -1.19646,0.54838 -2.8416,0.54838 -0.89734,0 -1.79469,-0.24927 -0.89735,-0.19941 -1.49558,-0.44867 l 0.79764,-3.48968 q 1.29617,0.54838 2.44278,0.54838 1.44573,0 2.34307,-1.04691 0.89735,-1.0469 1.74484,-3.14071 l 0.49853,-1.24632 q -0.9472,-2.59233 -1.94425,-5.73305 -0.9472,-3.19056 -1.8944,-6.6304 -0.89735,-3.43983 -1.74484,-7.02921 -0.8475,-3.63924 -1.54543,-7.07907 h 4.53658 q 0.39883,2.34307 0.9472,5.13481 0.54838,2.79175 1.14661,5.5835 0.64809,2.79174 1.29617,5.43393 0.64809,2.59234 1.24632,4.58644 z"
           style="font-style:normal;font-variant:normal;font-weight:normal;font-stretch:normal;font-size:49.85261154px;font-family:'Ubuntu Condensed';-inkscape-font-specification:'Ubuntu Condensed, Normal';font-variant-ligatures:normal;font-variant-caps:normal;font-variant-numeric:normal;font-feature-settings:normal;text-align:center;writing-mode:lr-tb;text-anchor:middle;stroke:#decd11;stroke-width:0.84600002;stroke-miterlimit:4;stroke-dasharray:none;stroke-opacity:1"
           id="path9347" />
        <path
           inkscape:connector-curvature="0"
           d="m -896.23313,665.98124 q 1.74484,-0.54838 3.7888,-0.89735 2.04395,-0.39882 3.73894,-0.39882 1.74484,0 3.14072,0.44867 1.44572,0.44867 2.54248,1.49558 1.29617,-0.8475 2.79175,-1.39587 1.49557,-0.54838 3.29027,-0.54838 1.79469,0 3.24042,0.54838 1.49558,0.49852 2.54248,1.74484 1.04691,1.24631 1.64514,3.38997 0.59823,2.09381 0.59823,5.23453 v 15.80328 h -4.28733 v -15.45431 q 0,-3.88851 -0.89734,-5.6832 -0.89735,-1.79469 -3.38998,-1.79469 -0.9472,0 -1.94425,0.34896 -0.9472,0.34897 -1.7947,0.9472 0.39882,1.14661 0.59823,2.59234 0.19941,1.44573 0.19941,3.24042 v 15.80328 h -4.28732 v -15.45431 q 0,-3.88851 -0.89735,-5.6832 -0.89734,-1.79469 -3.38997,-1.79469 -1.29617,0 -2.94131,0.49852 v 22.43368 h -4.28732 z"
           style="font-style:normal;font-variant:normal;font-weight:normal;font-stretch:normal;font-size:49.85261154px;font-family:'Ubuntu Condensed';-inkscape-font-specification:'Ubuntu Condensed, Normal';font-variant-ligatures:normal;font-variant-caps:normal;font-variant-numeric:normal;font-feature-settings:normal;text-align:center;writing-mode:lr-tb;text-anchor:middle;stroke:#decd11;stroke-width:0.84600002;stroke-miterlimit:4;stroke-dasharray:none;stroke-opacity:1"
           id="path9349" />
        <path
           inkscape:connector-curvature="0"
           d="m -858.53132,679.591 q 0.0499,1.8944 0.34897,3.48968 0.29912,1.54543 0.9472,2.74189 0.69794,1.14661 1.7947,1.7947 1.14661,0.64808 2.89145,0.64808 1.44572,0 2.64219,-0.39882 1.24631,-0.44867 1.79469,-0.74779 l 0.79764,3.43983 q -0.64808,0.44868 -2.19351,0.9472 -1.49558,0.54838 -3.58939,0.54838 -2.74189,0 -4.63629,-0.99705 -1.84455,-0.99705 -3.04101,-2.79175 -1.14661,-1.79469 -1.64514,-4.28732 -0.49853,-2.49263 -0.49853,-5.48379 0,-7.22863 2.39293,-10.56875 2.39293,-3.34013 6.33128,-3.34013 4.43688,0 6.28143,3.34013 1.84455,3.34012 1.84455,9.37229 0,0.54838 0,1.14661 0,0.54838 -0.0499,1.14661 z m 4.33718,-11.3664 q -2.14366,0 -3.14071,2.14366 -0.9472,2.14367 -1.14661,5.73306 h 7.92656 q 0,-3.63925 -0.74779,-5.73306 -0.74779,-2.14366 -2.89145,-2.14366 z"
           style="font-style:normal;font-variant:normal;font-weight:normal;font-stretch:normal;font-size:49.85261154px;font-family:'Ubuntu Condensed';-inkscape-font-specification:'Ubuntu Condensed, Normal';font-variant-ligatures:normal;font-variant-caps:normal;font-variant-numeric:normal;font-feature-settings:normal;text-align:center;writing-mode:lr-tb;text-anchor:middle;stroke:#decd11;stroke-width:0.84600002;stroke-miterlimit:4;stroke-dasharray:none;stroke-opacity:1"
           id="path9351" />
        <path
           inkscape:connector-curvature="0"
           d="m -828.49279,669.1718 q -1.44572,-0.79764 -3.09086,-0.79764 -1.24631,0 -2.19351,0.49853 -0.9472,0.49852 -1.64514,1.64513 -0.64808,1.14661 -0.99705,3.04101 -0.34897,1.8944 -0.34897,4.68615 0,5.38408 1.39587,7.72715 1.44573,2.29322 4.33718,2.29322 0.54838,0 1.19646,-0.0498 0.64809,-0.0997 1.34602,-0.29912 z m 0,-15.70357 4.28733,-0.74779 v 37.98769 q -1.39588,0.59823 -3.19057,0.9472 -1.79469,0.39882 -3.63924,0.39882 -5.38408,0 -7.82686,-3.43983 -2.39293,-3.43983 -2.39293,-10.36934 0,-3.14072 0.49853,-5.63335 0.54838,-2.54248 1.64514,-4.28732 1.14661,-1.7947 2.89145,-2.7419 1.74484,-0.99705 4.13776,-0.99705 1.14661,0 1.94426,0.24926 0.84749,0.19942 1.64513,0.59824 z"
           style="font-style:normal;font-variant:normal;font-weight:normal;font-stretch:normal;font-size:49.85261154px;font-family:'Ubuntu Condensed';-inkscape-font-specification:'Ubuntu Condensed, Normal';font-variant-ligatures:normal;font-variant-caps:normal;font-variant-numeric:normal;font-feature-settings:normal;text-align:center;writing-mode:lr-tb;text-anchor:middle;stroke:#decd11;stroke-width:0.84600002;stroke-miterlimit:4;stroke-dasharray:none;stroke-opacity:1"
           id="path9353" />
        <path
           inkscape:connector-curvature="0"
           d="m -813.54713,679.591 q 0.0498,1.8944 0.34897,3.48968 0.29911,1.54543 0.9472,2.74189 0.69793,1.14661 1.79469,1.7947 1.14661,0.64808 2.89145,0.64808 1.44573,0 2.64219,-0.39882 1.24632,-0.44867 1.79469,-0.74779 l 0.79765,3.43983 q -0.64809,0.44868 -2.19352,0.9472 -1.49558,0.54838 -3.58939,0.54838 -2.74189,0 -4.63629,-0.99705 -1.84455,-0.99705 -3.04101,-2.79175 -1.14661,-1.79469 -1.64514,-4.28732 -0.49852,-2.49263 -0.49852,-5.48379 0,-7.22863 2.39292,-10.56875 2.39293,-3.34013 6.33129,-3.34013 4.43688,0 6.28142,3.34013 1.84455,3.34012 1.84455,9.37229 0,0.54838 0,1.14661 0,0.54838 -0.0498,1.14661 z m 4.33718,-11.3664 q -2.14367,0 -3.14072,2.14366 -0.9472,2.14367 -1.14661,5.73306 h 7.92657 q 0,-3.63925 -0.74779,-5.73306 -0.74779,-2.14366 -2.89145,-2.14366 z"
           style="font-style:normal;font-variant:normal;font-weight:normal;font-stretch:normal;font-size:49.85261154px;font-family:'Ubuntu Condensed';-inkscape-font-specification:'Ubuntu Condensed, Normal';font-variant-ligatures:normal;font-variant-caps:normal;font-variant-numeric:normal;font-feature-settings:normal;text-align:center;writing-mode:lr-tb;text-anchor:middle;stroke:#decd11;stroke-width:0.84600002;stroke-miterlimit:4;stroke-dasharray:none;stroke-opacity:1"
           id="path9355" />
        <path
           inkscape:connector-curvature="0"
           d="m -786.18505,674.10721 q 0,-4.88556 0.89735,-8.32539 0.89735,-3.43983 2.54248,-5.58349 1.69499,-2.19351 4.03806,-3.14071 2.39293,-0.99705 5.33423,-0.99705 2.24337,0 4.08792,0.64808 1.84454,0.59823 2.99115,1.39587 l -1.39587,3.73895 q -1.14661,-0.79764 -2.49263,-1.29617 -1.34602,-0.54838 -3.09086,-0.54838 -4.33718,0 -6.23158,3.53954 -1.8944,3.48968 -1.8944,10.56875 0,3.7888 0.54838,6.48084 0.59823,2.69204 1.64514,4.38703 1.0469,1.69499 2.54248,2.49263 1.49558,0.79764 3.34013,0.79764 1.54543,0 2.64218,-0.34897 v -13.51005 h 4.48674 v 16.25195 q -1.34602,0.64808 -3.34013,1.09676 -1.9941,0.44867 -4.18762,0.44867 -2.69204,0 -4.98526,-1.04691 -2.29322,-1.09675 -3.98821,-3.29027 -1.64513,-2.24337 -2.59233,-5.63334 -0.89735,-3.43983 -0.89735,-8.12598 z"
           style="font-style:normal;font-variant:normal;font-weight:normal;font-stretch:normal;font-size:49.85261154px;font-family:'Ubuntu Condensed';-inkscape-font-specification:'Ubuntu Condensed, Normal';font-variant-ligatures:normal;font-variant-caps:normal;font-variant-numeric:normal;font-feature-settings:normal;text-align:center;writing-mode:lr-tb;text-anchor:middle;stroke:#decd11;stroke-width:0.84600002;stroke-miterlimit:4;stroke-dasharray:none;stroke-opacity:1"
           id="path9357" />
        <path
           inkscape:connector-curvature="0"
           d="m -758.44752,665.78182 q 1.29616,-0.54837 2.74189,-0.84749 1.44572,-0.34897 3.14071,-0.34897 3.48969,0 5.6832,2.19352 2.19352,2.14366 2.19352,6.7301 v 17.34871 q -1.7947,0.49852 -3.6891,0.79764 -1.84454,0.29912 -3.63924,0.29912 -1.79469,0 -3.38998,-0.44868 -1.54543,-0.44867 -2.74189,-1.44572 -1.14661,-0.99706 -1.84455,-2.49263 -0.69793,-1.54544 -0.69793,-3.73895 0,-2.04396 0.59823,-3.53954 0.64808,-1.54543 1.74484,-2.54248 1.09676,-1.0469 2.59234,-1.54543 1.49557,-0.54838 3.24042,-0.54838 1.64513,0 3.63924,0.39882 v -2.39292 q 0,-2.89145 -1.14661,-4.03806 -1.09676,-1.14661 -3.19057,-1.14661 -1.14661,0 -2.19352,0.24926 -0.99705,0.19941 -2.14366,0.69794 z m 2.04395,17.9968 q 0,2.29322 1.19646,3.38997 1.19647,1.09676 3.38998,1.09676 1.34602,0 2.94131,-0.34897 V 679.591 q -1.49558,-0.39882 -2.94131,-0.39882 -0.9472,0 -1.79469,0.24926 -0.8475,0.19941 -1.49558,0.74779 -0.59823,0.49853 -0.9472,1.39587 -0.34897,0.8475 -0.34897,2.19352 z"
           style="font-style:normal;font-variant:normal;font-weight:normal;font-stretch:normal;font-size:49.85261154px;font-family:'Ubuntu Condensed';-inkscape-font-specification:'Ubuntu Condensed, Normal';font-variant-ligatures:normal;font-variant-caps:normal;font-variant-numeric:normal;font-feature-settings:normal;text-align:center;writing-mode:lr-tb;text-anchor:middle;stroke:#decd11;stroke-width:0.84600002;stroke-miterlimit:4;stroke-dasharray:none;stroke-opacity:1"
           id="path9359" />
        <path
           inkscape:connector-curvature="0"
           d="m -733.59132,688.36506 q 1.8944,0 2.8416,-1.04691 0.99705,-1.09675 0.99705,-2.8416 0,-1.09675 -0.39882,-1.84454 -0.39882,-0.79764 -1.04691,-1.39588 -0.64808,-0.59823 -1.49557,-1.0469 -0.8475,-0.49853 -1.69499,-1.04691 -0.8475,-0.49852 -1.64514,-1.14661 -0.79764,-0.69793 -1.44573,-1.54543 -0.59823,-0.89734 -0.99705,-1.9941 -0.34897,-1.14661 -0.34897,-2.64219 0,-3.24042 1.99411,-5.23452 2.04396,-1.99411 5.48379,-1.99411 1.44572,0 2.74189,0.39882 1.29617,0.34897 2.14366,0.79764 l -0.9472,3.43983 q -0.89734,-0.49852 -1.79469,-0.74778 -0.89735,-0.24927 -1.94425,-0.24927 -1.59529,0 -2.54249,0.9472 -0.9472,0.89735 -0.9472,2.64219 0,0.99705 0.34897,1.74484 0.34897,0.69794 0.89735,1.29617 0.59823,0.54838 1.29617,1.0469 0.74779,0.49853 1.54543,0.9472 0.9472,0.54838 1.84454,1.19647 0.9472,0.64808 1.64514,1.54543 0.74779,0.84749 1.19646,2.04396 0.44868,1.14661 0.44868,2.79174 0,3.43983 -2.04396,5.53364 -1.9941,2.09381 -5.88261,2.09381 -1.9941,0 -3.58939,-0.54838 -1.59528,-0.54838 -2.39292,-0.99705 l 0.89735,-3.53954 q 0.74778,0.39883 1.9941,0.89735 1.29617,0.49853 2.8416,0.49853 z"
           style="font-style:normal;font-variant:normal;font-weight:normal;font-stretch:normal;font-size:49.85261154px;font-family:'Ubuntu Condensed';-inkscape-font-specification:'Ubuntu Condensed, Normal';font-variant-ligatures:normal;font-variant-caps:normal;font-variant-numeric:normal;font-feature-settings:normal;text-align:center;writing-mode:lr-tb;text-anchor:middle;stroke:#decd11;stroke-width:0.84600002;stroke-miterlimit:4;stroke-dasharray:none;stroke-opacity:1"
           id="path9361" />
      </g>
      <g
         aria-label="We sell it, You smell it"
         style="font-style:normal;font-variant:normal;font-weight:500;font-stretch:normal;font-size:29.60586739px;line-height:1.25;font-family:'TeX Gyre Chorus';-inkscape-font-specification:'TeX Gyre Chorus, Medium';font-variant-ligatures:normal;font-variant-caps:normal;font-variant-numeric:normal;font-feature-settings:normal;text-align:start;letter-spacing:0px;word-spacing:0px;writing-mode:lr-tb;text-anchor:start;fill:#000000;fill-opacity:1;stroke:#2c2a15;stroke-width:1.03999996;stroke-miterlimit:4;stroke-dasharray:none;stroke-opacity:1"
         id="text2112">
        <path
           inkscape:connector-curvature="0"
           d="m -952.14614,701.01817 c 0,-0.79936 -0.11842,-1.27305 -0.44408,-1.92438 -0.41449,-0.23685 -0.5033,-0.26645 -1.18424,-0.47369 -0.82896,0.38487 -1.18423,0.59211 -1.89477,1.21384 0.79935,0.82896 1.09541,1.59871 1.09541,2.81255 0,1.30266 -0.5033,2.93099 -1.42108,4.73694 -1.15463,2.22044 -2.78295,4.44088 -6.36526,8.61531 l 0.14803,-2.60532 0.17764,-4.17442 0.26645,-5.21064 0.14803,-2.30925 -1.71714,0.68093 c -1.36187,2.30926 -6.51329,9.94757 -8.73373,12.96737 l 2.19083,-12.46407 c 0.62172,-0.20724 0.97699,-0.41448 1.53951,-0.94739 -5.74354,0.0592 -6.09881,0.0592 -7.16462,0.41449 -2.54611,0.82896 -4.20404,2.87177 -4.20404,5.21063 0,0.97699 0.23685,1.80596 0.74015,2.66453 l 2.22044,-1.39148 c -0.68094,-1.0362 -0.97699,-1.89477 -0.97699,-2.90137 0,-1.21384 0.59211,-2.13163 1.68753,-2.5165 0.71054,-0.26646 1.42108,-0.32567 3.64152,-0.35527 l -2.60531,16.10559 1.92438,-0.59212 8.88176,-13.05619 c -0.0592,3.55271 -0.38488,10.95417 -0.65133,13.64831 l 1.89477,-0.62172 c 1.0066,-1.53951 1.36187,-2.04281 3.25665,-4.38167 5.59551,-6.86856 7.54949,-10.24363 7.54949,-13.14501 z"
           style="font-style:normal;font-variant:normal;font-weight:500;font-stretch:normal;font-size:29.60586739px;font-family:'TeX Gyre Chorus';-inkscape-font-specification:'TeX Gyre Chorus, Medium';font-variant-ligatures:normal;font-variant-caps:normal;font-variant-numeric:normal;font-feature-settings:normal;text-align:start;writing-mode:lr-tb;text-anchor:start;stroke:#2c2a15;stroke-width:1.03999996;stroke-miterlimit:4;stroke-dasharray:none;stroke-opacity:1"
           id="path9364" />
        <path
           inkscape:connector-curvature="0"
           d="m -945.40016,715.52505 v -0.85857 c -1.09542,0.88817 -3.19743,2.69413 -4.70733,2.69413 -1.65793,0 -1.80596,-1.77635 -1.77636,-2.93098 0.68094,-0.32566 3.58231,-2.5165 4.17443,-2.96059 1.09542,-0.88817 1.89478,-1.83556 1.89478,-3.22704 0,-0.97699 -0.59212,-1.71714 -1.68754,-1.71714 -1.06581,0 -1.98359,0.53291 -3.0494,1.36187 -2.60532,2.0132 -3.5231,5.32906 -3.5231,8.11201 0,1.80596 0.74015,3.07901 2.5461,3.07901 2.27966,0 4.91458,-2.33886 6.12842,-3.5527 z m -2.60532,-6.45408 c 0,2.13162 -2.42768,3.34546 -3.84876,4.44088 0.11842,-1.4803 1.24345,-5.68433 2.93098,-5.68433 0.65133,0 0.91778,0.59212 0.91778,1.24345 z"
           style="font-style:normal;font-variant:normal;font-weight:500;font-stretch:normal;font-size:29.60586739px;font-family:'TeX Gyre Chorus';-inkscape-font-specification:'TeX Gyre Chorus, Medium';font-variant-ligatures:normal;font-variant-caps:normal;font-variant-numeric:normal;font-feature-settings:normal;text-align:start;writing-mode:lr-tb;text-anchor:start;stroke:#2c2a15;stroke-width:1.03999996;stroke-miterlimit:4;stroke-dasharray:none;stroke-opacity:1"
           id="path9366" />
        <path
           inkscape:connector-curvature="0"
           d="m -928.95271,707.50186 c -0.59212,-0.71054 -1.15463,-1.0066 -1.9836,-1.0066 -2.16122,0 -4.94418,2.57571 -4.94418,4.5297 0,0.91778 0.4737,1.62832 1.59872,2.42768 1.48029,1.0362 1.68754,1.30265 1.68754,2.0428 0,1.06581 -1.36187,2.30926 -2.5165,2.30926 -0.65133,0 -1.15463,-0.35527 -1.45069,-1.0066 -0.20724,-0.44409 -0.26645,-0.88818 -0.29606,-1.89478 -0.32566,0.23685 -0.56251,0.38488 -0.68093,0.4737 -0.23685,0.14803 -0.5033,0.29606 -0.76976,0.47369 0,0 -0.23684,0.14803 -0.5329,0.35527 -0.0296,0.26645 -0.0592,0.5033 -0.0592,0.68094 0,1.27305 0.88817,2.16123 2.19083,2.16123 0.91778,0 2.19083,-0.38488 3.13822,-0.91779 1.74675,-1.0066 2.81256,-2.5165 2.81256,-3.99679 0,-1.09542 -0.20724,-1.33226 -1.86517,-2.36847 -1.0066,-0.65133 -1.42108,-1.21384 -1.42108,-1.98359 0,-1.0066 0.85857,-1.89478 1.86517,-1.89478 0.68093,0 1.18423,0.32567 1.83556,1.15463 1.0066,-0.97699 1.0066,-0.97699 1.39148,-1.5395 z"
           style="font-style:normal;font-variant:normal;font-weight:500;font-stretch:normal;font-size:29.60586739px;font-family:'TeX Gyre Chorus';-inkscape-font-specification:'TeX Gyre Chorus, Medium';font-variant-ligatures:normal;font-variant-caps:normal;font-variant-numeric:normal;font-feature-settings:normal;text-align:start;writing-mode:lr-tb;text-anchor:start;stroke:#2c2a15;stroke-width:1.03999996;stroke-miterlimit:4;stroke-dasharray:none;stroke-opacity:1"
           id="path9368" />
        <path
           inkscape:connector-curvature="0"
           d="m -919.32156,715.52505 v -0.85857 c -1.09541,0.88817 -3.19743,2.69413 -4.70733,2.69413 -1.65793,0 -1.80596,-1.77635 -1.77635,-2.93098 0.68093,-0.32566 3.58231,-2.5165 4.17443,-2.96059 1.09541,-0.88817 1.89477,-1.83556 1.89477,-3.22704 0,-0.97699 -0.59211,-1.71714 -1.68753,-1.71714 -1.06581,0 -1.9836,0.53291 -3.04941,1.36187 -2.60531,2.0132 -3.52309,5.32906 -3.52309,8.11201 0,1.80596 0.74014,3.07901 2.5461,3.07901 2.27965,0 4.91457,-2.33886 6.12841,-3.5527 z m -2.60531,-6.45408 c 0,2.13162 -2.42768,3.34546 -3.84876,4.44088 0.11842,-1.4803 1.24344,-5.68433 2.93098,-5.68433 0.65133,0 0.91778,0.59212 0.91778,1.24345 z"
           style="font-style:normal;font-variant:normal;font-weight:500;font-stretch:normal;font-size:29.60586739px;font-family:'TeX Gyre Chorus';-inkscape-font-specification:'TeX Gyre Chorus, Medium';font-variant-ligatures:normal;font-variant-caps:normal;font-variant-numeric:normal;font-feature-settings:normal;text-align:start;writing-mode:lr-tb;text-anchor:start;stroke:#2c2a15;stroke-width:1.03999996;stroke-miterlimit:4;stroke-dasharray:none;stroke-opacity:1"
           id="path9370" />
        <path
           inkscape:connector-curvature="0"
           d="m -911.48062,715.49544 v -0.65133 c -0.41449,0.23685 -0.68094,0.41448 -0.79936,0.4737 -2.13163,1.33226 -2.36847,1.45068 -2.78295,1.45068 -0.53291,0 -0.53291,-0.71054 -0.53291,-1.30265 0,-0.53291 1.33226,-6.27645 2.42768,-10.45088 1.15463,-4.35206 1.42108,-4.88496 2.72374,-4.88496 0.38488,0 0.68094,0.0296 1.45069,0.20724 l 1.27305,-1.56911 c -0.62172,-0.14803 -0.94739,-0.17764 -1.33226,-0.17764 -1.18424,0 -2.13163,0.47369 -3.55271,1.74675 -1.30266,1.18423 -1.62832,1.62832 -2.0132,2.69413 -0.23684,0.71054 -0.88817,3.10862 -1.18423,4.41128 l -2.13162,9.26663 c -0.0296,0.17764 -0.0592,0.35527 -0.0592,0.53291 0,0.91778 0.35528,1.80596 1.24345,1.80596 0.29606,0 1.53951,-0.85857 5.26985,-3.55271 z"
           style="font-style:normal;font-variant:normal;font-weight:500;font-stretch:normal;font-size:29.60586739px;font-family:'TeX Gyre Chorus';-inkscape-font-specification:'TeX Gyre Chorus, Medium';font-variant-ligatures:normal;font-variant-caps:normal;font-variant-numeric:normal;font-feature-settings:normal;text-align:start;writing-mode:lr-tb;text-anchor:start;stroke:#2c2a15;stroke-width:1.03999996;stroke-miterlimit:4;stroke-dasharray:none;stroke-opacity:1"
           id="path9372" />
        <path
           inkscape:connector-curvature="0"
           d="m -904.36828,715.49544 v -0.65133 c -0.41448,0.23685 -0.68094,0.41448 -0.79936,0.4737 -2.13162,1.33226 -2.36847,1.45068 -2.78295,1.45068 -0.53291,0 -0.53291,-0.71054 -0.53291,-1.30265 0,-0.53291 1.33227,-6.27645 2.42768,-10.45088 1.15463,-4.35206 1.42109,-4.88496 2.72374,-4.88496 0.38488,0 0.68094,0.0296 1.45069,0.20724 l 1.27305,-1.56911 c -0.62172,-0.14803 -0.94738,-0.17764 -1.33226,-0.17764 -1.18424,0 -2.13162,0.47369 -3.5527,1.74675 -1.30266,1.18423 -1.62833,1.62832 -2.0132,2.69413 -0.23685,0.71054 -0.88818,3.10862 -1.18424,4.41128 l -2.13162,9.26663 c -0.0296,0.17764 -0.0592,0.35527 -0.0592,0.53291 0,0.91778 0.35527,1.80596 1.24344,1.80596 0.29606,0 1.53951,-0.85857 5.26985,-3.55271 z"
           style="font-style:normal;font-variant:normal;font-weight:500;font-stretch:normal;font-size:29.60586739px;font-family:'TeX Gyre Chorus';-inkscape-font-specification:'TeX Gyre Chorus, Medium';font-variant-ligatures:normal;font-variant-caps:normal;font-variant-numeric:normal;font-feature-settings:normal;text-align:start;writing-mode:lr-tb;text-anchor:start;stroke:#2c2a15;stroke-width:1.03999996;stroke-miterlimit:4;stroke-dasharray:none;stroke-opacity:1"
           id="path9374" />
        <path
           inkscape:connector-curvature="0"
           d="m -890.69221,715.99874 0.11842,-0.88818 c -1.45069,0.88818 -2.90138,1.62833 -3.16783,1.62833 -0.32566,0 -0.56251,-0.35527 -0.56251,-0.82897 0,-1.06581 0.35527,-2.19083 0.62172,-3.31585 l 0.91778,-3.75995 c 0.14803,-0.62172 0.38488,-1.56911 0.38488,-1.92438 0,-0.23685 -0.0888,-0.38488 -0.35527,-0.38488 -0.68093,0 -3.75994,2.0132 -4.64812,2.60532 l -0.0296,0.85857 c 0.68094,-0.38488 1.74675,-1.09542 2.16123,-1.09542 0.32567,0 0.35527,0.32567 0.35527,0.59212 0,0.65133 -0.65133,2.84216 -0.97699,4.20403 -0.32567,1.36187 -0.85857,2.75335 -0.85857,4.08561 0,0.76976 0.29606,1.24345 0.76975,1.24345 0.5033,0 1.03621,-0.26645 2.75335,-1.39148 0.47369,-0.32566 0.71054,-0.5033 2.5165,-1.62832 z m 0.20724,-13.73712 c -0.53291,-0.85857 -0.56251,-0.94739 -0.85857,-1.62832 -0.0296,-0.11843 -0.0888,-0.26646 -0.14803,-0.38488 -0.17764,0.14803 -0.29606,0.23685 -0.41448,0.32566 -0.79936,0.68094 -0.85858,0.71054 -1.62833,1.24345 0.23685,0.71054 0.44409,1.06581 1.12503,2.07241 l 0.97699,-0.88817 c 0.17763,-0.11843 0.26645,-0.20725 0.94739,-0.74015 z"
           style="font-style:normal;font-variant:normal;font-weight:500;font-stretch:normal;font-size:29.60586739px;font-family:'TeX Gyre Chorus';-inkscape-font-specification:'TeX Gyre Chorus, Medium';font-variant-ligatures:normal;font-variant-caps:normal;font-variant-numeric:normal;font-feature-settings:normal;text-align:start;writing-mode:lr-tb;text-anchor:start;stroke:#2c2a15;stroke-width:1.03999996;stroke-miterlimit:4;stroke-dasharray:none;stroke-opacity:1"
           id="path9376" />
        <path
           inkscape:connector-curvature="0"
           d="m -882.01076,715.67308 0.0592,-0.74015 c -2.25004,1.33226 -3.19743,1.83556 -3.61191,1.83556 -0.38488,0 -0.85857,-0.76975 -0.85857,-1.39147 0,-0.41448 0.50329,-2.69414 1.27305,-5.80275 0.41448,-0.0296 0.71054,-0.0296 0.85857,-0.0296 l 1.18423,-0.0296 c 0.11843,0 0.41448,-0.0296 0.88818,-0.0888 l 1.12502,-0.85857 h -3.78955 l 1.18423,-4.79615 c -0.56251,0.29606 -0.79935,0.38487 -1.24344,0.59212 -0.20724,0.11842 -0.44409,0.20724 -0.68094,0.32566 -0.11842,0.0592 -0.26645,0.11842 -0.41448,0.17763 l -0.82896,3.70074 c -0.26646,0.0296 -0.44409,0.0296 -0.53291,0.0296 h -0.71054 c 0,0 -0.20724,0 -0.44409,0.0296 -0.32566,0.20724 -0.35527,0.20724 -0.85857,0.62172 -0.0888,0.0592 -0.23684,0.17764 -0.44409,0.32567 h 0.71055 1.36187 0.65132 c -1.56911,6.5725 -1.56911,6.5725 -1.56911,7.49028 0,0.94739 0.62173,1.9836 1.18424,1.9836 0.65133,0 2.66453,-1.24345 5.50669,-3.37507 z"
           style="font-style:normal;font-variant:normal;font-weight:500;font-stretch:normal;font-size:29.60586739px;font-family:'TeX Gyre Chorus';-inkscape-font-specification:'TeX Gyre Chorus, Medium';font-variant-ligatures:normal;font-variant-caps:normal;font-variant-numeric:normal;font-feature-settings:normal;text-align:start;writing-mode:lr-tb;text-anchor:start;stroke:#2c2a15;stroke-width:1.03999996;stroke-miterlimit:4;stroke-dasharray:none;stroke-opacity:1"
           id="path9378" />
        <path
           inkscape:connector-curvature="0"
           d="m -876.85009,713.54145 c -1.06581,0.32567 -1.09541,0.35527 -2.13162,0.65133 -0.26645,3.31586 -1.09542,5.033 -3.34546,7.0462 l 0.79936,0.32566 c 3.46388,-2.99019 3.99679,-3.87836 4.67772,-8.02319 z"
           style="font-style:normal;font-variant:normal;font-weight:500;font-stretch:normal;font-size:29.60586739px;font-family:'TeX Gyre Chorus';-inkscape-font-specification:'TeX Gyre Chorus, Medium';font-variant-ligatures:normal;font-variant-caps:normal;font-variant-numeric:normal;font-feature-settings:normal;text-align:start;writing-mode:lr-tb;text-anchor:start;stroke:#2c2a15;stroke-width:1.03999996;stroke-miterlimit:4;stroke-dasharray:none;stroke-opacity:1"
           id="path9380" />
        <path
           inkscape:connector-curvature="0"
           d="m -847.55786,701.1366 c -0.44408,-0.38488 -0.68093,-0.4737 -1.18423,-0.4737 -2.36847,0 -4.17443,2.36847 -8.0824,10.51008 0.26645,-1.56911 0.32566,-2.27965 0.32566,-3.25664 0,-3.87837 -1.56911,-6.30605 -4.08561,-6.30605 -3.5527,0 -7.54949,3.73034 -7.54949,7.10541 0,0.88817 0.20724,1.77635 0.62172,2.69413 l 2.25005,-1.42108 c -0.44409,-1.39148 -0.59212,-2.10202 -0.59212,-2.99019 0,-2.07241 1.42108,-3.70074 3.22704,-3.70074 2.63492,0 4.26324,2.9902 4.26324,7.81595 0,1.5099 -0.17763,2.66453 -0.56251,3.75995 -0.56251,1.5099 -1.24345,2.87177 -2.0428,3.99679 -1.09542,1.53951 -2.5165,2.16123 -5.06261,2.16123 -0.44409,0 -0.88817,-0.0296 -2.16123,-0.11843 l -1.0362,2.19084 c 0.59212,0.0592 0.85857,0.0592 1.36187,0.0592 2.69413,0 4.0264,-0.26645 5.26984,-1.09542 1.45069,-0.94738 3.04941,-3.43428 6.00999,-9.38506 3.07901,-6.18762 3.43429,-6.86856 4.23364,-8.02319 0.88818,-1.24344 1.56911,-1.71714 2.4869,-1.71714 0.47369,0 0.79935,0.0888 1.48029,0.35527 z"
           style="font-style:normal;font-variant:normal;font-weight:500;font-stretch:normal;font-size:29.60586739px;font-family:'TeX Gyre Chorus';-inkscape-font-specification:'TeX Gyre Chorus, Medium';font-variant-ligatures:normal;font-variant-caps:normal;font-variant-numeric:normal;font-feature-settings:normal;text-align:start;writing-mode:lr-tb;text-anchor:start;stroke:#2c2a15;stroke-width:1.03999996;stroke-miterlimit:4;stroke-dasharray:none;stroke-opacity:1"
           id="path9382" />
        <path
           inkscape:connector-curvature="0"
           d="m -841.8777,709.219 c 0,-1.59872 -1.09541,-2.72374 -2.66452,-2.72374 -1.18424,0 -3.07901,0.85857 -4.82576,2.16123 -1.89478,1.42108 -3.22704,4.50009 -3.22704,7.43107 0,1.80596 1.0066,2.96059 2.57571,2.96059 0.82896,0 1.65793,-0.29606 3.0198,-1.0066 1.48029,-0.82897 2.45729,-1.56912 2.99019,-2.27966 1.18424,-1.59871 2.13162,-4.50009 2.13162,-6.54289 z m -2.27965,1.59871 c 0,1.24345 -0.41448,2.78296 -1.15463,4.23364 -0.82896,1.68754 -1.89477,2.60532 -3.0198,2.60532 -1.21384,0 -1.98359,-1.09542 -1.98359,-2.78295 0,-3.43428 2.16123,-6.98699 4.23364,-6.98699 1.18424,0 1.92438,1.15463 1.92438,2.93098 z"
           style="font-style:normal;font-variant:normal;font-weight:500;font-stretch:normal;font-size:29.60586739px;font-family:'TeX Gyre Chorus';-inkscape-font-specification:'TeX Gyre Chorus, Medium';font-variant-ligatures:normal;font-variant-caps:normal;font-variant-numeric:normal;font-feature-settings:normal;text-align:start;writing-mode:lr-tb;text-anchor:start;stroke:#2c2a15;stroke-width:1.03999996;stroke-miterlimit:4;stroke-dasharray:none;stroke-opacity:1"
           id="path9384" />
        <path
           inkscape:connector-curvature="0"
           d="m -828.0994,715.43623 -0.14803,-0.26645 c -0.53291,0.35527 -2.57571,1.71714 -3.0198,1.71714 -0.38488,0 -0.41448,-0.53291 -0.41448,-0.94739 0,-1.59872 1.5099,-7.43107 2.22044,-9.47388 -0.41448,0.23685 -2.10202,1.06581 -2.45729,1.24345 l -1.5099,6.60211 c -0.0592,0.20724 -0.65133,0.74014 -0.71054,0.91778 -0.5033,0.32566 -2.5461,1.68753 -3.0494,1.68753 -0.5033,0 -0.62173,-0.65133 -0.62173,-1.06581 0,-1.18423 0.91778,-4.44088 1.42108,-6.36526 0.17764,-0.76975 0.53291,-2.16123 0.53291,-2.5165 0,-0.26645 -0.11842,-0.41448 -0.38488,-0.41448 -0.5329,0 -3.75994,1.98359 -4.61851,2.45729 l -0.0592,0.79935 c 0.59211,-0.29605 1.56911,-0.85857 2.07241,-0.85857 0.29606,0 0.38487,0.32567 0.38487,0.56252 0,1.65792 -1.56911,5.77314 -1.56911,8.0824 0,0.68093 0.17764,1.48029 0.977,1.48029 0.74014,0 4.76654,-2.75334 5.29945,-3.13822 -0.0888,0.59212 -0.29606,1.92438 -0.29606,2.48689 0,0.32567 0.20724,0.62173 0.59212,0.62173 0.76975,0 3.84876,-2.10202 4.97378,-2.96059 0.14803,-0.0888 0.32567,-0.59212 0.38488,-0.65133 z"
           style="font-style:normal;font-variant:normal;font-weight:500;font-stretch:normal;font-size:29.60586739px;font-family:'TeX Gyre Chorus';-inkscape-font-specification:'TeX Gyre Chorus, Medium';font-variant-ligatures:normal;font-variant-caps:normal;font-variant-numeric:normal;font-feature-settings:normal;text-align:start;writing-mode:lr-tb;text-anchor:start;stroke:#2c2a15;stroke-width:1.03999996;stroke-miterlimit:4;stroke-dasharray:none;stroke-opacity:1"
           id="path9386" />
        <path
           inkscape:connector-curvature="0"
           d="m -811.97485,707.50186 c -0.59212,-0.71054 -1.15463,-1.0066 -1.98359,-1.0066 -2.16123,0 -4.94418,2.57571 -4.94418,4.5297 0,0.91778 0.47369,1.62832 1.59871,2.42768 1.4803,1.0362 1.68754,1.30265 1.68754,2.0428 0,1.06581 -1.36187,2.30926 -2.5165,2.30926 -0.65133,0 -1.15463,-0.35527 -1.45069,-1.0066 -0.20724,-0.44409 -0.26645,-0.88818 -0.29606,-1.89478 -0.32566,0.23685 -0.56251,0.38488 -0.68093,0.4737 -0.23685,0.14803 -0.5033,0.29606 -0.76975,0.47369 0,0 -0.23685,0.14803 -0.53291,0.35527 -0.0296,0.26645 -0.0592,0.5033 -0.0592,0.68094 0,1.27305 0.88818,2.16123 2.19083,2.16123 0.91779,0 2.19084,-0.38488 3.13823,-0.91779 1.74674,-1.0066 2.81255,-2.5165 2.81255,-3.99679 0,-1.09542 -0.20724,-1.33226 -1.86517,-2.36847 -1.0066,-0.65133 -1.42108,-1.21384 -1.42108,-1.98359 0,-1.0066 0.85857,-1.89478 1.86517,-1.89478 0.68094,0 1.18424,0.32567 1.83557,1.15463 1.00659,-0.97699 1.00659,-0.97699 1.39147,-1.5395 z"
           style="font-style:normal;font-variant:normal;font-weight:500;font-stretch:normal;font-size:29.60586739px;font-family:'TeX Gyre Chorus';-inkscape-font-specification:'TeX Gyre Chorus, Medium';font-variant-ligatures:normal;font-variant-caps:normal;font-variant-numeric:normal;font-feature-settings:normal;text-align:start;writing-mode:lr-tb;text-anchor:start;stroke:#2c2a15;stroke-width:1.03999996;stroke-miterlimit:4;stroke-dasharray:none;stroke-opacity:1"
           id="path9388" />
        <path
           inkscape:connector-curvature="0"
           d="m -793.13626,715.73229 v -0.68094 c -0.29605,0.14803 -0.62172,0.35527 -1.0066,0.62173 -1.06581,0.68093 -1.56911,0.91778 -1.92438,0.91778 -0.32566,0 -0.5329,-0.29606 -0.5329,-0.79936 0,-0.65133 0.38487,-2.33886 0.97699,-4.41127 0.88818,-3.04941 1.12502,-3.9968 1.12502,-4.44088 0,-0.29606 -0.17763,-0.44409 -0.47369,-0.44409 -0.53291,0 -2.36847,0.94739 -5.98038,3.07901 0.0888,-0.32567 0.11842,-0.56251 0.14802,-0.68094 0.35527,-1.48029 0.44409,-1.89477 0.44409,-2.07241 0,-0.20724 -0.14803,-0.32566 -0.38487,-0.32566 -0.44409,0 -1.9836,0.82896 -4.94418,2.72374 l -0.94739,0.59211 c 0.5329,-2.16122 0.65133,-2.69413 0.65133,-2.90137 0,-0.23685 -0.17764,-0.41448 -0.44409,-0.41448 -0.35527,0 -2.69413,1.27305 -4.61852,2.48689 l -0.20724,0.82896 c 1.62833,-0.79935 1.86517,-0.88817 2.19084,-0.88817 0.26645,0 0.44409,0.23685 0.44409,0.56251 0,0.47369 -1.06582,4.85536 -2.30926,9.47388 l 2.10201,-0.79936 1.89478,-7.19423 c 1.98359,-1.33226 3.19743,-2.0428 3.58231,-2.0428 0.23685,0 0.38488,0.26645 0.38488,0.65133 0,0.88817 -1.12503,5.38827 -2.36847,9.38506 l 2.25004,-0.79936 1.83557,-7.40147 c 1.71714,-1.09541 3.31585,-1.98359 3.67112,-1.98359 0.23685,0 0.38488,0.20724 0.38488,0.56251 0,0.65133 -0.26645,1.86517 -1.06581,5.033 -0.47369,1.83556 -0.62172,2.57571 -0.62172,3.25664 0,0.62173 0.17763,0.94739 0.71054,1.33227 1.74674,-0.85857 3.22704,-1.80596 5.03299,-3.22704 z"
           style="font-style:normal;font-variant:normal;font-weight:500;font-stretch:normal;font-size:29.60586739px;font-family:'TeX Gyre Chorus';-inkscape-font-specification:'TeX Gyre Chorus, Medium';font-variant-ligatures:normal;font-variant-caps:normal;font-variant-numeric:normal;font-feature-settings:normal;text-align:start;writing-mode:lr-tb;text-anchor:start;stroke:#2c2a15;stroke-width:1.03999996;stroke-miterlimit:4;stroke-dasharray:none;stroke-opacity:1"
           id="path9390" />
        <path
           inkscape:connector-curvature="0"
           d="m -784.0135,715.52505 v -0.85857 c -1.09541,0.88817 -3.19743,2.69413 -4.70733,2.69413 -1.65793,0 -1.80596,-1.77635 -1.77635,-2.93098 0.68093,-0.32566 3.58231,-2.5165 4.17443,-2.96059 1.09541,-0.88817 1.89477,-1.83556 1.89477,-3.22704 0,-0.97699 -0.59212,-1.71714 -1.68753,-1.71714 -1.06581,0 -1.9836,0.53291 -3.04941,1.36187 -2.60531,2.0132 -3.52309,5.32906 -3.52309,8.11201 0,1.80596 0.74014,3.07901 2.5461,3.07901 2.27965,0 4.91457,-2.33886 6.12841,-3.5527 z m -2.60531,-6.45408 c 0,2.13162 -2.42768,3.34546 -3.84876,4.44088 0.11842,-1.4803 1.24344,-5.68433 2.93098,-5.68433 0.65133,0 0.91778,0.59212 0.91778,1.24345 z"
           style="font-style:normal;font-variant:normal;font-weight:500;font-stretch:normal;font-size:29.60586739px;font-family:'TeX Gyre Chorus';-inkscape-font-specification:'TeX Gyre Chorus, Medium';font-variant-ligatures:normal;font-variant-caps:normal;font-variant-numeric:normal;font-feature-settings:normal;text-align:start;writing-mode:lr-tb;text-anchor:start;stroke:#2c2a15;stroke-width:1.03999996;stroke-miterlimit:4;stroke-dasharray:none;stroke-opacity:1"
           id="path9392" />
        <path
           inkscape:connector-curvature="0"
           d="m -776.17256,715.49544 v -0.65133 c -0.41449,0.23685 -0.68094,0.41448 -0.79936,0.4737 -2.13163,1.33226 -2.36847,1.45068 -2.78295,1.45068 -0.53291,0 -0.53291,-0.71054 -0.53291,-1.30265 0,-0.53291 1.33226,-6.27645 2.42768,-10.45088 1.15463,-4.35206 1.42108,-4.88496 2.72374,-4.88496 0.38488,0 0.68094,0.0296 1.45069,0.20724 l 1.27305,-1.56911 c -0.62172,-0.14803 -0.94739,-0.17764 -1.33226,-0.17764 -1.18424,0 -2.13163,0.47369 -3.55271,1.74675 -1.30266,1.18423 -1.62832,1.62832 -2.0132,2.69413 -0.23684,0.71054 -0.88817,3.10862 -1.18423,4.41128 l -2.13162,9.26663 c -0.0296,0.17764 -0.0592,0.35527 -0.0592,0.53291 0,0.91778 0.35527,1.80596 1.24345,1.80596 0.29606,0 1.53951,-0.85857 5.26985,-3.55271 z"
           style="font-style:normal;font-variant:normal;font-weight:500;font-stretch:normal;font-size:29.60586739px;font-family:'TeX Gyre Chorus';-inkscape-font-specification:'TeX Gyre Chorus, Medium';font-variant-ligatures:normal;font-variant-caps:normal;font-variant-numeric:normal;font-feature-settings:normal;text-align:start;writing-mode:lr-tb;text-anchor:start;stroke:#2c2a15;stroke-width:1.03999996;stroke-miterlimit:4;stroke-dasharray:none;stroke-opacity:1"
           id="path9394" />
        <path
           inkscape:connector-curvature="0"
           d="m -769.06021,715.49544 v -0.65133 c -0.41449,0.23685 -0.68094,0.41448 -0.79936,0.4737 -2.13163,1.33226 -2.36847,1.45068 -2.78295,1.45068 -0.53291,0 -0.53291,-0.71054 -0.53291,-1.30265 0,-0.53291 1.33226,-6.27645 2.42768,-10.45088 1.15463,-4.35206 1.42108,-4.88496 2.72374,-4.88496 0.38488,0 0.68094,0.0296 1.45069,0.20724 l 1.27305,-1.56911 c -0.62172,-0.14803 -0.94739,-0.17764 -1.33226,-0.17764 -1.18424,0 -2.13163,0.47369 -3.55271,1.74675 -1.30266,1.18423 -1.62832,1.62832 -2.0132,2.69413 -0.23684,0.71054 -0.88817,3.10862 -1.18423,4.41128 l -2.13162,9.26663 c -0.0296,0.17764 -0.0592,0.35527 -0.0592,0.53291 0,0.91778 0.35528,1.80596 1.24345,1.80596 0.29606,0 1.53951,-0.85857 5.26985,-3.55271 z"
           style="font-style:normal;font-variant:normal;font-weight:500;font-stretch:normal;font-size:29.60586739px;font-family:'TeX Gyre Chorus';-inkscape-font-specification:'TeX Gyre Chorus, Medium';font-variant-ligatures:normal;font-variant-caps:normal;font-variant-numeric:normal;font-feature-settings:normal;text-align:start;writing-mode:lr-tb;text-anchor:start;stroke:#2c2a15;stroke-width:1.03999996;stroke-miterlimit:4;stroke-dasharray:none;stroke-opacity:1"
           id="path9396" />
        <path
           inkscape:connector-curvature="0"
           d="m -755.38415,715.99874 0.11842,-0.88818 c -1.45069,0.88818 -2.90138,1.62833 -3.16783,1.62833 -0.32566,0 -0.56251,-0.35527 -0.56251,-0.82897 0,-1.06581 0.35527,-2.19083 0.62172,-3.31585 l 0.91778,-3.75995 c 0.14803,-0.62172 0.38488,-1.56911 0.38488,-1.92438 0,-0.23685 -0.0888,-0.38488 -0.35527,-0.38488 -0.68093,0 -3.75994,2.0132 -4.64812,2.60532 l -0.0296,0.85857 c 0.68094,-0.38488 1.74675,-1.09542 2.16123,-1.09542 0.32567,0 0.35527,0.32567 0.35527,0.59212 0,0.65133 -0.65133,2.84216 -0.97699,4.20403 -0.32567,1.36187 -0.85857,2.75335 -0.85857,4.08561 0,0.76976 0.29606,1.24345 0.76975,1.24345 0.5033,0 1.03621,-0.26645 2.75335,-1.39148 0.47369,-0.32566 0.71054,-0.5033 2.5165,-1.62832 z m 0.20724,-13.73712 c -0.53291,-0.85857 -0.56252,-0.94739 -0.85857,-1.62832 -0.0296,-0.11843 -0.0888,-0.26646 -0.14803,-0.38488 -0.17764,0.14803 -0.29606,0.23685 -0.41449,0.32566 -0.79935,0.68094 -0.85857,0.71054 -1.62832,1.24345 0.23685,0.71054 0.44409,1.06581 1.12503,2.07241 l 0.97699,-0.88817 c 0.17763,-0.11843 0.26645,-0.20725 0.94739,-0.74015 z"
           style="font-style:normal;font-variant:normal;font-weight:500;font-stretch:normal;font-size:29.60586739px;font-family:'TeX Gyre Chorus';-inkscape-font-specification:'TeX Gyre Chorus, Medium';font-variant-ligatures:normal;font-variant-caps:normal;font-variant-numeric:normal;font-feature-settings:normal;text-align:start;writing-mode:lr-tb;text-anchor:start;stroke:#2c2a15;stroke-width:1.03999996;stroke-miterlimit:4;stroke-dasharray:none;stroke-opacity:1"
           id="path9398" />
        <path
           inkscape:connector-curvature="0"
           d="m -746.70269,715.67308 0.0592,-0.74015 c -2.25005,1.33226 -3.19744,1.83556 -3.61192,1.83556 -0.38487,0 -0.85857,-0.76975 -0.85857,-1.39147 0,-0.41448 0.5033,-2.69414 1.27305,-5.80275 0.41449,-0.0296 0.71055,-0.0296 0.85857,-0.0296 l 1.18424,-0.0296 c 0.11842,0 0.41448,-0.0296 0.88818,-0.0888 l 1.12502,-0.85857 h -3.78955 l 1.18423,-4.79615 c -0.56251,0.29606 -0.79936,0.38487 -1.24344,0.59212 -0.20725,0.11842 -0.44409,0.20724 -0.68094,0.32566 -0.11842,0.0592 -0.26645,0.11842 -0.41448,0.17763 l -0.82897,3.70074 c -0.26645,0.0296 -0.44408,0.0296 -0.5329,0.0296 h -0.71054 c 0,0 -0.20724,0 -0.44409,0.0296 -0.32566,0.20724 -0.35527,0.20724 -0.85857,0.62172 -0.0888,0.0592 -0.23685,0.17764 -0.44409,0.32567 h 0.71054 1.36187 0.65133 c -1.56911,6.5725 -1.56911,6.5725 -1.56911,7.49028 0,0.94739 0.62172,1.9836 1.18424,1.9836 0.65132,0 2.66452,-1.24345 5.50669,-3.37507 z"
           style="font-style:normal;font-variant:normal;font-weight:500;font-stretch:normal;font-size:29.60586739px;font-family:'TeX Gyre Chorus';-inkscape-font-specification:'TeX Gyre Chorus, Medium';font-variant-ligatures:normal;font-variant-caps:normal;font-variant-numeric:normal;font-feature-settings:normal;text-align:start;writing-mode:lr-tb;text-anchor:start;stroke:#2c2a15;stroke-width:1.03999996;stroke-miterlimit:4;stroke-dasharray:none;stroke-opacity:1"
           id="path9400" />
      </g>
    </g>
  </g>
</svg>
