<?xml version="1.0" encoding="UTF-8" standalone="no"?>
<!-- Created with Inkscape (http://www.inkscape.org/) -->

<svg
   xmlns:dc="http://purl.org/dc/elements/1.1/"
   xmlns:cc="http://creativecommons.org/ns#"
   xmlns:rdf="http://www.w3.org/1999/02/22-rdf-syntax-ns#"
   xmlns:svg="http://www.w3.org/2000/svg"
   xmlns="http://www.w3.org/2000/svg"
   xmlns:sodipodi="http://sodipodi.sourceforge.net/DTD/sodipodi-0.dtd"
   xmlns:inkscape="http://www.inkscape.org/namespaces/inkscape"
   width="57.17033mm"
   height="57.170322mm"
   viewBox="0 0 57.17033 57.170322"
   version="1.1"
   id="svg9718"
   inkscape:version="0.92.4 (5da689c313, 2019-01-14)"
   sodipodi:docname="gforce.svg">
  <defs
     id="defs9712" />
  <sodipodi:namedview
     id="base"
     pagecolor="#ffffff"
     bordercolor="#666666"
     borderopacity="1.0"
     inkscape:pageopacity="0.0"
     inkscape:pageshadow="2"
     inkscape:zoom="0.35"
     inkscape:cx="-1046.2473"
     inkscape:cy="-69.10446"
     inkscape:document-units="mm"
     inkscape:current-layer="layer1"
     showgrid="false"
     inkscape:window-width="1920"
     inkscape:window-height="1043"
     inkscape:window-x="0"
     inkscape:window-y="1098"
     inkscape:window-maximized="0" />
  <metadata
     id="metadata9715">
    <rdf:RDF>
      <cc:Work
         rdf:about="">
        <dc:format>image/svg+xml</dc:format>
        <dc:type
           rdf:resource="http://purl.org/dc/dcmitype/StillImage" />
        <dc:title></dc:title>
      </cc:Work>
    </rdf:RDF>
  </metadata>
  <g
     inkscape:label="Layer 1"
     inkscape:groupmode="layer"
     id="layer1"
     transform="translate(-234.48626,-73.379123)">
    <g
       id="g2207"
       transform="matrix(0.24795704,0,0,0.24795704,488.65629,-150.20949)">
      <path
         inkscape:connector-curvature="0"
         style="opacity:1;fill:#ffffff;fill-opacity:1;stroke:#ff0200;stroke-width:16.50264168;stroke-miterlimit:4;stroke-dasharray:none;stroke-dashoffset:0;stroke-opacity:1"
         d="m -802.74258,1017.0059 a 107.03141,107.03141 0 0 1 -107.03141,107.0314 107.03141,107.03141 0 0 1 -107.03141,-107.0314 107.03141,107.03141 0 0 1 107.03141,-107.03139 107.03141,107.03141 0 0 1 107.03141,107.03139 z"
         id="path2062" />
      <g
         id="g2198">
        <g
           aria-label="Y"
           transform="rotate(6.0887096)"
           style="font-style:normal;font-weight:normal;font-size:204.33348083px;line-height:1.25;font-family:sans-serif;letter-spacing:0px;word-spacing:0px;fill:#000000;fill-opacity:1;stroke:none;stroke-width:5.10833693"
           id="text2060">
          <path
             inkscape:connector-curvature="0"
             d="m -859.0128,1045.2114 h 21.65057 l 41.3057,61.2601 41.00637,-61.2601 h 21.65057 l -52.67972,78.0218 v 70.9381 h -20.25376 v -70.9381 z"
             style="stroke-width:5.10833693"
             id="path9291" />
        </g>
        <path
           inkscape:connector-curvature="0"
           transform="rotate(37.079335)"
           style="opacity:1;fill:none;fill-opacity:1;stroke:#ff0200;stroke-width:17.34907341;stroke-miterlimit:4;stroke-dasharray:none;stroke-dashoffset:0;stroke-opacity:1"
           d="m -210.18302,1357.6443 h 198.999246 c 1.6310761,0 2.9441805,1.3131 2.9441805,2.9442 v 8.6846 c 0,1.6311 -1.3131044,2.9442 -2.9441805,2.9442 H -210.18302 c -1.63107,0 -2.94418,-1.3131 -2.94418,-2.9442 v -8.6846 c 0,-1.6311 1.31311,-2.9442 2.94418,-2.9442 z"
           id="rect2064" />
        <g
           aria-label="May the G-Force be with you"
           transform="rotate(37.302328)"
           style="font-style:normal;font-weight:normal;font-size:15.00009727px;line-height:1.25;font-family:sans-serif;letter-spacing:0px;word-spacing:0px;fill:#000000;fill-opacity:1;stroke:#decd11;stroke-width:1.37697518;stroke-miterlimit:4;stroke-dasharray:none;stroke-opacity:1"
           id="text2074">
          <path
             inkscape:connector-curvature="0"
             d="m -215.9372,1359.9662 h 2.2046 l 2.79055,7.4415 2.80519,-7.4415 h 2.20461 v 10.9352 h -1.44288 v -9.6021 l -2.81985,7.5 h -1.48682 l -2.81984,-7.5 v 9.6021 h -1.43556 z"
             style="stroke:#decd11;stroke-width:1.37697518;stroke-miterlimit:4;stroke-dasharray:none;stroke-opacity:1"
             id="path9295" />
          <path
             inkscape:connector-curvature="0"
             d="m -199.31844,1366.7778 q -1.63331,0 -2.2632,0.3735 -0.62989,0.3736 -0.62989,1.2745 0,0.7177 0.46876,1.1426 0.47607,0.4174 1.28907,0.4174 1.12061,0 1.79444,-0.791 0.68116,-0.7983 0.68116,-2.1167 v -0.3003 z m 2.68801,-0.5566 v 4.6802 h -1.34767 v -1.2452 q -0.46143,0.7471 -1.14991,1.106 -0.68848,0.3516 -1.68458,0.3516 -1.25977,0 -2.00685,-0.7032 -0.73975,-0.7104 -0.73975,-1.8969 0,-1.3843 0.92286,-2.0875 0.93018,-0.7031 2.76857,-0.7031 h 1.88966 v -0.1318 q 0,-0.9302 -0.61524,-1.4356 -0.60791,-0.5127 -1.71388,-0.5127 -0.70313,0 -1.36963,0.1685 -0.66651,0.1684 -1.28175,0.5054 v -1.2452 q 0.73975,-0.2856 1.43556,-0.4248 0.6958,-0.1465 1.35498,-0.1465 1.7798,0 2.65871,0.9229 0.87892,0.9228 0.87892,2.7979 z"
             style="stroke:#decd11;stroke-width:1.37697518;stroke-miterlimit:4;stroke-dasharray:none;stroke-opacity:1"
             id="path9297" />
          <path
             inkscape:connector-curvature="0"
             d="m -190.4341,1371.6631 q -0.5713,1.4648 -1.11329,1.9116 -0.542,0.4468 -1.45021,0.4468 h -1.07666 v -1.1279 h 0.79102 q 0.55664,0 0.86426,-0.2637 0.30762,-0.2637 0.68116,-1.2451 l 0.2417,-0.6153 -3.3179,-8.0713 h 1.42824 l 2.56349,6.416 2.56349,-6.416 h 1.42823 z"
             style="stroke:#decd11;stroke-width:1.37697518;stroke-miterlimit:4;stroke-dasharray:none;stroke-opacity:1"
             id="path9299" />
          <path
             inkscape:connector-curvature="0"
             d="m -178.86176,1360.3691 v 2.3291 h 2.77589 v 1.0474 h -2.77589 v 4.4531 q 0,1.0034 0.27099,1.2891 0.27833,0.2856 1.12062,0.2856 h 1.38428 v 1.128 h -1.38428 q -1.56007,0 -2.15334,-0.5786 -0.59326,-0.586 -0.59326,-2.1241 v -4.4531 h -0.98878 v -1.0474 h 0.98878 v -2.3291 z"
             style="stroke:#decd11;stroke-width:1.37697518;stroke-miterlimit:4;stroke-dasharray:none;stroke-opacity:1"
             id="path9301" />
          <path
             inkscape:connector-curvature="0"
             d="m -167.48718,1365.9502 v 4.9512 h -1.34766 v -4.9073 q 0,-1.1645 -0.45411,-1.7432 -0.4541,-0.5786 -1.36231,-0.5786 -1.09132,0 -1.7212,0.6958 -0.62989,0.6958 -0.62989,1.897 v 4.6363 h -1.35499 v -11.3966 h 1.35499 v 4.4678 q 0.4834,-0.7397 1.13526,-1.106 0.65918,-0.3662 1.51612,-0.3662 1.41359,0 2.13869,0.8789 0.7251,0.8716 0.7251,2.5709 z"
             style="stroke:#decd11;stroke-width:1.37697518;stroke-miterlimit:4;stroke-dasharray:none;stroke-opacity:1"
             id="path9303" />
          <path
             inkscape:connector-curvature="0"
             d="m -157.76788,1366.4629 v 0.6591 h -6.19633 q 0.0879,1.3917 0.83497,2.1241 0.7544,0.7251 2.09474,0.7251 0.77637,0 1.50147,-0.1904 0.73243,-0.1905 1.45021,-0.5713 v 1.2744 q -0.7251,0.3076 -1.48683,0.4687 -0.76172,0.1612 -1.54542,0.1612 -1.9629,0 -3.11281,-1.1426 -1.14259,-1.1426 -1.14259,-3.0909 0,-2.0141 1.08399,-3.1933 1.09132,-1.1866 2.93704,-1.1866 1.65528,0 2.61476,1.0694 0.9668,1.062 0.9668,2.8931 z m -1.34766,-0.3955 q -0.0146,-1.106 -0.62257,-1.7652 -0.60059,-0.6592 -1.59669,-0.6592 -1.12793,0 -1.80909,0.6372 -0.67383,0.6372 -0.77637,1.7945 z"
             style="stroke:#decd11;stroke-width:1.37697518;stroke-miterlimit:4;stroke-dasharray:none;stroke-opacity:1"
             id="path9305" />
          <path
             inkscape:connector-curvature="0"
             d="m -143.26583,1369.3413 v -2.937 h -2.417 v -1.2159 h 3.88186 v 4.6949 q -0.85694,0.6079 -1.88966,0.9229 -1.03273,0.3076 -2.20461,0.3076 -2.56349,0 -4.0137,-1.4942 -1.44288,-1.5015 -1.44288,-4.1748 0,-2.6807 1.44288,-4.1748 1.45021,-1.5015 4.0137,-1.5015 1.06934,0 2.02882,0.2637 0.96681,0.2636 1.7798,0.7763 v 1.5747 q -0.82032,-0.6958 -1.74318,-1.0473 -0.92285,-0.3516 -1.94093,-0.3516 -2.00684,0 -3.01759,1.1206 -1.00343,1.1206 -1.00343,3.3399 0,2.2119 1.00343,3.3325 1.01075,1.1206 3.01759,1.1206 0.7837,0 1.39894,-0.1318 0.61524,-0.1392 1.10596,-0.4248 z"
             style="stroke:#decd11;stroke-width:1.37697518;stroke-miterlimit:4;stroke-dasharray:none;stroke-opacity:1"
             id="path9307" />
          <path
             inkscape:connector-curvature="0"
             d="m -139.83075,1366.1919 h 3.94778 v 1.2011 h -3.94778 z"
             style="stroke:#decd11;stroke-width:1.37697518;stroke-miterlimit:4;stroke-dasharray:none;stroke-opacity:1"
             id="path9309" />
          <path
             inkscape:connector-curvature="0"
             d="m -133.67104,1359.9662 h 6.28422 v 1.2452 h -4.80472 v 3.2226 h 4.33597 v 1.2452 h -4.33597 v 5.2222 h -1.4795 z"
             style="stroke:#decd11;stroke-width:1.37697518;stroke-miterlimit:4;stroke-dasharray:none;stroke-opacity:1"
             id="path9311" />
          <path
             inkscape:connector-curvature="0"
             d="m -122.43562,1363.643 q -1.08399,0 -1.71387,0.8496 -0.62989,0.8423 -0.62989,2.3145 0,1.4722 0.62256,2.3218 0.62989,0.8423 1.7212,0.8423 1.07667,0 1.70656,-0.8496 0.62988,-0.8496 0.62988,-2.3145 0,-1.4575 -0.62988,-2.3071 -0.62989,-0.857 -1.70656,-0.857 z m 0,-1.1426 q 1.75783,0 2.76125,1.1426 1.00343,1.1426 1.00343,3.1641 0,2.0142 -1.00343,3.1641 -1.00342,1.1426 -2.76125,1.1426 -1.76514,0 -2.76857,-1.1426 -0.9961,-1.1499 -0.9961,-3.1641 0,-2.0215 0.9961,-3.1641 1.00343,-1.1426 2.76857,-1.1426 z"
             style="stroke:#decd11;stroke-width:1.37697518;stroke-miterlimit:4;stroke-dasharray:none;stroke-opacity:1"
             id="path9313" />
          <path
             inkscape:connector-curvature="0"
             d="m -111.69092,1363.958 q -0.22705,-0.1319 -0.49805,-0.1905 -0.26367,-0.066 -0.58594,-0.066 -1.14258,0 -1.75782,0.7471 -0.60792,0.7397 -0.60792,2.1314 v 4.3213 h -1.35498 v -8.2032 h 1.35498 v 1.2744 q 0.42481,-0.7471 1.10597,-1.106 0.68116,-0.3662 1.65528,-0.3662 0.13916,0 0.30762,0.022 0.16846,0.015 0.37354,0.051 z"
             style="stroke:#decd11;stroke-width:1.37697518;stroke-miterlimit:4;stroke-dasharray:none;stroke-opacity:1"
             id="path9315" />
          <path
             inkscape:connector-curvature="0"
             d="m -104.68159,1363.0131 v 1.2598 q -0.5713,-0.3149 -1.14991,-0.4687 -0.5713,-0.1612 -1.15724,-0.1612 -1.31104,0 -2.03614,0.835 -0.72511,0.8276 -0.72511,2.3291 0,1.5015 0.72511,2.3364 0.7251,0.8277 2.03614,0.8277 0.58594,0 1.15724,-0.1538 0.57861,-0.1612 1.14991,-0.4761 v 1.2451 q -0.56397,0.2637 -1.17189,0.3955 -0.60059,0.1319 -1.28174,0.1319 -1.85304,0 -2.94436,-1.1646 -1.09131,-1.1645 -1.09131,-3.1421 0,-2.0068 1.09864,-3.1568 1.10596,-1.1499 3.02492,-1.1499 0.62256,0 1.21583,0.1319 0.59326,0.1245 1.14991,0.3808 z"
             style="stroke:#decd11;stroke-width:1.37697518;stroke-miterlimit:4;stroke-dasharray:none;stroke-opacity:1"
             id="path9317" />
          <path
             inkscape:connector-curvature="0"
             d="m -95.306533,1366.4629 v 0.6591 h -6.196327 q 0.0879,1.3917 0.83496,2.1241 0.754404,0.7251 2.094745,0.7251 0.776372,0 1.501474,-0.1904 0.732427,-0.1905 1.450205,-0.5713 v 1.2744 q -0.725102,0.3076 -1.486826,0.4687 -0.761724,0.1612 -1.54542,0.1612 -1.962908,0 -3.112818,-1.1426 -1.14258,-1.1426 -1.14258,-3.0909 0,-2.0141 1.08399,-3.1933 1.09132,-1.1866 2.937031,-1.1866 1.655284,0 2.614763,1.0694 0.966803,1.062 0.966803,2.8931 z m -1.347665,-0.3955 q -0.01465,-1.106 -0.622562,-1.7652 -0.60059,-0.6592 -1.59669,-0.6592 -1.12794,0 -1.80909,0.6372 -0.67384,0.6372 -0.77638,1.7945 z"
             style="stroke:#decd11;stroke-width:1.37697518;stroke-miterlimit:4;stroke-dasharray:none;stroke-opacity:1"
             id="path9319" />
          <path
             inkscape:connector-curvature="0"
             d="m -82.430472,1366.8071 q 0,-1.4868 -0.615238,-2.3291 -0.607914,-0.8496 -1.677257,-0.8496 -1.069343,0 -1.684581,0.8496 -0.607914,0.8423 -0.607914,2.3291 0,1.4868 0.607914,2.3364 0.615238,0.8423 1.684581,0.8423 1.069343,0 1.677257,-0.8423 0.615238,-0.8496 0.615238,-2.3364 z m -4.58499,-2.8638 q 0.424807,-0.7324 1.069342,-1.084 0.65186,-0.3589 1.552745,-0.3589 1.49415,0 2.424332,1.1866 0.937506,1.1865 0.937506,3.1201 0,1.9336 -0.937506,3.1201 -0.930182,1.1866 -2.424332,1.1866 -0.900885,0 -1.552745,-0.3516 -0.644535,-0.3589 -1.069342,-1.0913 v 1.2305 h -1.35499 v -11.3966 h 1.35499 z"
             style="stroke:#decd11;stroke-width:1.37697518;stroke-miterlimit:4;stroke-dasharray:none;stroke-opacity:1"
             id="path9321" />
          <path
             inkscape:connector-curvature="0"
             d="m -71.780997,1366.4629 v 0.6591 h -6.196329 q 0.08789,1.3917 0.834966,2.1241 0.7544,0.7251 2.09474,0.7251 0.776373,0 1.501475,-0.1904 0.732426,-0.1905 1.450205,-0.5713 v 1.2744 q -0.725103,0.3076 -1.486826,0.4687 -0.761724,0.1612 -1.545421,0.1612 -1.962903,0 -3.112813,-1.1426 -1.142585,-1.1426 -1.142585,-3.0909 0,-2.0141 1.083991,-3.1933 1.091316,-1.1866 2.937031,-1.1866 1.655284,0 2.614763,1.0694 0.966803,1.062 0.966803,2.8931 z m -1.347665,-0.3955 q -0.01465,-1.106 -0.622563,-1.7652 -0.600589,-0.6592 -1.59669,-0.6592 -1.127937,0 -1.809093,0.6372 -0.673833,0.6372 -0.776373,1.7945 z"
             style="stroke:#decd11;stroke-width:1.37697518;stroke-miterlimit:4;stroke-dasharray:none;stroke-opacity:1"
             id="path9323" />
          <path
             inkscape:connector-curvature="0"
             d="m -65.577343,1362.6982 h 1.347665 l 1.684582,6.4014 1.677256,-6.4014 h 1.589366 l 1.684581,6.4014 1.677257,-6.4014 h 1.347665 l -2.14601,8.2032 h -1.589365 l -1.765148,-6.7237 -1.772473,6.7237 h -1.589366 z"
             style="stroke:#decd11;stroke-width:1.37697518;stroke-miterlimit:4;stroke-dasharray:none;stroke-opacity:1"
             id="path9325" />
          <path
             inkscape:connector-curvature="0"
             d="m -52.518164,1362.6982 h 1.347665 v 8.2032 h -1.347665 z m 0,-3.1934 h 1.347665 v 1.7066 h -1.347665 z"
             style="stroke:#decd11;stroke-width:1.37697518;stroke-miterlimit:4;stroke-dasharray:none;stroke-opacity:1"
             id="path9327" />
          <path
             inkscape:connector-curvature="0"
             d="m -47.024976,1360.3691 v 2.3291 h 2.775897 v 1.0474 h -2.775897 v 4.4531 q 0,1.0034 0.270998,1.2891 0.278322,0.2856 1.120613,0.2856 h 1.384286 v 1.128 h -1.384286 q -1.560069,0 -2.153335,-0.5786 -0.593265,-0.586 -0.593265,-2.1241 v -4.4531 h -0.988776 v -1.0474 h 0.988776 v -2.3291 z"
             style="stroke:#decd11;stroke-width:1.37697518;stroke-miterlimit:4;stroke-dasharray:none;stroke-opacity:1"
             id="path9329" />
          <path
             inkscape:connector-curvature="0"
             d="m -35.650383,1365.9502 v 4.9512 h -1.347665 v -4.9073 q 0,-1.1645 -0.454105,-1.7432 -0.454104,-0.5786 -1.362313,-0.5786 -1.091316,0 -1.721203,0.6958 -0.629886,0.6958 -0.629886,1.897 v 4.6363 h -1.35499 v -11.3966 h 1.35499 v 4.4678 q 0.483401,-0.7397 1.135261,-1.106 0.659184,-0.3662 1.516123,-0.3662 1.413583,0 2.138686,0.8789 0.725102,0.8716 0.725102,2.5709 z"
             style="stroke:#decd11;stroke-width:1.37697518;stroke-miterlimit:4;stroke-dasharray:none;stroke-opacity:1"
             id="path9331" />
          <path
             inkscape:connector-curvature="0"
             d="m -24.7592,1371.6631 q -0.571293,1.4648 -1.113289,1.9116 -0.541995,0.4468 -1.450204,0.4468 h -1.076668 v -1.1279 h 0.791021 q 0.556644,0 0.864264,-0.2637 0.307619,-0.2637 0.681156,-1.2451 l 0.241701,-0.6153 -3.317892,-8.0713 h 1.428231 l 2.563494,6.416 2.563493,-6.416 h 1.428232 z"
             style="stroke:#decd11;stroke-width:1.37697518;stroke-miterlimit:4;stroke-dasharray:none;stroke-opacity:1"
             id="path9333" />
          <path
             inkscape:connector-curvature="0"
             d="m -16.116563,1363.643 q -1.083991,0 -1.713878,0.8496 -0.629887,0.8423 -0.629887,2.3145 0,1.4722 0.622563,2.3218 0.629887,0.8423 1.721202,0.8423 1.076668,0 1.706554,-0.8496 0.629887,-0.8496 0.629887,-2.3145 0,-1.4575 -0.629887,-2.3071 -0.629886,-0.857 -1.706554,-0.857 z m 0,-1.1426 q 1.757824,0 2.761249,1.1426 1.003424,1.1426 1.003424,3.1641 0,2.0142 -1.003424,3.1641 -1.003425,1.1426 -2.761249,1.1426 -1.765148,0 -2.768572,-1.1426 -0.9961,-1.1499 -0.9961,-3.1641 0,-2.0215 0.9961,-3.1641 1.003424,-1.1426 2.768572,-1.1426 z"
             style="stroke:#decd11;stroke-width:1.37697518;stroke-miterlimit:4;stroke-dasharray:none;stroke-opacity:1"
             id="path9335" />
          <path
             inkscape:connector-curvature="0"
             d="m -10.264472,1367.664 v -4.9658 h 1.3476647 v 4.9146 q 0,1.1645 0.4541045,1.7505 0.4541045,0.5786 1.3623135,0.5786 1.0913157,0 1.7212026,-0.6958 0.6372111,-0.6958 0.6372111,-1.897 v -4.6509 h 1.347665 v 8.2032 h -1.347665 v -1.2598 q -0.4907258,0.7471 -1.1425855,1.1133 -0.6445354,0.3589 -1.5014746,0.3589 -1.4135834,0 -2.14601,-0.8789 -0.7324263,-0.879 -0.7324263,-2.5709 z m 3.3911349,-5.1636 z"
             style="stroke:#decd11;stroke-width:1.37697518;stroke-miterlimit:4;stroke-dasharray:none;stroke-opacity:1"
             id="path9337" />
        </g>
      </g>
    </g>
  </g>
</svg>
