<?xml version="1.0" encoding="UTF-8" standalone="no"?>
<!-- Created with Inkscape (http://www.inkscape.org/) -->

<svg
   xmlns:dc="http://purl.org/dc/elements/1.1/"
   xmlns:cc="http://creativecommons.org/ns#"
   xmlns:rdf="http://www.w3.org/1999/02/22-rdf-syntax-ns#"
   xmlns:svg="http://www.w3.org/2000/svg"
   xmlns="http://www.w3.org/2000/svg"
   xmlns:sodipodi="http://sodipodi.sourceforge.net/DTD/sodipodi-0.dtd"
   xmlns:inkscape="http://www.inkscape.org/namespaces/inkscape"
   width="190.92102mm"
   height="105.11386mm"
   viewBox="0 0 190.92102 105.11386"
   version="1.1"
   id="svg1526"
   inkscape:version="0.92.4 (5da689c313, 2019-01-14)"
   sodipodi:docname="greywash.svg">
  <defs
     id="defs1520" />
  <sodipodi:namedview
     id="base"
     pagecolor="#ffffff"
     bordercolor="#666666"
     borderopacity="1.0"
     inkscape:pageopacity="0.0"
     inkscape:pageshadow="2"
     inkscape:zoom="0.35"
     inkscape:cx="220.7957"
     inkscape:cy="-89.931044"
     inkscape:document-units="mm"
     inkscape:current-layer="layer1"
     showgrid="false"
     inkscape:window-width="1920"
     inkscape:window-height="1043"
     inkscape:window-x="0"
     inkscape:window-y="1098"
     inkscape:window-maximized="0" />
  <metadata
     id="metadata1523">
    <rdf:RDF>
      <cc:Work
         rdf:about="">
        <dc:format>image/svg+xml</dc:format>
        <dc:type
           rdf:resource="http://purl.org/dc/dcmitype/StillImage" />
        <dc:title></dc:title>
      </cc:Work>
    </rdf:RDF>
  </metadata>
  <g
     inkscape:label="Layer 1"
     inkscape:groupmode="layer"
     id="layer1"
     transform="translate(100.7522,-19.925219)">
    <g
       transform="matrix(7.5672492,0,0,7.5672492,2596.3539,-1186.8875)"
       id="g3049">
      <path
         inkscape:connector-curvature="0"
         style="opacity:1;fill:#e2e3db;fill-opacity:1;stroke:none;stroke-width:34.58555222;stroke-linecap:round;stroke-linejoin:miter;stroke-miterlimit:4;stroke-dasharray:none;stroke-dashoffset:0;stroke-opacity:1"
         d="m -356.4183,159.47839 h 25.22991 v 13.89063 h -25.22991 z"
         id="rect2973" />
      <g
         transform="matrix(0.03276713,0,0,0.03276713,-295.91016,143.06251)"
         id="g2887">
        <g
           aria-label="Greywash"
           style="font-style:normal;font-variant:normal;font-weight:normal;font-stretch:normal;font-size:111.01917267px;line-height:1.25;font-family:'Ubuntu Condensed';-inkscape-font-specification:'Ubuntu Condensed, Normal';font-variant-ligatures:normal;font-variant-caps:normal;font-variant-numeric:normal;font-feature-settings:normal;text-align:start;letter-spacing:0px;word-spacing:0px;writing-mode:lr-tb;text-anchor:start;fill:#000000;fill-opacity:1;stroke:none;stroke-width:2.77548742"
           id="text2391">
          <path
             inkscape:connector-curvature="0"
             d="m -1511.1223,567.72397 q 0,-10.87988 1.9983,-18.54021 1.9984,-7.66032 5.662,-12.43414 3.7746,-4.88485 8.9925,-6.99421 5.329,-2.22038 11.8791,-2.22038 4.9959,0 9.1036,1.44325 4.1077,1.33223 6.6611,3.10853 l -3.1085,8.32644 q -2.5535,-1.77631 -5.551,-2.8865 -2.9975,-1.22121 -6.8832,-1.22121 -9.6586,0 -13.8774,7.88236 -4.2187,7.77134 -4.2187,23.53607 0,8.43745 1.2212,14.43249 1.3322,5.99503 3.6636,9.76969 2.3314,3.77465 5.662,5.55095 3.3306,1.77631 7.4383,1.77631 3.4416,0 5.884,-0.77713 v -30.0862 h 9.9917 v 36.19225 q -2.9975,1.44325 -7.4382,2.44242 -4.4408,0.99918 -9.3256,0.99918 -5.9951,0 -11.102,-2.33141 -5.1068,-2.44242 -8.8815,-7.32726 -3.6636,-4.99586 -5.773,-12.54517 -1.9983,-7.66032 -1.9983,-18.09612 z"
             style="font-style:normal;font-variant:normal;font-weight:normal;font-stretch:normal;font-size:111.01917267px;font-family:'Ubuntu Condensed';-inkscape-font-specification:'Ubuntu Condensed, Normal';font-variant-ligatures:normal;font-variant-caps:normal;font-variant-numeric:normal;font-feature-settings:normal;text-align:start;writing-mode:lr-tb;text-anchor:start;stroke-width:2.77548742"
             id="path9712" />
          <path
             inkscape:connector-curvature="0"
             d="m -1425.0391,556.62205 q -3.5526,-1.55427 -7.9934,-1.55427 -4.1077,0 -7.6603,1.44325 v 49.73659 h -9.5477 v -55.73163 q 3.2196,-1.55426 7.3273,-2.55344 4.2187,-1.11019 9.2146,-1.11019 2.6645,0 5.3289,0.33306 2.6645,0.33306 4.9959,1.22121 z"
             style="font-style:normal;font-variant:normal;font-weight:normal;font-stretch:normal;font-size:111.01917267px;font-family:'Ubuntu Condensed';-inkscape-font-specification:'Ubuntu Condensed, Normal';font-variant-ligatures:normal;font-variant-caps:normal;font-variant-numeric:normal;font-feature-settings:normal;text-align:start;writing-mode:lr-tb;text-anchor:start;stroke-width:2.77548742"
             id="path9714" />
          <path
             inkscape:connector-curvature="0"
             d="m -1408.3463,579.93608 q 0.111,4.21872 0.7771,7.77134 0.6661,3.44159 2.1094,6.10605 1.5542,2.55344 3.9966,3.99669 2.5535,1.44325 6.4392,1.44325 3.2195,0 5.884,-0.88815 2.7755,-0.99917 3.9967,-1.66529 l 1.7763,7.66032 q -1.4433,0.99918 -4.8849,2.10937 -3.3305,1.22121 -7.9934,1.22121 -6.106,0 -10.3247,-2.22038 -4.1077,-2.22039 -6.7722,-6.21708 -2.5534,-3.99669 -3.6636,-9.54765 -1.1102,-5.55096 -1.1102,-12.21211 0,-16.09778 5.3289,-23.53606 5.3289,-7.43829 14.0994,-7.43829 9.8807,0 13.9884,7.43829 4.1078,7.43828 4.1078,20.8716 0,1.22121 0,2.55344 0,1.22122 -0.1111,2.55345 z m 9.6586,-25.31238 q -4.7738,0 -6.9942,4.77383 -2.1093,4.77382 -2.5534,12.7672 h 17.652 q 0,-8.1044 -1.6653,-12.7672 -1.6653,-4.77383 -6.4391,-4.77383 z"
             style="font-style:normal;font-variant:normal;font-weight:normal;font-stretch:normal;font-size:111.01917267px;font-family:'Ubuntu Condensed';-inkscape-font-specification:'Ubuntu Condensed, Normal';font-variant-ligatures:normal;font-variant-caps:normal;font-variant-numeric:normal;font-feature-settings:normal;text-align:start;writing-mode:lr-tb;text-anchor:start;stroke-width:2.77548742"
             id="path9716" />
          <path
             inkscape:connector-curvature="0"
             d="m -1353.7596,594.14653 q 3.2196,-11.10192 5.884,-22.31485 2.6645,-11.21294 5.1069,-23.86913 h 9.4366 q -1.6653,8.1044 -3.6636,15.98676 -1.8873,7.88237 -3.9967,15.20963 -1.9983,7.32727 -4.1077,13.8774 -1.9984,6.43911 -3.7747,11.76803 -2.1093,6.21707 -4.1077,10.4358 -1.8873,4.32975 -4.2187,6.88319 -2.2204,2.66446 -4.8848,3.77465 -2.6645,1.22121 -6.3281,1.22121 -1.9984,0 -3.9967,-0.55509 -1.9984,-0.44408 -3.3306,-0.99917 l 1.7763,-7.77135 q 2.8865,1.22121 5.4399,1.22121 3.2196,0 5.2179,-2.3314 1.9984,-2.3314 3.8857,-6.99421 l 1.1102,-2.77548 q -2.1094,-5.77299 -4.3297,-12.7672 -2.1094,-7.10523 -4.2188,-14.76555 -1.9983,-7.66032 -3.8856,-15.6537 -1.8874,-8.1044 -3.4416,-15.76473 h 10.1027 q 0.8882,5.21791 2.1094,11.43498 1.2212,6.21707 2.5534,12.43415 1.4433,6.21707 2.8865,12.10109 1.4433,5.77299 2.7755,10.21376 z"
             style="font-style:normal;font-variant:normal;font-weight:normal;font-stretch:normal;font-size:111.01917267px;font-family:'Ubuntu Condensed';-inkscape-font-specification:'Ubuntu Condensed, Normal';font-variant-ligatures:normal;font-variant-caps:normal;font-variant-numeric:normal;font-feature-settings:normal;text-align:start;writing-mode:lr-tb;text-anchor:start;stroke-width:2.77548742"
             id="path9718" />
          <path
             inkscape:connector-curvature="0"
             d="m -1305.0361,606.24762 h -9.6586 q -3.4416,-11.43498 -6.5502,-26.31154 -2.9975,-14.87657 -5.5509,-31.97353 h 9.4366 q 0.4441,4.77383 1.3322,11.21294 0.8882,6.32809 1.8874,13.10026 1.1102,6.66115 2.2203,12.98925 1.1102,6.21707 2.1094,10.65784 0.9992,-4.44077 2.2204,-10.87988 1.3322,-6.43911 2.5534,-13.21128 1.3323,-6.77217 2.4425,-13.10027 1.1101,-6.43911 1.7763,-10.76886 h 8.9925 q 0.4441,4.32975 1.3322,10.65784 0.9992,6.3281 1.9984,13.21129 1.1102,6.77217 2.2204,13.21128 1.1102,6.43911 1.9983,10.87988 0.9992,-4.44077 2.1094,-10.76886 1.1102,-6.3281 2.1094,-12.98925 1.1101,-6.66115 1.9983,-12.98924 0.8881,-6.43911 1.3322,-11.21294 h 9.1036 q -2.5534,17.09696 -5.662,31.97353 -2.9975,14.87656 -6.4391,26.31154 h -9.3256 q -0.8882,-3.44159 -1.9983,-8.77052 -0.9992,-5.43993 -2.1094,-11.54599 -0.9992,-6.10605 -1.8873,-12.21211 -0.8882,-6.21707 -1.5543,-11.32395 -0.6661,5.10688 -1.7763,11.32395 -1.1102,6.10606 -2.3314,12.21211 -1.2212,6.10606 -2.4424,11.54599 -1.1102,5.32893 -1.8874,8.77052 z"
             style="font-style:normal;font-variant:normal;font-weight:normal;font-stretch:normal;font-size:111.01917267px;font-family:'Ubuntu Condensed';-inkscape-font-specification:'Ubuntu Condensed, Normal';font-variant-ligatures:normal;font-variant-caps:normal;font-variant-numeric:normal;font-feature-settings:normal;text-align:start;writing-mode:lr-tb;text-anchor:start;stroke-width:2.77548742"
             id="path9720" />
          <path
             inkscape:connector-curvature="0"
             d="m -1257.0203,549.18376 q 2.8865,-1.22121 6.1061,-1.88732 3.2195,-0.77714 6.9942,-0.77714 7.7713,0 12.6562,4.88485 4.8848,4.77382 4.8848,14.98759 v 38.63467 q -3.9967,1.11019 -8.2154,1.77631 -4.1077,0.66611 -8.1044,0.66611 -3.9967,0 -7.5493,-0.99917 -3.4416,-0.99917 -6.1061,-3.21956 -2.5534,-2.22038 -4.1077,-5.55096 -1.5542,-3.44159 -1.5542,-8.32643 0,-4.55179 1.3322,-7.88237 1.4432,-3.44159 3.8857,-5.66197 2.4424,-2.33141 5.773,-3.4416 3.3305,-1.22121 7.2162,-1.22121 3.6636,0 8.1044,0.88815 v -5.32892 q 0,-6.43911 -2.5534,-8.99255 -2.4424,-2.55344 -7.1053,-2.55344 -2.5534,0 -4.8848,0.5551 -2.2204,0.44407 -4.7738,1.55426 z m 4.5518,40.07793 q 0,5.10688 2.6645,7.5493 2.6644,2.44242 7.5493,2.44242 2.9975,0 6.5501,-0.77713 v -18.5402 q -3.3306,-0.88816 -6.5501,-0.88816 -2.1094,0 -3.9967,0.5551 -1.8873,0.44407 -3.3306,1.66529 -1.3322,1.11019 -2.1093,3.10853 -0.7772,1.88733 -0.7772,4.88485 z"
             style="font-style:normal;font-variant:normal;font-weight:normal;font-stretch:normal;font-size:111.01917267px;font-family:'Ubuntu Condensed';-inkscape-font-specification:'Ubuntu Condensed, Normal';font-variant-ligatures:normal;font-variant-caps:normal;font-variant-numeric:normal;font-feature-settings:normal;text-align:start;writing-mode:lr-tb;text-anchor:start;stroke-width:2.77548742"
             id="path9722" />
          <path
             inkscape:connector-curvature="0"
             d="m -1201.6668,599.47545 q 4.2187,0 6.3281,-2.3314 2.2204,-2.44242 2.2204,-6.3281 0,-2.44242 -0.8882,-4.1077 -0.8881,-1.77631 -2.3314,-3.10854 -1.4432,-1.33223 -3.3306,-2.3314 -1.8873,-1.1102 -3.7746,-2.33141 -1.8873,-1.11019 -3.6636,-2.55344 -1.7763,-1.55427 -3.2196,-3.44159 -1.3322,-1.99835 -2.2204,-4.44077 -0.7771,-2.55344 -0.7771,-5.88402 0,-7.21624 4.4408,-11.65701 4.5517,-4.44077 12.2121,-4.44077 3.2195,0 6.106,0.88816 2.8865,0.77713 4.7738,1.7763 l -2.1093,7.66033 q -1.9984,-1.11019 -3.9967,-1.66529 -1.9984,-0.5551 -4.3298,-0.5551 -3.5526,0 -5.6619,2.10937 -2.1094,1.99834 -2.1094,5.88401 0,2.22039 0.7771,3.88568 0.7772,1.55426 1.9984,2.88649 1.3322,1.22122 2.8865,2.33141 1.6653,1.11019 3.4416,2.10936 2.1093,1.22121 4.1077,2.66446 2.1093,1.44325 3.6636,3.4416 1.6653,1.88732 2.6645,4.55178 0.9991,2.55344 0.9991,6.21708 0,7.66032 -4.5517,12.32312 -4.4408,4.66281 -13.1003,4.66281 -4.4408,0 -7.9934,-1.22121 -3.5526,-1.22121 -5.3289,-2.22039 l 1.9983,-7.88236 q 1.6653,0.88816 4.4408,1.99835 2.8865,1.11019 6.3281,1.11019 z"
             style="font-style:normal;font-variant:normal;font-weight:normal;font-stretch:normal;font-size:111.01917267px;font-family:'Ubuntu Condensed';-inkscape-font-specification:'Ubuntu Condensed, Normal';font-variant-ligatures:normal;font-variant-caps:normal;font-variant-numeric:normal;font-feature-settings:normal;text-align:start;writing-mode:lr-tb;text-anchor:start;stroke-width:2.77548742"
             id="path9724" />
          <path
             inkscape:connector-curvature="0"
             d="m -1171.8252,606.24762 v -84.48559 l 9.5477,-1.66529 v 28.19887 q 2.1093,-0.66611 4.5518,-1.11019 2.5534,-0.44408 5.1068,-0.44408 3.6637,0 6.8832,1.22121 3.2196,1.1102 5.551,3.88568 2.4424,2.77547 3.7746,7.5493 1.4433,4.6628 1.4433,11.65701 v 35.19308 h -9.5477 v -34.41594 q 0,-8.6595 -2.2204,-12.65619 -2.2203,-3.99669 -8.3264,-3.99669 -3.2195,0 -7.2162,1.11019 v 49.95863 z"
             style="font-style:normal;font-variant:normal;font-weight:normal;font-stretch:normal;font-size:111.01917267px;font-family:'Ubuntu Condensed';-inkscape-font-specification:'Ubuntu Condensed, Normal';font-variant-ligatures:normal;font-variant-caps:normal;font-variant-numeric:normal;font-feature-settings:normal;text-align:start;writing-mode:lr-tb;text-anchor:start;stroke-width:2.77548742"
             id="path9726" />
        </g>
        <g
           aria-label="institoot"
           transform="scale(0.74365155,1.3447158)"
           style="font-style:normal;font-variant:normal;font-weight:100;font-stretch:ultra-condensed;font-size:183.41526794px;line-height:1.25;font-family:'Fira Sans Compressed';-inkscape-font-specification:'Fira Sans Compressed, Thin Ultra-Condensed';font-variant-ligatures:normal;font-variant-caps:normal;font-variant-numeric:normal;font-feature-settings:normal;text-align:start;letter-spacing:0px;word-spacing:0px;writing-mode:lr-tb;text-anchor:start;fill:#000000;fill-opacity:1;stroke:#000000;stroke-width:16.33011818;stroke-miterlimit:4;stroke-dasharray:none;stroke-opacity:1"
           id="text2395">
          <path
             inkscape:connector-curvature="0"
             d="m -2023.7216,475.70362 c -1.1005,0 -1.8341,0.73366 -1.8341,1.83415 0,1.1005 0.7336,1.83416 1.8341,1.83416 0.9171,0 1.8342,-0.73366 1.8342,-1.83416 0,-1.10049 -0.9171,-1.83415 -1.8342,-1.83415 z m 0.7337,35.58256 h -1.4673 v 94.8257 h 1.4673 z"
             style="font-style:normal;font-variant:normal;font-weight:100;font-stretch:ultra-condensed;font-size:183.41526794px;font-family:'Fira Sans Compressed';-inkscape-font-specification:'Fira Sans Compressed, Thin Ultra-Condensed';font-variant-ligatures:normal;font-variant-caps:normal;font-variant-numeric:normal;font-feature-settings:normal;text-align:start;writing-mode:lr-tb;text-anchor:start;stroke:#000000;stroke-width:16.33011818;stroke-miterlimit:4;stroke-dasharray:none;stroke-opacity:1"
             id="path9729" />
          <path
             inkscape:connector-curvature="0"
             d="m -1955.3105,509.45203 c -13.0225,0 -22.3767,8.98735 -29.3465,23.66057 l -0.1834,-21.82642 h -1.2839 v 94.8257 h 1.4673 V 535.497 c 7.1532,-15.22347 16.6908,-24.76106 29.163,-24.76106 13.5728,0 19.0752,10.27125 19.0752,26.22838 v 69.14756 h 1.4674 v -69.33097 c 0,-16.50738 -6.0527,-27.32888 -20.3591,-27.32888 z"
             style="font-style:normal;font-variant:normal;font-weight:100;font-stretch:ultra-condensed;font-size:183.41526794px;font-family:'Fira Sans Compressed';-inkscape-font-specification:'Fira Sans Compressed, Thin Ultra-Condensed';font-variant-ligatures:normal;font-variant-caps:normal;font-variant-numeric:normal;font-feature-settings:normal;text-align:start;writing-mode:lr-tb;text-anchor:start;stroke:#000000;stroke-width:16.33011818;stroke-miterlimit:4;stroke-dasharray:none;stroke-opacity:1"
             id="path9731" />
          <path
             inkscape:connector-curvature="0"
             d="m -1884.0422,509.45203 c -12.6557,0 -22.7435,9.35418 -22.7435,22.74349 0,11.37175 6.4195,17.05762 22.9269,24.0274 17.0576,7.33662 23.1103,11.922 23.1103,25.86156 0,15.22346 -9.9044,24.39423 -23.1103,24.39423 -11.5552,0 -18.3416,-4.7688 -24.7611,-11.73858 l -0.7337,1.10049 c 6.2362,6.96978 13.3894,12.10541 25.4948,12.10541 14.1229,0 24.5776,-10.08784 24.5776,-25.86155 0,-14.48981 -6.6029,-19.62544 -23.844,-26.96205 -16.1405,-6.96978 -22.1932,-12.28882 -22.1932,-22.92691 0,-12.83906 9.5376,-21.45958 21.2762,-21.45958 9.3541,0 15.4068,3.11806 21.8264,9.53759 l 0.7336,-1.10049 c -6.2361,-6.41953 -12.839,-9.72101 -22.56,-9.72101 z"
             style="font-style:normal;font-variant:normal;font-weight:100;font-stretch:ultra-condensed;font-size:183.41526794px;font-family:'Fira Sans Compressed';-inkscape-font-specification:'Fira Sans Compressed, Thin Ultra-Condensed';font-variant-ligatures:normal;font-variant-caps:normal;font-variant-numeric:normal;font-feature-settings:normal;text-align:start;writing-mode:lr-tb;text-anchor:start;stroke:#000000;stroke-width:16.33011818;stroke-miterlimit:4;stroke-dasharray:none;stroke-opacity:1"
             id="path9733" />
          <path
             inkscape:connector-curvature="0"
             d="m -1802.196,601.5265 c -3.8518,2.93464 -7.7035,4.95221 -13.7562,4.95221 -9.3542,0 -14.6732,-6.41954 -14.6732,-17.60787 v -76.30075 h 21.643 l 0.1834,-1.28391 h -21.8264 v -24.57764 l -1.4673,0.18341 v 24.39423 h -13.0225 v 1.28391 h 13.0225 v 76.30075 c 0,12.10541 6.0527,19.07519 16.1405,19.07519 6.4195,0 10.6381,-2.3844 14.4898,-5.31904 z"
             style="font-style:normal;font-variant:normal;font-weight:100;font-stretch:ultra-condensed;font-size:183.41526794px;font-family:'Fira Sans Compressed';-inkscape-font-specification:'Fira Sans Compressed, Thin Ultra-Condensed';font-variant-ligatures:normal;font-variant-caps:normal;font-variant-numeric:normal;font-feature-settings:normal;text-align:start;writing-mode:lr-tb;text-anchor:start;stroke:#000000;stroke-width:16.33011818;stroke-miterlimit:4;stroke-dasharray:none;stroke-opacity:1"
             id="path9735" />
          <path
             inkscape:connector-curvature="0"
             d="m -1781.1979,475.70362 c -1.1004,0 -1.8341,0.73366 -1.8341,1.83415 0,1.1005 0.7337,1.83416 1.8341,1.83416 0.9171,0 1.8342,-0.73366 1.8342,-1.83416 0,-1.10049 -0.9171,-1.83415 -1.8342,-1.83415 z m 0.7337,35.58256 h -1.4673 v 94.8257 h 1.4673 z"
             style="font-style:normal;font-variant:normal;font-weight:100;font-stretch:ultra-condensed;font-size:183.41526794px;font-family:'Fira Sans Compressed';-inkscape-font-specification:'Fira Sans Compressed, Thin Ultra-Condensed';font-variant-ligatures:normal;font-variant-caps:normal;font-variant-numeric:normal;font-feature-settings:normal;text-align:start;writing-mode:lr-tb;text-anchor:start;stroke:#000000;stroke-width:16.33011818;stroke-miterlimit:4;stroke-dasharray:none;stroke-opacity:1"
             id="path9737" />
          <path
             inkscape:connector-curvature="0"
             d="m -1714.0708,601.5265 c -3.8517,2.93464 -7.7034,4.95221 -13.7561,4.95221 -9.3542,0 -14.6732,-6.41954 -14.6732,-17.60787 v -76.30075 h 21.643 l 0.1834,-1.28391 h -21.8264 v -24.57764 l -1.4673,0.18341 v 24.39423 h -13.0225 v 1.28391 h 13.0225 v 76.30075 c 0,12.10541 6.0527,19.07519 16.1405,19.07519 6.4195,0 10.6381,-2.3844 14.4898,-5.31904 z"
             style="font-style:normal;font-variant:normal;font-weight:100;font-stretch:ultra-condensed;font-size:183.41526794px;font-family:'Fira Sans Compressed';-inkscape-font-specification:'Fira Sans Compressed, Thin Ultra-Condensed';font-variant-ligatures:normal;font-variant-caps:normal;font-variant-numeric:normal;font-feature-settings:normal;text-align:start;writing-mode:lr-tb;text-anchor:start;stroke:#000000;stroke-width:16.33011818;stroke-miterlimit:4;stroke-dasharray:none;stroke-opacity:1"
             id="path9739" />
          <path
             inkscape:connector-curvature="0"
             d="m -1671.7534,509.45203 c -18.5249,0 -30.6303,15.22347 -30.6303,49.33871 0,33.19816 11.3717,49.15529 30.2635,49.15529 18.7083,0 30.4469,-15.5903 30.4469,-49.88895 0,-33.38158 -11.5552,-48.60505 -30.0801,-48.60505 z m 0,1.28391 c 17.7913,0 28.6128,14.85663 28.6128,47.32114 0,33.56499 -11.0049,48.42163 -28.9796,48.42163 -17.9747,0 -28.7962,-15.04005 -28.7962,-47.68797 0,-33.38158 11.5551,-48.0548 29.163,-48.0548 z"
             style="font-style:normal;font-variant:normal;font-weight:100;font-stretch:ultra-condensed;font-size:183.41526794px;font-family:'Fira Sans Compressed';-inkscape-font-specification:'Fira Sans Compressed, Thin Ultra-Condensed';font-variant-ligatures:normal;font-variant-caps:normal;font-variant-numeric:normal;font-feature-settings:normal;text-align:start;writing-mode:lr-tb;text-anchor:start;stroke:#000000;stroke-width:16.33011818;stroke-miterlimit:4;stroke-dasharray:none;stroke-opacity:1"
             id="path9741" />
          <path
             inkscape:connector-curvature="0"
             d="m -1587.5686,509.45203 c -18.525,0 -30.6304,15.22347 -30.6304,49.33871 0,33.19816 11.3718,49.15529 30.2635,49.15529 18.7084,0 30.447,-15.5903 30.447,-49.88895 0,-33.38158 -11.5552,-48.60505 -30.0801,-48.60505 z m 0,1.28391 c 17.7912,0 28.6127,14.85663 28.6127,47.32114 0,33.56499 -11.0049,48.42163 -28.9796,48.42163 -17.9747,0 -28.7962,-15.04005 -28.7962,-47.68797 0,-33.38158 11.5552,-48.0548 29.1631,-48.0548 z"
             style="font-style:normal;font-variant:normal;font-weight:100;font-stretch:ultra-condensed;font-size:183.41526794px;font-family:'Fira Sans Compressed';-inkscape-font-specification:'Fira Sans Compressed, Thin Ultra-Condensed';font-variant-ligatures:normal;font-variant-caps:normal;font-variant-numeric:normal;font-feature-settings:normal;text-align:start;writing-mode:lr-tb;text-anchor:start;stroke:#000000;stroke-width:16.33011818;stroke-miterlimit:4;stroke-dasharray:none;stroke-opacity:1"
             id="path9743" />
          <path
             inkscape:connector-curvature="0"
             d="m -1497.698,601.5265 c -3.8518,2.93464 -7.7035,4.95221 -13.7562,4.95221 -9.3542,0 -14.6732,-6.41954 -14.6732,-17.60787 v -76.30075 h 21.643 l 0.1834,-1.28391 h -21.8264 v -24.57764 l -1.4673,0.18341 v 24.39423 h -13.0225 v 1.28391 h 13.0225 v 76.30075 c 0,12.10541 6.0527,19.07519 16.1405,19.07519 6.4195,0 10.6381,-2.3844 14.4898,-5.31904 z"
             style="font-style:normal;font-variant:normal;font-weight:100;font-stretch:ultra-condensed;font-size:183.41526794px;font-family:'Fira Sans Compressed';-inkscape-font-specification:'Fira Sans Compressed, Thin Ultra-Condensed';font-variant-ligatures:normal;font-variant-caps:normal;font-variant-numeric:normal;font-feature-settings:normal;text-align:start;writing-mode:lr-tb;text-anchor:start;stroke:#000000;stroke-width:16.33011818;stroke-miterlimit:4;stroke-dasharray:none;stroke-opacity:1"
             id="path9745" />
        </g>
        <g
           id="g2790"
           transform="translate(-21.166667,-6.0476191)">
          <g
             id="g2410"
             transform="matrix(0.42759324,0.2430966,-0.44403573,0.24630077,-207.276,742.00635)"
             style="fill:none;fill-opacity:1;stroke:#2d0000;stroke-width:16.74636269;stroke-miterlimit:4;stroke-dasharray:none;stroke-opacity:1">
            <path
               inkscape:connector-curvature="0"
               style="opacity:1;fill:none;fill-opacity:1;stroke:#2d0000;stroke-width:16.74636269;stroke-linecap:square;stroke-linejoin:miter;stroke-miterlimit:4;stroke-dasharray:none;stroke-dashoffset:0;stroke-opacity:1"
               d="m -1872.4481,1540.2282 a 184.85443,149.80724 0 0 1 -190.223,10.0174 184.85443,149.80724 0 0 1 -100.0033,-131.5181"
               id="path2401" />
            <path
               inkscape:connector-curvature="0"
               transform="matrix(-0.36371989,-0.93150837,0.7662742,-0.6425137,0,0)"
               style="opacity:1;fill:none;fill-opacity:1;stroke:#2d0000;stroke-width:17.20418549;stroke-linecap:square;stroke-linejoin:miter;stroke-miterlimit:4;stroke-dasharray:none;stroke-dashoffset:0;stroke-opacity:1"
               d="m 277.05352,-2259.8392 a 171.83865,142.5491 0 0 1 -176.82918,9.5321 171.83865,142.5491 0 0 1 -92.9619691,-125.146"
               id="path2403" />
            <path
               inkscape:connector-curvature="0"
               transform="matrix(-0.50156161,0.86512193,-0.89582365,-0.4444097,0,0)"
               style="opacity:1;fill:none;fill-opacity:1;stroke:#2d0000;stroke-width:16.76401138;stroke-linecap:square;stroke-linejoin:miter;stroke-miterlimit:4;stroke-dasharray:none;stroke-dashoffset:0;stroke-opacity:1"
               d="m 2181.0221,1198.6174 a 179.8783,187.79176 0 0 1 -185.1023,12.5574 179.8783,187.79176 0 0 1 -97.3113,-164.8652"
               id="path2405" />
          </g>
          <g
             transform="matrix(0.42759324,0.2430966,-0.44403573,0.24630077,-208.97708,978.53422)"
             id="g2418"
             style="fill:#241f1c;fill-opacity:1;stroke:#2d0000;stroke-width:16.74636269;stroke-miterlimit:4;stroke-dasharray:none;stroke-opacity:1">
            <path
               inkscape:connector-curvature="0"
               style="opacity:1;fill:#241f1c;fill-opacity:1;stroke:#2d0000;stroke-width:16.74636269;stroke-linecap:square;stroke-linejoin:miter;stroke-miterlimit:4;stroke-dasharray:none;stroke-dashoffset:0;stroke-opacity:1"
               d="m -1872.4481,1540.2282 a 184.85443,149.80724 0 0 1 -190.223,10.0174 184.85443,149.80724 0 0 1 -100.0033,-131.5181"
               id="path2412" />
            <path
               inkscape:connector-curvature="0"
               transform="matrix(-0.36371989,-0.93150837,0.7662742,-0.6425137,0,0)"
               style="opacity:1;fill:#241f1c;fill-opacity:1;stroke:#2d0000;stroke-width:17.20418549;stroke-linecap:square;stroke-linejoin:miter;stroke-miterlimit:4;stroke-dasharray:none;stroke-dashoffset:0;stroke-opacity:1"
               d="m 277.05352,-2259.8392 a 171.83865,142.5491 0 0 1 -176.82918,9.5321 171.83865,142.5491 0 0 1 -92.9619691,-125.146"
               id="path2414" />
            <path
               inkscape:connector-curvature="0"
               transform="matrix(-0.50156161,0.86512193,-0.89582365,-0.4444097,0,0)"
               style="opacity:1;fill:#241f1c;fill-opacity:1;stroke:#2d0000;stroke-width:16.76401138;stroke-linecap:square;stroke-linejoin:miter;stroke-miterlimit:4;stroke-dasharray:none;stroke-dashoffset:0;stroke-opacity:1"
               d="m 2181.0221,1198.6174 a 179.8783,187.79176 0 0 1 -185.1023,12.5574 179.8783,187.79176 0 0 1 -97.3113,-164.8652"
               id="path2416" />
          </g>
          <path
             style="fill:none;fill-opacity:1;stroke:#2d0000;stroke-width:7.7334857;stroke-linecap:butt;stroke-linejoin:miter;stroke-miterlimit:4;stroke-dasharray:none;stroke-opacity:1"
             d="m -1691.8385,666.18001 -1.7011,236.52775"
             id="path2420"
             inkscape:connector-curvature="0" />
          <path
             style="fill:none;fill-opacity:1;stroke:#2d0000;stroke-width:7.7334857;stroke-linecap:butt;stroke-linejoin:miter;stroke-miterlimit:4;stroke-dasharray:none;stroke-opacity:1"
             d="m -1763.6877,802.22907 1.701,-236.52787"
             id="path2422"
             inkscape:connector-curvature="0" />
          <path
             inkscape:connector-curvature="0"
             id="path2424"
             d="m -1693.5395,902.70789 1.701,-236.52788"
             style="fill:none;fill-opacity:1;stroke:#2d0000;stroke-width:7.7334857;stroke-linecap:butt;stroke-linejoin:miter;stroke-miterlimit:4;stroke-dasharray:none;stroke-opacity:1" />
          <path
             style="fill:none;fill-opacity:1;stroke:#2d0000;stroke-width:7.7334857;stroke-linecap:butt;stroke-linejoin:miter;stroke-miterlimit:4;stroke-dasharray:none;stroke-opacity:1"
             d="m -1663.143,909.64894 1.701,-236.52787"
             id="path2426"
             inkscape:connector-curvature="0"
             inkscape:transform-center-x="99.650245"
             inkscape:transform-center-y="3.0197016" />
          <path
             inkscape:transform-center-y="3.0197054"
             inkscape:transform-center-x="99.650229"
             inkscape:connector-curvature="0"
             id="path2428"
             d="m -1522.6444,827.13604 1.7011,-236.52788"
             style="fill:none;fill-opacity:1;stroke:#2d0000;stroke-width:7.7334857;stroke-linecap:butt;stroke-linejoin:miter;stroke-miterlimit:4;stroke-dasharray:none;stroke-opacity:1" />
          <path
             style="fill:none;fill-opacity:1;stroke:#2d0000;stroke-width:7.7334857;stroke-linecap:butt;stroke-linejoin:miter;stroke-miterlimit:4;stroke-dasharray:none;stroke-opacity:1"
             d="m -1539.8166,809.21264 1.701,-236.52787"
             id="path2430"
             inkscape:connector-curvature="0"
             inkscape:transform-center-x="99.650276"
             inkscape:transform-center-y="3.0197025" />
          <path
             inkscape:transform-center-y="3.0197013"
             inkscape:transform-center-x="99.650273"
             inkscape:connector-curvature="0"
             id="path2432"
             d="m -1737.1579,785.11565 1.7011,-236.52787"
             style="fill:none;fill-opacity:1;stroke:#2d0000;stroke-width:7.7334857;stroke-linecap:butt;stroke-linejoin:miter;stroke-miterlimit:4;stroke-dasharray:none;stroke-opacity:1" />
        </g>
        <g
           aria-label="Defense Consulting"
           style="font-style:normal;font-variant:normal;font-weight:normal;font-stretch:normal;font-size:37.30499649px;line-height:1.25;font-family:Ubuntu;-inkscape-font-specification:'Ubuntu, Normal';font-variant-ligatures:normal;font-variant-caps:normal;font-variant-numeric:normal;font-feature-settings:normal;text-align:start;letter-spacing:0px;word-spacing:0px;writing-mode:lr-tb;text-anchor:start;fill:#000000;fill-opacity:1;stroke:none;stroke-width:0.93262833"
           id="text2495">
          <path
             inkscape:connector-curvature="0"
             d="m -1418.174,864.71099 q 0,3.35745 -1.0445,5.85688 -1.0446,2.46213 -2.9471,4.10355 -1.9026,1.60412 -4.5512,2.42483 -2.6487,0.7834 -5.8196,0.7834 -1.5668,0 -3.4694,-0.14922 -1.8652,-0.11191 -3.3947,-0.48496 v -25.06896 q 1.5295,-0.37305 3.3947,-0.48496 1.9026,-0.14922 3.4694,-0.14922 3.1709,0 5.8196,0.82071 2.6486,0.7834 4.5512,2.42482 1.9025,1.60411 2.9471,4.10355 1.0445,2.46213 1.0445,5.81958 z m -14.064,9.99774 q 5.1481,0 7.6849,-2.61135 2.5367,-2.64866 2.5367,-7.38639 0,-4.73774 -2.5367,-7.34909 -2.5368,-2.64865 -7.6849,-2.64865 -1.5295,0 -2.3875,0.0373 -0.8207,0.0373 -1.1565,0.0746 v 19.77165 q 0.3358,0.0373 1.1565,0.0746 0.858,0.0373 2.3875,0.0373 z"
             style="font-style:normal;font-variant:normal;font-weight:normal;font-stretch:normal;font-size:37.30499649px;font-family:Ubuntu;-inkscape-font-specification:'Ubuntu, Normal';font-variant-ligatures:normal;font-variant-caps:normal;font-variant-numeric:normal;font-feature-settings:normal;text-align:start;writing-mode:lr-tb;text-anchor:start;stroke-width:0.93262833"
             id="path9754" />
          <path
             inkscape:connector-curvature="0"
             d="m -1414.1118,867.99383 q 0,-2.57405 0.7461,-4.4766 0.7461,-1.93986 1.9771,-3.20823 1.2311,-1.26837 2.8352,-1.90256 1.6041,-0.63418 3.2829,-0.63418 3.917,0 6.0061,2.46213 2.089,2.42482 2.089,7.42369 0,0.22383 0,0.59688 0,0.33575 -0.037,0.63419 h -13.2805 q 0.2238,3.0217 1.7533,4.58851 1.5295,1.56681 4.775,1.56681 1.828,0 3.059,-0.29844 1.2684,-0.33574 1.9026,-0.63418 l 0.485,2.90979 q -0.6342,0.33574 -2.2383,0.70879 -1.5668,0.37305 -3.5813,0.37305 -2.5368,0 -4.402,-0.7461 -1.828,-0.7834 -3.0217,-2.12638 -1.1938,-1.34298 -1.7907,-3.17093 -0.5595,-1.86525 -0.5595,-4.06624 z m 13.3179,-1.90256 q 0.037,-2.35021 -1.1938,-3.84241 -1.1938,-1.52951 -3.3201,-1.52951 -1.1938,0 -2.1264,0.48497 -0.8954,0.44766 -1.5295,1.19376 -0.6342,0.7461 -1.0073,1.71603 -0.3357,0.96993 -0.4476,1.97716 z"
             style="font-style:normal;font-variant:normal;font-weight:normal;font-stretch:normal;font-size:37.30499649px;font-family:Ubuntu;-inkscape-font-specification:'Ubuntu, Normal';font-variant-ligatures:normal;font-variant-caps:normal;font-variant-numeric:normal;font-feature-settings:normal;text-align:start;writing-mode:lr-tb;text-anchor:start;stroke-width:0.93262833"
             id="path9756" />
          <path
             inkscape:connector-curvature="0"
             d="m -1384.6187,848.70715 q 1.5295,0 2.6113,0.22383 1.1192,0.22383 1.5668,0.41035 l -0.6342,2.9844 q -0.4476,-0.22383 -1.2683,-0.41035 -0.8207,-0.22383 -2.0145,-0.22383 -2.4248,0 -3.3948,1.34298 -0.9699,1.30567 -0.9699,3.54397 v 1.67872 h 7.461 v 2.90979 h -7.461 v 16.48881 h -3.4693 v -21.15193 q 0,-3.7305 1.8279,-5.74497 1.8279,-2.05177 5.745,-2.05177 z"
             style="font-style:normal;font-variant:normal;font-weight:normal;font-stretch:normal;font-size:37.30499649px;font-family:Ubuntu;-inkscape-font-specification:'Ubuntu, Normal';font-variant-ligatures:normal;font-variant-caps:normal;font-variant-numeric:normal;font-feature-settings:normal;text-align:start;writing-mode:lr-tb;text-anchor:start;stroke-width:0.93262833"
             id="path9758" />
          <path
             inkscape:connector-curvature="0"
             d="m -1378.8469,867.99383 q 0,-2.57405 0.7461,-4.4766 0.7461,-1.93986 1.9771,-3.20823 1.2311,-1.26837 2.8352,-1.90256 1.6041,-0.63418 3.2828,-0.63418 3.9171,0 6.0061,2.46213 2.0891,2.42482 2.0891,7.42369 0,0.22383 0,0.59688 0,0.33575 -0.037,0.63419 h -13.2806 q 0.2239,3.0217 1.7534,4.58851 1.5295,1.56681 4.775,1.56681 1.828,0 3.059,-0.29844 1.2684,-0.33574 1.9026,-0.63418 l 0.4849,2.90979 q -0.6341,0.33574 -2.2383,0.70879 -1.5668,0.37305 -3.5812,0.37305 -2.5368,0 -4.402,-0.7461 -1.828,-0.7834 -3.0217,-2.12638 -1.1938,-1.34298 -1.7907,-3.17093 -0.5595,-1.86525 -0.5595,-4.06624 z m 13.3178,-1.90256 q 0.037,-2.35021 -1.1937,-3.84241 -1.1938,-1.52951 -3.3202,-1.52951 -1.1937,0 -2.1264,0.48497 -0.8953,0.44766 -1.5295,1.19376 -0.6341,0.7461 -1.0072,1.71603 -0.3357,0.96993 -0.4477,1.97716 z"
             style="font-style:normal;font-variant:normal;font-weight:normal;font-stretch:normal;font-size:37.30499649px;font-family:Ubuntu;-inkscape-font-specification:'Ubuntu, Normal';font-variant-ligatures:normal;font-variant-caps:normal;font-variant-numeric:normal;font-feature-settings:normal;text-align:start;writing-mode:lr-tb;text-anchor:start;stroke-width:0.93262833"
             id="path9760" />
          <path
             inkscape:connector-curvature="0"
             d="m -1356.9268,858.8168 q 1.1938,-0.29844 3.171,-0.63419 1.9771,-0.33574 4.5512,-0.33574 2.3129,0 3.8424,0.67149 1.5295,0.63418 2.4248,1.82794 0.9326,1.15646 1.3057,2.79788 0.373,1.64142 0.373,3.61858 v 10.89306 h -3.4693 v -10.14696 q 0,-1.79064 -0.2612,-3.05901 -0.2238,-1.26837 -0.7834,-2.05177 -0.5596,-0.78341 -1.4922,-1.11915 -0.9326,-0.37305 -2.3129,-0.37305 -0.5596,0 -1.1564,0.0373 -0.5969,0.0373 -1.1565,0.11192 -0.5223,0.0373 -0.9699,0.11191 -0.4104,0.0746 -0.5969,0.11192 v 16.37689 h -3.4694 z"
             style="font-style:normal;font-variant:normal;font-weight:normal;font-stretch:normal;font-size:37.30499649px;font-family:Ubuntu;-inkscape-font-specification:'Ubuntu, Normal';font-variant-ligatures:normal;font-variant-caps:normal;font-variant-numeric:normal;font-feature-settings:normal;text-align:start;writing-mode:lr-tb;text-anchor:start;stroke-width:0.93262833"
             id="path9762" />
          <path
             inkscape:connector-curvature="0"
             d="m -1330.9916,875.15639 q 2.1264,0 3.1336,-0.55958 1.0445,-0.55957 1.0445,-1.79064 0,-1.26837 -1.0072,-2.01447 -1.0072,-0.7461 -3.3202,-1.67872 -1.1191,-0.44766 -2.1636,-0.89532 -1.0073,-0.48497 -1.7534,-1.11915 -0.7461,-0.63419 -1.1937,-1.52951 -0.4477,-0.89532 -0.4477,-2.20099 0,-2.57405 1.9026,-4.06625 1.9025,-1.5295 5.1854,-1.5295 0.8207,0 1.6414,0.11191 0.8207,0.0746 1.5295,0.22383 0.7088,0.11192 1.231,0.26114 0.5596,0.14922 0.8581,0.26113 l -0.6342,2.9844 q -0.5596,-0.29844 -1.7534,-0.59688 -1.1937,-0.33574 -2.8724,-0.33574 -1.4549,0 -2.5368,0.59688 -1.0818,0.55957 -1.0818,1.79064 0,0.63418 0.2238,1.11915 0.2611,0.48496 0.7461,0.89532 0.5223,0.37305 1.2684,0.70879 0.7461,0.33575 1.7906,0.7088 1.3803,0.52227 2.4621,1.04454 1.0819,0.48496 1.828,1.15645 0.7834,0.67149 1.1937,1.64142 0.4104,0.93263 0.4104,2.31291 0,2.68596 -2.0145,4.06625 -1.9771,1.38028 -5.6703,1.38028 -2.5741,0 -4.029,-0.44766 -1.4549,-0.41035 -1.9771,-0.63418 l 0.6341,-2.9844 q 0.5969,0.22383 1.9026,0.67149 1.3057,0.44766 3.4694,0.44766 z"
             style="font-style:normal;font-variant:normal;font-weight:normal;font-stretch:normal;font-size:37.30499649px;font-family:Ubuntu;-inkscape-font-specification:'Ubuntu, Normal';font-variant-ligatures:normal;font-variant-caps:normal;font-variant-numeric:normal;font-feature-settings:normal;text-align:start;writing-mode:lr-tb;text-anchor:start;stroke-width:0.93262833"
             id="path9764" />
          <path
             inkscape:connector-curvature="0"
             d="m -1319.975,867.99383 q 0,-2.57405 0.7461,-4.4766 0.7461,-1.93986 1.9772,-3.20823 1.231,-1.26837 2.8351,-1.90256 1.6042,-0.63418 3.2829,-0.63418 3.917,0 6.0061,2.46213 2.0891,2.42482 2.0891,7.42369 0,0.22383 0,0.59688 0,0.33575 -0.037,0.63419 h -13.2806 q 0.2238,3.0217 1.7533,4.58851 1.5295,1.56681 4.7751,1.56681 1.8279,0 3.059,-0.29844 1.2683,-0.33574 1.9025,-0.63418 l 0.485,2.90979 q -0.6342,0.33574 -2.2383,0.70879 -1.5668,0.37305 -3.5813,0.37305 -2.5367,0 -4.402,-0.7461 -1.8279,-0.7834 -3.0217,-2.12638 -1.1937,-1.34298 -1.7906,-3.17093 -0.5596,-1.86525 -0.5596,-4.06624 z m 13.3179,-1.90256 q 0.037,-2.35021 -1.1938,-3.84241 -1.1937,-1.52951 -3.3201,-1.52951 -1.1938,0 -2.1264,0.48497 -0.8953,0.44766 -1.5295,1.19376 -0.6342,0.7461 -1.0072,1.71603 -0.3358,0.96993 -0.4477,1.97716 z"
             style="font-style:normal;font-variant:normal;font-weight:normal;font-stretch:normal;font-size:37.30499649px;font-family:Ubuntu;-inkscape-font-specification:'Ubuntu, Normal';font-variant-ligatures:normal;font-variant-caps:normal;font-variant-numeric:normal;font-feature-settings:normal;text-align:start;writing-mode:lr-tb;text-anchor:start;stroke-width:0.93262833"
             id="path9766" />
          <path
             inkscape:connector-curvature="0"
             d="m -1278.1165,878.2154 q -2.7232,0 -4.9615,-0.89532 -2.2383,-0.89532 -3.8424,-2.61135 -1.6042,-1.71603 -2.4995,-4.21547 -0.858,-2.53674 -0.858,-5.78227 0,-3.24554 0.9699,-5.74497 1.0073,-2.53674 2.686,-4.25277 1.6787,-1.71603 3.917,-2.61135 2.2383,-0.89532 4.7751,-0.89532 1.6041,0 2.8724,0.22383 1.3057,0.22383 2.2383,0.52227 0.97,0.29844 1.5668,0.59688 0.5969,0.29844 0.8208,0.44766 l -1.0446,2.9844 q -0.3357,-0.22383 -0.9699,-0.48497 -0.6342,-0.26113 -1.4549,-0.52227 -0.7834,-0.26113 -1.7533,-0.41035 -0.9327,-0.18653 -1.9026,-0.18653 -2.0518,0 -3.6932,0.7088 -1.6414,0.70879 -2.7979,2.05177 -1.1564,1.34298 -1.7906,3.28284 -0.5969,1.90256 -0.5969,4.29008 0,2.31291 0.5223,4.21546 0.5596,1.90256 1.6414,3.28284 1.0818,1.34298 2.686,2.08908 1.6414,0.7461 3.8051,0.7461 2.4994,0 4.1408,-0.52227 1.6414,-0.52227 2.4622,-0.93262 l 0.9326,2.9844 q -0.2612,0.18652 -0.9326,0.48496 -0.6715,0.26114 -1.6788,0.52227 -1.0072,0.26114 -2.3502,0.44766 -1.343,0.18653 -2.9098,0.18653 z"
             style="font-style:normal;font-variant:normal;font-weight:normal;font-stretch:normal;font-size:37.30499649px;font-family:Ubuntu;-inkscape-font-specification:'Ubuntu, Normal';font-variant-ligatures:normal;font-variant-caps:normal;font-variant-numeric:normal;font-feature-settings:normal;text-align:start;writing-mode:lr-tb;text-anchor:start;stroke-width:0.93262833"
             id="path9768" />
          <path
             inkscape:connector-curvature="0"
             d="m -1249.82,867.95652 q 0,2.31291 -0.6715,4.17816 -0.6715,1.86525 -1.9026,3.20823 -1.1937,1.34298 -2.8725,2.08908 -1.6787,0.7088 -3.6559,0.7088 -1.9771,0 -3.6558,-0.7088 -1.6788,-0.7461 -2.9098,-2.08908 -1.1938,-1.34298 -1.8653,-3.20823 -0.6715,-1.86525 -0.6715,-4.17816 0,-2.2756 0.6715,-4.14085 0.6715,-1.90256 1.8653,-3.24554 1.231,-1.34298 2.9098,-2.05177 1.6787,-0.7461 3.6558,-0.7461 1.9772,0 3.6559,0.7461 1.6788,0.70879 2.8725,2.05177 1.2311,1.34298 1.9026,3.24554 0.6715,1.86525 0.6715,4.14085 z m -3.6186,0 q 0,-3.28284 -1.4922,-5.18539 -1.4549,-1.93986 -3.9917,-1.93986 -2.5367,0 -4.0289,1.93986 -1.4549,1.90255 -1.4549,5.18539 0,3.28284 1.4549,5.2227 1.4922,1.90256 4.0289,1.90256 2.5368,0 3.9917,-1.90256 1.4922,-1.93986 1.4922,-5.2227 z"
             style="font-style:normal;font-variant:normal;font-weight:normal;font-stretch:normal;font-size:37.30499649px;font-family:Ubuntu;-inkscape-font-specification:'Ubuntu, Normal';font-variant-ligatures:normal;font-variant-caps:normal;font-variant-numeric:normal;font-feature-settings:normal;text-align:start;writing-mode:lr-tb;text-anchor:start;stroke-width:0.93262833"
             id="path9770" />
          <path
             inkscape:connector-curvature="0"
             d="m -1244.9389,858.8168 q 1.1938,-0.29844 3.1709,-0.63419 1.9772,-0.33574 4.5512,-0.33574 2.3129,0 3.8424,0.67149 1.5295,0.63418 2.4249,1.82794 0.9326,1.15646 1.3056,2.79788 0.3731,1.64142 0.3731,3.61858 v 10.89306 h -3.4694 v -10.14696 q 0,-1.79064 -0.2611,-3.05901 -0.2238,-1.26837 -0.7834,-2.05177 -0.5596,-0.78341 -1.4922,-1.11915 -0.9326,-0.37305 -2.3129,-0.37305 -0.5596,0 -1.1565,0.0373 -0.5969,0.0373 -1.1564,0.11192 -0.5223,0.0373 -0.97,0.11191 -0.4103,0.0746 -0.5968,0.11192 v 16.37689 h -3.4694 z"
             style="font-style:normal;font-variant:normal;font-weight:normal;font-stretch:normal;font-size:37.30499649px;font-family:Ubuntu;-inkscape-font-specification:'Ubuntu, Normal';font-variant-ligatures:normal;font-variant-caps:normal;font-variant-numeric:normal;font-feature-settings:normal;text-align:start;writing-mode:lr-tb;text-anchor:start;stroke-width:0.93262833"
             id="path9772" />
          <path
             inkscape:connector-curvature="0"
             d="m -1219.0038,875.15639 q 2.1264,0 3.1336,-0.55958 1.0446,-0.55957 1.0446,-1.79064 0,-1.26837 -1.0073,-2.01447 -1.0072,-0.7461 -3.3201,-1.67872 -1.1192,-0.44766 -2.1637,-0.89532 -1.0072,-0.48497 -1.7533,-1.11915 -0.7461,-0.63419 -1.1938,-1.52951 -0.4477,-0.89532 -0.4477,-2.20099 0,-2.57405 1.9026,-4.06625 1.9026,-1.5295 5.1854,-1.5295 0.8207,0 1.6414,0.11191 0.8207,0.0746 1.5295,0.22383 0.7088,0.11192 1.2311,0.26114 0.5596,0.14922 0.858,0.26113 l -0.6342,2.9844 q -0.5596,-0.29844 -1.7533,-0.59688 -1.1938,-0.33574 -2.8725,-0.33574 -1.4549,0 -2.5367,0.59688 -1.0819,0.55957 -1.0819,1.79064 0,0.63418 0.2238,1.11915 0.2612,0.48496 0.7461,0.89532 0.5223,0.37305 1.2684,0.70879 0.7461,0.33575 1.7907,0.7088 1.3802,0.52227 2.4621,1.04454 1.0818,0.48496 1.8279,1.15645 0.7834,0.67149 1.1938,1.64142 0.4103,0.93263 0.4103,2.31291 0,2.68596 -2.0144,4.06625 -1.9772,1.38028 -5.6704,1.38028 -2.574,0 -4.0289,-0.44766 -1.4549,-0.41035 -1.9772,-0.63418 l 0.6342,-2.9844 q 0.5969,0.22383 1.9025,0.67149 1.3057,0.44766 3.4694,0.44766 z"
             style="font-style:normal;font-variant:normal;font-weight:normal;font-stretch:normal;font-size:37.30499649px;font-family:Ubuntu;-inkscape-font-specification:'Ubuntu, Normal';font-variant-ligatures:normal;font-variant-caps:normal;font-variant-numeric:normal;font-feature-settings:normal;text-align:start;writing-mode:lr-tb;text-anchor:start;stroke-width:0.93262833"
             id="path9774" />
          <path
             inkscape:connector-curvature="0"
             d="m -1191.461,877.09625 q -1.1938,0.29844 -3.171,0.63418 -1.9398,0.33575 -4.5139,0.33575 -2.2383,0 -3.7678,-0.63419 -1.5295,-0.67149 -2.4621,-1.86525 -0.9326,-1.19376 -1.343,-2.79787 -0.4103,-1.64142 -0.4103,-3.61859 v -10.89306 h 3.4693 v 10.14696 q 0,3.54398 1.1192,5.07348 1.1191,1.52951 3.7678,1.52951 0.5596,0 1.1564,-0.0373 0.5969,-0.0373 1.1192,-0.0746 0.5223,-0.0746 0.9326,-0.11191 0.4477,-0.0746 0.6342,-0.14922 v -16.3769 h 3.4694 z"
             style="font-style:normal;font-variant:normal;font-weight:normal;font-stretch:normal;font-size:37.30499649px;font-family:Ubuntu;-inkscape-font-specification:'Ubuntu, Normal';font-variant-ligatures:normal;font-variant-caps:normal;font-variant-numeric:normal;font-feature-settings:normal;text-align:start;writing-mode:lr-tb;text-anchor:start;stroke-width:0.93262833"
             id="path9776" />
          <path
             inkscape:connector-curvature="0"
             d="m -1179.6645,878.02887 q -3.2082,-0.0746 -4.5512,-1.38028 -1.343,-1.30568 -1.343,-4.06625 v -23.27831 l 3.4694,-0.59688 v 23.31562 q 0,0.85801 0.1492,1.41759 0.1492,0.55957 0.485,0.89532 0.3357,0.33574 0.8953,0.52227 0.5596,0.14922 1.3803,0.26113 z"
             style="font-style:normal;font-variant:normal;font-weight:normal;font-stretch:normal;font-size:37.30499649px;font-family:Ubuntu;-inkscape-font-specification:'Ubuntu, Normal';font-variant-ligatures:normal;font-variant-caps:normal;font-variant-numeric:normal;font-feature-settings:normal;text-align:start;writing-mode:lr-tb;text-anchor:start;stroke-width:0.93262833"
             id="path9778" />
          <path
             inkscape:connector-curvature="0"
             d="m -1172.0379,858.25722 h 7.349 v 2.90979 h -7.349 v 8.9532 q 0,1.4549 0.2238,2.42483 0.2238,0.93262 0.6715,1.4922 0.4476,0.52227 1.1191,0.7461 0.6715,0.22383 1.5668,0.22383 1.5668,0 2.4995,-0.33575 0.9699,-0.37305 1.3429,-0.52227 l 0.6715,2.87249 q -0.5222,0.26113 -1.8279,0.63418 -1.3057,0.41036 -2.9844,0.41036 -1.9772,0 -3.2828,-0.48497 -1.2684,-0.52227 -2.0518,-1.5295 -0.7834,-1.00724 -1.1192,-2.46213 -0.2984,-1.4922 -0.2984,-3.43206 V 852.848 l 3.4694,-0.59688 z"
             style="font-style:normal;font-variant:normal;font-weight:normal;font-stretch:normal;font-size:37.30499649px;font-family:Ubuntu;-inkscape-font-specification:'Ubuntu, Normal';font-variant-ligatures:normal;font-variant-caps:normal;font-variant-numeric:normal;font-feature-settings:normal;text-align:start;writing-mode:lr-tb;text-anchor:start;stroke-width:0.93262833"
             id="path9780" />
          <path
             inkscape:connector-curvature="0"
             d="m -1156.8047,877.65582 h -3.4694 v -19.3986 h 3.4694 z m -1.7533,-22.90527 q -0.9326,0 -1.6041,-0.59688 -0.6342,-0.63418 -0.6342,-1.67872 0,-1.04454 0.6342,-1.64142 0.6715,-0.63418 1.6041,-0.63418 0.9326,0 1.5668,0.63418 0.6715,0.59688 0.6715,1.64142 0,1.04454 -0.6715,1.67872 -0.6342,0.59688 -1.5668,0.59688 z"
             style="font-style:normal;font-variant:normal;font-weight:normal;font-stretch:normal;font-size:37.30499649px;font-family:Ubuntu;-inkscape-font-specification:'Ubuntu, Normal';font-variant-ligatures:normal;font-variant-caps:normal;font-variant-numeric:normal;font-feature-settings:normal;text-align:start;writing-mode:lr-tb;text-anchor:start;stroke-width:0.93262833"
             id="path9782" />
          <path
             inkscape:connector-curvature="0"
             d="m -1150.8021,858.8168 q 1.1938,-0.29844 3.1709,-0.63419 1.9772,-0.33574 4.5512,-0.33574 2.3129,0 3.8424,0.67149 1.5296,0.63418 2.4249,1.82794 0.9326,1.15646 1.3056,2.79788 0.3731,1.64142 0.3731,3.61858 v 10.89306 h -3.4694 v -10.14696 q 0,-1.79064 -0.2611,-3.05901 -0.2238,-1.26837 -0.7834,-2.05177 -0.5596,-0.78341 -1.4922,-1.11915 -0.9326,-0.37305 -2.3129,-0.37305 -0.5596,0 -1.1565,0.0373 -0.5968,0.0373 -1.1564,0.11192 -0.5223,0.0373 -0.97,0.11191 -0.4103,0.0746 -0.5968,0.11192 v 16.37689 h -3.4694 z"
             style="font-style:normal;font-variant:normal;font-weight:normal;font-stretch:normal;font-size:37.30499649px;font-family:Ubuntu;-inkscape-font-specification:'Ubuntu, Normal';font-variant-ligatures:normal;font-variant-caps:normal;font-variant-numeric:normal;font-feature-settings:normal;text-align:start;writing-mode:lr-tb;text-anchor:start;stroke-width:0.93262833"
             id="path9784" />
          <path
             inkscape:connector-curvature="0"
             d="m -1117.2194,875.71596 q -0.4477,0.29844 -1.7534,0.78341 -1.2683,0.44766 -2.9844,0.44766 -1.7533,0 -3.3201,-0.55958 -1.5295,-0.55957 -2.686,-1.71603 -1.1564,-1.19376 -1.8279,-2.94709 -0.6715,-1.75334 -0.6715,-4.17816 0,-2.12639 0.6342,-3.87972 0.6342,-1.79064 1.8279,-3.05901 1.2311,-1.30568 2.9844,-2.01447 1.7534,-0.7461 3.9543,-0.7461 2.4249,0 4.2155,0.37305 1.828,0.33574 3.059,0.63418 v 17.30952 q 0,4.4766 -2.3129,6.49107 -2.3129,2.01447 -7.0133,2.01447 -1.828,0 -3.4694,-0.29844 -1.6041,-0.29844 -2.7979,-0.70879 l 0.6342,-3.02171 q 1.0446,0.41036 2.5368,0.7088 1.5295,0.33574 3.1709,0.33574 3.0963,0 4.4393,-1.23106 1.3803,-1.23107 1.3803,-3.91703 z m -0.037,-14.39973 q -0.5223,-0.14922 -1.4176,-0.26113 -0.858,-0.14922 -2.3502,-0.14922 -2.7979,0 -4.3274,1.82794 -1.4922,1.82795 -1.4922,4.84965 0,1.67873 0.4103,2.87249 0.4477,1.19376 1.1565,1.97716 0.7461,0.78341 1.6787,1.15646 0.9699,0.37305 1.9772,0.37305 1.3803,0 2.5367,-0.37305 1.1565,-0.41036 1.828,-0.93263 z"
             style="font-style:normal;font-variant:normal;font-weight:normal;font-stretch:normal;font-size:37.30499649px;font-family:Ubuntu;-inkscape-font-specification:'Ubuntu, Normal';font-variant-ligatures:normal;font-variant-caps:normal;font-variant-numeric:normal;font-feature-settings:normal;text-align:start;writing-mode:lr-tb;text-anchor:start;stroke-width:0.93262833"
             id="path9786" />
        </g>
      </g>
    </g>
  </g>
</svg>
