<?xml version="1.0" encoding="UTF-8" standalone="no"?>
<!-- Created with Inkscape (http://www.inkscape.org/) -->

<svg
   xmlns:dc="http://purl.org/dc/elements/1.1/"
   xmlns:cc="http://creativecommons.org/ns#"
   xmlns:rdf="http://www.w3.org/1999/02/22-rdf-syntax-ns#"
   xmlns:svg="http://www.w3.org/2000/svg"
   xmlns="http://www.w3.org/2000/svg"
   xmlns:sodipodi="http://sodipodi.sourceforge.net/DTD/sodipodi-0.dtd"
   xmlns:inkscape="http://www.inkscape.org/namespaces/inkscape"
   width="88.022682mm"
   height="60.203812mm"
   viewBox="0 0 88.022682 60.203812"
   version="1.1"
   id="svg9023"
   inkscape:version="0.92.4 (5da689c313, 2019-01-14)"
   sodipodi:docname="ponomarevagaussgun.svg">
  <defs
     id="defs9017">
    <filter
       inkscape:collect="always"
       style="color-interpolation-filters:sRGB"
       id="filter2025"
       x="-0.013"
       width="1.026"
       y="-0.156"
       height="1.312">
      <feGaussianBlur
         inkscape:collect="always"
         stdDeviation="1.3758333"
         id="feGaussianBlur2027" />
    </filter>
  </defs>
  <sodipodi:namedview
     id="base"
     pagecolor="#ffffff"
     bordercolor="#666666"
     borderopacity="1.0"
     inkscape:pageopacity="0.0"
     inkscape:pageshadow="2"
     inkscape:zoom="0.35"
     inkscape:cx="-393.65795"
     inkscape:cy="113.77098"
     inkscape:document-units="mm"
     inkscape:current-layer="layer1"
     showgrid="false"
     inkscape:window-width="1920"
     inkscape:window-height="1043"
     inkscape:window-x="0"
     inkscape:window-y="1098"
     inkscape:window-maximized="0" />
  <metadata
     id="metadata9020">
    <rdf:RDF>
      <cc:Work
         rdf:about="">
        <dc:format>image/svg+xml</dc:format>
        <dc:type
           rdf:resource="http://purl.org/dc/dcmitype/StillImage" />
        <dc:title></dc:title>
      </cc:Work>
    </rdf:RDF>
  </metadata>
  <g
     inkscape:label="Layer 1"
     inkscape:groupmode="layer"
     id="layer1"
     transform="translate(-61.821999,-118.73143)">
    <g
       id="g2287"
       transform="matrix(0.24795704,0,0,0.24795704,140.10753,53.644765)">
      <path
         inkscape:connector-curvature="0"
         transform="matrix(0.72002639,0,0,0.56864941,325.78471,615.93769)"
         style="opacity:1;fill:#2b0022;fill-opacity:1;stroke:#f8055e;stroke-width:5.75110531;stroke-miterlimit:4;stroke-dasharray:none;stroke-dashoffset:0;stroke-opacity:1"
         inkscape:transform-center-x="-6.5904761e-06"
         inkscape:transform-center-y="-54.901712"
         d="m -403.62143,-197.87121 -239.30136,-17.22943 -242.32516,17.22942 134.57179,-198.62634 106.24147,-218.47446 104.72956,215.85577 z"
         id="path2085" />
      <g
         aria-label="Пономарёва Пушка Гаусса"
         style="font-style:normal;font-weight:normal;font-size:19.61530876px;line-height:1.25;font-family:sans-serif;letter-spacing:0px;word-spacing:0px;fill:#e5d5ff;fill-opacity:1;stroke:#ff478c;stroke-width:0.4903827;stroke-opacity:1"
         id="text1983">
        <path
           inkscape:connector-curvature="0"
           d="m -263.20754,470.2845 v 14.29964 h -1.93471 v -12.67142 h -7.0301 v 12.67142 h -1.93471 V 470.2845 Z"
           style="fill:#e5d5ff;stroke:#ff478c;stroke-width:0.4903827;stroke-opacity:1"
           id="path9234" />
        <path
           inkscape:connector-curvature="0"
           d="m -255.27713,475.09255 q -1.41751,0 -2.2412,1.11102 -0.82369,1.10145 -0.82369,3.02658 0,1.92514 0.81411,3.03616 0.82369,1.10145 2.25078,1.10145 1.40793,0 2.23162,-1.11103 0.82369,-1.11102 0.82369,-3.02658 0,-1.90598 -0.82369,-3.017 -0.82369,-1.1206 -2.23162,-1.1206 z m 0,-1.49414 q 2.29867,0 3.61083,1.49414 1.31215,1.49413 1.31215,4.1376 0,2.6339 -1.31215,4.13761 -1.31216,1.49413 -3.61083,1.49413 -2.30825,0 -3.6204,-1.49413 -1.30258,-1.50371 -1.30258,-4.13761 0,-2.64347 1.30258,-4.1376 1.31215,-1.49414 3.6204,-1.49414 z"
           style="fill:#e5d5ff;stroke:#ff478c;stroke-width:0.4903827;stroke-opacity:1"
           id="path9236" />
        <path
           inkscape:connector-curvature="0"
           d="m -247.50954,473.85701 h 1.77189 v 4.37705 h 5.71794 v -4.37705 h 1.77189 v 10.72713 h -1.77189 V 479.642 h -5.71794 v 4.94214 h -1.77189 z"
           style="fill:#e5d5ff;stroke:#ff478c;stroke-width:0.4903827;stroke-opacity:1"
           id="path9238" />
        <path
           inkscape:connector-curvature="0"
           d="m -230.45151,475.09255 q -1.41751,0 -2.2412,1.11102 -0.82369,1.10145 -0.82369,3.02658 0,1.92514 0.81411,3.03616 0.82369,1.10145 2.25078,1.10145 1.40794,0 2.23163,-1.11103 0.82369,-1.11102 0.82369,-3.02658 0,-1.90598 -0.82369,-3.017 -0.82369,-1.1206 -2.23163,-1.1206 z m 0,-1.49414 q 2.29867,0 3.61083,1.49414 1.31216,1.49413 1.31216,4.1376 0,2.6339 -1.31216,4.13761 -1.31216,1.49413 -3.61083,1.49413 -2.30824,0 -3.6204,-1.49413 -1.30258,-1.50371 -1.30258,-4.13761 0,-2.64347 1.30258,-4.1376 1.31216,-1.49414 3.6204,-1.49414 z"
           style="fill:#e5d5ff;stroke:#ff478c;stroke-width:0.4903827;stroke-opacity:1"
           id="path9240" />
        <path
           inkscape:connector-curvature="0"
           d="m -222.68392,473.85701 h 2.57643 l 3.04573,7.18335 3.05532,-7.18335 h 2.55727 v 10.72713 h -1.77189 v -9.04143 l -2.95954,6.9822 h -1.76231 l -2.96912,-6.9822 v 9.04143 h -1.77189 z"
           style="fill:#e5d5ff;stroke:#ff478c;stroke-width:0.4903827;stroke-opacity:1"
           id="path9242" />
        <path
           inkscape:connector-curvature="0"
           d="m -202.95368,479.19184 q -2.13584,0 -2.95953,0.48847 -0.82369,0.48847 -0.82369,1.66653 0,0.93863 0.61297,1.49414 0.62256,0.54593 1.6857,0.54593 1.4654,0 2.34655,-1.0344 0.89074,-1.04398 0.89074,-2.76798 v -0.39269 z m 3.51505,-0.72791 v 6.12021 h -1.76231 v -1.62823 q -0.6034,0.97694 -1.50371,1.44625 -0.90032,0.45973 -2.2029,0.45973 -1.64738,0 -2.62431,-0.91946 -0.96736,-0.92905 -0.96736,-2.48065 0,-1.8102 1.2068,-2.72967 1.21638,-0.91947 3.62041,-0.91947 h 2.47107 v -0.1724 q 0,-1.21638 -0.80454,-1.87725 -0.79495,-0.67044 -2.2412,-0.67044 -0.91947,0 -1.79104,0.22029 -0.87158,0.22029 -1.67612,0.66087 v -1.62823 q 0.96736,-0.37353 1.87725,-0.55551 0.90989,-0.19156 1.77189,-0.19156 2.3274,0 3.47674,1.20681 1.14933,1.2068 1.14933,3.65871 z"
           style="fill:#e5d5ff;stroke:#ff478c;stroke-width:0.4903827;stroke-opacity:1"
           id="path9244" />
        <path
           inkscape:connector-curvature="0"
           d="m -194.09422,482.97507 v 5.6892 h -1.77189 v -14.80726 h 1.77189 v 1.62823 q 0.55551,-0.95778 1.39835,-1.41751 0.85243,-0.46932 2.03049,-0.46932 1.95387,0 3.17025,1.55161 1.22596,1.5516 1.22596,4.08013 0,2.52854 -1.22596,4.08014 -1.21638,1.5516 -3.17025,1.5516 -1.17806,0 -2.03049,-0.45973 -0.84284,-0.46931 -1.39835,-1.42709 z m 5.99569,-3.74492 q 0,-1.94429 -0.80453,-3.04573 -0.79496,-1.11103 -2.19332,-1.11103 -1.39835,0 -2.20289,1.11103 -0.79495,1.10144 -0.79495,3.04573 0,1.94429 0.79495,3.05532 0.80454,1.10144 2.20289,1.10144 1.39836,0 2.19332,-1.10144 0.80453,-1.11103 0.80453,-3.05532 z"
           style="fill:#e5d5ff;stroke:#ff478c;stroke-width:0.4903827;stroke-opacity:1"
           id="path9246" />
        <path
           inkscape:connector-curvature="0"
           d="m -174.17242,478.78 v 0.862 h -8.10281 q 0.11493,1.81978 1.09187,2.77756 0.98651,0.9482 2.73924,0.9482 1.01525,0 1.96345,-0.24902 0.95778,-0.24903 1.8964,-0.74707 v 1.66653 q -0.9482,0.40227 -1.94429,0.61298 -0.99609,0.21071 -2.02091,0.21071 -2.56685,0 -4.07056,-1.49413 -1.49414,-1.49414 -1.49414,-4.04183 0,-2.63389 1.41752,-4.17591 1.42709,-1.55161 3.84069,-1.55161 2.16458,0 3.41927,1.39836 1.26427,1.38878 1.26427,3.78323 z m -1.76232,-0.5172 q -0.0191,-1.44625 -0.81411,-2.30825 -0.78538,-0.862 -2.08796,-0.862 -1.47498,0 -2.36571,0.83327 -0.88116,0.83326 -1.01525,2.34656 z m -2.02091,-8.54339 h 1.94429 v 1.93471 h -1.94429 z m -3.74491,0 h 1.94429 v 1.93471 h -1.94429 z"
           style="fill:#e5d5ff;stroke:#ff478c;stroke-width:0.4903827;stroke-opacity:1"
           id="path9248" />
        <path
           inkscape:connector-curvature="0"
           d="m -169.58467,479.642 v 3.5342 h 2.50938 q 1.2068,0 1.83894,-0.45015 0.63213,-0.45974 0.63213,-1.32174 0,-0.862 -0.63213,-1.31216 -0.63214,-0.45015 -1.83894,-0.45015 z m 0,-4.37705 v 2.96911 h 2.31783 q 0.99609,0 1.62822,-0.39269 0.63214,-0.40226 0.63214,-1.11102 0,-0.70876 -0.63214,-1.08229 -0.63213,-0.38311 -1.62822,-0.38311 z m -1.76231,-1.40794 h 4.19507 q 1.88683,0 2.90207,0.68961 1.01525,0.6896 1.01525,1.96344 0,0.98651 -0.5172,1.57076 -0.51721,0.57467 -1.53245,0.71833 1.21638,0.22987 1.88682,0.95778 0.67045,0.72791 0.67045,1.81978 0,1.43667 -1.11102,2.22205 -1.10145,0.78538 -3.1511,0.78538 h -4.35789 z"
           style="fill:#e5d5ff;stroke:#ff478c;stroke-width:0.4903827;stroke-opacity:1"
           id="path9250" />
        <path
           inkscape:connector-curvature="0"
           d="m -154.83487,479.19184 q -2.13585,0 -2.95954,0.48847 -0.82369,0.48847 -0.82369,1.66653 0,0.93863 0.61298,1.49414 0.62256,0.54593 1.68569,0.54593 1.4654,0 2.34656,-1.0344 0.89073,-1.04398 0.89073,-2.76798 v -0.39269 z m 3.51505,-0.72791 v 6.12021 h -1.76232 v -1.62823 q -0.6034,0.97694 -1.50371,1.44625 -0.90031,0.45973 -2.20289,0.45973 -1.64738,0 -2.62431,-0.91946 -0.96736,-0.92905 -0.96736,-2.48065 0,-1.8102 1.2068,-2.72967 1.21638,-0.91947 3.6204,-0.91947 h 2.47107 v -0.1724 q 0,-1.21638 -0.80453,-1.87725 -0.79496,-0.67044 -2.2412,-0.67044 -0.91947,0 -1.79105,0.22029 -0.87158,0.22029 -1.67611,0.66087 v -1.62823 q 0.96735,-0.37353 1.87724,-0.55551 0.90989,-0.19156 1.77189,-0.19156 2.32741,0 3.47674,1.20681 1.14934,1.2068 1.14934,3.65871 z"
           style="fill:#e5d5ff;stroke:#ff478c;stroke-width:0.4903827;stroke-opacity:1"
           id="path9252" />
        <path
           inkscape:connector-curvature="0"
           d="m -130.4594,470.2845 v 14.29964 h -1.93471 v -12.67142 h -7.0301 v 12.67142 h -1.93471 V 470.2845 Z"
           style="fill:#e5d5ff;stroke:#ff478c;stroke-width:0.4903827;stroke-opacity:1"
           id="path9254" />
        <path
           inkscape:connector-curvature="0"
           d="m -122.22251,485.58023 q -0.74707,1.91555 -1.45582,2.4998 -0.70876,0.58424 -1.8964,0.58424 h -1.40794 v -1.47497 h 1.0344 q 0.72791,0 1.13018,-0.34481 0.40227,-0.3448 0.89073,-1.62822 l 0.31607,-0.80453 -4.33874,-10.55473 h 1.86767 l 3.35223,8.39015 3.35222,-8.39015 h 1.86767 z"
           style="fill:#e5d5ff;stroke:#ff478c;stroke-width:0.4903827;stroke-opacity:1"
           id="path9256" />
        <path
           inkscape:connector-curvature="0"
           d="m -107.07045,483.1762 h 4.53987 v -9.31919 h 1.77189 v 10.72713 h -14.38584 v -10.72713 h 1.77189 v 9.31919 h 4.5303 v -9.31919 h 1.77189 z"
           style="fill:#e5d5ff;stroke:#ff478c;stroke-width:0.4903827;stroke-opacity:1"
           id="path9258" />
        <path
           inkscape:connector-curvature="0"
           d="m -97.176585,473.85701 h 1.752735 v 5.03792 l 4.970872,-5.03792 h 2.16458 l -4.099293,4.14719 4.626071,6.57994 h -1.973024 l -3.802382,-5.41145 -1.886824,1.91555 v 3.4959 h -1.752735 z"
           style="fill:#e5d5ff;stroke:#ff478c;stroke-width:0.4903827;stroke-opacity:1"
           id="path9260" />
        <path
           inkscape:connector-curvature="0"
           d="m -80.396312,479.19184 q -2.135847,0 -2.959536,0.48847 -0.82369,0.48847 -0.82369,1.66653 0,0.93863 0.612978,1.49414 0.622557,0.54593 1.685691,0.54593 1.465401,0 2.346558,-1.0344 0.890734,-1.04398 0.890734,-2.76798 v -0.39269 z m 3.515048,-0.72791 v 6.12021 h -1.762313 v -1.62823 q -0.603401,0.97694 -1.503713,1.44625 -0.900312,0.45973 -2.202891,0.45973 -1.647379,0 -2.624313,-0.91946 -0.967357,-0.92905 -0.967357,-2.48065 0,-1.8102 1.206801,-2.72967 1.216379,-0.91947 3.620404,-0.91947 h 2.471069 v -0.1724 q 0,-1.21638 -0.804534,-1.87725 -0.794956,-0.67044 -2.241202,-0.67044 -0.919468,0 -1.791047,0.22029 -0.871578,0.22029 -1.676112,0.66087 v -1.62823 q 0.967356,-0.37353 1.877246,-0.55551 0.90989,-0.19156 1.771891,-0.19156 2.327402,0 3.476736,1.20681 1.149335,1.2068 1.149335,3.65871 z"
           style="fill:#e5d5ff;stroke:#ff478c;stroke-width:0.4903827;stroke-opacity:1"
           id="path9262" />
        <path
           inkscape:connector-curvature="0"
           d="M -66.920354,484.58414 V 470.2845 h 8.897764 v 1.62822 h -6.963051 v 12.67142 z"
           style="fill:#e5d5ff;stroke:#ff478c;stroke-width:0.4903827;stroke-opacity:1"
           id="path9264" />
        <path
           inkscape:connector-curvature="0"
           d="m -50.168803,479.19184 q -2.135847,0 -2.959537,0.48847 -0.82369,0.48847 -0.82369,1.66653 0,0.93863 0.612979,1.49414 0.622556,0.54593 1.68569,0.54593 1.465402,0 2.346558,-1.0344 0.890735,-1.04398 0.890735,-2.76798 v -0.39269 z m 3.515048,-0.72791 v 6.12021 h -1.762313 v -1.62823 q -0.603401,0.97694 -1.503713,1.44625 -0.900312,0.45973 -2.202891,0.45973 -1.64738,0 -2.624314,-0.91946 -0.967356,-0.92905 -0.967356,-2.48065 0,-1.8102 1.206801,-2.72967 1.216379,-0.91947 3.620403,-0.91947 h 2.47107 v -0.1724 q 0,-1.21638 -0.804535,-1.87725 -0.794956,-0.67044 -2.241202,-0.67044 -0.919467,0 -1.791046,0.22029 -0.871579,0.22029 -1.676113,0.66087 v -1.62823 q 0.967357,-0.37353 1.877247,-0.55551 0.909889,-0.19156 1.77189,-0.19156 2.327403,0 3.476737,1.20681 1.149335,1.2068 1.149335,3.65871 z"
           style="fill:#e5d5ff;stroke:#ff478c;stroke-width:0.4903827;stroke-opacity:1"
           id="path9266" />
        <path
           inkscape:connector-curvature="0"
           d="m -38.550955,485.58023 q -0.747067,1.91555 -1.455823,2.4998 -0.708757,0.58424 -1.896402,0.58424 h -1.407935 v -1.47497 h 1.034401 q 0.727912,0 1.130179,-0.34481 0.402267,-0.3448 0.890734,-1.62822 l 0.316067,-0.80453 -4.338738,-10.55473 h 1.867669 l 3.352226,8.39015 3.352225,-8.39015 h 1.867669 z"
           style="fill:#e5d5ff;stroke:#ff478c;stroke-width:0.4903827;stroke-opacity:1"
           id="path9268" />
        <path
           inkscape:connector-curvature="0"
           d="m -23.686231,474.26886 v 1.64738 q -0.747067,-0.41185 -1.503712,-0.61298 -0.747068,-0.21071 -1.513291,-0.21071 -1.714424,0 -2.662625,1.09187 -0.948201,1.08229 -0.948201,3.04573 0,1.96345 0.948201,3.05532 0.948201,1.08229 2.662625,1.08229 0.766223,0 1.513291,-0.20114 0.756645,-0.21071 1.503712,-0.62255 v 1.62822 q -0.737489,0.3448 -1.532446,0.5172 -0.785378,0.1724 -1.676112,0.1724 -2.423181,0 -3.850271,-1.52287 -1.42709,-1.52286 -1.42709,-4.10887 0,-2.62431 1.436668,-4.12802 1.446246,-1.50372 3.955626,-1.50372 0.814112,0 1.589913,0.1724 0.775801,0.16283 1.503712,0.49805 z"
           style="fill:#e5d5ff;stroke:#ff478c;stroke-width:0.4903827;stroke-opacity:1"
           id="path9270" />
        <path
           inkscape:connector-curvature="0"
           d="m -12.882474,474.26886 v 1.64738 q -0.747067,-0.41185 -1.503713,-0.61298 -0.747067,-0.21071 -1.51329,-0.21071 -1.714424,0 -2.662625,1.09187 -0.948201,1.08229 -0.948201,3.04573 0,1.96345 0.948201,3.05532 0.948201,1.08229 2.662625,1.08229 0.766223,0 1.51329,-0.20114 0.756646,-0.21071 1.503713,-0.62255 v 1.62822 q -0.73749,0.3448 -1.532446,0.5172 -0.785378,0.1724 -1.676113,0.1724 -2.42318,0 -3.85027,-1.52287 -1.427091,-1.52286 -1.427091,-4.10887 0,-2.62431 1.436669,-4.12802 1.446245,-1.50372 3.955626,-1.50372 0.814112,0 1.589912,0.1724 0.775801,0.16283 1.503713,0.49805 z"
           style="fill:#e5d5ff;stroke:#ff478c;stroke-width:0.4903827;stroke-opacity:1"
           id="path9272" />
        <path
           inkscape:connector-curvature="0"
           d="m -4.9233353,479.19184 q -2.1358466,0 -2.9595364,0.48847 -0.8236897,0.48847 -0.8236897,1.66653 0,0.93863 0.6129784,1.49414 0.6225562,0.54593 1.6856906,0.54593 1.4654015,0 2.3465579,-1.0344 0.8907343,-1.04398 0.8907343,-2.76798 v -0.39269 z m 3.515048,-0.72791 v 6.12021 h -1.7623129 v -1.62823 q -0.6034006,0.97694 -1.5037127,1.44625 -0.900312,0.45973 -2.2028911,0.45973 -1.6473794,0 -2.6243137,-0.91946 -0.9673563,-0.92905 -0.9673563,-2.48065 0,-1.8102 1.2068009,-2.72967 1.2163791,-0.91947 3.6204037,-0.91947 h 2.4710692 v -0.1724 q 0,-1.21638 -0.8045342,-1.87725 -0.7949563,-0.67044 -2.2412022,-0.67044 -0.9194676,0 -1.7910463,0.22029 -0.8715787,0.22029 -1.6761128,0.66087 v -1.62823 q 0.9673565,-0.37353 1.8772463,-0.55551 0.9098899,-0.19156 1.7718907,-0.19156 2.3274024,0 3.4767369,1.20681 1.1493345,1.2068 1.1493345,3.65871 z"
           style="fill:#e5d5ff;stroke:#ff478c;stroke-width:0.4903827;stroke-opacity:1"
           id="path9274" />
      </g>
      <g
         transform="matrix(-0.00615833,-0.68285451,0.72000006,-0.00584061,45.456691,-268.66272)"
         id="g2044"
         style="stroke:#f8055e;stroke-opacity:1">
        <path
           inkscape:connector-curvature="0"
           transform="matrix(0.8849979,0,0,1,-95.497637,0)"
           style="opacity:1;fill:#333333;fill-opacity:1;stroke:#f8055e;stroke-width:3.14599991;stroke-miterlimit:4;stroke-dasharray:none;stroke-dashoffset:0;stroke-opacity:1;filter:url(#filter2025)"
           d="m -1080.1227,-273.40485 h 245.44735 c 2.36907,0 4.2763,1.90723 4.2763,4.27631 v 12.61406 c 0,2.36907 -1.90723,4.2763 -4.2763,4.2763 h -245.44735 c -2.3691,0 -4.2763,-1.90723 -4.2763,-4.2763 v -12.61406 c 0,-2.36908 1.9072,-4.27631 4.2763,-4.27631 z"
           id="rect2019" />
        <g
           id="g2003"
           style="stroke:#f8055e;stroke-opacity:1">
          <path
             inkscape:connector-curvature="0"
             style="opacity:1;fill:#112b00;fill-opacity:1;stroke:#f8055e;stroke-width:3.14599991;stroke-miterlimit:4;stroke-dasharray:none;stroke-dashoffset:0;stroke-opacity:1"
             d="m -1030.3484,-263.57745 a 9.8273811,40.065475 0 0 1 -9.8274,40.06547 9.8273811,40.065475 0 0 1 -9.8274,-40.06547 9.8273811,40.065475 0 0 1 9.8274,-40.06548 9.8273811,40.065475 0 0 1 9.8274,40.06548 z"
             id="ellipse1987" />
          <path
             inkscape:connector-curvature="0"
             style="opacity:1;fill:#112b00;fill-opacity:1;stroke:#f8055e;stroke-width:3.14599991;stroke-miterlimit:4;stroke-dasharray:none;stroke-dashoffset:0;stroke-opacity:1"
             d="m -1043.5775,-263.57745 a 9.8273811,40.065475 0 0 1 -9.8274,40.06547 9.8273811,40.065475 0 0 1 -9.8274,-40.06547 9.8273811,40.065475 0 0 1 9.8274,-40.06548 9.8273811,40.065475 0 0 1 9.8274,40.06548 z"
             id="path1985" />
          <path
             inkscape:connector-curvature="0"
             style="opacity:1;fill:#112b00;fill-opacity:1;stroke:#f8055e;stroke-width:3.14599991;stroke-miterlimit:4;stroke-dasharray:none;stroke-dashoffset:0;stroke-opacity:1"
             d="m -1014.4735,-263.57745 a 9.8273811,40.065475 0 0 1 -9.8274,40.06547 9.8273811,40.065475 0 0 1 -9.8274,-40.06547 9.8273811,40.065475 0 0 1 9.8274,-40.06548 9.8273811,40.065475 0 0 1 9.8274,40.06548 z"
             id="ellipse1989" />
          <path
             inkscape:connector-curvature="0"
             style="opacity:1;fill:#112b00;fill-opacity:1;stroke:#f8055e;stroke-width:3.14599991;stroke-miterlimit:4;stroke-dasharray:none;stroke-dashoffset:0;stroke-opacity:1"
             d="m -998.5984,-263.57745 a 9.8273811,40.065475 0 0 1 -9.8274,40.06547 9.8273811,40.065475 0 0 1 -9.8274,-40.06547 9.8273811,40.065475 0 0 1 9.8274,-40.06548 9.8273811,40.065475 0 0 1 9.8274,40.06548 z"
             id="ellipse1991" />
          <path
             inkscape:connector-curvature="0"
             style="opacity:1;fill:#112b00;fill-opacity:1;stroke:#f8055e;stroke-width:3.14599991;stroke-miterlimit:4;stroke-dasharray:none;stroke-dashoffset:0;stroke-opacity:1"
             d="m -982.72334,-263.57745 a 9.8273811,40.065475 0 0 1 -9.82738,40.06547 9.8273811,40.065475 0 0 1 -9.82738,-40.06547 9.8273811,40.065475 0 0 1 9.82738,-40.06548 9.8273811,40.065475 0 0 1 9.82738,40.06548 z"
             id="ellipse1993" />
          <path
             inkscape:connector-curvature="0"
             style="opacity:1;fill:#112b00;fill-opacity:1;stroke:#f8055e;stroke-width:3.14599991;stroke-miterlimit:4;stroke-dasharray:none;stroke-dashoffset:0;stroke-opacity:1"
             d="m -965.78993,-263.57745 a 9.8273811,40.065475 0 0 1 -9.82738,40.06547 9.8273811,40.065475 0 0 1 -9.82738,-40.06547 9.8273811,40.065475 0 0 1 9.82738,-40.06548 9.8273811,40.065475 0 0 1 9.82738,40.06548 z"
             id="ellipse1995" />
        </g>
        <g
           id="g2017"
           transform="translate(114.90476)"
           style="stroke:#f8055e;stroke-opacity:1">
          <path
             inkscape:connector-curvature="0"
             style="opacity:1;fill:#112b00;fill-opacity:1;stroke:#f8055e;stroke-width:3.14599991;stroke-miterlimit:4;stroke-dasharray:none;stroke-dashoffset:0;stroke-opacity:1"
             d="m -1030.3484,-263.57745 a 9.8273811,40.065475 0 0 1 -9.8274,40.06547 9.8273811,40.065475 0 0 1 -9.8274,-40.06547 9.8273811,40.065475 0 0 1 9.8274,-40.06548 9.8273811,40.065475 0 0 1 9.8274,40.06548 z"
             id="ellipse2005" />
          <path
             inkscape:connector-curvature="0"
             style="opacity:1;fill:#112b00;fill-opacity:1;stroke:#f8055e;stroke-width:3.14599991;stroke-miterlimit:4;stroke-dasharray:none;stroke-dashoffset:0;stroke-opacity:1"
             d="m -1043.5775,-263.57745 a 9.8273811,40.065475 0 0 1 -9.8274,40.06547 9.8273811,40.065475 0 0 1 -9.8274,-40.06547 9.8273811,40.065475 0 0 1 9.8274,-40.06548 9.8273811,40.065475 0 0 1 9.8274,40.06548 z"
             id="ellipse2007" />
          <path
             inkscape:connector-curvature="0"
             style="opacity:1;fill:#112b00;fill-opacity:1;stroke:#f8055e;stroke-width:3.14599991;stroke-miterlimit:4;stroke-dasharray:none;stroke-dashoffset:0;stroke-opacity:1"
             d="m -1014.4735,-263.57745 a 9.8273811,40.065475 0 0 1 -9.8274,40.06547 9.8273811,40.065475 0 0 1 -9.8274,-40.06547 9.8273811,40.065475 0 0 1 9.8274,-40.06548 9.8273811,40.065475 0 0 1 9.8274,40.06548 z"
             id="ellipse2009" />
          <path
             inkscape:connector-curvature="0"
             style="opacity:1;fill:#112b00;fill-opacity:1;stroke:#f8055e;stroke-width:3.14599991;stroke-miterlimit:4;stroke-dasharray:none;stroke-dashoffset:0;stroke-opacity:1"
             d="m -998.5984,-263.57745 a 9.8273811,40.065475 0 0 1 -9.8274,40.06547 9.8273811,40.065475 0 0 1 -9.8274,-40.06547 9.8273811,40.065475 0 0 1 9.8274,-40.06548 9.8273811,40.065475 0 0 1 9.8274,40.06548 z"
             id="ellipse2011" />
          <path
             inkscape:connector-curvature="0"
             style="opacity:1;fill:#112b00;fill-opacity:1;stroke:#f8055e;stroke-width:3.14599991;stroke-miterlimit:4;stroke-dasharray:none;stroke-dashoffset:0;stroke-opacity:1"
             d="m -982.72334,-263.57745 a 9.8273811,40.065475 0 0 1 -9.82738,40.06547 9.8273811,40.065475 0 0 1 -9.82738,-40.06547 9.8273811,40.065475 0 0 1 9.82738,-40.06548 9.8273811,40.065475 0 0 1 9.82738,40.06548 z"
             id="ellipse2013" />
          <path
             inkscape:connector-curvature="0"
             style="opacity:1;fill:#112b00;fill-opacity:1;stroke:#f8055e;stroke-width:3.14599991;stroke-miterlimit:4;stroke-dasharray:none;stroke-dashoffset:0;stroke-opacity:1"
             d="m -965.78993,-263.57745 a 9.8273811,40.065475 0 0 1 -9.82738,40.06547 9.8273811,40.065475 0 0 1 -9.82738,-40.06547 9.8273811,40.065475 0 0 1 9.82738,-40.06548 9.8273811,40.065475 0 0 1 9.82738,40.06548 z"
             id="ellipse2015" />
        </g>
      </g>
    </g>
  </g>
</svg>
