<?xml version="1.0" encoding="UTF-8" standalone="no"?>
<!-- Created with Inkscape (http://www.inkscape.org/) -->

<svg
   xmlns:dc="http://purl.org/dc/elements/1.1/"
   xmlns:cc="http://creativecommons.org/ns#"
   xmlns:rdf="http://www.w3.org/1999/02/22-rdf-syntax-ns#"
   xmlns:svg="http://www.w3.org/2000/svg"
   xmlns="http://www.w3.org/2000/svg"
   xmlns:sodipodi="http://sodipodi.sourceforge.net/DTD/sodipodi-0.dtd"
   xmlns:inkscape="http://www.inkscape.org/namespaces/inkscape"
   width="77.416008mm"
   height="31.419922mm"
   viewBox="0 0 77.416008 31.419922"
   version="1.1"
   id="svg10392"
   inkscape:version="0.92.4 (5da689c313, 2019-01-14)"
   sodipodi:docname="solarsuits.svg">
  <defs
     id="defs10386" />
  <sodipodi:namedview
     id="base"
     pagecolor="#ffffff"
     bordercolor="#666666"
     borderopacity="1.0"
     inkscape:pageopacity="0.0"
     inkscape:pageshadow="2"
     inkscape:zoom="3.959798"
     inkscape:cx="122.54469"
     inkscape:cy="59.152696"
     inkscape:document-units="mm"
     inkscape:current-layer="layer1"
     showgrid="false"
     inkscape:window-width="1920"
     inkscape:window-height="1043"
     inkscape:window-x="0"
     inkscape:window-y="1098"
     inkscape:window-maximized="0" />
  <metadata
     id="metadata10389">
    <rdf:RDF>
      <cc:Work
         rdf:about="">
        <dc:format>image/svg+xml</dc:format>
        <dc:type
           rdf:resource="http://purl.org/dc/dcmitype/StillImage" />
        <dc:title />
      </cc:Work>
    </rdf:RDF>
  </metadata>
  <g
     inkscape:label="Layer 1"
     inkscape:groupmode="layer"
     id="layer1"
     transform="translate(-203.19675,-66.599564)">
    <path
       inkscape:connector-curvature="0"
       style="fill:#000000;fill-opacity:1;stroke:none;stroke-width:0;stroke-miterlimit:4;stroke-dasharray:none;stroke-dashoffset:0;stroke-opacity:1"
       d="m 210.09833,67.479715 h 63.61284 c 3.33571,0 6.02113,2.68542 6.02113,6.02113 v 17.61736 c 0,3.33571 -2.68542,6.02113 -6.02113,6.02113 h -63.61284 c -3.3357,0 -6.02112,-2.68542 -6.02112,-6.02113 v -17.61736 c 0,-3.33571 2.68542,-6.02113 6.02112,-6.02113 z"
       id="path11011" />
    <path
       inkscape:connector-curvature="0"
       style="fill:#deaa87;fill-opacity:1;stroke:none;stroke-width:1.23371708;stroke-miterlimit:4;stroke-dasharray:none;stroke-dashoffset:0;stroke-opacity:1"
       d="m 257.04872,82.309527 a 15.143966,14.645403 0 0 1 -15.14397,14.6454 15.143966,14.645403 0 0 1 -15.14396,-14.6454 15.143966,14.645403 0 0 1 15.14396,-14.645404 15.143966,14.645403 0 0 1 15.14397,14.645404 z"
       id="path11015" />
    <path
       style="color:#000000;font-style:normal;font-variant:normal;font-weight:normal;font-stretch:normal;font-size:medium;line-height:normal;font-family:sans-serif;font-variant-ligatures:normal;font-variant-position:normal;font-variant-caps:normal;font-variant-numeric:normal;font-variant-alternates:normal;font-feature-settings:normal;text-indent:0;text-align:start;text-decoration:none;text-decoration-line:none;text-decoration-style:solid;text-decoration-color:#000000;letter-spacing:normal;word-spacing:normal;text-transform:none;writing-mode:lr-tb;direction:ltr;text-orientation:mixed;dominant-baseline:auto;baseline-shift:baseline;text-anchor:start;white-space:normal;shape-padding:0;clip-rule:nonzero;display:inline;overflow:visible;visibility:visible;opacity:1;isolation:auto;mix-blend-mode:normal;color-interpolation:sRGB;color-interpolation-filters:linearRGB;solid-color:#000000;solid-opacity:1;vector-effect:none;fill:#ff820f;fill-opacity:1;fill-rule:nonzero;stroke:none;stroke-width:1.23371708;stroke-linecap:butt;stroke-linejoin:miter;stroke-miterlimit:4;stroke-dasharray:none;stroke-dashoffset:0;stroke-opacity:1;color-rendering:auto;image-rendering:auto;shape-rendering:auto;text-rendering:auto;enable-background:accumulate"
       d="m 241.9043,67.046875 c -8.68618,3e-6 -15.75977,6.828564 -15.75977,15.261719 0,8.433153 7.07359,15.263668 15.75977,15.263672 8.68618,2e-6 15.76171,-6.830515 15.76172,-15.263672 0,-8.433159 -7.07554,-15.261721 -15.76172,-15.261719 z m 0,1.234375 c 8.04138,-2e-6 14.52734,6.283633 14.52734,14.027344 0,7.743709 -6.48596,14.029299 -14.52734,14.029297 -8.04138,-3e-6 -14.52735,-6.285592 -14.52735,-14.029297 0,-7.743707 6.48597,-14.027341 14.52735,-14.027344 z"
       id="path886"
       inkscape:connector-curvature="0" />
    <path
       inkscape:connector-curvature="0"
       d="m 210.79298,82.841144 q 1.03632,0 1.59286,-0.531688 0.57573,-0.531694 0.57573,-1.435563 0,-0.47852 -0.17272,-0.850705 -0.17271,-0.372181 -0.46058,-0.673472 -0.26868,-0.301291 -0.63331,-0.549413 -0.36463,-0.248122 -0.74845,-0.496244 -0.4414,-0.283567 -0.92118,-0.602579 -0.47977,-0.319016 -0.88278,-0.744366 -0.38383,-0.42535 -0.63331,-0.992488 -0.24948,-0.567133 -0.24948,-1.329224 0,-0.744366 0.26867,-1.346944 0.28787,-0.602583 0.76764,-1.027933 0.49897,-0.425355 1.17066,-0.655752 0.69088,-0.230398 1.47771,-0.230398 0.76765,0 1.42014,0.177229 0.6525,0.177232 1.0939,0.42535 l -0.53735,1.258334 q -0.40301,-0.248122 -0.88279,-0.372185 -0.46059,-0.141783 -0.97875,-0.141783 -0.94036,0 -1.51609,0.478524 -0.55655,0.460795 -0.55655,1.364669 0,0.496244 0.17272,0.868424 0.19191,0.372181 0.47978,0.673473 0.30706,0.301291 0.69088,0.549413 0.40301,0.248122 0.84441,0.513964 0.4414,0.265847 0.90198,0.584863 0.46059,0.319011 0.82522,0.744361 0.38382,0.40763 0.61411,0.974764 0.24949,0.549413 0.24949,1.311504 0,0.691197 -0.2303,1.311499 -0.23029,0.620303 -0.72926,1.098827 -0.47978,0.460795 -1.22823,0.744362 -0.72926,0.265846 -1.7272,0.265846 -0.92117,0 -1.61205,-0.194952 -0.69088,-0.194953 -1.22823,-0.513969 l 0.53735,-1.276055 q 0.49897,0.283571 1.01713,0.460799 0.53735,0.159508 1.22823,0.159508 z"
       style="font-style:normal;font-variant:normal;font-weight:normal;font-stretch:normal;font-size:39.5463829px;line-height:1.25;font-family:'Ubuntu Condensed';-inkscape-font-specification:'Ubuntu Condensed, Normal';font-variant-ligatures:normal;font-variant-caps:normal;font-variant-numeric:normal;font-feature-settings:normal;text-align:start;letter-spacing:0px;word-spacing:0px;writing-mode:lr-tb;text-anchor:start;fill:#ff00ff;fill-opacity:1;stroke:none;stroke-width:0.46106201"
       id="path8920" />
    <path
       inkscape:connector-curvature="0"
       d="m 223.55356,79.296547 q 0,1.098826 -0.2111,2.002696 -0.21111,0.886149 -0.6525,1.524177 -0.4222,0.638027 -1.09389,0.992488 -0.6525,0.354461 -1.55448,0.354461 -0.90198,0 -1.57367,-0.354461 -0.67169,-0.354461 -1.11309,-0.992488 -0.4222,-0.638028 -0.6333,-1.524177 -0.2111,-0.90387 -0.2111,-2.002696 0,-1.081102 0.2111,-1.984972 0.2111,-0.903874 0.6333,-1.541901 0.4414,-0.655753 1.11309,-1.010209 0.67169,-0.35446 1.57367,-0.35446 0.90198,0 1.55448,0.35446 0.67169,0.354456 1.09389,1.010209 0.44139,0.638027 0.6525,1.541901 0.2111,0.90387 0.2111,1.984972 z m -1.7272,0 q 0,-0.779811 -0.0959,-1.417839 -0.096,-0.655752 -0.30706,-1.116546 -0.2111,-0.47852 -0.55654,-0.726642 -0.34544,-0.265846 -0.82522,-0.265846 -0.49897,0 -0.84441,0.265846 -0.32625,0.248122 -0.55654,0.726642 -0.2111,0.460794 -0.30706,1.116546 -0.096,0.638028 -0.096,1.417839 0,0.77981 0.096,1.435562 0.096,0.638028 0.30706,1.098823 0.23029,0.460799 0.55654,0.726646 0.34544,0.248117 0.84441,0.248117 0.47978,0 0.82522,-0.248117 0.34544,-0.265847 0.55654,-0.726646 0.2111,-0.460795 0.30706,-1.098823 0.0959,-0.655752 0.0959,-1.435562 z"
       style="font-style:normal;font-variant:normal;font-weight:normal;font-stretch:normal;font-size:39.5463829px;line-height:1.25;font-family:'Ubuntu Condensed';-inkscape-font-specification:'Ubuntu Condensed, Normal';font-variant-ligatures:normal;font-variant-caps:normal;font-variant-numeric:normal;font-feature-settings:normal;text-align:start;letter-spacing:0px;word-spacing:0px;writing-mode:lr-tb;text-anchor:start;fill:#ff00ff;fill-opacity:1;stroke:none;stroke-width:0.46106201"
       id="path8922" />
    <path
       inkscape:connector-curvature="0"
       d="m 228.57953,84.117199 q -1.42014,-0.03545 -2.03426,-0.638027 -0.61411,-0.620307 -0.61411,-1.949527 V 70.452781 l 1.65043,-0.265846 V 81.56509 q 0,0.620302 0.26868,0.903869 0.26867,0.265847 0.94036,0.372185 z"
       style="font-style:normal;font-variant:normal;font-weight:normal;font-stretch:normal;font-size:39.5463829px;line-height:1.25;font-family:'Ubuntu Condensed';-inkscape-font-specification:'Ubuntu Condensed, Normal';font-variant-ligatures:normal;font-variant-caps:normal;font-variant-numeric:normal;font-feature-settings:normal;text-align:start;letter-spacing:0px;word-spacing:0px;writing-mode:lr-tb;text-anchor:start;fill:#ff00ff;fill-opacity:1;stroke:none;stroke-width:0.46106201"
       id="path8924" />
    <path
       inkscape:connector-curvature="0"
       d="m 230.77091,74.830355 q 0.49897,-0.194953 1.05551,-0.301292 0.55654,-0.124058 1.20904,-0.124058 1.34337,0 2.18779,0.77981 0.8444,0.762087 0.8444,2.392602 v 6.167597 q -0.69087,0.177233 -1.42014,0.283571 -0.71007,0.106334 -1.40095,0.106334 -0.69088,0 -1.30499,-0.159503 -0.59492,-0.159508 -1.05551,-0.513969 -0.4414,-0.35446 -0.71007,-0.886149 -0.26868,-0.549414 -0.26868,-1.329224 0,-0.726642 0.23029,-1.258331 0.24949,-0.549413 0.67169,-0.903874 0.42221,-0.37218 0.99794,-0.549409 0.57573,-0.194952 1.24742,-0.194952 0.6333,0 1.40095,0.141783 v -0.850705 q 0,-1.027932 -0.4414,-1.435562 -0.4222,-0.407626 -1.22823,-0.407626 -0.44139,0 -0.8444,0.08861 -0.38382,0.07089 -0.82522,0.248122 z m 0.78684,6.397999 q 0,0.815255 0.46058,1.20516 0.46059,0.389906 1.30499,0.389906 0.51817,0 1.13228,-0.124059 v -2.95974 q -0.57573,-0.141783 -1.13228,-0.141783 -0.36463,0 -0.69087,0.08861 -0.32625,0.07089 -0.57574,0.265847 -0.23029,0.177228 -0.36463,0.496244 -0.13433,0.301287 -0.13433,0.779811 z"
       style="font-style:normal;font-variant:normal;font-weight:normal;font-stretch:normal;font-size:39.5463829px;line-height:1.25;font-family:'Ubuntu Condensed';-inkscape-font-specification:'Ubuntu Condensed, Normal';font-variant-ligatures:normal;font-variant-caps:normal;font-variant-numeric:normal;font-feature-settings:normal;text-align:start;letter-spacing:0px;word-spacing:0px;writing-mode:lr-tb;text-anchor:start;fill:#ff00ff;fill-opacity:1;stroke:none;stroke-width:0.46106201"
       id="path8926" />
    <path
       inkscape:connector-curvature="0"
       d="m 243.2949,76.017796 q -0.61412,-0.248122 -1.38176,-0.248122 -0.71007,0 -1.32418,0.230397 v 7.939896 h -1.65044 v -8.896935 q 0.55654,-0.248122 1.26661,-0.40763 0.72926,-0.177228 1.59286,-0.177228 0.46059,0 0.92118,0.05317 0.46058,0.05317 0.86359,0.194953 z"
       style="font-style:normal;font-variant:normal;font-weight:normal;font-stretch:normal;font-size:39.5463829px;line-height:1.25;font-family:'Ubuntu Condensed';-inkscape-font-specification:'Ubuntu Condensed, Normal';font-variant-ligatures:normal;font-variant-caps:normal;font-variant-numeric:normal;font-feature-settings:normal;text-align:start;letter-spacing:0px;word-spacing:0px;writing-mode:lr-tb;text-anchor:start;fill:#ff00ff;fill-opacity:1;stroke:none;stroke-width:0.46106201"
       id="path8928" />
    <path
       inkscape:connector-curvature="0"
       d="m 246.63655,82.858865 q 0.72926,0 1.09389,-0.372181 0.38382,-0.389906 0.38382,-1.010208 0,-0.389906 -0.15353,-0.655752 -0.15352,-0.283567 -0.40301,-0.496245 -0.24948,-0.212677 -0.57573,-0.37218 -0.32625,-0.177233 -0.6525,-0.372186 -0.32625,-0.177228 -0.6333,-0.407625 -0.30706,-0.248122 -0.55655,-0.549413 -0.23029,-0.319016 -0.38382,-0.708922 -0.13434,-0.407625 -0.13434,-0.939319 0,-1.151991 0.76765,-1.860913 0.78683,-0.708916 2.11102,-0.708916 0.55654,0 1.05551,0.141783 0.49896,0.124059 0.82521,0.283567 l -0.36463,1.222885 q -0.34544,-0.177228 -0.69088,-0.265842 -0.34544,-0.08861 -0.74845,-0.08861 -0.61411,0 -0.97874,0.336736 -0.36464,0.319012 -0.36464,0.939314 0,0.354461 0.13434,0.620308 0.13434,0.248122 0.34544,0.460795 0.2303,0.194952 0.49897,0.372185 0.28787,0.177228 0.59493,0.336736 0.36463,0.194953 0.71006,0.42535 0.36463,0.230402 0.63331,0.549413 0.28787,0.301292 0.46059,0.726642 0.17272,0.40763 0.17272,0.992488 0,1.222885 -0.78684,1.967252 -0.76764,0.744366 -2.26455,0.744366 -0.76764,0 -1.38176,-0.194953 -0.61411,-0.194953 -0.92117,-0.354461 l 0.34544,-1.25833 q 0.28787,0.141783 0.76764,0.319011 0.49897,0.177229 1.0939,0.177229 z"
       style="font-style:normal;font-variant:normal;font-weight:normal;font-stretch:normal;font-size:39.5463829px;line-height:1.25;font-family:'Ubuntu Condensed';-inkscape-font-specification:'Ubuntu Condensed, Normal';font-variant-ligatures:normal;font-variant-caps:normal;font-variant-numeric:normal;font-feature-settings:normal;text-align:start;letter-spacing:0px;word-spacing:0px;writing-mode:lr-tb;text-anchor:start;fill:#ff00ff;fill-opacity:1;stroke:none;stroke-width:0.46106201"
       id="path8930" />
    <path
       inkscape:connector-curvature="0"
       d="m 258.03216,83.674125 q -0.24949,0.08861 -0.61412,0.177228 -0.34543,0.07089 -0.74845,0.124063 -0.38382,0.07089 -0.78683,0.106334 -0.38383,0.05317 -0.71007,0.05317 -0.78684,0 -1.43933,-0.177228 -0.6525,-0.159508 -1.11309,-0.584858 -0.46059,-0.42535 -0.71007,-1.151996 -0.24948,-0.744361 -0.24948,-1.860913 v -5.724522 h 1.65043 v 5.671353 q 0,1.364673 0.44139,1.931807 0.46059,0.549413 1.38176,0.549413 0.30707,0 0.61412,-0.0177 0.30706,-0.03545 0.63331,-0.124059 v -8.01079 h 1.65043 z"
       style="font-style:normal;font-variant:normal;font-weight:normal;font-stretch:normal;font-size:39.5463829px;line-height:1.25;font-family:'Ubuntu Condensed';-inkscape-font-specification:'Ubuntu Condensed, Normal';font-variant-ligatures:normal;font-variant-caps:normal;font-variant-numeric:normal;font-feature-settings:normal;text-align:start;letter-spacing:0px;word-spacing:0px;writing-mode:lr-tb;text-anchor:start;fill:#ff00ff;fill-opacity:1;stroke:none;stroke-width:0.46106201"
       id="path8932" />
    <path
       inkscape:connector-curvature="0"
       d="m 262.66621,83.939967 h -1.65043 v -9.304565 h 1.65043 z M 261.841,72.987166 q -0.4414,0 -0.76765,-0.265846 -0.30705,-0.283567 -0.30705,-0.744366 0,-0.460795 0.30705,-0.726642 0.32625,-0.283567 0.76765,-0.283567 0.44139,0 0.74845,0.283567 0.32625,0.265847 0.32625,0.726642 0,0.460799 -0.32625,0.744366 -0.30706,0.265846 -0.74845,0.265846 z"
       style="font-style:normal;font-variant:normal;font-weight:normal;font-stretch:normal;font-size:39.5463829px;line-height:1.25;font-family:'Ubuntu Condensed';-inkscape-font-specification:'Ubuntu Condensed, Normal';font-variant-ligatures:normal;font-variant-caps:normal;font-variant-numeric:normal;font-feature-settings:normal;text-align:start;letter-spacing:0px;word-spacing:0px;writing-mode:lr-tb;text-anchor:start;fill:#ff00ff;fill-opacity:1;stroke:none;stroke-width:0.46106201"
       id="path8934" />
    <path
       inkscape:connector-curvature="0"
       d="m 267.19891,74.635402 h 2.53322 v 1.3115 h -2.53322 v 5.121944 q 0,0.957038 0.36463,1.346944 0.38382,0.372185 1.01713,0.372185 0.32625,0 0.61411,-0.08861 0.30706,-0.08862 0.51816,-0.212677 l 0.32625,1.222885 q -0.78683,0.42535 -1.66962,0.42535 -1.42014,0 -2.13021,-0.726641 -0.69088,-0.744366 -0.69088,-2.445771 v -8.826045 l 1.65043,-0.265842 z"
       style="font-style:normal;font-variant:normal;font-weight:normal;font-stretch:normal;font-size:39.5463829px;line-height:1.25;font-family:'Ubuntu Condensed';-inkscape-font-specification:'Ubuntu Condensed, Normal';font-variant-ligatures:normal;font-variant-caps:normal;font-variant-numeric:normal;font-feature-settings:normal;text-align:start;letter-spacing:0px;word-spacing:0px;writing-mode:lr-tb;text-anchor:start;fill:#ff00ff;fill-opacity:1;stroke:none;stroke-width:0.46106201"
       id="path8936" />
    <path
       inkscape:connector-curvature="0"
       d="m 273.21172,82.858865 q 0.72926,0 1.09389,-0.372181 0.38383,-0.389906 0.38383,-1.010208 0,-0.389906 -0.15353,-0.655752 -0.15353,-0.283567 -0.40301,-0.496245 -0.24949,-0.212677 -0.57574,-0.37218 -0.32624,-0.177233 -0.65249,-0.372186 -0.32625,-0.177228 -0.63331,-0.407625 -0.30706,-0.248122 -0.55654,-0.549413 -0.23029,-0.319016 -0.38383,-0.708922 -0.13433,-0.407625 -0.13433,-0.939319 0,-1.151991 0.76764,-1.860913 0.78684,-0.708916 2.11102,-0.708916 0.55654,0 1.05551,0.141783 0.49897,0.124059 0.82522,0.283567 l -0.36463,1.222885 q -0.34544,-0.177228 -0.69088,-0.265842 -0.34544,-0.08861 -0.74846,-0.08861 -0.61411,0 -0.97874,0.336736 -0.36463,0.319012 -0.36463,0.939314 0,0.354461 0.13434,0.620308 0.13433,0.248122 0.34544,0.460795 0.23029,0.194952 0.49896,0.372185 0.28787,0.177228 0.59493,0.336736 0.36463,0.194953 0.71007,0.42535 0.36463,0.230402 0.63331,0.549413 0.28786,0.301292 0.46058,0.726642 0.17272,0.40763 0.17272,0.992488 0,1.222885 -0.78684,1.967252 -0.76764,0.744366 -2.26454,0.744366 -0.76764,0 -1.38176,-0.194953 -0.61412,-0.194953 -0.92117,-0.354461 l 0.34544,-1.25833 q 0.28786,0.141783 0.76764,0.319011 0.49897,0.177229 1.09389,0.177229 z"
       style="font-style:normal;font-variant:normal;font-weight:normal;font-stretch:normal;font-size:39.5463829px;line-height:1.25;font-family:'Ubuntu Condensed';-inkscape-font-specification:'Ubuntu Condensed, Normal';font-variant-ligatures:normal;font-variant-caps:normal;font-variant-numeric:normal;font-feature-settings:normal;text-align:start;letter-spacing:0px;word-spacing:0px;writing-mode:lr-tb;text-anchor:start;fill:#ff00ff;fill-opacity:1;stroke:none;stroke-width:0.46106201"
       id="path8938" />
    <path
       id="path852"
       d="m 276.18166,96.079462 a 10.990929,34.948167 89.292258 0 0 -15.7128,-9.863941 10.990929,34.948167 89.292258 0 0 -35.53809,-0.11092 10.990929,34.948167 89.292258 0 0 -18.53489,9.75705 l 34.94233,-0.234836 z"
       style="fill:#008000;fill-opacity:1;stroke:none;stroke-width:1.1340493;stroke-miterlimit:4;stroke-dasharray:none;stroke-dashoffset:0;stroke-opacity:1"
       inkscape:connector-curvature="0" />
    <path
       style="color:#000000;font-style:normal;font-variant:normal;font-weight:normal;font-stretch:normal;font-size:medium;line-height:normal;font-family:sans-serif;font-variant-ligatures:normal;font-variant-position:normal;font-variant-caps:normal;font-variant-numeric:normal;font-variant-alternates:normal;font-feature-settings:normal;text-indent:0;text-align:start;text-decoration:none;text-decoration-line:none;text-decoration-style:solid;text-decoration-color:#000000;letter-spacing:normal;word-spacing:normal;text-transform:none;writing-mode:lr-tb;direction:ltr;text-orientation:mixed;dominant-baseline:auto;baseline-shift:baseline;text-anchor:start;white-space:normal;shape-padding:0;clip-rule:nonzero;display:inline;overflow:visible;visibility:visible;opacity:1;isolation:auto;mix-blend-mode:normal;color-interpolation:sRGB;color-interpolation-filters:linearRGB;solid-color:#000000;solid-opacity:1;vector-effect:none;fill:#0f40ff;fill-opacity:1;fill-rule:nonzero;stroke:none;stroke-width:1.1340493;stroke-linecap:butt;stroke-linejoin:miter;stroke-miterlimit:4;stroke-dasharray:none;stroke-dashoffset:0;stroke-opacity:1;color-rendering:auto;image-rendering:auto;shape-rendering:auto;text-rendering:auto;enable-background:accumulate"
       d="m 242.92188,84.060547 c -6.17576,-0.01923 -12.42358,0.475517 -18.08985,1.486328 -5.66627,1.010811 -10.30119,2.454455 -13.58594,4.183594 -3.28474,1.729138 -5.31214,3.774295 -5.41601,6.105469 l -0.0274,0.597656 35.53321,-0.240235 35.28906,0.458985 0.10742,-0.439453 c 0.28016,-1.152143 0.0451,-2.321779 -0.61328,-3.375 -0.65836,-1.053222 -1.71975,-2.011139 -3.12695,-2.894532 -2.81441,-1.766785 -7.03736,-3.238697 -12.41407,-4.285156 -5.3767,-1.046458 -11.48049,-1.57843 -17.65624,-1.597656 z m -0.004,1.136719 c 6.11346,0.01913 12.15407,0.544774 17.44336,1.574218 5.28929,1.029444 9.4082,2.486653 12.02734,4.13086 1.30957,0.822103 2.23772,1.68945 2.76758,2.537109 0.4366,0.698461 0.55451,1.373561 0.48828,2.064453 l -34.30469,-0.443359 -34.21679,0.228515 c 0.3826,-1.510318 1.892,-3.101602 4.65234,-4.554687 3.1247,-1.64489 7.66882,-3.075588 13.25586,-4.072266 5.58704,-0.996677 11.77326,-1.483974 17.88672,-1.464843 z"
       id="path882"
       inkscape:connector-curvature="0" />
    <path
       inkscape:connector-curvature="0"
       d="m 214.57868,92.415353 c 0,-1.14748 -0.61677,-2.223243 -1.57061,-2.223243 h -1.47738 c -0.11475,0 -0.29404,0 -0.29404,0.222324 0,0.215153 0.18646,0.215153 0.29404,0.215153 h 0.15778 v 3.506987 h -0.15778 c -0.11475,0 -0.29404,0 -0.29404,0.222325 0,0.215153 0.18646,0.215153 0.29404,0.215153 h 1.47738 c 0.9395,0 1.57061,-1.004046 1.57061,-2.158699 z m -0.49485,0 c 0,0.839095 -0.41596,1.721221 -1.21202,1.721221 h -0.68849 v -3.506987 h 0.68849 c 0.81041,0 1.21202,0.953843 1.21202,1.785766 z"
       style="font-style:normal;font-variant:normal;font-weight:normal;font-stretch:normal;font-size:15.37849522px;line-height:1.25;font-family:'Latin Modern Mono Caps';-inkscape-font-specification:'Latin Modern Mono Caps, Normal';font-variant-ligatures:normal;font-variant-caps:normal;font-variant-numeric:normal;font-feature-settings:normal;text-align:start;letter-spacing:0px;word-spacing:0px;writing-mode:lr-tb;text-anchor:start;fill:#00ffff;fill-opacity:1;stroke:none;stroke-width:0.17929383"
       id="path8942" />
    <path
       inkscape:connector-curvature="0"
       d="m 218.54747,94.007483 c 0,-0.129092 -0.0717,-0.229496 -0.25102,-0.229496 -0.14343,0 -0.23666,0.07172 -0.24384,0.215152 -0.007,0.136264 -0.0645,0.200809 -0.12909,0.200809 -0.17929,0 -0.17929,-0.236667 -0.17929,-0.480507 0,-0.365759 0,-0.595256 -0.30839,-0.824752 0.12192,-0.07172 0.49486,-0.329901 0.49486,-0.745862 0,-0.480508 -0.52354,-0.953843 -1.34112,-0.953843 h -1.11163 c -0.1004,0 -0.30121,0 -0.30121,0.215152 0,0.222325 0.1793,0.222325 0.34424,0.222325 v 2.510113 c -0.16494,0 -0.34424,0 -0.34424,0.222325 0,0.215153 0.20081,0.215153 0.30121,0.215153 h 0.58092 c 0.1004,0 0.30121,0 0.30121,-0.215153 0,-0.222325 -0.17929,-0.222325 -0.34424,-0.222325 V 93.09667 h 0.54505 c 0.68849,0 0.68849,0.322729 0.68849,0.458992 v 0.279699 c 0,0.674145 0.45899,0.796064 0.67414,0.796064 0.40162,0 0.62395,-0.344244 0.62395,-0.623942 z m -1.11163,-1.864656 c 0,0.258183 -0.34424,0.516366 -0.91081,0.516366 h -0.50919 v -1.032732 h 0.50919 c 0.56657,0 0.91081,0.258183 0.91081,0.516366 z"
       style="font-style:normal;font-variant:normal;font-weight:normal;font-stretch:normal;font-size:15.37849522px;line-height:1.25;font-family:'Latin Modern Mono Caps';-inkscape-font-specification:'Latin Modern Mono Caps, Normal';font-variant-ligatures:normal;font-variant-caps:normal;font-variant-numeric:normal;font-feature-settings:normal;text-align:start;letter-spacing:0px;word-spacing:0px;writing-mode:lr-tb;text-anchor:start;fill:#00ffff;fill-opacity:1;stroke:none;stroke-width:0.17929383"
       id="path8944" />
    <path
       inkscape:connector-curvature="0"
       d="m 222.17917,94.272838 v -0.437477 c 0,-0.12192 0,-0.301214 -0.24384,-0.301214 -0.251,0 -0.251,0.172122 -0.251,0.301214 v 0.301213 h -1.8288 v -1.097278 h 0.88929 c 0,0.136263 0,0.308386 0.25101,0.308386 0.24384,0 0.24384,-0.179295 0.24384,-0.301214 v -0.451821 c 0,-0.12192 0,-0.301213 -0.24384,-0.301213 -0.25101,0 -0.25101,0.172122 -0.25101,0.308385 h -0.88929 v -0.975358 h 1.67819 v 0.215152 c 0,0.12192 0,0.301214 0.24384,0.301214 0.25101,0 0.25101,-0.172122 0.25101,-0.301214 v -0.351416 c 0,-0.236668 -0.0574,-0.301213 -0.30121,-0.301213 h -2.4384 c -0.10041,0 -0.30122,0 -0.30122,0.215152 0,0.222325 0.17213,0.222325 0.37293,0.222325 v 2.510113 c -0.2008,0 -0.37293,0 -0.37293,0.222325 0,0.215153 0.20081,0.215153 0.30122,0.215153 h 2.589 c 0.23667,0 0.30121,-0.05737 0.30121,-0.301214 z"
       style="font-style:normal;font-variant:normal;font-weight:normal;font-stretch:normal;font-size:15.37849522px;line-height:1.25;font-family:'Latin Modern Mono Caps';-inkscape-font-specification:'Latin Modern Mono Caps, Normal';font-variant-ligatures:normal;font-variant-caps:normal;font-variant-numeric:normal;font-feature-settings:normal;text-align:start;letter-spacing:0px;word-spacing:0px;writing-mode:lr-tb;text-anchor:start;fill:#00ffff;fill-opacity:1;stroke:none;stroke-width:0.17929383"
       id="path8946" />
    <path
       inkscape:connector-curvature="0"
       d="m 225.73199,93.62738 c 0,-0.294042 -0.14343,-0.516367 -0.30838,-0.666973 -0.26535,-0.236668 -0.53071,-0.286871 -1.00405,-0.372932 -0.14343,-0.02868 -0.40879,-0.07172 -0.53071,-0.100404 -0.45899,-0.09323 -0.59525,-0.279698 -0.59525,-0.444649 0,-0.222324 0.30121,-0.473335 0.82475,-0.473335 0.81758,0 0.90364,0.380102 0.9395,0.559397 0.043,0.179293 0.17929,0.179293 0.24384,0.179293 0.25101,0 0.25101,-0.16495 0.25101,-0.294042 v -0.588084 c 0,-0.107576 0,-0.294041 -0.22232,-0.294041 -0.12193,0 -0.21516,0.09323 -0.24384,0.215152 -0.28687,-0.172122 -0.68132,-0.215152 -0.96102,-0.215152 -0.81758,0 -1.29809,0.466164 -1.29809,0.939499 0,0.315557 0.18647,0.53071 0.37294,0.666974 0.24383,0.172122 0.42313,0.20798 1.05424,0.322728 l 0.47334,0.08606 c 0.21515,0.0502 0.53788,0.215153 0.53788,0.509195 0,0.186465 -0.20081,0.537881 -0.86061,0.537881 -0.0574,0 -0.42313,0 -0.70283,-0.07889 -0.32273,-0.09323 -0.36576,-0.265355 -0.38011,-0.415962 -0.007,-0.100404 -0.0144,-0.243839 -0.24384,-0.243839 -0.25101,0 -0.25101,0.172122 -0.25101,0.301213 v 0.580912 c 0,0.107577 0,0.294042 0.22233,0.294042 0.18646,0 0.23667,-0.193637 0.23667,-0.193637 0.36575,0.193637 0.95384,0.193637 1.11162,0.193637 0.96101,0 1.33394,-0.588083 1.33394,-1.004045 z"
       style="font-style:normal;font-variant:normal;font-weight:normal;font-stretch:normal;font-size:15.37849522px;line-height:1.25;font-family:'Latin Modern Mono Caps';-inkscape-font-specification:'Latin Modern Mono Caps, Normal';font-variant-ligatures:normal;font-variant-caps:normal;font-variant-numeric:normal;font-feature-settings:normal;text-align:start;letter-spacing:0px;word-spacing:0px;writing-mode:lr-tb;text-anchor:start;fill:#00ffff;fill-opacity:1;stroke:none;stroke-width:0.17929383"
       id="path8948" />
    <path
       inkscape:connector-curvature="0"
       d="m 229.49997,93.62738 c 0,-0.294042 -0.14344,-0.516367 -0.30839,-0.666973 -0.26536,-0.236668 -0.53071,-0.286871 -1.00404,-0.372932 -0.14344,-0.02868 -0.4088,-0.07172 -0.53071,-0.100404 -0.45899,-0.09323 -0.59526,-0.279698 -0.59526,-0.444649 0,-0.222324 0.30121,-0.473335 0.82475,-0.473335 0.81758,0 0.90364,0.380102 0.9395,0.559397 0.043,0.179293 0.1793,0.179293 0.24384,0.179293 0.25101,0 0.25101,-0.16495 0.25101,-0.294042 v -0.588084 c 0,-0.107576 0,-0.294041 -0.22232,-0.294041 -0.12192,0 -0.21516,0.09323 -0.24384,0.215152 -0.28687,-0.172122 -0.68132,-0.215152 -0.96102,-0.215152 -0.81758,0 -1.29808,0.466164 -1.29808,0.939499 0,0.315557 0.18646,0.53071 0.37293,0.666974 0.24384,0.172122 0.42313,0.20798 1.05424,0.322728 l 0.47334,0.08606 c 0.21515,0.0502 0.53788,0.215153 0.53788,0.509195 0,0.186465 -0.20081,0.537881 -0.86061,0.537881 -0.0574,0 -0.42313,0 -0.70283,-0.07889 -0.32273,-0.09323 -0.36576,-0.265355 -0.3801,-0.415962 -0.007,-0.100404 -0.0144,-0.243839 -0.24384,-0.243839 -0.25101,0 -0.25101,0.172122 -0.25101,0.301213 v 0.580912 c 0,0.107577 0,0.294042 0.22232,0.294042 0.18647,0 0.23667,-0.193637 0.23667,-0.193637 0.36576,0.193637 0.95384,0.193637 1.11162,0.193637 0.96101,0 1.33395,-0.588083 1.33395,-1.004045 z"
       style="font-style:normal;font-variant:normal;font-weight:normal;font-stretch:normal;font-size:15.37849522px;line-height:1.25;font-family:'Latin Modern Mono Caps';-inkscape-font-specification:'Latin Modern Mono Caps, Normal';font-variant-ligatures:normal;font-variant-caps:normal;font-variant-numeric:normal;font-feature-settings:normal;text-align:start;letter-spacing:0px;word-spacing:0px;writing-mode:lr-tb;text-anchor:start;fill:#00ffff;fill-opacity:1;stroke:none;stroke-width:0.17929383"
       id="path8950" />
    <path
       inkscape:connector-curvature="0"
       d="m 237.22238,91.841613 v -0.351416 c 0,-0.236668 -0.0574,-0.301213 -0.30122,-0.301213 h -2.67506 c -0.23667,0 -0.30121,0.05737 -0.30121,0.301213 v 0.351416 c 0,0.12192 0,0.301214 0.24384,0.301214 0.251,0 0.251,-0.172122 0.251,-0.301214 v -0.215152 h 0.89647 v 2.510113 h -0.18646 c -0.10041,0 -0.30121,0 -0.30121,0.215153 0,0.222325 0.19364,0.222325 0.30121,0.222325 h 0.86778 c 0.10041,0 0.30122,0 0.30122,-0.215153 0,-0.222325 -0.19364,-0.222325 -0.30122,-0.222325 h -0.18646 v -2.510113 h 0.89646 v 0.215152 c 0,0.12192 0,0.301214 0.24384,0.301214 0.25102,0 0.25102,-0.172122 0.25102,-0.301214 z"
       style="font-style:normal;font-variant:normal;font-weight:normal;font-stretch:normal;font-size:15.37849522px;line-height:1.25;font-family:'Latin Modern Mono Caps';-inkscape-font-specification:'Latin Modern Mono Caps, Normal';font-variant-ligatures:normal;font-variant-caps:normal;font-variant-numeric:normal;font-feature-settings:normal;text-align:start;letter-spacing:0px;word-spacing:0px;writing-mode:lr-tb;text-anchor:start;fill:#00ffff;fill-opacity:1;stroke:none;stroke-width:0.17929383"
       id="path8952" />
    <path
       inkscape:connector-curvature="0"
       d="m 240.78237,92.881518 c 0,-1.584958 -0.13626,-1.749908 -1.42718,-1.749908 -1.29092,0 -1.43435,0.157778 -1.43435,1.749908 0,1.584957 0.13626,1.749907 1.43435,1.749907 1.29092,0 1.42718,-0.16495 1.42718,-1.749907 z m -0.49485,-0.0502 c 0,1.240714 -0.10041,1.362633 -0.93233,1.362633 -0.8391,0 -0.9395,-0.114748 -0.9395,-1.362633 0,-1.140309 0.0861,-1.262228 0.93233,-1.262228 0.85343,0 0.9395,0.114748 0.9395,1.262228 z"
       style="font-style:normal;font-variant:normal;font-weight:normal;font-stretch:normal;font-size:15.37849522px;line-height:1.25;font-family:'Latin Modern Mono Caps';-inkscape-font-specification:'Latin Modern Mono Caps, Normal';font-variant-ligatures:normal;font-variant-caps:normal;font-variant-numeric:normal;font-feature-settings:normal;text-align:start;letter-spacing:0px;word-spacing:0px;writing-mode:lr-tb;text-anchor:start;fill:#00ffff;fill-opacity:1;stroke:none;stroke-width:0.17929383"
       id="path8954" />
    <path
       inkscape:connector-curvature="0"
       d="m 248.42589,93.641723 c 0,-0.229496 -0.19364,-0.229496 -0.25101,-0.229496 -0.22233,0 -0.23667,0.143435 -0.24384,0.236668 -0.0359,0.401618 -0.55223,0.545053 -0.87496,0.545053 -0.68848,0 -1.21202,-0.602427 -1.21202,-1.31243 0,-0.738691 0.55222,-1.312431 1.19768,-1.312431 0.30839,0 0.78172,0.143435 0.8893,0.631114 0.0144,0.08606 0.043,0.200809 0.24384,0.200809 0.25101,0 0.25101,-0.16495 0.25101,-0.294042 v -0.681317 c 0,-0.107576 0,-0.294041 -0.22233,-0.294041 -0.11474,0 -0.16494,0.0502 -0.28687,0.251011 -0.12191,-0.07889 -0.44465,-0.251011 -0.89646,-0.251011 -0.93233,0 -1.67102,0.788892 -1.67102,1.749908 0,0.946671 0.72435,1.749907 1.67819,1.749907 0.78889,0 1.39849,-0.415961 1.39849,-0.989702 z"
       style="font-style:normal;font-variant:normal;font-weight:normal;font-stretch:normal;font-size:15.37849522px;line-height:1.25;font-family:'Latin Modern Mono Caps';-inkscape-font-specification:'Latin Modern Mono Caps, Normal';font-variant-ligatures:normal;font-variant-caps:normal;font-variant-numeric:normal;font-feature-settings:normal;text-align:start;letter-spacing:0px;word-spacing:0px;writing-mode:lr-tb;text-anchor:start;fill:#00ffff;fill-opacity:1;stroke:none;stroke-width:0.17929383"
       id="path8956" />
    <path
       inkscape:connector-curvature="0"
       d="m 252.08629,92.881518 c 0,-1.584958 -0.13626,-1.749908 -1.42718,-1.749908 -1.29092,0 -1.43435,0.157778 -1.43435,1.749908 0,1.584957 0.13626,1.749907 1.43435,1.749907 1.29092,0 1.42718,-0.16495 1.42718,-1.749907 z m -0.49485,-0.0502 c 0,1.240714 -0.10041,1.362633 -0.93233,1.362633 -0.8391,0 -0.9395,-0.114748 -0.9395,-1.362633 0,-1.140309 0.0861,-1.262228 0.93233,-1.262228 0.85344,0 0.9395,0.114748 0.9395,1.262228 z"
       style="font-style:normal;font-variant:normal;font-weight:normal;font-stretch:normal;font-size:15.37849522px;line-height:1.25;font-family:'Latin Modern Mono Caps';-inkscape-font-specification:'Latin Modern Mono Caps, Normal';font-variant-ligatures:normal;font-variant-caps:normal;font-variant-numeric:normal;font-feature-settings:normal;text-align:start;letter-spacing:0px;word-spacing:0px;writing-mode:lr-tb;text-anchor:start;fill:#00ffff;fill-opacity:1;stroke:none;stroke-width:0.17929383"
       id="path8958" />
    <path
       inkscape:connector-curvature="0"
       d="m 256.04789,94.351727 c 0,-0.215153 -0.20798,-0.215153 -0.27969,-0.215153 v -2.510113 c 0.0717,0 0.27969,0 0.27969,-0.215153 0,-0.222324 -0.19363,-0.222324 -0.30121,-0.222324 h -0.30838 c -0.17213,0 -0.30839,0.0072 -0.4088,0.258183 l -0.60242,1.506068 -0.6096,-1.506068 c -0.10041,-0.24384 -0.23667,-0.258183 -0.40879,-0.258183 h -0.30839 c -0.10757,0 -0.30121,0 -0.30121,0.222324 0,0.215153 0.20798,0.215153 0.2797,0.215153 v 2.510113 c -0.0717,0 -0.2797,0 -0.2797,0.215153 0,0.222325 0.19364,0.222325 0.30121,0.222325 h 0.38011 c 0.10757,0 0.30121,0 0.30121,-0.222325 0,-0.215153 -0.20798,-0.215153 -0.2797,-0.215153 v -2.438396 l 0.007,-0.0072 0.59526,1.491724 c 0.0215,0.05737 0.10757,0.265356 0.31555,0.265356 0.21516,0 0.29405,-0.20081 0.32273,-0.265356 l 0.59526,-1.491724 0.007,0.0072 v 2.438396 c -0.0717,0 -0.2797,0 -0.2797,0.215153 0,0.222325 0.19364,0.222325 0.30122,0.222325 h 0.3801 c 0.10758,0 0.30121,0 0.30121,-0.222325 z"
       style="font-style:normal;font-variant:normal;font-weight:normal;font-stretch:normal;font-size:15.37849522px;line-height:1.25;font-family:'Latin Modern Mono Caps';-inkscape-font-specification:'Latin Modern Mono Caps, Normal';font-variant-ligatures:normal;font-variant-caps:normal;font-variant-numeric:normal;font-feature-settings:normal;text-align:start;letter-spacing:0px;word-spacing:0px;writing-mode:lr-tb;text-anchor:start;fill:#00ffff;fill-opacity:1;stroke:none;stroke-width:0.17929383"
       id="path8960" />
    <path
       inkscape:connector-curvature="0"
       d="m 259.70829,92.257575 c 0,-0.537882 -0.50202,-1.068591 -1.31243,-1.068591 h -1.42718 c -0.1004,0 -0.30121,0 -0.30121,0.215152 0,0.222325 0.17212,0.222325 0.37293,0.222325 v 2.510113 c -0.20081,0 -0.37293,0 -0.37293,0.222325 0,0.215153 0.20081,0.215153 0.30121,0.215153 h 0.63829 c 0.1004,0 0.30121,0 0.30121,-0.215153 0,-0.222325 -0.17212,-0.222325 -0.37293,-0.222325 v -0.817579 h 0.86061 c 0.83192,0 1.31243,-0.552225 1.31243,-1.06142 z m -0.49485,-0.0072 c 0,0.308385 -0.33708,0.631114 -0.94667,0.631114 h -0.73152 V 91.62646 h 0.73152 c 0.63828,0 0.94667,0.344244 0.94667,0.623943 z"
       style="font-style:normal;font-variant:normal;font-weight:normal;font-stretch:normal;font-size:15.37849522px;line-height:1.25;font-family:'Latin Modern Mono Caps';-inkscape-font-specification:'Latin Modern Mono Caps, Normal';font-variant-ligatures:normal;font-variant-caps:normal;font-variant-numeric:normal;font-feature-settings:normal;text-align:start;letter-spacing:0px;word-spacing:0px;writing-mode:lr-tb;text-anchor:start;fill:#00ffff;fill-opacity:1;stroke:none;stroke-width:0.17929383"
       id="path8962" />
    <path
       inkscape:connector-curvature="0"
       d="m 263.76313,94.007483 c 0,-0.129092 -0.0717,-0.229496 -0.25101,-0.229496 -0.14343,0 -0.23667,0.07172 -0.24384,0.215152 -0.007,0.136264 -0.0645,0.200809 -0.12909,0.200809 -0.17929,0 -0.17929,-0.236667 -0.17929,-0.480507 0,-0.365759 0,-0.595256 -0.30839,-0.824752 0.12192,-0.07172 0.49485,-0.329901 0.49485,-0.745862 0,-0.480508 -0.52353,-0.953843 -1.34112,-0.953843 h -1.11162 c -0.1004,0 -0.30121,0 -0.30121,0.215152 0,0.222325 0.17929,0.222325 0.34424,0.222325 v 2.510113 c -0.16495,0 -0.34424,0 -0.34424,0.222325 0,0.215153 0.20081,0.215153 0.30121,0.215153 h 0.58091 c 0.10041,0 0.30122,0 0.30122,-0.215153 0,-0.222325 -0.17929,-0.222325 -0.34425,-0.222325 V 93.09667 h 0.54506 c 0.68849,0 0.68849,0.322729 0.68849,0.458992 v 0.279699 c 0,0.674145 0.45899,0.796064 0.67414,0.796064 0.40162,0 0.62394,-0.344244 0.62394,-0.623942 z m -1.11162,-1.864656 c 0,0.258183 -0.34424,0.516366 -0.91081,0.516366 h -0.5092 v -1.032732 h 0.5092 c 0.56657,0 0.91081,0.258183 0.91081,0.516366 z"
       style="font-style:normal;font-variant:normal;font-weight:normal;font-stretch:normal;font-size:15.37849522px;line-height:1.25;font-family:'Latin Modern Mono Caps';-inkscape-font-specification:'Latin Modern Mono Caps, Normal';font-variant-ligatures:normal;font-variant-caps:normal;font-variant-numeric:normal;font-feature-settings:normal;text-align:start;letter-spacing:0px;word-spacing:0px;writing-mode:lr-tb;text-anchor:start;fill:#00ffff;fill-opacity:1;stroke:none;stroke-width:0.17929383"
       id="path8964" />
    <path
       inkscape:connector-curvature="0"
       d="m 267.39484,94.272838 v -0.437477 c 0,-0.12192 0,-0.301214 -0.24384,-0.301214 -0.25101,0 -0.25101,0.172122 -0.25101,0.301214 v 0.301213 h -1.8288 v -1.097278 h 0.8893 c 0,0.136263 0,0.308386 0.25101,0.308386 0.24384,0 0.24384,-0.179295 0.24384,-0.301214 v -0.451821 c 0,-0.12192 0,-0.301213 -0.24384,-0.301213 -0.25101,0 -0.25101,0.172122 -0.25101,0.308385 h -0.8893 v -0.975358 h 1.67819 v 0.215152 c 0,0.12192 0,0.301214 0.24384,0.301214 0.25101,0 0.25101,-0.172122 0.25101,-0.301214 v -0.351416 c 0,-0.236668 -0.0574,-0.301213 -0.30121,-0.301213 h -2.4384 c -0.1004,0 -0.30121,0 -0.30121,0.215152 0,0.222325 0.17212,0.222325 0.37293,0.222325 v 2.510113 c -0.20081,0 -0.37293,0 -0.37293,0.222325 0,0.215153 0.20081,0.215153 0.30121,0.215153 h 2.589 c 0.23667,0 0.30122,-0.05737 0.30122,-0.301214 z"
       style="font-style:normal;font-variant:normal;font-weight:normal;font-stretch:normal;font-size:15.37849522px;line-height:1.25;font-family:'Latin Modern Mono Caps';-inkscape-font-specification:'Latin Modern Mono Caps, Normal';font-variant-ligatures:normal;font-variant-caps:normal;font-variant-numeric:normal;font-feature-settings:normal;text-align:start;letter-spacing:0px;word-spacing:0px;writing-mode:lr-tb;text-anchor:start;fill:#00ffff;fill-opacity:1;stroke:none;stroke-width:0.17929383"
       id="path8966" />
    <path
       inkscape:connector-curvature="0"
       d="m 270.94766,93.62738 c 0,-0.294042 -0.14344,-0.516367 -0.30838,-0.666973 -0.26536,-0.236668 -0.53072,-0.286871 -1.00405,-0.372932 -0.14344,-0.02868 -0.40879,-0.07172 -0.53071,-0.100404 -0.45899,-0.09323 -0.59525,-0.279698 -0.59525,-0.444649 0,-0.222324 0.30121,-0.473335 0.82474,-0.473335 0.81759,0 0.90365,0.380102 0.93951,0.559397 0.043,0.179293 0.17929,0.179293 0.24383,0.179293 0.25102,0 0.25102,-0.16495 0.25102,-0.294042 v -0.588084 c 0,-0.107576 0,-0.294041 -0.22233,-0.294041 -0.12192,0 -0.21515,0.09323 -0.24384,0.215152 -0.28687,-0.172122 -0.68132,-0.215152 -0.96101,-0.215152 -0.81758,0 -1.29809,0.466164 -1.29809,0.939499 0,0.315557 0.18646,0.53071 0.37293,0.666974 0.24384,0.172122 0.42314,0.20798 1.05425,0.322728 l 0.47334,0.08606 c 0.21515,0.0502 0.53788,0.215153 0.53788,0.509195 0,0.186465 -0.20081,0.537881 -0.86062,0.537881 -0.0574,0 -0.42313,0 -0.70283,-0.07889 -0.32272,-0.09323 -0.36575,-0.265355 -0.3801,-0.415962 -0.007,-0.100404 -0.0144,-0.243839 -0.24384,-0.243839 -0.25101,0 -0.25101,0.172122 -0.25101,0.301213 v 0.580912 c 0,0.107577 0,0.294042 0.22233,0.294042 0.18646,0 0.23666,-0.193637 0.23666,-0.193637 0.36576,0.193637 0.95385,0.193637 1.11162,0.193637 0.96102,0 1.33395,-0.588083 1.33395,-1.004045 z"
       style="font-style:normal;font-variant:normal;font-weight:normal;font-stretch:normal;font-size:15.37849522px;line-height:1.25;font-family:'Latin Modern Mono Caps';-inkscape-font-specification:'Latin Modern Mono Caps, Normal';font-variant-ligatures:normal;font-variant-caps:normal;font-variant-numeric:normal;font-feature-settings:normal;text-align:start;letter-spacing:0px;word-spacing:0px;writing-mode:lr-tb;text-anchor:start;fill:#00ffff;fill-opacity:1;stroke:none;stroke-width:0.17929383"
       id="path8968" />
    <path
       inkscape:connector-curvature="0"
       d="m 274.71563,93.62738 c 0,-0.294042 -0.14343,-0.516367 -0.30838,-0.666973 -0.26536,-0.236668 -0.53071,-0.286871 -1.00405,-0.372932 -0.14343,-0.02868 -0.40879,-0.07172 -0.53071,-0.100404 -0.45899,-0.09323 -0.59525,-0.279698 -0.59525,-0.444649 0,-0.222324 0.30121,-0.473335 0.82475,-0.473335 0.81758,0 0.90364,0.380102 0.9395,0.559397 0.043,0.179293 0.17929,0.179293 0.24384,0.179293 0.25101,0 0.25101,-0.16495 0.25101,-0.294042 v -0.588084 c 0,-0.107576 0,-0.294041 -0.22232,-0.294041 -0.12193,0 -0.21516,0.09323 -0.24384,0.215152 -0.28687,-0.172122 -0.68132,-0.215152 -0.96102,-0.215152 -0.81758,0 -1.29809,0.466164 -1.29809,0.939499 0,0.315557 0.18647,0.53071 0.37294,0.666974 0.24383,0.172122 0.42313,0.20798 1.05424,0.322728 l 0.47334,0.08606 c 0.21515,0.0502 0.53788,0.215153 0.53788,0.509195 0,0.186465 -0.20081,0.537881 -0.86061,0.537881 -0.0574,0 -0.42313,0 -0.70283,-0.07889 -0.32273,-0.09323 -0.36576,-0.265355 -0.38011,-0.415962 -0.007,-0.100404 -0.0144,-0.243839 -0.24384,-0.243839 -0.25101,0 -0.25101,0.172122 -0.25101,0.301213 v 0.580912 c 0,0.107577 0,0.294042 0.22233,0.294042 0.18646,0 0.23667,-0.193637 0.23667,-0.193637 0.36575,0.193637 0.95384,0.193637 1.11162,0.193637 0.96101,0 1.33394,-0.588083 1.33394,-1.004045 z"
       style="font-style:normal;font-variant:normal;font-weight:normal;font-stretch:normal;font-size:15.37849522px;line-height:1.25;font-family:'Latin Modern Mono Caps';-inkscape-font-specification:'Latin Modern Mono Caps, Normal';font-variant-ligatures:normal;font-variant-caps:normal;font-variant-numeric:normal;font-feature-settings:normal;text-align:start;letter-spacing:0px;word-spacing:0px;writing-mode:lr-tb;text-anchor:start;fill:#00ffff;fill-opacity:1;stroke:none;stroke-width:0.17929383"
       id="path8970" />
    <path
       id="rect854"
       d="m 210.09834,67.417252 h 63.61284 c 3.33571,0 6.02113,2.685422 6.02113,6.021127 v 17.617365 c 0,3.335705 -2.68542,6.021127 -6.02113,6.021127 h -63.61284 c -3.3357,0 -6.02112,-2.685422 -6.02112,-6.021127 V 73.438379 c 0,-3.335705 2.68542,-6.021127 6.02112,-6.021127 z"
       style="fill:none;fill-opacity:1;stroke:none;stroke-width:0;stroke-miterlimit:4;stroke-dasharray:none;stroke-dashoffset:0;stroke-opacity:1"
       inkscape:connector-curvature="0" />
    <path
       id="path11017"
       style="font-style:normal;font-variant:normal;font-weight:normal;font-stretch:normal;font-size:39.5463829px;line-height:1.25;font-family:'Ubuntu Condensed';-inkscape-font-specification:'Ubuntu Condensed, Normal';font-variant-ligatures:normal;font-variant-caps:normal;font-variant-numeric:normal;font-feature-settings:normal;text-align:start;letter-spacing:0px;word-spacing:0px;writing-mode:lr-tb;text-anchor:start;fill:#ff00ff;fill-opacity:1;stroke:none;stroke-width:0.46106201"
       d="m 210.79298,82.841144 q 1.03632,0 1.59286,-0.531688 0.57573,-0.531694 0.57573,-1.435563 0,-0.47852 -0.17272,-0.850705 -0.17271,-0.372181 -0.46058,-0.673472 -0.26868,-0.301291 -0.63331,-0.549413 -0.36463,-0.248122 -0.74845,-0.496244 -0.4414,-0.283567 -0.92118,-0.602579 -0.47977,-0.319016 -0.88278,-0.744366 -0.38383,-0.42535 -0.63331,-0.992488 -0.24948,-0.567133 -0.24948,-1.329224 0,-0.744366 0.26867,-1.346944 0.28787,-0.602583 0.76764,-1.027933 0.49897,-0.425355 1.17066,-0.655752 0.69088,-0.230398 1.47771,-0.230398 0.76765,0 1.42014,0.177229 0.6525,0.177232 1.0939,0.42535 l -0.53735,1.258334 q -0.40301,-0.248122 -0.88279,-0.372185 -0.46059,-0.141783 -0.97875,-0.141783 -0.94036,0 -1.51609,0.478524 -0.55655,0.460795 -0.55655,1.364669 0,0.496244 0.17272,0.868424 0.19191,0.372181 0.47978,0.673473 0.30706,0.301291 0.69088,0.549413 0.40301,0.248122 0.84441,0.513964 0.4414,0.265847 0.90198,0.584863 0.46059,0.319011 0.82522,0.744361 0.38382,0.40763 0.61411,0.974764 0.24949,0.549413 0.24949,1.311504 0,0.691197 -0.2303,1.311499 -0.23029,0.620303 -0.72926,1.098827 -0.47978,0.460795 -1.22823,0.744362 -0.72926,0.265846 -1.7272,0.265846 -0.92117,0 -1.61205,-0.194952 -0.69088,-0.194953 -1.22823,-0.513969 l 0.53735,-1.276055 q 0.49897,0.283571 1.01713,0.460799 0.53735,0.159508 1.22823,0.159508 z"
       inkscape:connector-curvature="0" />
    <path
       id="path11019"
       style="font-style:normal;font-variant:normal;font-weight:normal;font-stretch:normal;font-size:39.5463829px;line-height:1.25;font-family:'Ubuntu Condensed';-inkscape-font-specification:'Ubuntu Condensed, Normal';font-variant-ligatures:normal;font-variant-caps:normal;font-variant-numeric:normal;font-feature-settings:normal;text-align:start;letter-spacing:0px;word-spacing:0px;writing-mode:lr-tb;text-anchor:start;fill:#ff00ff;fill-opacity:1;stroke:none;stroke-width:0.46106201"
       d="m 223.55356,79.296547 q 0,1.098826 -0.2111,2.002696 -0.21111,0.886149 -0.6525,1.524177 -0.4222,0.638027 -1.09389,0.992488 -0.6525,0.354461 -1.55448,0.354461 -0.90198,0 -1.57367,-0.354461 -0.67169,-0.354461 -1.11309,-0.992488 -0.4222,-0.638028 -0.6333,-1.524177 -0.2111,-0.90387 -0.2111,-2.002696 0,-1.081102 0.2111,-1.984972 0.2111,-0.903874 0.6333,-1.541901 0.4414,-0.655753 1.11309,-1.010209 0.67169,-0.35446 1.57367,-0.35446 0.90198,0 1.55448,0.35446 0.67169,0.354456 1.09389,1.010209 0.44139,0.638027 0.6525,1.541901 0.2111,0.90387 0.2111,1.984972 z m -1.7272,0 q 0,-0.779811 -0.0959,-1.417839 -0.096,-0.655752 -0.30706,-1.116546 -0.2111,-0.47852 -0.55654,-0.726642 -0.34544,-0.265846 -0.82522,-0.265846 -0.49897,0 -0.84441,0.265846 -0.32625,0.248122 -0.55654,0.726642 -0.2111,0.460794 -0.30706,1.116546 -0.096,0.638028 -0.096,1.417839 0,0.77981 0.096,1.435562 0.096,0.638028 0.30706,1.098823 0.23029,0.460799 0.55654,0.726646 0.34544,0.248117 0.84441,0.248117 0.47978,0 0.82522,-0.248117 0.34544,-0.265847 0.55654,-0.726646 0.2111,-0.460795 0.30706,-1.098823 0.0959,-0.655752 0.0959,-1.435562 z"
       inkscape:connector-curvature="0" />
    <path
       id="path11021"
       style="font-style:normal;font-variant:normal;font-weight:normal;font-stretch:normal;font-size:39.5463829px;line-height:1.25;font-family:'Ubuntu Condensed';-inkscape-font-specification:'Ubuntu Condensed, Normal';font-variant-ligatures:normal;font-variant-caps:normal;font-variant-numeric:normal;font-feature-settings:normal;text-align:start;letter-spacing:0px;word-spacing:0px;writing-mode:lr-tb;text-anchor:start;fill:#ff00ff;fill-opacity:1;stroke:none;stroke-width:0.46106201"
       d="m 228.57953,84.117199 q -1.42014,-0.03545 -2.03426,-0.638027 -0.61411,-0.620307 -0.61411,-1.949527 V 70.452781 l 1.65043,-0.265846 V 81.56509 q 0,0.620302 0.26868,0.903869 0.26867,0.265847 0.94036,0.372185 z"
       inkscape:connector-curvature="0" />
    <path
       id="path11023"
       style="font-style:normal;font-variant:normal;font-weight:normal;font-stretch:normal;font-size:39.5463829px;line-height:1.25;font-family:'Ubuntu Condensed';-inkscape-font-specification:'Ubuntu Condensed, Normal';font-variant-ligatures:normal;font-variant-caps:normal;font-variant-numeric:normal;font-feature-settings:normal;text-align:start;letter-spacing:0px;word-spacing:0px;writing-mode:lr-tb;text-anchor:start;fill:#ff00ff;fill-opacity:1;stroke:none;stroke-width:0.46106201"
       d="m 230.77091,74.830355 q 0.49897,-0.194953 1.05551,-0.301292 0.55654,-0.124058 1.20904,-0.124058 1.34337,0 2.18779,0.77981 0.8444,0.762087 0.8444,2.392602 v 6.167597 q -0.69087,0.177233 -1.42014,0.283571 -0.71007,0.106334 -1.40095,0.106334 -0.69088,0 -1.30499,-0.159503 -0.59492,-0.159508 -1.05551,-0.513969 -0.4414,-0.35446 -0.71007,-0.886149 -0.26868,-0.549414 -0.26868,-1.329224 0,-0.726642 0.23029,-1.258331 0.24949,-0.549413 0.67169,-0.903874 0.42221,-0.37218 0.99794,-0.549409 0.57573,-0.194952 1.24742,-0.194952 0.6333,0 1.40095,0.141783 v -0.850705 q 0,-1.027932 -0.4414,-1.435562 -0.4222,-0.407626 -1.22823,-0.407626 -0.44139,0 -0.8444,0.08861 -0.38382,0.07089 -0.82522,0.248122 z m 0.78684,6.397999 q 0,0.815255 0.46058,1.20516 0.46059,0.389906 1.30499,0.389906 0.51817,0 1.13228,-0.124059 v -2.95974 q -0.57573,-0.141783 -1.13228,-0.141783 -0.36463,0 -0.69087,0.08861 -0.32625,0.07089 -0.57574,0.265847 -0.23029,0.177228 -0.36463,0.496244 -0.13433,0.301287 -0.13433,0.779811 z"
       inkscape:connector-curvature="0" />
    <path
       id="path11025"
       style="font-style:normal;font-variant:normal;font-weight:normal;font-stretch:normal;font-size:39.5463829px;line-height:1.25;font-family:'Ubuntu Condensed';-inkscape-font-specification:'Ubuntu Condensed, Normal';font-variant-ligatures:normal;font-variant-caps:normal;font-variant-numeric:normal;font-feature-settings:normal;text-align:start;letter-spacing:0px;word-spacing:0px;writing-mode:lr-tb;text-anchor:start;fill:#ff00ff;fill-opacity:1;stroke:none;stroke-width:0.46106201"
       d="m 243.2949,76.017796 q -0.61412,-0.248122 -1.38176,-0.248122 -0.71007,0 -1.32418,0.230397 v 7.939896 h -1.65044 v -8.896935 q 0.55654,-0.248122 1.26661,-0.40763 0.72926,-0.177228 1.59286,-0.177228 0.46059,0 0.92118,0.05317 0.46058,0.05317 0.86359,0.194953 z"
       inkscape:connector-curvature="0" />
    <path
       id="path11027"
       style="font-style:normal;font-variant:normal;font-weight:normal;font-stretch:normal;font-size:39.5463829px;line-height:1.25;font-family:'Ubuntu Condensed';-inkscape-font-specification:'Ubuntu Condensed, Normal';font-variant-ligatures:normal;font-variant-caps:normal;font-variant-numeric:normal;font-feature-settings:normal;text-align:start;letter-spacing:0px;word-spacing:0px;writing-mode:lr-tb;text-anchor:start;fill:#ff00ff;fill-opacity:1;stroke:none;stroke-width:0.46106201"
       d="m 246.63655,82.858865 q 0.72926,0 1.09389,-0.372181 0.38382,-0.389906 0.38382,-1.010208 0,-0.389906 -0.15353,-0.655752 -0.15352,-0.283567 -0.40301,-0.496245 -0.24948,-0.212677 -0.57573,-0.37218 -0.32625,-0.177233 -0.6525,-0.372186 -0.32625,-0.177228 -0.6333,-0.407625 -0.30706,-0.248122 -0.55655,-0.549413 -0.23029,-0.319016 -0.38382,-0.708922 -0.13434,-0.407625 -0.13434,-0.939319 0,-1.151991 0.76765,-1.860913 0.78683,-0.708916 2.11102,-0.708916 0.55654,0 1.05551,0.141783 0.49896,0.124059 0.82521,0.283567 l -0.36463,1.222885 q -0.34544,-0.177228 -0.69088,-0.265842 -0.34544,-0.08861 -0.74845,-0.08861 -0.61411,0 -0.97874,0.336736 -0.36464,0.319012 -0.36464,0.939314 0,0.354461 0.13434,0.620308 0.13434,0.248122 0.34544,0.460795 0.2303,0.194952 0.49897,0.372185 0.28787,0.177228 0.59493,0.336736 0.36463,0.194953 0.71006,0.42535 0.36463,0.230402 0.63331,0.549413 0.28787,0.301292 0.46059,0.726642 0.17272,0.40763 0.17272,0.992488 0,1.222885 -0.78684,1.967252 -0.76764,0.744366 -2.26455,0.744366 -0.76764,0 -1.38176,-0.194953 -0.61411,-0.194953 -0.92117,-0.354461 l 0.34544,-1.25833 q 0.28787,0.141783 0.76764,0.319011 0.49897,0.177229 1.0939,0.177229 z"
       inkscape:connector-curvature="0" />
    <path
       id="path11029"
       style="font-style:normal;font-variant:normal;font-weight:normal;font-stretch:normal;font-size:39.5463829px;line-height:1.25;font-family:'Ubuntu Condensed';-inkscape-font-specification:'Ubuntu Condensed, Normal';font-variant-ligatures:normal;font-variant-caps:normal;font-variant-numeric:normal;font-feature-settings:normal;text-align:start;letter-spacing:0px;word-spacing:0px;writing-mode:lr-tb;text-anchor:start;fill:#ff00ff;fill-opacity:1;stroke:none;stroke-width:0.46106201"
       d="m 258.03216,83.674125 q -0.24949,0.08861 -0.61412,0.177228 -0.34543,0.07089 -0.74845,0.124063 -0.38382,0.07089 -0.78683,0.106334 -0.38383,0.05317 -0.71007,0.05317 -0.78684,0 -1.43933,-0.177228 -0.6525,-0.159508 -1.11309,-0.584858 -0.46059,-0.42535 -0.71007,-1.151996 -0.24948,-0.744361 -0.24948,-1.860913 v -5.724522 h 1.65043 v 5.671353 q 0,1.364673 0.44139,1.931807 0.46059,0.549413 1.38176,0.549413 0.30707,0 0.61412,-0.0177 0.30706,-0.03545 0.63331,-0.124059 v -8.01079 h 1.65043 z"
       inkscape:connector-curvature="0" />
    <path
       id="path11031"
       style="font-style:normal;font-variant:normal;font-weight:normal;font-stretch:normal;font-size:39.5463829px;line-height:1.25;font-family:'Ubuntu Condensed';-inkscape-font-specification:'Ubuntu Condensed, Normal';font-variant-ligatures:normal;font-variant-caps:normal;font-variant-numeric:normal;font-feature-settings:normal;text-align:start;letter-spacing:0px;word-spacing:0px;writing-mode:lr-tb;text-anchor:start;fill:#ff00ff;fill-opacity:1;stroke:none;stroke-width:0.46106201"
       d="m 262.66621,83.939967 h -1.65043 v -9.304565 h 1.65043 z M 261.841,72.987166 q -0.4414,0 -0.76765,-0.265846 -0.30705,-0.283567 -0.30705,-0.744366 0,-0.460795 0.30705,-0.726642 0.32625,-0.283567 0.76765,-0.283567 0.44139,0 0.74845,0.283567 0.32625,0.265847 0.32625,0.726642 0,0.460799 -0.32625,0.744366 -0.30706,0.265846 -0.74845,0.265846 z"
       inkscape:connector-curvature="0" />
    <path
       id="path11033"
       style="font-style:normal;font-variant:normal;font-weight:normal;font-stretch:normal;font-size:39.5463829px;line-height:1.25;font-family:'Ubuntu Condensed';-inkscape-font-specification:'Ubuntu Condensed, Normal';font-variant-ligatures:normal;font-variant-caps:normal;font-variant-numeric:normal;font-feature-settings:normal;text-align:start;letter-spacing:0px;word-spacing:0px;writing-mode:lr-tb;text-anchor:start;fill:#ff00ff;fill-opacity:1;stroke:none;stroke-width:0.46106201"
       d="m 267.19891,74.635402 h 2.53322 v 1.3115 h -2.53322 v 5.121944 q 0,0.957038 0.36463,1.346944 0.38382,0.372185 1.01713,0.372185 0.32625,0 0.61411,-0.08861 0.30706,-0.08862 0.51816,-0.212677 l 0.32625,1.222885 q -0.78683,0.42535 -1.66962,0.42535 -1.42014,0 -2.13021,-0.726641 -0.69088,-0.744366 -0.69088,-2.445771 v -8.826045 l 1.65043,-0.265842 z"
       inkscape:connector-curvature="0" />
    <path
       id="path11035"
       style="font-style:normal;font-variant:normal;font-weight:normal;font-stretch:normal;font-size:39.5463829px;line-height:1.25;font-family:'Ubuntu Condensed';-inkscape-font-specification:'Ubuntu Condensed, Normal';font-variant-ligatures:normal;font-variant-caps:normal;font-variant-numeric:normal;font-feature-settings:normal;text-align:start;letter-spacing:0px;word-spacing:0px;writing-mode:lr-tb;text-anchor:start;fill:#ff00ff;fill-opacity:1;stroke:none;stroke-width:0.46106201"
       d="m 273.21172,82.858865 q 0.72926,0 1.09389,-0.372181 0.38383,-0.389906 0.38383,-1.010208 0,-0.389906 -0.15353,-0.655752 -0.15353,-0.283567 -0.40301,-0.496245 -0.24949,-0.212677 -0.57574,-0.37218 -0.32624,-0.177233 -0.65249,-0.372186 -0.32625,-0.177228 -0.63331,-0.407625 -0.30706,-0.248122 -0.55654,-0.549413 -0.23029,-0.319016 -0.38383,-0.708922 -0.13433,-0.407625 -0.13433,-0.939319 0,-1.151991 0.76764,-1.860913 0.78684,-0.708916 2.11102,-0.708916 0.55654,0 1.05551,0.141783 0.49897,0.124059 0.82522,0.283567 l -0.36463,1.222885 q -0.34544,-0.177228 -0.69088,-0.265842 -0.34544,-0.08861 -0.74846,-0.08861 -0.61411,0 -0.97874,0.336736 -0.36463,0.319012 -0.36463,0.939314 0,0.354461 0.13434,0.620308 0.13433,0.248122 0.34544,0.460795 0.23029,0.194952 0.49896,0.372185 0.28787,0.177228 0.59493,0.336736 0.36463,0.194953 0.71007,0.42535 0.36463,0.230402 0.63331,0.549413 0.28786,0.301292 0.46058,0.726642 0.17272,0.40763 0.17272,0.992488 0,1.222885 -0.78684,1.967252 -0.76764,0.744366 -2.26454,0.744366 -0.76764,0 -1.38176,-0.194953 -0.61412,-0.194953 -0.92117,-0.354461 l 0.34544,-1.25833 q 0.28786,0.141783 0.76764,0.319011 0.49897,0.177229 1.09389,0.177229 z"
       inkscape:connector-curvature="0" />
    <path
       id="path11041"
       style="font-style:normal;font-variant:normal;font-weight:normal;font-stretch:normal;font-size:15.37849522px;line-height:1.25;font-family:'Latin Modern Mono Caps';-inkscape-font-specification:'Latin Modern Mono Caps, Normal';font-variant-ligatures:normal;font-variant-caps:normal;font-variant-numeric:normal;font-feature-settings:normal;text-align:start;letter-spacing:0px;word-spacing:0px;writing-mode:lr-tb;text-anchor:start;fill:#00ffff;fill-opacity:1;stroke:none;stroke-width:0.17929383"
       d="m 214.57868,92.415353 c 0,-1.14748 -0.61677,-2.223243 -1.57061,-2.223243 h -1.47738 c -0.11475,0 -0.29404,0 -0.29404,0.222324 0,0.215153 0.18646,0.215153 0.29404,0.215153 h 0.15778 v 3.506987 h -0.15778 c -0.11475,0 -0.29404,0 -0.29404,0.222325 0,0.215153 0.18646,0.215153 0.29404,0.215153 h 1.47738 c 0.9395,0 1.57061,-1.004046 1.57061,-2.158699 z m -0.49485,0 c 0,0.839095 -0.41596,1.721221 -1.21202,1.721221 h -0.68849 v -3.506987 h 0.68849 c 0.81041,0 1.21202,0.953843 1.21202,1.785766 z"
       inkscape:connector-curvature="0" />
    <path
       id="path11043"
       style="font-style:normal;font-variant:normal;font-weight:normal;font-stretch:normal;font-size:15.37849522px;line-height:1.25;font-family:'Latin Modern Mono Caps';-inkscape-font-specification:'Latin Modern Mono Caps, Normal';font-variant-ligatures:normal;font-variant-caps:normal;font-variant-numeric:normal;font-feature-settings:normal;text-align:start;letter-spacing:0px;word-spacing:0px;writing-mode:lr-tb;text-anchor:start;fill:#00ffff;fill-opacity:1;stroke:none;stroke-width:0.17929383"
       d="m 218.54747,94.007483 c 0,-0.129092 -0.0717,-0.229496 -0.25102,-0.229496 -0.14343,0 -0.23666,0.07172 -0.24384,0.215152 -0.007,0.136264 -0.0645,0.200809 -0.12909,0.200809 -0.17929,0 -0.17929,-0.236667 -0.17929,-0.480507 0,-0.365759 0,-0.595256 -0.30839,-0.824752 0.12192,-0.07172 0.49486,-0.329901 0.49486,-0.745862 0,-0.480508 -0.52354,-0.953843 -1.34112,-0.953843 h -1.11163 c -0.1004,0 -0.30121,0 -0.30121,0.215152 0,0.222325 0.1793,0.222325 0.34424,0.222325 v 2.510113 c -0.16494,0 -0.34424,0 -0.34424,0.222325 0,0.215153 0.20081,0.215153 0.30121,0.215153 h 0.58092 c 0.1004,0 0.30121,0 0.30121,-0.215153 0,-0.222325 -0.17929,-0.222325 -0.34424,-0.222325 V 93.09667 h 0.54505 c 0.68849,0 0.68849,0.322729 0.68849,0.458992 v 0.279699 c 0,0.674145 0.45899,0.796064 0.67414,0.796064 0.40162,0 0.62395,-0.344244 0.62395,-0.623942 z m -1.11163,-1.864656 c 0,0.258183 -0.34424,0.516366 -0.91081,0.516366 h -0.50919 v -1.032732 h 0.50919 c 0.56657,0 0.91081,0.258183 0.91081,0.516366 z"
       inkscape:connector-curvature="0" />
    <path
       id="path11045"
       style="font-style:normal;font-variant:normal;font-weight:normal;font-stretch:normal;font-size:15.37849522px;line-height:1.25;font-family:'Latin Modern Mono Caps';-inkscape-font-specification:'Latin Modern Mono Caps, Normal';font-variant-ligatures:normal;font-variant-caps:normal;font-variant-numeric:normal;font-feature-settings:normal;text-align:start;letter-spacing:0px;word-spacing:0px;writing-mode:lr-tb;text-anchor:start;fill:#00ffff;fill-opacity:1;stroke:none;stroke-width:0.17929383"
       d="m 222.17917,94.272838 v -0.437477 c 0,-0.12192 0,-0.301214 -0.24384,-0.301214 -0.251,0 -0.251,0.172122 -0.251,0.301214 v 0.301213 h -1.8288 v -1.097278 h 0.88929 c 0,0.136263 0,0.308386 0.25101,0.308386 0.24384,0 0.24384,-0.179295 0.24384,-0.301214 v -0.451821 c 0,-0.12192 0,-0.301213 -0.24384,-0.301213 -0.25101,0 -0.25101,0.172122 -0.25101,0.308385 h -0.88929 v -0.975358 h 1.67819 v 0.215152 c 0,0.12192 0,0.301214 0.24384,0.301214 0.25101,0 0.25101,-0.172122 0.25101,-0.301214 v -0.351416 c 0,-0.236668 -0.0574,-0.301213 -0.30121,-0.301213 h -2.4384 c -0.10041,0 -0.30122,0 -0.30122,0.215152 0,0.222325 0.17213,0.222325 0.37293,0.222325 v 2.510113 c -0.2008,0 -0.37293,0 -0.37293,0.222325 0,0.215153 0.20081,0.215153 0.30122,0.215153 h 2.589 c 0.23667,0 0.30121,-0.05737 0.30121,-0.301214 z"
       inkscape:connector-curvature="0" />
    <path
       id="path11047"
       style="font-style:normal;font-variant:normal;font-weight:normal;font-stretch:normal;font-size:15.37849522px;line-height:1.25;font-family:'Latin Modern Mono Caps';-inkscape-font-specification:'Latin Modern Mono Caps, Normal';font-variant-ligatures:normal;font-variant-caps:normal;font-variant-numeric:normal;font-feature-settings:normal;text-align:start;letter-spacing:0px;word-spacing:0px;writing-mode:lr-tb;text-anchor:start;fill:#00ffff;fill-opacity:1;stroke:none;stroke-width:0.17929383"
       d="m 225.73199,93.62738 c 0,-0.294042 -0.14343,-0.516367 -0.30838,-0.666973 -0.26535,-0.236668 -0.53071,-0.286871 -1.00405,-0.372932 -0.14343,-0.02868 -0.40879,-0.07172 -0.53071,-0.100404 -0.45899,-0.09323 -0.59525,-0.279698 -0.59525,-0.444649 0,-0.222324 0.30121,-0.473335 0.82475,-0.473335 0.81758,0 0.90364,0.380102 0.9395,0.559397 0.043,0.179293 0.17929,0.179293 0.24384,0.179293 0.25101,0 0.25101,-0.16495 0.25101,-0.294042 v -0.588084 c 0,-0.107576 0,-0.294041 -0.22232,-0.294041 -0.12193,0 -0.21516,0.09323 -0.24384,0.215152 -0.28687,-0.172122 -0.68132,-0.215152 -0.96102,-0.215152 -0.81758,0 -1.29809,0.466164 -1.29809,0.939499 0,0.315557 0.18647,0.53071 0.37294,0.666974 0.24383,0.172122 0.42313,0.20798 1.05424,0.322728 l 0.47334,0.08606 c 0.21515,0.0502 0.53788,0.215153 0.53788,0.509195 0,0.186465 -0.20081,0.537881 -0.86061,0.537881 -0.0574,0 -0.42313,0 -0.70283,-0.07889 -0.32273,-0.09323 -0.36576,-0.265355 -0.38011,-0.415962 -0.007,-0.100404 -0.0144,-0.243839 -0.24384,-0.243839 -0.25101,0 -0.25101,0.172122 -0.25101,0.301213 v 0.580912 c 0,0.107577 0,0.294042 0.22233,0.294042 0.18646,0 0.23667,-0.193637 0.23667,-0.193637 0.36575,0.193637 0.95384,0.193637 1.11162,0.193637 0.96101,0 1.33394,-0.588083 1.33394,-1.004045 z"
       inkscape:connector-curvature="0" />
    <path
       id="path11049"
       style="font-style:normal;font-variant:normal;font-weight:normal;font-stretch:normal;font-size:15.37849522px;line-height:1.25;font-family:'Latin Modern Mono Caps';-inkscape-font-specification:'Latin Modern Mono Caps, Normal';font-variant-ligatures:normal;font-variant-caps:normal;font-variant-numeric:normal;font-feature-settings:normal;text-align:start;letter-spacing:0px;word-spacing:0px;writing-mode:lr-tb;text-anchor:start;fill:#00ffff;fill-opacity:1;stroke:none;stroke-width:0.17929383"
       d="m 229.49997,93.62738 c 0,-0.294042 -0.14344,-0.516367 -0.30839,-0.666973 -0.26536,-0.236668 -0.53071,-0.286871 -1.00404,-0.372932 -0.14344,-0.02868 -0.4088,-0.07172 -0.53071,-0.100404 -0.45899,-0.09323 -0.59526,-0.279698 -0.59526,-0.444649 0,-0.222324 0.30121,-0.473335 0.82475,-0.473335 0.81758,0 0.90364,0.380102 0.9395,0.559397 0.043,0.179293 0.1793,0.179293 0.24384,0.179293 0.25101,0 0.25101,-0.16495 0.25101,-0.294042 v -0.588084 c 0,-0.107576 0,-0.294041 -0.22232,-0.294041 -0.12192,0 -0.21516,0.09323 -0.24384,0.215152 -0.28687,-0.172122 -0.68132,-0.215152 -0.96102,-0.215152 -0.81758,0 -1.29808,0.466164 -1.29808,0.939499 0,0.315557 0.18646,0.53071 0.37293,0.666974 0.24384,0.172122 0.42313,0.20798 1.05424,0.322728 l 0.47334,0.08606 c 0.21515,0.0502 0.53788,0.215153 0.53788,0.509195 0,0.186465 -0.20081,0.537881 -0.86061,0.537881 -0.0574,0 -0.42313,0 -0.70283,-0.07889 -0.32273,-0.09323 -0.36576,-0.265355 -0.3801,-0.415962 -0.007,-0.100404 -0.0144,-0.243839 -0.24384,-0.243839 -0.25101,0 -0.25101,0.172122 -0.25101,0.301213 v 0.580912 c 0,0.107577 0,0.294042 0.22232,0.294042 0.18647,0 0.23667,-0.193637 0.23667,-0.193637 0.36576,0.193637 0.95384,0.193637 1.11162,0.193637 0.96101,0 1.33395,-0.588083 1.33395,-1.004045 z"
       inkscape:connector-curvature="0" />
    <path
       id="path11051"
       style="font-style:normal;font-variant:normal;font-weight:normal;font-stretch:normal;font-size:15.37849522px;line-height:1.25;font-family:'Latin Modern Mono Caps';-inkscape-font-specification:'Latin Modern Mono Caps, Normal';font-variant-ligatures:normal;font-variant-caps:normal;font-variant-numeric:normal;font-feature-settings:normal;text-align:start;letter-spacing:0px;word-spacing:0px;writing-mode:lr-tb;text-anchor:start;fill:#00ffff;fill-opacity:1;stroke:none;stroke-width:0.17929383"
       d="m 237.22238,91.841613 v -0.351416 c 0,-0.236668 -0.0574,-0.301213 -0.30122,-0.301213 h -2.67506 c -0.23667,0 -0.30121,0.05737 -0.30121,0.301213 v 0.351416 c 0,0.12192 0,0.301214 0.24384,0.301214 0.251,0 0.251,-0.172122 0.251,-0.301214 v -0.215152 h 0.89647 v 2.510113 h -0.18646 c -0.10041,0 -0.30121,0 -0.30121,0.215153 0,0.222325 0.19364,0.222325 0.30121,0.222325 h 0.86778 c 0.10041,0 0.30122,0 0.30122,-0.215153 0,-0.222325 -0.19364,-0.222325 -0.30122,-0.222325 h -0.18646 v -2.510113 h 0.89646 v 0.215152 c 0,0.12192 0,0.301214 0.24384,0.301214 0.25102,0 0.25102,-0.172122 0.25102,-0.301214 z"
       inkscape:connector-curvature="0" />
    <path
       id="path11053"
       style="font-style:normal;font-variant:normal;font-weight:normal;font-stretch:normal;font-size:15.37849522px;line-height:1.25;font-family:'Latin Modern Mono Caps';-inkscape-font-specification:'Latin Modern Mono Caps, Normal';font-variant-ligatures:normal;font-variant-caps:normal;font-variant-numeric:normal;font-feature-settings:normal;text-align:start;letter-spacing:0px;word-spacing:0px;writing-mode:lr-tb;text-anchor:start;fill:#00ffff;fill-opacity:1;stroke:none;stroke-width:0.17929383"
       d="m 240.78237,92.881518 c 0,-1.584958 -0.13626,-1.749908 -1.42718,-1.749908 -1.29092,0 -1.43435,0.157778 -1.43435,1.749908 0,1.584957 0.13626,1.749907 1.43435,1.749907 1.29092,0 1.42718,-0.16495 1.42718,-1.749907 z m -0.49485,-0.0502 c 0,1.240714 -0.10041,1.362633 -0.93233,1.362633 -0.8391,0 -0.9395,-0.114748 -0.9395,-1.362633 0,-1.140309 0.0861,-1.262228 0.93233,-1.262228 0.85343,0 0.9395,0.114748 0.9395,1.262228 z"
       inkscape:connector-curvature="0" />
    <path
       id="path11055"
       style="font-style:normal;font-variant:normal;font-weight:normal;font-stretch:normal;font-size:15.37849522px;line-height:1.25;font-family:'Latin Modern Mono Caps';-inkscape-font-specification:'Latin Modern Mono Caps, Normal';font-variant-ligatures:normal;font-variant-caps:normal;font-variant-numeric:normal;font-feature-settings:normal;text-align:start;letter-spacing:0px;word-spacing:0px;writing-mode:lr-tb;text-anchor:start;fill:#00ffff;fill-opacity:1;stroke:none;stroke-width:0.17929383"
       d="m 248.42589,93.641723 c 0,-0.229496 -0.19364,-0.229496 -0.25101,-0.229496 -0.22233,0 -0.23667,0.143435 -0.24384,0.236668 -0.0359,0.401618 -0.55223,0.545053 -0.87496,0.545053 -0.68848,0 -1.21202,-0.602427 -1.21202,-1.31243 0,-0.738691 0.55222,-1.312431 1.19768,-1.312431 0.30839,0 0.78172,0.143435 0.8893,0.631114 0.0144,0.08606 0.043,0.200809 0.24384,0.200809 0.25101,0 0.25101,-0.16495 0.25101,-0.294042 v -0.681317 c 0,-0.107576 0,-0.294041 -0.22233,-0.294041 -0.11474,0 -0.16494,0.0502 -0.28687,0.251011 -0.12191,-0.07889 -0.44465,-0.251011 -0.89646,-0.251011 -0.93233,0 -1.67102,0.788892 -1.67102,1.749908 0,0.946671 0.72435,1.749907 1.67819,1.749907 0.78889,0 1.39849,-0.415961 1.39849,-0.989702 z"
       inkscape:connector-curvature="0" />
    <path
       id="path11057"
       style="font-style:normal;font-variant:normal;font-weight:normal;font-stretch:normal;font-size:15.37849522px;line-height:1.25;font-family:'Latin Modern Mono Caps';-inkscape-font-specification:'Latin Modern Mono Caps, Normal';font-variant-ligatures:normal;font-variant-caps:normal;font-variant-numeric:normal;font-feature-settings:normal;text-align:start;letter-spacing:0px;word-spacing:0px;writing-mode:lr-tb;text-anchor:start;fill:#00ffff;fill-opacity:1;stroke:none;stroke-width:0.17929383"
       d="m 252.08629,92.881518 c 0,-1.584958 -0.13626,-1.749908 -1.42718,-1.749908 -1.29092,0 -1.43435,0.157778 -1.43435,1.749908 0,1.584957 0.13626,1.749907 1.43435,1.749907 1.29092,0 1.42718,-0.16495 1.42718,-1.749907 z m -0.49485,-0.0502 c 0,1.240714 -0.10041,1.362633 -0.93233,1.362633 -0.8391,0 -0.9395,-0.114748 -0.9395,-1.362633 0,-1.140309 0.0861,-1.262228 0.93233,-1.262228 0.85344,0 0.9395,0.114748 0.9395,1.262228 z"
       inkscape:connector-curvature="0" />
    <path
       id="path11059"
       style="font-style:normal;font-variant:normal;font-weight:normal;font-stretch:normal;font-size:15.37849522px;line-height:1.25;font-family:'Latin Modern Mono Caps';-inkscape-font-specification:'Latin Modern Mono Caps, Normal';font-variant-ligatures:normal;font-variant-caps:normal;font-variant-numeric:normal;font-feature-settings:normal;text-align:start;letter-spacing:0px;word-spacing:0px;writing-mode:lr-tb;text-anchor:start;fill:#00ffff;fill-opacity:1;stroke:none;stroke-width:0.17929383"
       d="m 256.04789,94.351727 c 0,-0.215153 -0.20798,-0.215153 -0.27969,-0.215153 v -2.510113 c 0.0717,0 0.27969,0 0.27969,-0.215153 0,-0.222324 -0.19363,-0.222324 -0.30121,-0.222324 h -0.30838 c -0.17213,0 -0.30839,0.0072 -0.4088,0.258183 l -0.60242,1.506068 -0.6096,-1.506068 c -0.10041,-0.24384 -0.23667,-0.258183 -0.40879,-0.258183 h -0.30839 c -0.10757,0 -0.30121,0 -0.30121,0.222324 0,0.215153 0.20798,0.215153 0.2797,0.215153 v 2.510113 c -0.0717,0 -0.2797,0 -0.2797,0.215153 0,0.222325 0.19364,0.222325 0.30121,0.222325 h 0.38011 c 0.10757,0 0.30121,0 0.30121,-0.222325 0,-0.215153 -0.20798,-0.215153 -0.2797,-0.215153 v -2.438396 l 0.007,-0.0072 0.59526,1.491724 c 0.0215,0.05737 0.10757,0.265356 0.31555,0.265356 0.21516,0 0.29405,-0.20081 0.32273,-0.265356 l 0.59526,-1.491724 0.007,0.0072 v 2.438396 c -0.0717,0 -0.2797,0 -0.2797,0.215153 0,0.222325 0.19364,0.222325 0.30122,0.222325 h 0.3801 c 0.10758,0 0.30121,0 0.30121,-0.222325 z"
       inkscape:connector-curvature="0" />
    <path
       id="path11061"
       style="font-style:normal;font-variant:normal;font-weight:normal;font-stretch:normal;font-size:15.37849522px;line-height:1.25;font-family:'Latin Modern Mono Caps';-inkscape-font-specification:'Latin Modern Mono Caps, Normal';font-variant-ligatures:normal;font-variant-caps:normal;font-variant-numeric:normal;font-feature-settings:normal;text-align:start;letter-spacing:0px;word-spacing:0px;writing-mode:lr-tb;text-anchor:start;fill:#00ffff;fill-opacity:1;stroke:none;stroke-width:0.17929383"
       d="m 259.70829,92.257575 c 0,-0.537882 -0.50202,-1.068591 -1.31243,-1.068591 h -1.42718 c -0.1004,0 -0.30121,0 -0.30121,0.215152 0,0.222325 0.17212,0.222325 0.37293,0.222325 v 2.510113 c -0.20081,0 -0.37293,0 -0.37293,0.222325 0,0.215153 0.20081,0.215153 0.30121,0.215153 h 0.63829 c 0.1004,0 0.30121,0 0.30121,-0.215153 0,-0.222325 -0.17212,-0.222325 -0.37293,-0.222325 v -0.817579 h 0.86061 c 0.83192,0 1.31243,-0.552225 1.31243,-1.06142 z m -0.49485,-0.0072 c 0,0.308385 -0.33708,0.631114 -0.94667,0.631114 h -0.73152 V 91.62646 h 0.73152 c 0.63828,0 0.94667,0.344244 0.94667,0.623943 z"
       inkscape:connector-curvature="0" />
    <path
       id="path11063"
       style="font-style:normal;font-variant:normal;font-weight:normal;font-stretch:normal;font-size:15.37849522px;line-height:1.25;font-family:'Latin Modern Mono Caps';-inkscape-font-specification:'Latin Modern Mono Caps, Normal';font-variant-ligatures:normal;font-variant-caps:normal;font-variant-numeric:normal;font-feature-settings:normal;text-align:start;letter-spacing:0px;word-spacing:0px;writing-mode:lr-tb;text-anchor:start;fill:#00ffff;fill-opacity:1;stroke:none;stroke-width:0.17929383"
       d="m 263.76313,94.007483 c 0,-0.129092 -0.0717,-0.229496 -0.25101,-0.229496 -0.14343,0 -0.23667,0.07172 -0.24384,0.215152 -0.007,0.136264 -0.0645,0.200809 -0.12909,0.200809 -0.17929,0 -0.17929,-0.236667 -0.17929,-0.480507 0,-0.365759 0,-0.595256 -0.30839,-0.824752 0.12192,-0.07172 0.49485,-0.329901 0.49485,-0.745862 0,-0.480508 -0.52353,-0.953843 -1.34112,-0.953843 h -1.11162 c -0.1004,0 -0.30121,0 -0.30121,0.215152 0,0.222325 0.17929,0.222325 0.34424,0.222325 v 2.510113 c -0.16495,0 -0.34424,0 -0.34424,0.222325 0,0.215153 0.20081,0.215153 0.30121,0.215153 h 0.58091 c 0.10041,0 0.30122,0 0.30122,-0.215153 0,-0.222325 -0.17929,-0.222325 -0.34425,-0.222325 V 93.09667 h 0.54506 c 0.68849,0 0.68849,0.322729 0.68849,0.458992 v 0.279699 c 0,0.674145 0.45899,0.796064 0.67414,0.796064 0.40162,0 0.62394,-0.344244 0.62394,-0.623942 z m -1.11162,-1.864656 c 0,0.258183 -0.34424,0.516366 -0.91081,0.516366 h -0.5092 v -1.032732 h 0.5092 c 0.56657,0 0.91081,0.258183 0.91081,0.516366 z"
       inkscape:connector-curvature="0" />
    <path
       id="path11065"
       style="font-style:normal;font-variant:normal;font-weight:normal;font-stretch:normal;font-size:15.37849522px;line-height:1.25;font-family:'Latin Modern Mono Caps';-inkscape-font-specification:'Latin Modern Mono Caps, Normal';font-variant-ligatures:normal;font-variant-caps:normal;font-variant-numeric:normal;font-feature-settings:normal;text-align:start;letter-spacing:0px;word-spacing:0px;writing-mode:lr-tb;text-anchor:start;fill:#00ffff;fill-opacity:1;stroke:none;stroke-width:0.17929383"
       d="m 267.39484,94.272838 v -0.437477 c 0,-0.12192 0,-0.301214 -0.24384,-0.301214 -0.25101,0 -0.25101,0.172122 -0.25101,0.301214 v 0.301213 h -1.8288 v -1.097278 h 0.8893 c 0,0.136263 0,0.308386 0.25101,0.308386 0.24384,0 0.24384,-0.179295 0.24384,-0.301214 v -0.451821 c 0,-0.12192 0,-0.301213 -0.24384,-0.301213 -0.25101,0 -0.25101,0.172122 -0.25101,0.308385 h -0.8893 v -0.975358 h 1.67819 v 0.215152 c 0,0.12192 0,0.301214 0.24384,0.301214 0.25101,0 0.25101,-0.172122 0.25101,-0.301214 v -0.351416 c 0,-0.236668 -0.0574,-0.301213 -0.30121,-0.301213 h -2.4384 c -0.1004,0 -0.30121,0 -0.30121,0.215152 0,0.222325 0.17212,0.222325 0.37293,0.222325 v 2.510113 c -0.20081,0 -0.37293,0 -0.37293,0.222325 0,0.215153 0.20081,0.215153 0.30121,0.215153 h 2.589 c 0.23667,0 0.30122,-0.05737 0.30122,-0.301214 z"
       inkscape:connector-curvature="0" />
    <path
       id="path11067"
       style="font-style:normal;font-variant:normal;font-weight:normal;font-stretch:normal;font-size:15.37849522px;line-height:1.25;font-family:'Latin Modern Mono Caps';-inkscape-font-specification:'Latin Modern Mono Caps, Normal';font-variant-ligatures:normal;font-variant-caps:normal;font-variant-numeric:normal;font-feature-settings:normal;text-align:start;letter-spacing:0px;word-spacing:0px;writing-mode:lr-tb;text-anchor:start;fill:#00ffff;fill-opacity:1;stroke:none;stroke-width:0.17929383"
       d="m 270.94766,93.62738 c 0,-0.294042 -0.14344,-0.516367 -0.30838,-0.666973 -0.26536,-0.236668 -0.53072,-0.286871 -1.00405,-0.372932 -0.14344,-0.02868 -0.40879,-0.07172 -0.53071,-0.100404 -0.45899,-0.09323 -0.59525,-0.279698 -0.59525,-0.444649 0,-0.222324 0.30121,-0.473335 0.82474,-0.473335 0.81759,0 0.90365,0.380102 0.93951,0.559397 0.043,0.179293 0.17929,0.179293 0.24383,0.179293 0.25102,0 0.25102,-0.16495 0.25102,-0.294042 v -0.588084 c 0,-0.107576 0,-0.294041 -0.22233,-0.294041 -0.12192,0 -0.21515,0.09323 -0.24384,0.215152 -0.28687,-0.172122 -0.68132,-0.215152 -0.96101,-0.215152 -0.81758,0 -1.29809,0.466164 -1.29809,0.939499 0,0.315557 0.18646,0.53071 0.37293,0.666974 0.24384,0.172122 0.42314,0.20798 1.05425,0.322728 l 0.47334,0.08606 c 0.21515,0.0502 0.53788,0.215153 0.53788,0.509195 0,0.186465 -0.20081,0.537881 -0.86062,0.537881 -0.0574,0 -0.42313,0 -0.70283,-0.07889 -0.32272,-0.09323 -0.36575,-0.265355 -0.3801,-0.415962 -0.007,-0.100404 -0.0144,-0.243839 -0.24384,-0.243839 -0.25101,0 -0.25101,0.172122 -0.25101,0.301213 v 0.580912 c 0,0.107577 0,0.294042 0.22233,0.294042 0.18646,0 0.23666,-0.193637 0.23666,-0.193637 0.36576,0.193637 0.95385,0.193637 1.11162,0.193637 0.96102,0 1.33395,-0.588083 1.33395,-1.004045 z"
       inkscape:connector-curvature="0" />
    <path
       id="path11069"
       style="font-style:normal;font-variant:normal;font-weight:normal;font-stretch:normal;font-size:15.37849522px;line-height:1.25;font-family:'Latin Modern Mono Caps';-inkscape-font-specification:'Latin Modern Mono Caps, Normal';font-variant-ligatures:normal;font-variant-caps:normal;font-variant-numeric:normal;font-feature-settings:normal;text-align:start;letter-spacing:0px;word-spacing:0px;writing-mode:lr-tb;text-anchor:start;fill:#00ffff;fill-opacity:1;stroke:none;stroke-width:0.17929383"
       d="m 274.71563,93.62738 c 0,-0.294042 -0.14343,-0.516367 -0.30838,-0.666973 -0.26536,-0.236668 -0.53071,-0.286871 -1.00405,-0.372932 -0.14343,-0.02868 -0.40879,-0.07172 -0.53071,-0.100404 -0.45899,-0.09323 -0.59525,-0.279698 -0.59525,-0.444649 0,-0.222324 0.30121,-0.473335 0.82475,-0.473335 0.81758,0 0.90364,0.380102 0.9395,0.559397 0.043,0.179293 0.17929,0.179293 0.24384,0.179293 0.25101,0 0.25101,-0.16495 0.25101,-0.294042 v -0.588084 c 0,-0.107576 0,-0.294041 -0.22232,-0.294041 -0.12193,0 -0.21516,0.09323 -0.24384,0.215152 -0.28687,-0.172122 -0.68132,-0.215152 -0.96102,-0.215152 -0.81758,0 -1.29809,0.466164 -1.29809,0.939499 0,0.315557 0.18647,0.53071 0.37294,0.666974 0.24383,0.172122 0.42313,0.20798 1.05424,0.322728 l 0.47334,0.08606 c 0.21515,0.0502 0.53788,0.215153 0.53788,0.509195 0,0.186465 -0.20081,0.537881 -0.86061,0.537881 -0.0574,0 -0.42313,0 -0.70283,-0.07889 -0.32273,-0.09323 -0.36576,-0.265355 -0.38011,-0.415962 -0.007,-0.100404 -0.0144,-0.243839 -0.24384,-0.243839 -0.25101,0 -0.25101,0.172122 -0.25101,0.301213 v 0.580912 c 0,0.107577 0,0.294042 0.22233,0.294042 0.18646,0 0.23667,-0.193637 0.23667,-0.193637 0.36575,0.193637 0.95384,0.193637 1.11162,0.193637 0.96101,0 1.33394,-0.588083 1.33394,-1.004045 z"
       inkscape:connector-curvature="0" />
    <path
       style="color:#000000;font-style:normal;font-variant:normal;font-weight:normal;font-stretch:normal;font-size:medium;line-height:normal;font-family:sans-serif;font-variant-ligatures:normal;font-variant-position:normal;font-variant-caps:normal;font-variant-numeric:normal;font-variant-alternates:normal;font-feature-settings:normal;text-indent:0;text-align:start;text-decoration:none;text-decoration-line:none;text-decoration-style:solid;text-decoration-color:#000000;letter-spacing:normal;word-spacing:normal;text-transform:none;writing-mode:lr-tb;direction:ltr;text-orientation:mixed;dominant-baseline:auto;baseline-shift:baseline;text-anchor:start;white-space:normal;shape-padding:0;clip-rule:nonzero;display:inline;overflow:visible;visibility:visible;opacity:1;isolation:auto;mix-blend-mode:normal;color-interpolation:sRGB;color-interpolation-filters:linearRGB;solid-color:#000000;solid-opacity:1;vector-effect:none;fill:#ff820f;fill-opacity:1;fill-rule:nonzero;stroke:none;stroke-width:0;stroke-linecap:butt;stroke-linejoin:miter;stroke-miterlimit:4;stroke-dasharray:none;stroke-dashoffset:0;stroke-opacity:1;color-rendering:auto;image-rendering:auto;shape-rendering:auto;text-rendering:auto;enable-background:accumulate"
       d="m 210.09714,66.599564 c -3.80838,0 -6.90039,3.092012 -6.90039,6.900391 v 17.619141 c 0,3.80838 3.09201,6.90039 6.90039,6.90039 h 63.61328 c 3.80838,0 6.90234,-3.09201 6.90234,-6.90039 V 73.499955 c 0,-3.808379 -3.09396,-6.900391 -6.90234,-6.900391 z m 0,1.761719 h 63.61328 c 2.86303,0 5.14062,2.275641 5.14062,5.138672 v 17.619141 c 0,2.86303 -2.27759,5.13867 -5.14062,5.13867 h -63.61328 c -2.86303,0 -5.14063,-2.27564 -5.14063,-5.13867 V 73.499955 c 0,-2.863031 2.2776,-5.138672 5.14063,-5.138672 z"
       id="path11073"
       inkscape:connector-curvature="0" />
  </g>
</svg>
