<?xml version="1.0" encoding="UTF-8" standalone="no"?>
<!-- Created with Inkscape (http://www.inkscape.org/) -->

<svg
   xmlns:dc="http://purl.org/dc/elements/1.1/"
   xmlns:cc="http://creativecommons.org/ns#"
   xmlns:rdf="http://www.w3.org/1999/02/22-rdf-syntax-ns#"
   xmlns:svg="http://www.w3.org/2000/svg"
   xmlns="http://www.w3.org/2000/svg"
   xmlns:sodipodi="http://sodipodi.sourceforge.net/DTD/sodipodi-0.dtd"
   xmlns:inkscape="http://www.inkscape.org/namespaces/inkscape"
   width="77.416496mm"
   height="31.545948mm"
   viewBox="0 0 77.416496 31.545948"
   version="1.1"
   id="svg10392"
   inkscape:version="0.92.4 (5da689c313, 2019-01-14)"
   sodipodi:docname="solarsuits.svg">
  <defs
     id="defs10386" />
  <sodipodi:namedview
     id="base"
     pagecolor="#ffffff"
     bordercolor="#666666"
     borderopacity="1.0"
     inkscape:pageopacity="0.0"
     inkscape:pageshadow="2"
     inkscape:zoom="0.35"
     inkscape:cx="-927.98683"
     inkscape:cy="-191.81418"
     inkscape:document-units="mm"
     inkscape:current-layer="layer1"
     showgrid="false"
     inkscape:window-width="1920"
     inkscape:window-height="1043"
     inkscape:window-x="0"
     inkscape:window-y="1098"
     inkscape:window-maximized="0" />
  <metadata
     id="metadata10389">
    <rdf:RDF>
      <cc:Work
         rdf:about="">
        <dc:format>image/svg+xml</dc:format>
        <dc:type
           rdf:resource="http://purl.org/dc/dcmitype/StillImage" />
        <dc:title></dc:title>
      </cc:Work>
    </rdf:RDF>
  </metadata>
  <g
     inkscape:label="Layer 1"
     inkscape:groupmode="layer"
     id="layer1"
     transform="translate(-203.19651,-66.536551)">
    <g
       id="g866"
       transform="matrix(0.4663495,0,0,0.4663495,370.50914,129.71794)"
       inkscape:export-filename="/home/flyc0r/nuulogos3.png"
       inkscape:export-xdpi="64.722214"
       inkscape:export-ydpi="64.722214">
      <path
         inkscape:connector-curvature="0"
         style="fill:#9090ff;fill-opacity:1;stroke:#ff820f;stroke-width:3.7768755;stroke-miterlimit:4;stroke-dasharray:3.77687558, 7.55375118;stroke-dashoffset:0;stroke-opacity:1"
         d="m -343.9712,-133.59227 h 136.40594 c 7.1528,0 12.91119,5.75839 12.91119,12.91119 v 37.777172 c 0,7.1528 -5.75839,12.91119 -12.91119,12.91119 H -343.9712 c -7.15279,0 -12.91119,-5.75839 -12.91119,-12.91119 v -37.777172 c 0,-7.1528 5.7584,-12.91119 12.91119,-12.91119 z"
         id="rect4564" />
      <path
         inkscape:connector-curvature="0"
         style="fill:#000000;fill-opacity:1;stroke:#ff820f;stroke-width:3.77699995;stroke-miterlimit:4;stroke-dasharray:none;stroke-dashoffset:0;stroke-opacity:1"
         d="m -343.9712,-133.59227 h 136.40594 c 7.1528,0 12.91119,5.75839 12.91119,12.91119 v 37.777172 c 0,7.1528 -5.75839,12.91119 -12.91119,12.91119 H -343.9712 c -7.15279,0 -12.91119,-5.75839 -12.91119,-12.91119 v -37.777172 c 0,-7.1528 5.7584,-12.91119 12.91119,-12.91119 z"
         id="rect4632" />
      <path
         inkscape:connector-curvature="0"
         style="fill:#ffca5b;fill-opacity:1;stroke:#ff820f;stroke-width:2.64583325;stroke-miterlimit:4;stroke-dasharray:none;stroke-dashoffset:0;stroke-opacity:1"
         d="m -242.46174,-101.09796 a 31.938709,31.938709 0 0 1 -31.93871,31.938708 31.938709,31.938709 0 0 1 -31.93871,-31.938708 31.938709,31.938709 0 0 1 31.93871,-31.93871 31.938709,31.938709 0 0 1 31.93871,31.93871 z"
         id="path4576" />
      <path
         inkscape:connector-curvature="0"
         style="fill:#deaa87;fill-opacity:1;stroke:#ff820f;stroke-width:2.64547753;stroke-miterlimit:4;stroke-dasharray:none;stroke-dashoffset:0;stroke-opacity:1"
         d="m -242.50448,-101.6755 a 32.473427,31.40435 0 0 1 -32.47343,31.404351 32.473427,31.40435 0 0 1 -32.47342,-31.404351 32.473427,31.40435 0 0 1 32.47342,-31.40435 32.473427,31.40435 0 0 1 32.47343,31.40435 z"
         id="circle840" />
      <g
         aria-label="Solarsuits"
         transform="scale(1.0405944,0.96098918)"
         style="font-style:normal;font-variant:normal;font-weight:normal;font-stretch:normal;font-size:39.5463829px;line-height:1.25;font-family:'Ubuntu Condensed';-inkscape-font-specification:'Ubuntu Condensed, Normal';font-variant-ligatures:normal;font-variant-caps:normal;font-variant-numeric:normal;font-feature-settings:normal;text-align:start;letter-spacing:0px;word-spacing:0px;writing-mode:lr-tb;text-anchor:start;fill:#ff00ff;fill-opacity:1;stroke:none;stroke-width:0.988662"
         id="text4546">
        <path
           inkscape:connector-curvature="0"
           d="m -329.1212,-104.59909 q 2.1355,0 3.28235,-1.18639 1.18639,-1.1864 1.18639,-3.20326 0,-1.06775 -0.35592,-1.89823 -0.35591,-0.83047 -0.94911,-1.50276 -0.55365,-0.67229 -1.30503,-1.22594 -0.75138,-0.55365 -1.54231,-1.1073 -0.90957,-0.63274 -1.89823,-1.34457 -0.98866,-0.71184 -1.81913,-1.66095 -0.79093,-0.94911 -1.30503,-2.2146 -0.5141,-1.26548 -0.5141,-2.96598 0,-1.66095 0.55365,-3.00552 0.59319,-1.34458 1.58185,-2.29369 1.02821,-0.94912 2.41233,-1.46322 1.42367,-0.5141 3.04507,-0.5141 1.58186,0 2.92643,0.39546 1.34458,0.39547 2.25415,0.94911 l -1.1073,2.8078 q -0.83047,-0.55365 -1.81913,-0.83048 -0.94912,-0.31637 -2.01687,-0.31637 -1.93777,0 -3.12416,1.06776 -1.14685,1.0282 -1.14685,3.04507 0,1.1073 0.35592,1.93777 0.39546,0.83047 0.98866,1.50276 0.63274,0.67229 1.42367,1.22594 0.83047,0.55365 1.74004,1.14684 0.90957,0.5932 1.85868,1.30504 0.94911,0.71183 1.70049,1.66094 0.79093,0.90957 1.26549,2.17505 0.5141,1.22594 0.5141,2.92644 0,1.54231 -0.47456,2.92643 -0.47455,1.38412 -1.50276,2.45188 -0.98866,1.0282 -2.53097,1.66094 -1.50276,0.5932 -3.55917,0.5932 -1.89823,0 -3.3219,-0.43501 -1.42367,-0.43501 -2.53097,-1.14685 l 1.1073,-2.84734 q 1.02821,0.63275 2.09596,1.02821 1.1073,0.35592 2.53097,0.35592 z"
           style="font-style:normal;font-variant:normal;font-weight:normal;font-stretch:normal;font-size:39.5463829px;font-family:'Ubuntu Condensed';-inkscape-font-specification:'Ubuntu Condensed, Normal';font-variant-ligatures:normal;font-variant-caps:normal;font-variant-numeric:normal;font-feature-settings:normal;text-align:start;writing-mode:lr-tb;text-anchor:start;fill:#ff00ff;stroke-width:0.988662"
           id="path8920" />
        <path
           inkscape:connector-curvature="0"
           d="m -302.82594,-112.50837 q 0,2.45188 -0.43502,4.46874 -0.43501,1.97732 -1.34457,3.40099 -0.87002,1.42367 -2.25415,2.2146 -1.34457,0.79093 -3.20325,0.79093 -1.85868,0 -3.24281,-0.79093 -1.38412,-0.79093 -2.29369,-2.2146 -0.87002,-1.42367 -1.30503,-3.40099 -0.43501,-2.01686 -0.43501,-4.46874 0,-2.41233 0.43501,-4.42919 0.43501,-2.01687 1.30503,-3.44054 0.90957,-1.46322 2.29369,-2.25414 1.38413,-0.79093 3.24281,-0.79093 1.85868,0 3.20325,0.79093 1.38413,0.79092 2.25415,2.25414 0.90956,1.42367 1.34457,3.44054 0.43502,2.01686 0.43502,4.42919 z m -3.55918,0 q 0,-1.74004 -0.19773,-3.16371 -0.19773,-1.46322 -0.63274,-2.49142 -0.43501,-1.06775 -1.14685,-1.6214 -0.71183,-0.5932 -1.70049,-0.5932 -1.02821,0 -1.74004,0.5932 -0.67229,0.55365 -1.14685,1.6214 -0.43501,1.0282 -0.63274,2.49142 -0.19773,1.42367 -0.19773,3.16371 0,1.74004 0.19773,3.20326 0.19773,1.42367 0.63274,2.45187 0.47456,1.02821 1.14685,1.62141 0.71183,0.55364 1.74004,0.55364 0.98866,0 1.70049,-0.55364 0.71184,-0.5932 1.14685,-1.62141 0.43501,-1.0282 0.63274,-2.45187 0.19773,-1.46322 0.19773,-3.20326 z"
           style="font-style:normal;font-variant:normal;font-weight:normal;font-stretch:normal;font-size:39.5463829px;font-family:'Ubuntu Condensed';-inkscape-font-specification:'Ubuntu Condensed, Normal';font-variant-ligatures:normal;font-variant-caps:normal;font-variant-numeric:normal;font-feature-settings:normal;text-align:start;writing-mode:lr-tb;text-anchor:start;fill:#ff00ff;stroke-width:0.988662"
           id="path8922" />
        <path
           inkscape:connector-curvature="0"
           d="m -292.46912,-101.75175 q -2.92643,-0.0791 -4.19192,-1.42367 -1.26548,-1.38413 -1.26548,-4.3501 v -24.71649 l 3.40099,-0.5932 v 25.38878 q 0,1.38412 0.55365,2.01686 0.55365,0.5932 1.93777,0.83048 z"
           style="font-style:normal;font-variant:normal;font-weight:normal;font-stretch:normal;font-size:39.5463829px;font-family:'Ubuntu Condensed';-inkscape-font-specification:'Ubuntu Condensed, Normal';font-variant-ligatures:normal;font-variant-caps:normal;font-variant-numeric:normal;font-feature-settings:normal;text-align:start;writing-mode:lr-tb;text-anchor:start;fill:#ff00ff;stroke-width:0.988662"
           id="path8924" />
        <path
           inkscape:connector-curvature="0"
           d="m -287.95342,-122.47406 q 1.02821,-0.43501 2.17506,-0.67229 1.14684,-0.27682 2.49142,-0.27682 2.76824,0 4.50829,1.74004 1.74004,1.70049 1.74004,5.33876 v 13.76214 q -1.42367,0.39547 -2.92644,0.63275 -1.46321,0.23727 -2.88688,0.23727 -1.42367,0 -2.68916,-0.35591 -1.22593,-0.35592 -2.17505,-1.14685 -0.90956,-0.79093 -1.46321,-1.97732 -0.55365,-1.22594 -0.55365,-2.96598 0,-1.6214 0.47455,-2.80779 0.51411,-1.22594 1.38413,-2.01687 0.87002,-0.83047 2.05641,-1.22593 1.18639,-0.43501 2.57051,-0.43501 1.30503,0 2.88689,0.31637 v -1.89823 q 0,-2.29369 -0.90957,-3.20326 -0.87002,-0.90956 -2.53097,-0.90956 -0.90956,0 -1.74004,0.19773 -0.79092,0.15818 -1.70049,0.55365 z m 1.62141,14.27625 q 0,1.81913 0.94911,2.68915 0.94911,0.87002 2.68915,0.87002 1.06776,0 2.33324,-0.27682 v -6.60425 q -1.18639,-0.31637 -2.33324,-0.31637 -0.75138,0 -1.42367,0.19773 -0.67228,0.15819 -1.18639,0.5932 -0.47455,0.39546 -0.75138,1.1073 -0.27682,0.67228 -0.27682,1.74004 z"
           style="font-style:normal;font-variant:normal;font-weight:normal;font-stretch:normal;font-size:39.5463829px;font-family:'Ubuntu Condensed';-inkscape-font-specification:'Ubuntu Condensed, Normal';font-variant-ligatures:normal;font-variant-caps:normal;font-variant-numeric:normal;font-feature-settings:normal;text-align:start;writing-mode:lr-tb;text-anchor:start;fill:#ff00ff;stroke-width:0.988662"
           id="path8926" />
        <path
           inkscape:connector-curvature="0"
           d="m -262.14569,-119.82445 q -1.26549,-0.55365 -2.84734,-0.55365 -1.46322,0 -2.7287,0.5141 v 17.71678 h -3.40099 v -19.85228 q 1.14684,-0.55365 2.61006,-0.90957 1.50276,-0.39546 3.28235,-0.39546 0.94911,0 1.89823,0.11864 0.94911,0.11864 1.77958,0.43501 z"
           style="font-style:normal;font-variant:normal;font-weight:normal;font-stretch:normal;font-size:39.5463829px;font-family:'Ubuntu Condensed';-inkscape-font-specification:'Ubuntu Condensed, Normal';font-variant-ligatures:normal;font-variant-caps:normal;font-variant-numeric:normal;font-feature-settings:normal;text-align:start;writing-mode:lr-tb;text-anchor:start;fill:#ff00ff;stroke-width:0.988662"
           id="path8928" />
        <path
           inkscape:connector-curvature="0"
           d="m -255.25968,-104.55955 q 1.50276,0 2.25414,-0.83047 0.79093,-0.87002 0.79093,-2.25414 0,-0.87002 -0.31637,-1.46322 -0.31637,-0.63274 -0.83048,-1.1073 -0.5141,-0.47456 -1.18639,-0.83047 -0.67229,-0.39547 -1.34457,-0.83048 -0.67229,-0.39546 -1.30503,-0.90956 -0.63275,-0.55365 -1.14685,-1.22594 -0.47456,-0.71184 -0.79093,-1.58186 -0.27682,-0.90956 -0.27682,-2.09596 0,-2.57051 1.58185,-4.15237 1.6214,-1.58185 4.35011,-1.58185 1.14684,0 2.17505,0.31637 1.0282,0.27682 1.70049,0.63274 l -0.75138,2.7287 q -0.71184,-0.39546 -1.42367,-0.59319 -0.71184,-0.19773 -1.54231,-0.19773 -1.26548,0 -2.01686,0.75138 -0.75139,0.71183 -0.75139,2.09595 0,0.79093 0.27683,1.38413 0.27682,0.55365 0.71183,1.0282 0.47456,0.43501 1.02821,0.83048 0.5932,0.39546 1.22594,0.75138 0.75138,0.43501 1.46321,0.94911 0.75138,0.51411 1.30503,1.22594 0.5932,0.67229 0.94912,1.6214 0.35591,0.90957 0.35591,2.2146 0,2.7287 -1.6214,4.38965 -1.58185,1.66095 -4.66647,1.66095 -1.58186,0 -2.84734,-0.43501 -1.26548,-0.43501 -1.89823,-0.79093 l 0.71184,-2.80779 q 0.59319,0.31637 1.58185,0.71183 1.02821,0.39546 2.25415,0.39546 z"
           style="font-style:normal;font-variant:normal;font-weight:normal;font-stretch:normal;font-size:39.5463829px;font-family:'Ubuntu Condensed';-inkscape-font-specification:'Ubuntu Condensed, Normal';font-variant-ligatures:normal;font-variant-caps:normal;font-variant-numeric:normal;font-feature-settings:normal;text-align:start;writing-mode:lr-tb;text-anchor:start;fill:#ff00ff;stroke-width:0.988662"
           id="path8930" />
        <path
           inkscape:connector-curvature="0"
           d="m -231.77716,-102.74041 q -0.51411,0.19773 -1.26549,0.39546 -0.71183,0.15819 -1.54231,0.27683 -0.79092,0.15818 -1.6214,0.23727 -0.79093,0.11864 -1.46321,0.11864 -1.62141,0 -2.96598,-0.39546 -1.34458,-0.35592 -2.29369,-1.30503 -0.94912,-0.94911 -1.46322,-2.57052 -0.5141,-1.66094 -0.5141,-4.15237 v -12.77348 h 3.40099 v 12.65484 q 0,3.04508 0.90956,4.31056 0.94912,1.22594 2.84734,1.22594 0.63275,0 1.26549,-0.0395 0.63274,-0.0791 1.30503,-0.27682 v -17.87497 h 3.40099 z"
           style="font-style:normal;font-variant:normal;font-weight:normal;font-stretch:normal;font-size:39.5463829px;font-family:'Ubuntu Condensed';-inkscape-font-specification:'Ubuntu Condensed, Normal';font-variant-ligatures:normal;font-variant-caps:normal;font-variant-numeric:normal;font-feature-settings:normal;text-align:start;writing-mode:lr-tb;text-anchor:start;fill:#ff00ff;stroke-width:0.988662"
           id="path8932" />
        <path
           inkscape:connector-curvature="0"
           d="m -222.22794,-102.14722 h -3.40099 v -20.76185 h 3.40099 z m -1.70049,-24.43966 q -0.90957,0 -1.58186,-0.5932 -0.63274,-0.63274 -0.63274,-1.66095 0,-1.0282 0.63274,-1.6214 0.67229,-0.63274 1.58186,-0.63274 0.90956,0 1.5423,0.63274 0.67229,0.5932 0.67229,1.6214 0,1.02821 -0.67229,1.66095 -0.63274,0.5932 -1.5423,0.5932 z"
           style="font-style:normal;font-variant:normal;font-weight:normal;font-stretch:normal;font-size:39.5463829px;font-family:'Ubuntu Condensed';-inkscape-font-specification:'Ubuntu Condensed, Normal';font-variant-ligatures:normal;font-variant-caps:normal;font-variant-numeric:normal;font-feature-settings:normal;text-align:start;writing-mode:lr-tb;text-anchor:start;fill:#ff00ff;stroke-width:0.988662"
           id="path8934" />
        <path
           inkscape:connector-curvature="0"
           d="m -212.88758,-122.90907 h 5.22012 v 2.92643 h -5.22012 v 11.42891 q 0,2.1355 0.75138,3.00552 0.79093,0.83048 2.09596,0.83048 0.67229,0 1.26548,-0.19773 0.63274,-0.19774 1.06775,-0.47456 l 0.67229,2.7287 q -1.6214,0.94911 -3.44053,0.94911 -2.92643,0 -4.38965,-1.6214 -1.42367,-1.66095 -1.42367,-5.4574 v -19.6941 l 3.40099,-0.59319 z"
           style="font-style:normal;font-variant:normal;font-weight:normal;font-stretch:normal;font-size:39.5463829px;font-family:'Ubuntu Condensed';-inkscape-font-specification:'Ubuntu Condensed, Normal';font-variant-ligatures:normal;font-variant-caps:normal;font-variant-numeric:normal;font-feature-settings:normal;text-align:start;writing-mode:lr-tb;text-anchor:start;fill:#ff00ff;stroke-width:0.988662"
           id="path8936" />
        <path
           inkscape:connector-curvature="0"
           d="m -200.4972,-104.55955 q 1.50276,0 2.25414,-0.83047 0.79093,-0.87002 0.79093,-2.25414 0,-0.87002 -0.31637,-1.46322 -0.31637,-0.63274 -0.83047,-1.1073 -0.51411,-0.47456 -1.1864,-0.83047 -0.67228,-0.39547 -1.34457,-0.83048 -0.67229,-0.39546 -1.30503,-0.90956 -0.63275,-0.55365 -1.14685,-1.22594 -0.47455,-0.71184 -0.79093,-1.58186 -0.27682,-0.90956 -0.27682,-2.09596 0,-2.57051 1.58185,-4.15237 1.62141,-1.58185 4.35011,-1.58185 1.14684,0 2.17505,0.31637 1.0282,0.27682 1.70049,0.63274 l -0.75138,2.7287 q -0.71183,-0.39546 -1.42367,-0.59319 -0.71183,-0.19773 -1.54231,-0.19773 -1.26548,0 -2.01686,0.75138 -0.75138,0.71183 -0.75138,2.09595 0,0.79093 0.27682,1.38413 0.27682,0.55365 0.71184,1.0282 0.47455,0.43501 1.0282,0.83048 0.5932,0.39546 1.22594,0.75138 0.75138,0.43501 1.46322,0.94911 0.75138,0.51411 1.30503,1.22594 0.59319,0.67229 0.94911,1.6214 0.35592,0.90957 0.35592,2.2146 0,2.7287 -1.62141,4.38965 -1.58185,1.66095 -4.66647,1.66095 -1.58185,0 -2.84734,-0.43501 -1.26548,-0.43501 -1.89822,-0.79093 l 0.71183,-2.80779 q 0.5932,0.31637 1.58186,0.71183 1.0282,0.39546 2.25414,0.39546 z"
           style="font-style:normal;font-variant:normal;font-weight:normal;font-stretch:normal;font-size:39.5463829px;font-family:'Ubuntu Condensed';-inkscape-font-specification:'Ubuntu Condensed, Normal';font-variant-ligatures:normal;font-variant-caps:normal;font-variant-numeric:normal;font-feature-settings:normal;text-align:start;writing-mode:lr-tb;text-anchor:start;fill:#ff00ff;stroke-width:0.988662"
           id="path8938" />
      </g>
      <path
         inkscape:connector-curvature="0"
         transform="matrix(0.99983769,-0.01801624,-0.06950913,-0.99758132,0,0)"
         style="fill:#008000;fill-opacity:1;stroke:#0f40ff;stroke-width:2.43337512;stroke-miterlimit:4;stroke-dasharray:none;stroke-dashoffset:0;stroke-opacity:1"
         d="m -197.02647,75.864643 a 74.928909,23.602804 0 0 1 -32.18424,21.783919 74.928909,23.602804 0 0 1 -76.10508,1.612874 74.928909,23.602804 0 0 1 -41.15745,-20.229609 l 74.88059,-0.847554 z"
         id="path852" />
      <g
         aria-label="Dress to compress"
         style="font-style:normal;font-variant:normal;font-weight:normal;font-stretch:normal;font-size:15.37849522px;line-height:1.25;font-family:'Latin Modern Mono Caps';-inkscape-font-specification:'Latin Modern Mono Caps, Normal';font-variant-ligatures:normal;font-variant-caps:normal;font-variant-numeric:normal;font-feature-settings:normal;text-align:start;letter-spacing:0px;word-spacing:0px;writing-mode:lr-tb;text-anchor:start;fill:#00ffff;fill-opacity:1;stroke:none;stroke-width:0.38446236"
         id="text848">
        <path
           inkscape:connector-curvature="0"
           d="m -334.36394,-79.988478 c 0,-2.460559 -1.32255,-4.767333 -3.36789,-4.767333 h -3.16797 c -0.24606,0 -0.63052,0 -0.63052,0.476733 0,0.461355 0.39984,0.461355 0.63052,0.461355 h 0.33833 v 7.520084 h -0.33833 c -0.24606,0 -0.63052,0 -0.63052,0.476734 0,0.461355 0.39984,0.461355 0.63052,0.461355 h 3.16797 c 2.01458,0 3.36789,-2.15299 3.36789,-4.628928 z m -1.06112,0 c 0,1.799284 -0.89195,3.690839 -2.59896,3.690839 h -1.47634 v -7.520084 h 1.47634 c 1.73777,0 2.59896,2.04534 2.59896,3.829245 z"
           style="font-style:normal;font-variant:normal;font-weight:normal;font-stretch:normal;font-size:15.37849522px;font-family:'Latin Modern Mono Caps';-inkscape-font-specification:'Latin Modern Mono Caps, Normal';font-variant-ligatures:normal;font-variant-caps:normal;font-variant-numeric:normal;font-feature-settings:normal;text-align:start;writing-mode:lr-tb;text-anchor:start;fill:#00ffff;stroke-width:0.38446236"
           id="path8942" />
        <path
           inkscape:connector-curvature="0"
           d="m -325.85362,-76.574452 c 0,-0.276813 -0.15379,-0.492111 -0.53825,-0.492111 -0.30757,0 -0.50749,0.153785 -0.52287,0.461354 -0.0154,0.292192 -0.13841,0.430598 -0.27681,0.430598 -0.38447,0 -0.38447,-0.50749 -0.38447,-1.030359 0,-0.784303 0,-1.276415 -0.66127,-1.768527 0.26143,-0.153785 1.06112,-0.707411 1.06112,-1.599363 0,-1.03036 -1.12263,-2.04534 -2.87578,-2.04534 h -2.38367 c -0.2153,0 -0.6459,0 -0.6459,0.461355 0,0.476733 0.38447,0.476733 0.73817,0.476733 v 5.382473 c -0.3537,0 -0.73817,0 -0.73817,0.476734 0,0.461355 0.4306,0.461355 0.6459,0.461355 h 1.24566 c 0.2153,0 0.64589,0 0.64589,-0.461355 0,-0.476734 -0.38446,-0.476734 -0.73816,-0.476734 v -2.229881 h 1.16876 c 1.47634,0 1.47634,0.692032 1.47634,0.984223 v 0.599762 c 0,1.445578 0.98422,1.707012 1.44558,1.707012 0.86119,0 1.33793,-0.738167 1.33793,-1.337929 z m -2.38367,-3.998408 c 0,0.553625 -0.73817,1.107251 -1.95307,1.107251 h -1.09187 v -2.214503 h 1.09187 c 1.2149,0 1.95307,0.553626 1.95307,1.107252 z"
           style="font-style:normal;font-variant:normal;font-weight:normal;font-stretch:normal;font-size:15.37849522px;font-family:'Latin Modern Mono Caps';-inkscape-font-specification:'Latin Modern Mono Caps, Normal';font-variant-ligatures:normal;font-variant-caps:normal;font-variant-numeric:normal;font-feature-settings:normal;text-align:start;writing-mode:lr-tb;text-anchor:start;fill:#00ffff;stroke-width:0.38446236"
           id="path8944" />
        <path
           inkscape:connector-curvature="0"
           d="m -318.0661,-76.005447 v -0.938088 c 0,-0.261435 0,-0.645897 -0.52287,-0.645897 -0.53824,0 -0.53824,0.369084 -0.53824,0.645897 v 0.645896 h -3.92152 v -2.352909 h 1.90693 c 0,0.292191 0,0.661275 0.53825,0.661275 0.52287,0 0.52287,-0.384463 0.52287,-0.645897 v -0.968845 c 0,-0.261435 0,-0.645897 -0.52287,-0.645897 -0.53825,0 -0.53825,0.369084 -0.53825,0.661275 h -1.90693 v -2.091475 h 3.59857 v 0.461355 c 0,0.261434 0,0.645897 0.52287,0.645897 0.53824,0 0.53824,-0.369084 0.53824,-0.645897 v -0.753546 c 0,-0.507491 -0.12302,-0.645897 -0.64589,-0.645897 h -5.22869 c -0.2153,0 -0.6459,0 -0.6459,0.461355 0,0.476733 0.36909,0.476733 0.79968,0.476733 v 5.382473 c -0.43059,0 -0.79968,0 -0.79968,0.476734 0,0.461355 0.4306,0.461355 0.6459,0.461355 h 5.55164 c 0.50749,0 0.64589,-0.123028 0.64589,-0.645897 z"
           style="font-style:normal;font-variant:normal;font-weight:normal;font-stretch:normal;font-size:15.37849522px;font-family:'Latin Modern Mono Caps';-inkscape-font-specification:'Latin Modern Mono Caps, Normal';font-variant-ligatures:normal;font-variant-caps:normal;font-variant-numeric:normal;font-feature-settings:normal;text-align:start;writing-mode:lr-tb;text-anchor:start;fill:#00ffff;stroke-width:0.38446236"
           id="path8946" />
        <path
           inkscape:connector-curvature="0"
           d="m -310.44774,-77.389512 c 0,-0.630518 -0.30756,-1.107252 -0.66127,-1.4302 -0.569,-0.50749 -1.13801,-0.61514 -2.15299,-0.799682 -0.30757,-0.06151 -0.87657,-0.153785 -1.13801,-0.215299 -0.98422,-0.19992 -1.27641,-0.599761 -1.27641,-0.953466 0,-0.476734 0.64589,-1.014981 1.76852,-1.014981 1.75315,0 1.93769,0.81506 2.01459,1.199523 0.0923,0.384462 0.38446,0.384462 0.52287,0.384462 0.53824,0 0.53824,-0.353705 0.53824,-0.630518 v -1.261037 c 0,-0.230677 0,-0.630518 -0.47673,-0.630518 -0.26144,0 -0.46136,0.19992 -0.52287,0.461355 -0.61514,-0.369084 -1.46096,-0.461355 -2.06072,-0.461355 -1.75315,0 -2.78351,0.999602 -2.78351,2.014583 0,0.676653 0.39985,1.138008 0.79969,1.4302 0.52286,0.369084 0.90733,0.445976 2.26063,0.692032 l 1.01499,0.184542 c 0.46135,0.107649 1.15338,0.461355 1.15338,1.091873 0,0.399841 -0.4306,1.153387 -1.84542,1.153387 -0.12302,0 -0.90733,0 -1.50709,-0.169163 -0.69203,-0.199921 -0.7843,-0.569004 -0.81506,-0.891953 -0.0154,-0.215299 -0.0308,-0.522869 -0.52287,-0.522869 -0.53825,0 -0.53825,0.369084 -0.53825,0.645897 v 1.245658 c 0,0.230678 0,0.630518 0.47674,0.630518 0.39984,0 0.50749,-0.415219 0.50749,-0.415219 0.7843,0.415219 2.04534,0.415219 2.38366,0.415219 2.06072,0 2.8604,-1.261036 2.8604,-2.152989 z"
           style="font-style:normal;font-variant:normal;font-weight:normal;font-stretch:normal;font-size:15.37849522px;font-family:'Latin Modern Mono Caps';-inkscape-font-specification:'Latin Modern Mono Caps, Normal';font-variant-ligatures:normal;font-variant-caps:normal;font-variant-numeric:normal;font-feature-settings:normal;text-align:start;writing-mode:lr-tb;text-anchor:start;fill:#00ffff;stroke-width:0.38446236"
           id="path8948" />
        <path
           inkscape:connector-curvature="0"
           d="m -302.36802,-77.389512 c 0,-0.630518 -0.30757,-1.107252 -0.66127,-1.4302 -0.56901,-0.50749 -1.13801,-0.61514 -2.15299,-0.799682 -0.30757,-0.06151 -0.87658,-0.153785 -1.13801,-0.215299 -0.98422,-0.19992 -1.27642,-0.599761 -1.27642,-0.953466 0,-0.476734 0.6459,-1.014981 1.76853,-1.014981 1.75315,0 1.93769,0.81506 2.01458,1.199523 0.0923,0.384462 0.38447,0.384462 0.52287,0.384462 0.53825,0 0.53825,-0.353705 0.53825,-0.630518 v -1.261037 c 0,-0.230677 0,-0.630518 -0.47673,-0.630518 -0.26144,0 -0.46136,0.19992 -0.52287,0.461355 -0.61514,-0.369084 -1.46096,-0.461355 -2.06072,-0.461355 -1.75315,0 -2.78351,0.999602 -2.78351,2.014583 0,0.676653 0.39984,1.138008 0.79968,1.4302 0.52287,0.369084 0.90733,0.445976 2.26064,0.692032 l 1.01498,0.184542 c 0.46136,0.107649 1.15339,0.461355 1.15339,1.091873 0,0.399841 -0.4306,1.153387 -1.84542,1.153387 -0.12303,0 -0.90733,0 -1.50709,-0.169163 -0.69203,-0.199921 -0.7843,-0.569004 -0.81506,-0.891953 -0.0154,-0.215299 -0.0308,-0.522869 -0.52287,-0.522869 -0.53825,0 -0.53825,0.369084 -0.53825,0.645897 v 1.245658 c 0,0.230678 0,0.630518 0.47674,0.630518 0.39984,0 0.50749,-0.415219 0.50749,-0.415219 0.7843,0.415219 2.04534,0.415219 2.38366,0.415219 2.06072,0 2.8604,-1.261036 2.8604,-2.152989 z"
           style="font-style:normal;font-variant:normal;font-weight:normal;font-stretch:normal;font-size:15.37849522px;font-family:'Latin Modern Mono Caps';-inkscape-font-specification:'Latin Modern Mono Caps, Normal';font-variant-ligatures:normal;font-variant-caps:normal;font-variant-numeric:normal;font-feature-settings:normal;text-align:start;writing-mode:lr-tb;text-anchor:start;fill:#00ffff;stroke-width:0.38446236"
           id="path8950" />
        <path
           inkscape:connector-curvature="0"
           d="m -285.80874,-81.218757 v -0.753546 c 0,-0.507491 -0.12303,-0.645897 -0.6459,-0.645897 h -5.73618 c -0.50749,0 -0.64589,0.123028 -0.64589,0.645897 v 0.753546 c 0,0.261434 0,0.645897 0.52287,0.645897 0.53824,0 0.53824,-0.369084 0.53824,-0.645897 v -0.461355 h 1.92231 v 5.382473 h -0.39984 c -0.2153,0 -0.64589,0 -0.64589,0.461355 0,0.476734 0.41522,0.476734 0.64589,0.476734 h 1.8608 c 0.2153,0 0.6459,0 0.6459,-0.461355 0,-0.476734 -0.41522,-0.476734 -0.6459,-0.476734 h -0.39984 v -5.382473 h 1.92231 v 0.461355 c 0,0.261434 0,0.645897 0.52287,0.645897 0.53825,0 0.53825,-0.369084 0.53825,-0.645897 z"
           style="font-style:normal;font-variant:normal;font-weight:normal;font-stretch:normal;font-size:15.37849522px;font-family:'Latin Modern Mono Caps';-inkscape-font-specification:'Latin Modern Mono Caps, Normal';font-variant-ligatures:normal;font-variant-caps:normal;font-variant-numeric:normal;font-feature-settings:normal;text-align:start;writing-mode:lr-tb;text-anchor:start;fill:#00ffff;stroke-width:0.38446236"
           id="path8952" />
        <path
           inkscape:connector-curvature="0"
           d="m -278.175,-78.988875 c 0,-3.398648 -0.29219,-3.752353 -3.06032,-3.752353 -2.76813,0 -3.0757,0.338327 -3.0757,3.752353 0,3.398647 0.29219,3.752352 3.0757,3.752352 2.76813,0 3.06032,-0.353705 3.06032,-3.752352 z m -1.06112,-0.10765 c 0,2.66048 -0.2153,2.921914 -1.9992,2.921914 -1.79929,0 -2.01459,-0.246056 -2.01459,-2.921914 0,-2.445181 0.18455,-2.706615 1.99921,-2.706615 1.83004,0 2.01458,0.246056 2.01458,2.706615 z"
           style="font-style:normal;font-variant:normal;font-weight:normal;font-stretch:normal;font-size:15.37849522px;font-family:'Latin Modern Mono Caps';-inkscape-font-specification:'Latin Modern Mono Caps, Normal';font-variant-ligatures:normal;font-variant-caps:normal;font-variant-numeric:normal;font-feature-settings:normal;text-align:start;writing-mode:lr-tb;text-anchor:start;fill:#00ffff;stroke-width:0.38446236"
           id="path8954" />
        <path
           inkscape:connector-curvature="0"
           d="m -261.78489,-77.358755 c 0,-0.492112 -0.41521,-0.492112 -0.53824,-0.492112 -0.47674,0 -0.50749,0.30757 -0.52287,0.507491 -0.0769,0.861195 -1.18415,1.168765 -1.87618,1.168765 -1.47633,0 -2.59896,-1.291793 -2.59896,-2.814264 0,-1.583985 1.18414,-2.814265 2.56821,-2.814265 0.66127,0 1.67625,0.30757 1.90693,1.353308 0.0308,0.184542 0.0923,0.430597 0.52287,0.430597 0.53824,0 0.53824,-0.353705 0.53824,-0.630518 v -1.460957 c 0,-0.230677 0,-0.630518 -0.47673,-0.630518 -0.24605,0 -0.3537,0.107649 -0.61514,0.538247 -0.26143,-0.169163 -0.95347,-0.538247 -1.92231,-0.538247 -1.9992,0 -3.58319,1.691634 -3.58319,3.752353 0,2.029961 1.55323,3.752352 3.59857,3.752352 1.69163,0 2.9988,-0.891952 2.9988,-2.122232 z"
           style="font-style:normal;font-variant:normal;font-weight:normal;font-stretch:normal;font-size:15.37849522px;font-family:'Latin Modern Mono Caps';-inkscape-font-specification:'Latin Modern Mono Caps, Normal';font-variant-ligatures:normal;font-variant-caps:normal;font-variant-numeric:normal;font-feature-settings:normal;text-align:start;writing-mode:lr-tb;text-anchor:start;fill:#00ffff;stroke-width:0.38446236"
           id="path8956" />
        <path
           inkscape:connector-curvature="0"
           d="m -253.93584,-78.988875 c 0,-3.398648 -0.29219,-3.752353 -3.06032,-3.752353 -2.76813,0 -3.0757,0.338327 -3.0757,3.752353 0,3.398647 0.29219,3.752352 3.0757,3.752352 2.76813,0 3.06032,-0.353705 3.06032,-3.752352 z m -1.06112,-0.10765 c 0,2.66048 -0.2153,2.921914 -1.9992,2.921914 -1.79929,0 -2.01459,-0.246056 -2.01459,-2.921914 0,-2.445181 0.18455,-2.706615 1.99921,-2.706615 1.83004,0 2.01458,0.246056 2.01458,2.706615 z"
           style="font-style:normal;font-variant:normal;font-weight:normal;font-stretch:normal;font-size:15.37849522px;font-family:'Latin Modern Mono Caps';-inkscape-font-specification:'Latin Modern Mono Caps, Normal';font-variant-ligatures:normal;font-variant-caps:normal;font-variant-numeric:normal;font-feature-settings:normal;text-align:start;writing-mode:lr-tb;text-anchor:start;fill:#00ffff;stroke-width:0.38446236"
           id="path8958" />
        <path
           inkscape:connector-curvature="0"
           d="m -245.44091,-75.836284 c 0,-0.461355 -0.44598,-0.461355 -0.59976,-0.461355 v -5.382473 c 0.15378,0 0.59976,0 0.59976,-0.461355 0,-0.476733 -0.41522,-0.476733 -0.6459,-0.476733 h -0.66127 c -0.36909,0 -0.66128,0.01538 -0.87658,0.553626 l -1.29179,3.229484 -1.30717,-3.229484 c -0.2153,-0.522869 -0.50749,-0.553626 -0.87658,-0.553626 h -0.66127 c -0.23068,0 -0.6459,0 -0.6459,0.476733 0,0.461355 0.44598,0.461355 0.59976,0.461355 v 5.382473 c -0.15378,0 -0.59976,0 -0.59976,0.461355 0,0.476734 0.41522,0.476734 0.6459,0.476734 h 0.81506 c 0.23067,0 0.64589,0 0.64589,-0.476734 0,-0.461355 -0.44597,-0.461355 -0.59976,-0.461355 v -5.228688 l 0.0154,-0.01538 1.27642,3.198727 c 0.0461,0.123028 0.23067,0.569005 0.67665,0.569005 0.46135,0 0.63052,-0.430598 0.69203,-0.569005 l 1.27642,-3.198727 0.0154,0.01538 v 5.228688 c -0.15379,0 -0.59977,0 -0.59977,0.461355 0,0.476734 0.41522,0.476734 0.6459,0.476734 h 0.81506 c 0.23068,0 0.6459,0 0.6459,-0.476734 z"
           style="font-style:normal;font-variant:normal;font-weight:normal;font-stretch:normal;font-size:15.37849522px;font-family:'Latin Modern Mono Caps';-inkscape-font-specification:'Latin Modern Mono Caps, Normal';font-variant-ligatures:normal;font-variant-caps:normal;font-variant-numeric:normal;font-feature-settings:normal;text-align:start;writing-mode:lr-tb;text-anchor:start;fill:#00ffff;stroke-width:0.38446236"
           id="path8960" />
        <path
           inkscape:connector-curvature="0"
           d="m -237.59187,-80.326804 c 0,-1.153388 -1.07649,-2.291396 -2.81426,-2.291396 h -3.06033 c -0.21529,0 -0.64589,0 -0.64589,0.461355 0,0.476733 0.36908,0.476733 0.79968,0.476733 v 5.382473 c -0.4306,0 -0.79968,0 -0.79968,0.476734 0,0.461355 0.4306,0.461355 0.64589,0.461355 h 1.36869 c 0.2153,0 0.6459,0 0.6459,-0.461355 0,-0.476734 -0.36909,-0.476734 -0.79968,-0.476734 v -1.753148 h 1.84542 c 1.7839,0 2.81426,-1.184144 2.81426,-2.276017 z m -1.06112,-0.01538 c 0,0.661275 -0.72279,1.353308 -2.02996,1.353308 h -1.5686 v -2.691237 h 1.5686 c 1.36869,0 2.02996,0.738168 2.02996,1.337929 z"
           style="font-style:normal;font-variant:normal;font-weight:normal;font-stretch:normal;font-size:15.37849522px;font-family:'Latin Modern Mono Caps';-inkscape-font-specification:'Latin Modern Mono Caps, Normal';font-variant-ligatures:normal;font-variant-caps:normal;font-variant-numeric:normal;font-feature-settings:normal;text-align:start;writing-mode:lr-tb;text-anchor:start;fill:#00ffff;stroke-width:0.38446236"
           id="path8962" />
        <path
           inkscape:connector-curvature="0"
           d="m -228.89701,-76.574452 c 0,-0.276813 -0.15379,-0.492111 -0.53825,-0.492111 -0.30757,0 -0.50749,0.153785 -0.52287,0.461354 -0.0154,0.292192 -0.1384,0.430598 -0.27681,0.430598 -0.38446,0 -0.38446,-0.50749 -0.38446,-1.030359 0,-0.784303 0,-1.276415 -0.66128,-1.768527 0.26144,-0.153785 1.06112,-0.707411 1.06112,-1.599363 0,-1.03036 -1.12263,-2.04534 -2.87578,-2.04534 h -2.38367 c -0.2153,0 -0.64589,0 -0.64589,0.461355 0,0.476733 0.38446,0.476733 0.73816,0.476733 v 5.382473 c -0.3537,0 -0.73816,0 -0.73816,0.476734 0,0.461355 0.43059,0.461355 0.64589,0.461355 h 1.24566 c 0.2153,0 0.6459,0 0.6459,-0.461355 0,-0.476734 -0.38446,-0.476734 -0.73817,-0.476734 v -2.229881 h 1.16877 c 1.47633,0 1.47633,0.692032 1.47633,0.984223 v 0.599762 c 0,1.445578 0.98423,1.707012 1.44558,1.707012 0.8612,0 1.33793,-0.738167 1.33793,-1.337929 z m -2.38367,-3.998408 c 0,0.553625 -0.73817,1.107251 -1.95307,1.107251 h -1.09187 v -2.214503 h 1.09187 c 1.2149,0 1.95307,0.553626 1.95307,1.107252 z"
           style="font-style:normal;font-variant:normal;font-weight:normal;font-stretch:normal;font-size:15.37849522px;font-family:'Latin Modern Mono Caps';-inkscape-font-specification:'Latin Modern Mono Caps, Normal';font-variant-ligatures:normal;font-variant-caps:normal;font-variant-numeric:normal;font-feature-settings:normal;text-align:start;writing-mode:lr-tb;text-anchor:start;fill:#00ffff;stroke-width:0.38446236"
           id="path8964" />
        <path
           inkscape:connector-curvature="0"
           d="m -221.10949,-76.005447 v -0.938088 c 0,-0.261435 0,-0.645897 -0.52287,-0.645897 -0.53825,0 -0.53825,0.369084 -0.53825,0.645897 v 0.645896 h -3.92151 v -2.352909 h 1.90693 c 0,0.292191 0,0.661275 0.53825,0.661275 0.52287,0 0.52287,-0.384463 0.52287,-0.645897 v -0.968845 c 0,-0.261435 0,-0.645897 -0.52287,-0.645897 -0.53825,0 -0.53825,0.369084 -0.53825,0.661275 h -1.90693 v -2.091475 h 3.59857 v 0.461355 c 0,0.261434 0,0.645897 0.52286,0.645897 0.53825,0 0.53825,-0.369084 0.53825,-0.645897 v -0.753546 c 0,-0.507491 -0.12303,-0.645897 -0.6459,-0.645897 h -5.22868 c -0.2153,0 -0.6459,0 -0.6459,0.461355 0,0.476733 0.36908,0.476733 0.79968,0.476733 v 5.382473 c -0.4306,0 -0.79968,0 -0.79968,0.476734 0,0.461355 0.4306,0.461355 0.6459,0.461355 h 5.55163 c 0.50749,0 0.6459,-0.123028 0.6459,-0.645897 z"
           style="font-style:normal;font-variant:normal;font-weight:normal;font-stretch:normal;font-size:15.37849522px;font-family:'Latin Modern Mono Caps';-inkscape-font-specification:'Latin Modern Mono Caps, Normal';font-variant-ligatures:normal;font-variant-caps:normal;font-variant-numeric:normal;font-feature-settings:normal;text-align:start;writing-mode:lr-tb;text-anchor:start;fill:#00ffff;stroke-width:0.38446236"
           id="path8966" />
        <path
           inkscape:connector-curvature="0"
           d="m -213.49113,-77.389512 c 0,-0.630518 -0.30757,-1.107252 -0.66127,-1.4302 -0.569,-0.50749 -1.13801,-0.61514 -2.15299,-0.799682 -0.30757,-0.06151 -0.87657,-0.153785 -1.13801,-0.215299 -0.98422,-0.19992 -1.27641,-0.599761 -1.27641,-0.953466 0,-0.476734 0.64589,-1.014981 1.76852,-1.014981 1.75315,0 1.93769,0.81506 2.01459,1.199523 0.0923,0.384462 0.38446,0.384462 0.52286,0.384462 0.53825,0 0.53825,-0.353705 0.53825,-0.630518 v -1.261037 c 0,-0.230677 0,-0.630518 -0.47673,-0.630518 -0.26144,0 -0.46136,0.19992 -0.52287,0.461355 -0.61514,-0.369084 -1.46096,-0.461355 -2.06072,-0.461355 -1.75315,0 -2.78351,0.999602 -2.78351,2.014583 0,0.676653 0.39984,1.138008 0.79969,1.4302 0.52286,0.369084 0.90733,0.445976 2.26063,0.692032 l 1.01499,0.184542 c 0.46135,0.107649 1.15338,0.461355 1.15338,1.091873 0,0.399841 -0.4306,1.153387 -1.84542,1.153387 -0.12302,0 -0.90733,0 -1.50709,-0.169163 -0.69203,-0.199921 -0.7843,-0.569004 -0.81506,-0.891953 -0.0154,-0.215299 -0.0308,-0.522869 -0.52287,-0.522869 -0.53825,0 -0.53825,0.369084 -0.53825,0.645897 v 1.245658 c 0,0.230678 0,0.630518 0.47674,0.630518 0.39984,0 0.50749,-0.415219 0.50749,-0.415219 0.7843,0.415219 2.04534,0.415219 2.38366,0.415219 2.06072,0 2.8604,-1.261036 2.8604,-2.152989 z"
           style="font-style:normal;font-variant:normal;font-weight:normal;font-stretch:normal;font-size:15.37849522px;font-family:'Latin Modern Mono Caps';-inkscape-font-specification:'Latin Modern Mono Caps, Normal';font-variant-ligatures:normal;font-variant-caps:normal;font-variant-numeric:normal;font-feature-settings:normal;text-align:start;writing-mode:lr-tb;text-anchor:start;fill:#00ffff;stroke-width:0.38446236"
           id="path8968" />
        <path
           inkscape:connector-curvature="0"
           d="m -205.41141,-77.389512 c 0,-0.630518 -0.30757,-1.107252 -0.66127,-1.4302 -0.56901,-0.50749 -1.13801,-0.61514 -2.15299,-0.799682 -0.30757,-0.06151 -0.87657,-0.153785 -1.13801,-0.215299 -0.98422,-0.19992 -1.27641,-0.599761 -1.27641,-0.953466 0,-0.476734 0.64589,-1.014981 1.76852,-1.014981 1.75315,0 1.93769,0.81506 2.01459,1.199523 0.0923,0.384462 0.38446,0.384462 0.52286,0.384462 0.53825,0 0.53825,-0.353705 0.53825,-0.630518 v -1.261037 c 0,-0.230677 0,-0.630518 -0.47673,-0.630518 -0.26144,0 -0.46136,0.19992 -0.52287,0.461355 -0.61514,-0.369084 -1.46096,-0.461355 -2.06072,-0.461355 -1.75315,0 -2.78351,0.999602 -2.78351,2.014583 0,0.676653 0.39984,1.138008 0.79969,1.4302 0.52286,0.369084 0.90733,0.445976 2.26063,0.692032 l 1.01498,0.184542 c 0.46136,0.107649 1.15339,0.461355 1.15339,1.091873 0,0.399841 -0.4306,1.153387 -1.84542,1.153387 -0.12303,0 -0.90733,0 -1.50709,-0.169163 -0.69203,-0.199921 -0.7843,-0.569004 -0.81506,-0.891953 -0.0154,-0.215299 -0.0308,-0.522869 -0.52287,-0.522869 -0.53825,0 -0.53825,0.369084 -0.53825,0.645897 v 1.245658 c 0,0.230678 0,0.630518 0.47674,0.630518 0.39984,0 0.50749,-0.415219 0.50749,-0.415219 0.7843,0.415219 2.04534,0.415219 2.38366,0.415219 2.06072,0 2.8604,-1.261036 2.8604,-2.152989 z"
           style="font-style:normal;font-variant:normal;font-weight:normal;font-stretch:normal;font-size:15.37849522px;font-family:'Latin Modern Mono Caps';-inkscape-font-specification:'Latin Modern Mono Caps, Normal';font-variant-ligatures:normal;font-variant-caps:normal;font-variant-numeric:normal;font-feature-settings:normal;text-align:start;writing-mode:lr-tb;text-anchor:start;fill:#00ffff;stroke-width:0.38446236"
           id="path8970" />
      </g>
      <path
         inkscape:connector-curvature="0"
         style="fill:none;fill-opacity:1;stroke:#ff820f;stroke-width:3.77699995;stroke-miterlimit:4;stroke-dasharray:none;stroke-dashoffset:0;stroke-opacity:1"
         d="m -343.9712,-133.59227 h 136.40594 c 7.1528,0 12.91119,5.75839 12.91119,12.91119 v 37.777172 c 0,7.1528 -5.75839,12.91119 -12.91119,12.91119 H -343.9712 c -7.15279,0 -12.91119,-5.75839 -12.91119,-12.91119 v -37.777172 c 0,-7.1528 5.7584,-12.91119 12.91119,-12.91119 z"
         id="rect854" />
    </g>
    <g
       inkscape:export-ydpi="64.722214"
       inkscape:export-xdpi="64.722214"
       inkscape:export-filename="/home/flyc0r/nuulogos3.png"
       transform="matrix(0.4663495,0,0,0.4663495,370.50914,129.71794)"
       id="g11075">
      <path
         id="path11009"
         d="m -343.9712,-133.59227 h 136.40594 c 7.1528,0 12.91119,5.75839 12.91119,12.91119 v 37.777172 c 0,7.1528 -5.75839,12.91119 -12.91119,12.91119 H -343.9712 c -7.15279,0 -12.91119,-5.75839 -12.91119,-12.91119 v -37.777172 c 0,-7.1528 5.7584,-12.91119 12.91119,-12.91119 z"
         style="fill:#9090ff;fill-opacity:1;stroke:#ff820f;stroke-width:3.7768755;stroke-miterlimit:4;stroke-dasharray:3.77687558, 7.55375118;stroke-dashoffset:0;stroke-opacity:1"
         inkscape:connector-curvature="0" />
      <path
         id="path11011"
         d="m -343.9712,-133.59227 h 136.40594 c 7.1528,0 12.91119,5.75839 12.91119,12.91119 v 37.777172 c 0,7.1528 -5.75839,12.91119 -12.91119,12.91119 H -343.9712 c -7.15279,0 -12.91119,-5.75839 -12.91119,-12.91119 v -37.777172 c 0,-7.1528 5.7584,-12.91119 12.91119,-12.91119 z"
         style="fill:#000000;fill-opacity:1;stroke:#ff820f;stroke-width:3.77699995;stroke-miterlimit:4;stroke-dasharray:none;stroke-dashoffset:0;stroke-opacity:1"
         inkscape:connector-curvature="0" />
      <path
         id="path11013"
         d="m -242.46174,-101.09796 a 31.938709,31.938709 0 0 1 -31.93871,31.938708 31.938709,31.938709 0 0 1 -31.93871,-31.938708 31.938709,31.938709 0 0 1 31.93871,-31.93871 31.938709,31.938709 0 0 1 31.93871,31.93871 z"
         style="fill:#ffca5b;fill-opacity:1;stroke:#ff820f;stroke-width:2.64583325;stroke-miterlimit:4;stroke-dasharray:none;stroke-dashoffset:0;stroke-opacity:1"
         inkscape:connector-curvature="0" />
      <path
         id="path11015"
         d="m -242.50448,-101.6755 a 32.473427,31.40435 0 0 1 -32.47343,31.404351 32.473427,31.40435 0 0 1 -32.47342,-31.404351 32.473427,31.40435 0 0 1 32.47342,-31.40435 32.473427,31.40435 0 0 1 32.47343,31.40435 z"
         style="fill:#deaa87;fill-opacity:1;stroke:#ff820f;stroke-width:2.64547753;stroke-miterlimit:4;stroke-dasharray:none;stroke-dashoffset:0;stroke-opacity:1"
         inkscape:connector-curvature="0" />
      <g
         id="g11037"
         style="font-style:normal;font-variant:normal;font-weight:normal;font-stretch:normal;font-size:39.5463829px;line-height:1.25;font-family:'Ubuntu Condensed';-inkscape-font-specification:'Ubuntu Condensed, Normal';font-variant-ligatures:normal;font-variant-caps:normal;font-variant-numeric:normal;font-feature-settings:normal;text-align:start;letter-spacing:0px;word-spacing:0px;writing-mode:lr-tb;text-anchor:start;fill:#ff00ff;fill-opacity:1;stroke:none;stroke-width:0.988662"
         transform="scale(1.0405944,0.96098918)"
         aria-label="Solarsuits">
        <path
           id="path11017"
           style="font-style:normal;font-variant:normal;font-weight:normal;font-stretch:normal;font-size:39.5463829px;font-family:'Ubuntu Condensed';-inkscape-font-specification:'Ubuntu Condensed, Normal';font-variant-ligatures:normal;font-variant-caps:normal;font-variant-numeric:normal;font-feature-settings:normal;text-align:start;writing-mode:lr-tb;text-anchor:start;fill:#ff00ff;stroke-width:0.988662"
           d="m -329.1212,-104.59909 q 2.1355,0 3.28235,-1.18639 1.18639,-1.1864 1.18639,-3.20326 0,-1.06775 -0.35592,-1.89823 -0.35591,-0.83047 -0.94911,-1.50276 -0.55365,-0.67229 -1.30503,-1.22594 -0.75138,-0.55365 -1.54231,-1.1073 -0.90957,-0.63274 -1.89823,-1.34457 -0.98866,-0.71184 -1.81913,-1.66095 -0.79093,-0.94911 -1.30503,-2.2146 -0.5141,-1.26548 -0.5141,-2.96598 0,-1.66095 0.55365,-3.00552 0.59319,-1.34458 1.58185,-2.29369 1.02821,-0.94912 2.41233,-1.46322 1.42367,-0.5141 3.04507,-0.5141 1.58186,0 2.92643,0.39546 1.34458,0.39547 2.25415,0.94911 l -1.1073,2.8078 q -0.83047,-0.55365 -1.81913,-0.83048 -0.94912,-0.31637 -2.01687,-0.31637 -1.93777,0 -3.12416,1.06776 -1.14685,1.0282 -1.14685,3.04507 0,1.1073 0.35592,1.93777 0.39546,0.83047 0.98866,1.50276 0.63274,0.67229 1.42367,1.22594 0.83047,0.55365 1.74004,1.14684 0.90957,0.5932 1.85868,1.30504 0.94911,0.71183 1.70049,1.66094 0.79093,0.90957 1.26549,2.17505 0.5141,1.22594 0.5141,2.92644 0,1.54231 -0.47456,2.92643 -0.47455,1.38412 -1.50276,2.45188 -0.98866,1.0282 -2.53097,1.66094 -1.50276,0.5932 -3.55917,0.5932 -1.89823,0 -3.3219,-0.43501 -1.42367,-0.43501 -2.53097,-1.14685 l 1.1073,-2.84734 q 1.02821,0.63275 2.09596,1.02821 1.1073,0.35592 2.53097,0.35592 z"
           inkscape:connector-curvature="0" />
        <path
           id="path11019"
           style="font-style:normal;font-variant:normal;font-weight:normal;font-stretch:normal;font-size:39.5463829px;font-family:'Ubuntu Condensed';-inkscape-font-specification:'Ubuntu Condensed, Normal';font-variant-ligatures:normal;font-variant-caps:normal;font-variant-numeric:normal;font-feature-settings:normal;text-align:start;writing-mode:lr-tb;text-anchor:start;fill:#ff00ff;stroke-width:0.988662"
           d="m -302.82594,-112.50837 q 0,2.45188 -0.43502,4.46874 -0.43501,1.97732 -1.34457,3.40099 -0.87002,1.42367 -2.25415,2.2146 -1.34457,0.79093 -3.20325,0.79093 -1.85868,0 -3.24281,-0.79093 -1.38412,-0.79093 -2.29369,-2.2146 -0.87002,-1.42367 -1.30503,-3.40099 -0.43501,-2.01686 -0.43501,-4.46874 0,-2.41233 0.43501,-4.42919 0.43501,-2.01687 1.30503,-3.44054 0.90957,-1.46322 2.29369,-2.25414 1.38413,-0.79093 3.24281,-0.79093 1.85868,0 3.20325,0.79093 1.38413,0.79092 2.25415,2.25414 0.90956,1.42367 1.34457,3.44054 0.43502,2.01686 0.43502,4.42919 z m -3.55918,0 q 0,-1.74004 -0.19773,-3.16371 -0.19773,-1.46322 -0.63274,-2.49142 -0.43501,-1.06775 -1.14685,-1.6214 -0.71183,-0.5932 -1.70049,-0.5932 -1.02821,0 -1.74004,0.5932 -0.67229,0.55365 -1.14685,1.6214 -0.43501,1.0282 -0.63274,2.49142 -0.19773,1.42367 -0.19773,3.16371 0,1.74004 0.19773,3.20326 0.19773,1.42367 0.63274,2.45187 0.47456,1.02821 1.14685,1.62141 0.71183,0.55364 1.74004,0.55364 0.98866,0 1.70049,-0.55364 0.71184,-0.5932 1.14685,-1.62141 0.43501,-1.0282 0.63274,-2.45187 0.19773,-1.46322 0.19773,-3.20326 z"
           inkscape:connector-curvature="0" />
        <path
           id="path11021"
           style="font-style:normal;font-variant:normal;font-weight:normal;font-stretch:normal;font-size:39.5463829px;font-family:'Ubuntu Condensed';-inkscape-font-specification:'Ubuntu Condensed, Normal';font-variant-ligatures:normal;font-variant-caps:normal;font-variant-numeric:normal;font-feature-settings:normal;text-align:start;writing-mode:lr-tb;text-anchor:start;fill:#ff00ff;stroke-width:0.988662"
           d="m -292.46912,-101.75175 q -2.92643,-0.0791 -4.19192,-1.42367 -1.26548,-1.38413 -1.26548,-4.3501 v -24.71649 l 3.40099,-0.5932 v 25.38878 q 0,1.38412 0.55365,2.01686 0.55365,0.5932 1.93777,0.83048 z"
           inkscape:connector-curvature="0" />
        <path
           id="path11023"
           style="font-style:normal;font-variant:normal;font-weight:normal;font-stretch:normal;font-size:39.5463829px;font-family:'Ubuntu Condensed';-inkscape-font-specification:'Ubuntu Condensed, Normal';font-variant-ligatures:normal;font-variant-caps:normal;font-variant-numeric:normal;font-feature-settings:normal;text-align:start;writing-mode:lr-tb;text-anchor:start;fill:#ff00ff;stroke-width:0.988662"
           d="m -287.95342,-122.47406 q 1.02821,-0.43501 2.17506,-0.67229 1.14684,-0.27682 2.49142,-0.27682 2.76824,0 4.50829,1.74004 1.74004,1.70049 1.74004,5.33876 v 13.76214 q -1.42367,0.39547 -2.92644,0.63275 -1.46321,0.23727 -2.88688,0.23727 -1.42367,0 -2.68916,-0.35591 -1.22593,-0.35592 -2.17505,-1.14685 -0.90956,-0.79093 -1.46321,-1.97732 -0.55365,-1.22594 -0.55365,-2.96598 0,-1.6214 0.47455,-2.80779 0.51411,-1.22594 1.38413,-2.01687 0.87002,-0.83047 2.05641,-1.22593 1.18639,-0.43501 2.57051,-0.43501 1.30503,0 2.88689,0.31637 v -1.89823 q 0,-2.29369 -0.90957,-3.20326 -0.87002,-0.90956 -2.53097,-0.90956 -0.90956,0 -1.74004,0.19773 -0.79092,0.15818 -1.70049,0.55365 z m 1.62141,14.27625 q 0,1.81913 0.94911,2.68915 0.94911,0.87002 2.68915,0.87002 1.06776,0 2.33324,-0.27682 v -6.60425 q -1.18639,-0.31637 -2.33324,-0.31637 -0.75138,0 -1.42367,0.19773 -0.67228,0.15819 -1.18639,0.5932 -0.47455,0.39546 -0.75138,1.1073 -0.27682,0.67228 -0.27682,1.74004 z"
           inkscape:connector-curvature="0" />
        <path
           id="path11025"
           style="font-style:normal;font-variant:normal;font-weight:normal;font-stretch:normal;font-size:39.5463829px;font-family:'Ubuntu Condensed';-inkscape-font-specification:'Ubuntu Condensed, Normal';font-variant-ligatures:normal;font-variant-caps:normal;font-variant-numeric:normal;font-feature-settings:normal;text-align:start;writing-mode:lr-tb;text-anchor:start;fill:#ff00ff;stroke-width:0.988662"
           d="m -262.14569,-119.82445 q -1.26549,-0.55365 -2.84734,-0.55365 -1.46322,0 -2.7287,0.5141 v 17.71678 h -3.40099 v -19.85228 q 1.14684,-0.55365 2.61006,-0.90957 1.50276,-0.39546 3.28235,-0.39546 0.94911,0 1.89823,0.11864 0.94911,0.11864 1.77958,0.43501 z"
           inkscape:connector-curvature="0" />
        <path
           id="path11027"
           style="font-style:normal;font-variant:normal;font-weight:normal;font-stretch:normal;font-size:39.5463829px;font-family:'Ubuntu Condensed';-inkscape-font-specification:'Ubuntu Condensed, Normal';font-variant-ligatures:normal;font-variant-caps:normal;font-variant-numeric:normal;font-feature-settings:normal;text-align:start;writing-mode:lr-tb;text-anchor:start;fill:#ff00ff;stroke-width:0.988662"
           d="m -255.25968,-104.55955 q 1.50276,0 2.25414,-0.83047 0.79093,-0.87002 0.79093,-2.25414 0,-0.87002 -0.31637,-1.46322 -0.31637,-0.63274 -0.83048,-1.1073 -0.5141,-0.47456 -1.18639,-0.83047 -0.67229,-0.39547 -1.34457,-0.83048 -0.67229,-0.39546 -1.30503,-0.90956 -0.63275,-0.55365 -1.14685,-1.22594 -0.47456,-0.71184 -0.79093,-1.58186 -0.27682,-0.90956 -0.27682,-2.09596 0,-2.57051 1.58185,-4.15237 1.6214,-1.58185 4.35011,-1.58185 1.14684,0 2.17505,0.31637 1.0282,0.27682 1.70049,0.63274 l -0.75138,2.7287 q -0.71184,-0.39546 -1.42367,-0.59319 -0.71184,-0.19773 -1.54231,-0.19773 -1.26548,0 -2.01686,0.75138 -0.75139,0.71183 -0.75139,2.09595 0,0.79093 0.27683,1.38413 0.27682,0.55365 0.71183,1.0282 0.47456,0.43501 1.02821,0.83048 0.5932,0.39546 1.22594,0.75138 0.75138,0.43501 1.46321,0.94911 0.75138,0.51411 1.30503,1.22594 0.5932,0.67229 0.94912,1.6214 0.35591,0.90957 0.35591,2.2146 0,2.7287 -1.6214,4.38965 -1.58185,1.66095 -4.66647,1.66095 -1.58186,0 -2.84734,-0.43501 -1.26548,-0.43501 -1.89823,-0.79093 l 0.71184,-2.80779 q 0.59319,0.31637 1.58185,0.71183 1.02821,0.39546 2.25415,0.39546 z"
           inkscape:connector-curvature="0" />
        <path
           id="path11029"
           style="font-style:normal;font-variant:normal;font-weight:normal;font-stretch:normal;font-size:39.5463829px;font-family:'Ubuntu Condensed';-inkscape-font-specification:'Ubuntu Condensed, Normal';font-variant-ligatures:normal;font-variant-caps:normal;font-variant-numeric:normal;font-feature-settings:normal;text-align:start;writing-mode:lr-tb;text-anchor:start;fill:#ff00ff;stroke-width:0.988662"
           d="m -231.77716,-102.74041 q -0.51411,0.19773 -1.26549,0.39546 -0.71183,0.15819 -1.54231,0.27683 -0.79092,0.15818 -1.6214,0.23727 -0.79093,0.11864 -1.46321,0.11864 -1.62141,0 -2.96598,-0.39546 -1.34458,-0.35592 -2.29369,-1.30503 -0.94912,-0.94911 -1.46322,-2.57052 -0.5141,-1.66094 -0.5141,-4.15237 v -12.77348 h 3.40099 v 12.65484 q 0,3.04508 0.90956,4.31056 0.94912,1.22594 2.84734,1.22594 0.63275,0 1.26549,-0.0395 0.63274,-0.0791 1.30503,-0.27682 v -17.87497 h 3.40099 z"
           inkscape:connector-curvature="0" />
        <path
           id="path11031"
           style="font-style:normal;font-variant:normal;font-weight:normal;font-stretch:normal;font-size:39.5463829px;font-family:'Ubuntu Condensed';-inkscape-font-specification:'Ubuntu Condensed, Normal';font-variant-ligatures:normal;font-variant-caps:normal;font-variant-numeric:normal;font-feature-settings:normal;text-align:start;writing-mode:lr-tb;text-anchor:start;fill:#ff00ff;stroke-width:0.988662"
           d="m -222.22794,-102.14722 h -3.40099 v -20.76185 h 3.40099 z m -1.70049,-24.43966 q -0.90957,0 -1.58186,-0.5932 -0.63274,-0.63274 -0.63274,-1.66095 0,-1.0282 0.63274,-1.6214 0.67229,-0.63274 1.58186,-0.63274 0.90956,0 1.5423,0.63274 0.67229,0.5932 0.67229,1.6214 0,1.02821 -0.67229,1.66095 -0.63274,0.5932 -1.5423,0.5932 z"
           inkscape:connector-curvature="0" />
        <path
           id="path11033"
           style="font-style:normal;font-variant:normal;font-weight:normal;font-stretch:normal;font-size:39.5463829px;font-family:'Ubuntu Condensed';-inkscape-font-specification:'Ubuntu Condensed, Normal';font-variant-ligatures:normal;font-variant-caps:normal;font-variant-numeric:normal;font-feature-settings:normal;text-align:start;writing-mode:lr-tb;text-anchor:start;fill:#ff00ff;stroke-width:0.988662"
           d="m -212.88758,-122.90907 h 5.22012 v 2.92643 h -5.22012 v 11.42891 q 0,2.1355 0.75138,3.00552 0.79093,0.83048 2.09596,0.83048 0.67229,0 1.26548,-0.19773 0.63274,-0.19774 1.06775,-0.47456 l 0.67229,2.7287 q -1.6214,0.94911 -3.44053,0.94911 -2.92643,0 -4.38965,-1.6214 -1.42367,-1.66095 -1.42367,-5.4574 v -19.6941 l 3.40099,-0.59319 z"
           inkscape:connector-curvature="0" />
        <path
           id="path11035"
           style="font-style:normal;font-variant:normal;font-weight:normal;font-stretch:normal;font-size:39.5463829px;font-family:'Ubuntu Condensed';-inkscape-font-specification:'Ubuntu Condensed, Normal';font-variant-ligatures:normal;font-variant-caps:normal;font-variant-numeric:normal;font-feature-settings:normal;text-align:start;writing-mode:lr-tb;text-anchor:start;fill:#ff00ff;stroke-width:0.988662"
           d="m -200.4972,-104.55955 q 1.50276,0 2.25414,-0.83047 0.79093,-0.87002 0.79093,-2.25414 0,-0.87002 -0.31637,-1.46322 -0.31637,-0.63274 -0.83047,-1.1073 -0.51411,-0.47456 -1.1864,-0.83047 -0.67228,-0.39547 -1.34457,-0.83048 -0.67229,-0.39546 -1.30503,-0.90956 -0.63275,-0.55365 -1.14685,-1.22594 -0.47455,-0.71184 -0.79093,-1.58186 -0.27682,-0.90956 -0.27682,-2.09596 0,-2.57051 1.58185,-4.15237 1.62141,-1.58185 4.35011,-1.58185 1.14684,0 2.17505,0.31637 1.0282,0.27682 1.70049,0.63274 l -0.75138,2.7287 q -0.71183,-0.39546 -1.42367,-0.59319 -0.71183,-0.19773 -1.54231,-0.19773 -1.26548,0 -2.01686,0.75138 -0.75138,0.71183 -0.75138,2.09595 0,0.79093 0.27682,1.38413 0.27682,0.55365 0.71184,1.0282 0.47455,0.43501 1.0282,0.83048 0.5932,0.39546 1.22594,0.75138 0.75138,0.43501 1.46322,0.94911 0.75138,0.51411 1.30503,1.22594 0.59319,0.67229 0.94911,1.6214 0.35592,0.90957 0.35592,2.2146 0,2.7287 -1.62141,4.38965 -1.58185,1.66095 -4.66647,1.66095 -1.58185,0 -2.84734,-0.43501 -1.26548,-0.43501 -1.89822,-0.79093 l 0.71183,-2.80779 q 0.5932,0.31637 1.58186,0.71183 1.0282,0.39546 2.25414,0.39546 z"
           inkscape:connector-curvature="0" />
      </g>
      <path
         id="path11039"
         d="m -197.02647,75.864643 a 74.928909,23.602804 0 0 1 -32.18424,21.783919 74.928909,23.602804 0 0 1 -76.10508,1.612874 74.928909,23.602804 0 0 1 -41.15745,-20.229609 l 74.88059,-0.847554 z"
         style="fill:#008000;fill-opacity:1;stroke:#0f40ff;stroke-width:2.43337512;stroke-miterlimit:4;stroke-dasharray:none;stroke-dashoffset:0;stroke-opacity:1"
         transform="matrix(0.99983769,-0.01801624,-0.06950913,-0.99758132,0,0)"
         inkscape:connector-curvature="0" />
      <g
         id="g11071"
         style="font-style:normal;font-variant:normal;font-weight:normal;font-stretch:normal;font-size:15.37849522px;line-height:1.25;font-family:'Latin Modern Mono Caps';-inkscape-font-specification:'Latin Modern Mono Caps, Normal';font-variant-ligatures:normal;font-variant-caps:normal;font-variant-numeric:normal;font-feature-settings:normal;text-align:start;letter-spacing:0px;word-spacing:0px;writing-mode:lr-tb;text-anchor:start;fill:#00ffff;fill-opacity:1;stroke:none;stroke-width:0.38446236"
         aria-label="Dress to compress">
        <path
           id="path11041"
           style="font-style:normal;font-variant:normal;font-weight:normal;font-stretch:normal;font-size:15.37849522px;font-family:'Latin Modern Mono Caps';-inkscape-font-specification:'Latin Modern Mono Caps, Normal';font-variant-ligatures:normal;font-variant-caps:normal;font-variant-numeric:normal;font-feature-settings:normal;text-align:start;writing-mode:lr-tb;text-anchor:start;fill:#00ffff;stroke-width:0.38446236"
           d="m -334.36394,-79.988478 c 0,-2.460559 -1.32255,-4.767333 -3.36789,-4.767333 h -3.16797 c -0.24606,0 -0.63052,0 -0.63052,0.476733 0,0.461355 0.39984,0.461355 0.63052,0.461355 h 0.33833 v 7.520084 h -0.33833 c -0.24606,0 -0.63052,0 -0.63052,0.476734 0,0.461355 0.39984,0.461355 0.63052,0.461355 h 3.16797 c 2.01458,0 3.36789,-2.15299 3.36789,-4.628928 z m -1.06112,0 c 0,1.799284 -0.89195,3.690839 -2.59896,3.690839 h -1.47634 v -7.520084 h 1.47634 c 1.73777,0 2.59896,2.04534 2.59896,3.829245 z"
           inkscape:connector-curvature="0" />
        <path
           id="path11043"
           style="font-style:normal;font-variant:normal;font-weight:normal;font-stretch:normal;font-size:15.37849522px;font-family:'Latin Modern Mono Caps';-inkscape-font-specification:'Latin Modern Mono Caps, Normal';font-variant-ligatures:normal;font-variant-caps:normal;font-variant-numeric:normal;font-feature-settings:normal;text-align:start;writing-mode:lr-tb;text-anchor:start;fill:#00ffff;stroke-width:0.38446236"
           d="m -325.85362,-76.574452 c 0,-0.276813 -0.15379,-0.492111 -0.53825,-0.492111 -0.30757,0 -0.50749,0.153785 -0.52287,0.461354 -0.0154,0.292192 -0.13841,0.430598 -0.27681,0.430598 -0.38447,0 -0.38447,-0.50749 -0.38447,-1.030359 0,-0.784303 0,-1.276415 -0.66127,-1.768527 0.26143,-0.153785 1.06112,-0.707411 1.06112,-1.599363 0,-1.03036 -1.12263,-2.04534 -2.87578,-2.04534 h -2.38367 c -0.2153,0 -0.6459,0 -0.6459,0.461355 0,0.476733 0.38447,0.476733 0.73817,0.476733 v 5.382473 c -0.3537,0 -0.73817,0 -0.73817,0.476734 0,0.461355 0.4306,0.461355 0.6459,0.461355 h 1.24566 c 0.2153,0 0.64589,0 0.64589,-0.461355 0,-0.476734 -0.38446,-0.476734 -0.73816,-0.476734 v -2.229881 h 1.16876 c 1.47634,0 1.47634,0.692032 1.47634,0.984223 v 0.599762 c 0,1.445578 0.98422,1.707012 1.44558,1.707012 0.86119,0 1.33793,-0.738167 1.33793,-1.337929 z m -2.38367,-3.998408 c 0,0.553625 -0.73817,1.107251 -1.95307,1.107251 h -1.09187 v -2.214503 h 1.09187 c 1.2149,0 1.95307,0.553626 1.95307,1.107252 z"
           inkscape:connector-curvature="0" />
        <path
           id="path11045"
           style="font-style:normal;font-variant:normal;font-weight:normal;font-stretch:normal;font-size:15.37849522px;font-family:'Latin Modern Mono Caps';-inkscape-font-specification:'Latin Modern Mono Caps, Normal';font-variant-ligatures:normal;font-variant-caps:normal;font-variant-numeric:normal;font-feature-settings:normal;text-align:start;writing-mode:lr-tb;text-anchor:start;fill:#00ffff;stroke-width:0.38446236"
           d="m -318.0661,-76.005447 v -0.938088 c 0,-0.261435 0,-0.645897 -0.52287,-0.645897 -0.53824,0 -0.53824,0.369084 -0.53824,0.645897 v 0.645896 h -3.92152 v -2.352909 h 1.90693 c 0,0.292191 0,0.661275 0.53825,0.661275 0.52287,0 0.52287,-0.384463 0.52287,-0.645897 v -0.968845 c 0,-0.261435 0,-0.645897 -0.52287,-0.645897 -0.53825,0 -0.53825,0.369084 -0.53825,0.661275 h -1.90693 v -2.091475 h 3.59857 v 0.461355 c 0,0.261434 0,0.645897 0.52287,0.645897 0.53824,0 0.53824,-0.369084 0.53824,-0.645897 v -0.753546 c 0,-0.507491 -0.12302,-0.645897 -0.64589,-0.645897 h -5.22869 c -0.2153,0 -0.6459,0 -0.6459,0.461355 0,0.476733 0.36909,0.476733 0.79968,0.476733 v 5.382473 c -0.43059,0 -0.79968,0 -0.79968,0.476734 0,0.461355 0.4306,0.461355 0.6459,0.461355 h 5.55164 c 0.50749,0 0.64589,-0.123028 0.64589,-0.645897 z"
           inkscape:connector-curvature="0" />
        <path
           id="path11047"
           style="font-style:normal;font-variant:normal;font-weight:normal;font-stretch:normal;font-size:15.37849522px;font-family:'Latin Modern Mono Caps';-inkscape-font-specification:'Latin Modern Mono Caps, Normal';font-variant-ligatures:normal;font-variant-caps:normal;font-variant-numeric:normal;font-feature-settings:normal;text-align:start;writing-mode:lr-tb;text-anchor:start;fill:#00ffff;stroke-width:0.38446236"
           d="m -310.44774,-77.389512 c 0,-0.630518 -0.30756,-1.107252 -0.66127,-1.4302 -0.569,-0.50749 -1.13801,-0.61514 -2.15299,-0.799682 -0.30757,-0.06151 -0.87657,-0.153785 -1.13801,-0.215299 -0.98422,-0.19992 -1.27641,-0.599761 -1.27641,-0.953466 0,-0.476734 0.64589,-1.014981 1.76852,-1.014981 1.75315,0 1.93769,0.81506 2.01459,1.199523 0.0923,0.384462 0.38446,0.384462 0.52287,0.384462 0.53824,0 0.53824,-0.353705 0.53824,-0.630518 v -1.261037 c 0,-0.230677 0,-0.630518 -0.47673,-0.630518 -0.26144,0 -0.46136,0.19992 -0.52287,0.461355 -0.61514,-0.369084 -1.46096,-0.461355 -2.06072,-0.461355 -1.75315,0 -2.78351,0.999602 -2.78351,2.014583 0,0.676653 0.39985,1.138008 0.79969,1.4302 0.52286,0.369084 0.90733,0.445976 2.26063,0.692032 l 1.01499,0.184542 c 0.46135,0.107649 1.15338,0.461355 1.15338,1.091873 0,0.399841 -0.4306,1.153387 -1.84542,1.153387 -0.12302,0 -0.90733,0 -1.50709,-0.169163 -0.69203,-0.199921 -0.7843,-0.569004 -0.81506,-0.891953 -0.0154,-0.215299 -0.0308,-0.522869 -0.52287,-0.522869 -0.53825,0 -0.53825,0.369084 -0.53825,0.645897 v 1.245658 c 0,0.230678 0,0.630518 0.47674,0.630518 0.39984,0 0.50749,-0.415219 0.50749,-0.415219 0.7843,0.415219 2.04534,0.415219 2.38366,0.415219 2.06072,0 2.8604,-1.261036 2.8604,-2.152989 z"
           inkscape:connector-curvature="0" />
        <path
           id="path11049"
           style="font-style:normal;font-variant:normal;font-weight:normal;font-stretch:normal;font-size:15.37849522px;font-family:'Latin Modern Mono Caps';-inkscape-font-specification:'Latin Modern Mono Caps, Normal';font-variant-ligatures:normal;font-variant-caps:normal;font-variant-numeric:normal;font-feature-settings:normal;text-align:start;writing-mode:lr-tb;text-anchor:start;fill:#00ffff;stroke-width:0.38446236"
           d="m -302.36802,-77.389512 c 0,-0.630518 -0.30757,-1.107252 -0.66127,-1.4302 -0.56901,-0.50749 -1.13801,-0.61514 -2.15299,-0.799682 -0.30757,-0.06151 -0.87658,-0.153785 -1.13801,-0.215299 -0.98422,-0.19992 -1.27642,-0.599761 -1.27642,-0.953466 0,-0.476734 0.6459,-1.014981 1.76853,-1.014981 1.75315,0 1.93769,0.81506 2.01458,1.199523 0.0923,0.384462 0.38447,0.384462 0.52287,0.384462 0.53825,0 0.53825,-0.353705 0.53825,-0.630518 v -1.261037 c 0,-0.230677 0,-0.630518 -0.47673,-0.630518 -0.26144,0 -0.46136,0.19992 -0.52287,0.461355 -0.61514,-0.369084 -1.46096,-0.461355 -2.06072,-0.461355 -1.75315,0 -2.78351,0.999602 -2.78351,2.014583 0,0.676653 0.39984,1.138008 0.79968,1.4302 0.52287,0.369084 0.90733,0.445976 2.26064,0.692032 l 1.01498,0.184542 c 0.46136,0.107649 1.15339,0.461355 1.15339,1.091873 0,0.399841 -0.4306,1.153387 -1.84542,1.153387 -0.12303,0 -0.90733,0 -1.50709,-0.169163 -0.69203,-0.199921 -0.7843,-0.569004 -0.81506,-0.891953 -0.0154,-0.215299 -0.0308,-0.522869 -0.52287,-0.522869 -0.53825,0 -0.53825,0.369084 -0.53825,0.645897 v 1.245658 c 0,0.230678 0,0.630518 0.47674,0.630518 0.39984,0 0.50749,-0.415219 0.50749,-0.415219 0.7843,0.415219 2.04534,0.415219 2.38366,0.415219 2.06072,0 2.8604,-1.261036 2.8604,-2.152989 z"
           inkscape:connector-curvature="0" />
        <path
           id="path11051"
           style="font-style:normal;font-variant:normal;font-weight:normal;font-stretch:normal;font-size:15.37849522px;font-family:'Latin Modern Mono Caps';-inkscape-font-specification:'Latin Modern Mono Caps, Normal';font-variant-ligatures:normal;font-variant-caps:normal;font-variant-numeric:normal;font-feature-settings:normal;text-align:start;writing-mode:lr-tb;text-anchor:start;fill:#00ffff;stroke-width:0.38446236"
           d="m -285.80874,-81.218757 v -0.753546 c 0,-0.507491 -0.12303,-0.645897 -0.6459,-0.645897 h -5.73618 c -0.50749,0 -0.64589,0.123028 -0.64589,0.645897 v 0.753546 c 0,0.261434 0,0.645897 0.52287,0.645897 0.53824,0 0.53824,-0.369084 0.53824,-0.645897 v -0.461355 h 1.92231 v 5.382473 h -0.39984 c -0.2153,0 -0.64589,0 -0.64589,0.461355 0,0.476734 0.41522,0.476734 0.64589,0.476734 h 1.8608 c 0.2153,0 0.6459,0 0.6459,-0.461355 0,-0.476734 -0.41522,-0.476734 -0.6459,-0.476734 h -0.39984 v -5.382473 h 1.92231 v 0.461355 c 0,0.261434 0,0.645897 0.52287,0.645897 0.53825,0 0.53825,-0.369084 0.53825,-0.645897 z"
           inkscape:connector-curvature="0" />
        <path
           id="path11053"
           style="font-style:normal;font-variant:normal;font-weight:normal;font-stretch:normal;font-size:15.37849522px;font-family:'Latin Modern Mono Caps';-inkscape-font-specification:'Latin Modern Mono Caps, Normal';font-variant-ligatures:normal;font-variant-caps:normal;font-variant-numeric:normal;font-feature-settings:normal;text-align:start;writing-mode:lr-tb;text-anchor:start;fill:#00ffff;stroke-width:0.38446236"
           d="m -278.175,-78.988875 c 0,-3.398648 -0.29219,-3.752353 -3.06032,-3.752353 -2.76813,0 -3.0757,0.338327 -3.0757,3.752353 0,3.398647 0.29219,3.752352 3.0757,3.752352 2.76813,0 3.06032,-0.353705 3.06032,-3.752352 z m -1.06112,-0.10765 c 0,2.66048 -0.2153,2.921914 -1.9992,2.921914 -1.79929,0 -2.01459,-0.246056 -2.01459,-2.921914 0,-2.445181 0.18455,-2.706615 1.99921,-2.706615 1.83004,0 2.01458,0.246056 2.01458,2.706615 z"
           inkscape:connector-curvature="0" />
        <path
           id="path11055"
           style="font-style:normal;font-variant:normal;font-weight:normal;font-stretch:normal;font-size:15.37849522px;font-family:'Latin Modern Mono Caps';-inkscape-font-specification:'Latin Modern Mono Caps, Normal';font-variant-ligatures:normal;font-variant-caps:normal;font-variant-numeric:normal;font-feature-settings:normal;text-align:start;writing-mode:lr-tb;text-anchor:start;fill:#00ffff;stroke-width:0.38446236"
           d="m -261.78489,-77.358755 c 0,-0.492112 -0.41521,-0.492112 -0.53824,-0.492112 -0.47674,0 -0.50749,0.30757 -0.52287,0.507491 -0.0769,0.861195 -1.18415,1.168765 -1.87618,1.168765 -1.47633,0 -2.59896,-1.291793 -2.59896,-2.814264 0,-1.583985 1.18414,-2.814265 2.56821,-2.814265 0.66127,0 1.67625,0.30757 1.90693,1.353308 0.0308,0.184542 0.0923,0.430597 0.52287,0.430597 0.53824,0 0.53824,-0.353705 0.53824,-0.630518 v -1.460957 c 0,-0.230677 0,-0.630518 -0.47673,-0.630518 -0.24605,0 -0.3537,0.107649 -0.61514,0.538247 -0.26143,-0.169163 -0.95347,-0.538247 -1.92231,-0.538247 -1.9992,0 -3.58319,1.691634 -3.58319,3.752353 0,2.029961 1.55323,3.752352 3.59857,3.752352 1.69163,0 2.9988,-0.891952 2.9988,-2.122232 z"
           inkscape:connector-curvature="0" />
        <path
           id="path11057"
           style="font-style:normal;font-variant:normal;font-weight:normal;font-stretch:normal;font-size:15.37849522px;font-family:'Latin Modern Mono Caps';-inkscape-font-specification:'Latin Modern Mono Caps, Normal';font-variant-ligatures:normal;font-variant-caps:normal;font-variant-numeric:normal;font-feature-settings:normal;text-align:start;writing-mode:lr-tb;text-anchor:start;fill:#00ffff;stroke-width:0.38446236"
           d="m -253.93584,-78.988875 c 0,-3.398648 -0.29219,-3.752353 -3.06032,-3.752353 -2.76813,0 -3.0757,0.338327 -3.0757,3.752353 0,3.398647 0.29219,3.752352 3.0757,3.752352 2.76813,0 3.06032,-0.353705 3.06032,-3.752352 z m -1.06112,-0.10765 c 0,2.66048 -0.2153,2.921914 -1.9992,2.921914 -1.79929,0 -2.01459,-0.246056 -2.01459,-2.921914 0,-2.445181 0.18455,-2.706615 1.99921,-2.706615 1.83004,0 2.01458,0.246056 2.01458,2.706615 z"
           inkscape:connector-curvature="0" />
        <path
           id="path11059"
           style="font-style:normal;font-variant:normal;font-weight:normal;font-stretch:normal;font-size:15.37849522px;font-family:'Latin Modern Mono Caps';-inkscape-font-specification:'Latin Modern Mono Caps, Normal';font-variant-ligatures:normal;font-variant-caps:normal;font-variant-numeric:normal;font-feature-settings:normal;text-align:start;writing-mode:lr-tb;text-anchor:start;fill:#00ffff;stroke-width:0.38446236"
           d="m -245.44091,-75.836284 c 0,-0.461355 -0.44598,-0.461355 -0.59976,-0.461355 v -5.382473 c 0.15378,0 0.59976,0 0.59976,-0.461355 0,-0.476733 -0.41522,-0.476733 -0.6459,-0.476733 h -0.66127 c -0.36909,0 -0.66128,0.01538 -0.87658,0.553626 l -1.29179,3.229484 -1.30717,-3.229484 c -0.2153,-0.522869 -0.50749,-0.553626 -0.87658,-0.553626 h -0.66127 c -0.23068,0 -0.6459,0 -0.6459,0.476733 0,0.461355 0.44598,0.461355 0.59976,0.461355 v 5.382473 c -0.15378,0 -0.59976,0 -0.59976,0.461355 0,0.476734 0.41522,0.476734 0.6459,0.476734 h 0.81506 c 0.23067,0 0.64589,0 0.64589,-0.476734 0,-0.461355 -0.44597,-0.461355 -0.59976,-0.461355 v -5.228688 l 0.0154,-0.01538 1.27642,3.198727 c 0.0461,0.123028 0.23067,0.569005 0.67665,0.569005 0.46135,0 0.63052,-0.430598 0.69203,-0.569005 l 1.27642,-3.198727 0.0154,0.01538 v 5.228688 c -0.15379,0 -0.59977,0 -0.59977,0.461355 0,0.476734 0.41522,0.476734 0.6459,0.476734 h 0.81506 c 0.23068,0 0.6459,0 0.6459,-0.476734 z"
           inkscape:connector-curvature="0" />
        <path
           id="path11061"
           style="font-style:normal;font-variant:normal;font-weight:normal;font-stretch:normal;font-size:15.37849522px;font-family:'Latin Modern Mono Caps';-inkscape-font-specification:'Latin Modern Mono Caps, Normal';font-variant-ligatures:normal;font-variant-caps:normal;font-variant-numeric:normal;font-feature-settings:normal;text-align:start;writing-mode:lr-tb;text-anchor:start;fill:#00ffff;stroke-width:0.38446236"
           d="m -237.59187,-80.326804 c 0,-1.153388 -1.07649,-2.291396 -2.81426,-2.291396 h -3.06033 c -0.21529,0 -0.64589,0 -0.64589,0.461355 0,0.476733 0.36908,0.476733 0.79968,0.476733 v 5.382473 c -0.4306,0 -0.79968,0 -0.79968,0.476734 0,0.461355 0.4306,0.461355 0.64589,0.461355 h 1.36869 c 0.2153,0 0.6459,0 0.6459,-0.461355 0,-0.476734 -0.36909,-0.476734 -0.79968,-0.476734 v -1.753148 h 1.84542 c 1.7839,0 2.81426,-1.184144 2.81426,-2.276017 z m -1.06112,-0.01538 c 0,0.661275 -0.72279,1.353308 -2.02996,1.353308 h -1.5686 v -2.691237 h 1.5686 c 1.36869,0 2.02996,0.738168 2.02996,1.337929 z"
           inkscape:connector-curvature="0" />
        <path
           id="path11063"
           style="font-style:normal;font-variant:normal;font-weight:normal;font-stretch:normal;font-size:15.37849522px;font-family:'Latin Modern Mono Caps';-inkscape-font-specification:'Latin Modern Mono Caps, Normal';font-variant-ligatures:normal;font-variant-caps:normal;font-variant-numeric:normal;font-feature-settings:normal;text-align:start;writing-mode:lr-tb;text-anchor:start;fill:#00ffff;stroke-width:0.38446236"
           d="m -228.89701,-76.574452 c 0,-0.276813 -0.15379,-0.492111 -0.53825,-0.492111 -0.30757,0 -0.50749,0.153785 -0.52287,0.461354 -0.0154,0.292192 -0.1384,0.430598 -0.27681,0.430598 -0.38446,0 -0.38446,-0.50749 -0.38446,-1.030359 0,-0.784303 0,-1.276415 -0.66128,-1.768527 0.26144,-0.153785 1.06112,-0.707411 1.06112,-1.599363 0,-1.03036 -1.12263,-2.04534 -2.87578,-2.04534 h -2.38367 c -0.2153,0 -0.64589,0 -0.64589,0.461355 0,0.476733 0.38446,0.476733 0.73816,0.476733 v 5.382473 c -0.3537,0 -0.73816,0 -0.73816,0.476734 0,0.461355 0.43059,0.461355 0.64589,0.461355 h 1.24566 c 0.2153,0 0.6459,0 0.6459,-0.461355 0,-0.476734 -0.38446,-0.476734 -0.73817,-0.476734 v -2.229881 h 1.16877 c 1.47633,0 1.47633,0.692032 1.47633,0.984223 v 0.599762 c 0,1.445578 0.98423,1.707012 1.44558,1.707012 0.8612,0 1.33793,-0.738167 1.33793,-1.337929 z m -2.38367,-3.998408 c 0,0.553625 -0.73817,1.107251 -1.95307,1.107251 h -1.09187 v -2.214503 h 1.09187 c 1.2149,0 1.95307,0.553626 1.95307,1.107252 z"
           inkscape:connector-curvature="0" />
        <path
           id="path11065"
           style="font-style:normal;font-variant:normal;font-weight:normal;font-stretch:normal;font-size:15.37849522px;font-family:'Latin Modern Mono Caps';-inkscape-font-specification:'Latin Modern Mono Caps, Normal';font-variant-ligatures:normal;font-variant-caps:normal;font-variant-numeric:normal;font-feature-settings:normal;text-align:start;writing-mode:lr-tb;text-anchor:start;fill:#00ffff;stroke-width:0.38446236"
           d="m -221.10949,-76.005447 v -0.938088 c 0,-0.261435 0,-0.645897 -0.52287,-0.645897 -0.53825,0 -0.53825,0.369084 -0.53825,0.645897 v 0.645896 h -3.92151 v -2.352909 h 1.90693 c 0,0.292191 0,0.661275 0.53825,0.661275 0.52287,0 0.52287,-0.384463 0.52287,-0.645897 v -0.968845 c 0,-0.261435 0,-0.645897 -0.52287,-0.645897 -0.53825,0 -0.53825,0.369084 -0.53825,0.661275 h -1.90693 v -2.091475 h 3.59857 v 0.461355 c 0,0.261434 0,0.645897 0.52286,0.645897 0.53825,0 0.53825,-0.369084 0.53825,-0.645897 v -0.753546 c 0,-0.507491 -0.12303,-0.645897 -0.6459,-0.645897 h -5.22868 c -0.2153,0 -0.6459,0 -0.6459,0.461355 0,0.476733 0.36908,0.476733 0.79968,0.476733 v 5.382473 c -0.4306,0 -0.79968,0 -0.79968,0.476734 0,0.461355 0.4306,0.461355 0.6459,0.461355 h 5.55163 c 0.50749,0 0.6459,-0.123028 0.6459,-0.645897 z"
           inkscape:connector-curvature="0" />
        <path
           id="path11067"
           style="font-style:normal;font-variant:normal;font-weight:normal;font-stretch:normal;font-size:15.37849522px;font-family:'Latin Modern Mono Caps';-inkscape-font-specification:'Latin Modern Mono Caps, Normal';font-variant-ligatures:normal;font-variant-caps:normal;font-variant-numeric:normal;font-feature-settings:normal;text-align:start;writing-mode:lr-tb;text-anchor:start;fill:#00ffff;stroke-width:0.38446236"
           d="m -213.49113,-77.389512 c 0,-0.630518 -0.30757,-1.107252 -0.66127,-1.4302 -0.569,-0.50749 -1.13801,-0.61514 -2.15299,-0.799682 -0.30757,-0.06151 -0.87657,-0.153785 -1.13801,-0.215299 -0.98422,-0.19992 -1.27641,-0.599761 -1.27641,-0.953466 0,-0.476734 0.64589,-1.014981 1.76852,-1.014981 1.75315,0 1.93769,0.81506 2.01459,1.199523 0.0923,0.384462 0.38446,0.384462 0.52286,0.384462 0.53825,0 0.53825,-0.353705 0.53825,-0.630518 v -1.261037 c 0,-0.230677 0,-0.630518 -0.47673,-0.630518 -0.26144,0 -0.46136,0.19992 -0.52287,0.461355 -0.61514,-0.369084 -1.46096,-0.461355 -2.06072,-0.461355 -1.75315,0 -2.78351,0.999602 -2.78351,2.014583 0,0.676653 0.39984,1.138008 0.79969,1.4302 0.52286,0.369084 0.90733,0.445976 2.26063,0.692032 l 1.01499,0.184542 c 0.46135,0.107649 1.15338,0.461355 1.15338,1.091873 0,0.399841 -0.4306,1.153387 -1.84542,1.153387 -0.12302,0 -0.90733,0 -1.50709,-0.169163 -0.69203,-0.199921 -0.7843,-0.569004 -0.81506,-0.891953 -0.0154,-0.215299 -0.0308,-0.522869 -0.52287,-0.522869 -0.53825,0 -0.53825,0.369084 -0.53825,0.645897 v 1.245658 c 0,0.230678 0,0.630518 0.47674,0.630518 0.39984,0 0.50749,-0.415219 0.50749,-0.415219 0.7843,0.415219 2.04534,0.415219 2.38366,0.415219 2.06072,0 2.8604,-1.261036 2.8604,-2.152989 z"
           inkscape:connector-curvature="0" />
        <path
           id="path11069"
           style="font-style:normal;font-variant:normal;font-weight:normal;font-stretch:normal;font-size:15.37849522px;font-family:'Latin Modern Mono Caps';-inkscape-font-specification:'Latin Modern Mono Caps, Normal';font-variant-ligatures:normal;font-variant-caps:normal;font-variant-numeric:normal;font-feature-settings:normal;text-align:start;writing-mode:lr-tb;text-anchor:start;fill:#00ffff;stroke-width:0.38446236"
           d="m -205.41141,-77.389512 c 0,-0.630518 -0.30757,-1.107252 -0.66127,-1.4302 -0.56901,-0.50749 -1.13801,-0.61514 -2.15299,-0.799682 -0.30757,-0.06151 -0.87657,-0.153785 -1.13801,-0.215299 -0.98422,-0.19992 -1.27641,-0.599761 -1.27641,-0.953466 0,-0.476734 0.64589,-1.014981 1.76852,-1.014981 1.75315,0 1.93769,0.81506 2.01459,1.199523 0.0923,0.384462 0.38446,0.384462 0.52286,0.384462 0.53825,0 0.53825,-0.353705 0.53825,-0.630518 v -1.261037 c 0,-0.230677 0,-0.630518 -0.47673,-0.630518 -0.26144,0 -0.46136,0.19992 -0.52287,0.461355 -0.61514,-0.369084 -1.46096,-0.461355 -2.06072,-0.461355 -1.75315,0 -2.78351,0.999602 -2.78351,2.014583 0,0.676653 0.39984,1.138008 0.79969,1.4302 0.52286,0.369084 0.90733,0.445976 2.26063,0.692032 l 1.01498,0.184542 c 0.46136,0.107649 1.15339,0.461355 1.15339,1.091873 0,0.399841 -0.4306,1.153387 -1.84542,1.153387 -0.12303,0 -0.90733,0 -1.50709,-0.169163 -0.69203,-0.199921 -0.7843,-0.569004 -0.81506,-0.891953 -0.0154,-0.215299 -0.0308,-0.522869 -0.52287,-0.522869 -0.53825,0 -0.53825,0.369084 -0.53825,0.645897 v 1.245658 c 0,0.230678 0,0.630518 0.47674,0.630518 0.39984,0 0.50749,-0.415219 0.50749,-0.415219 0.7843,0.415219 2.04534,0.415219 2.38366,0.415219 2.06072,0 2.8604,-1.261036 2.8604,-2.152989 z"
           inkscape:connector-curvature="0" />
      </g>
      <path
         id="path11073"
         d="m -343.9712,-133.59227 h 136.40594 c 7.1528,0 12.91119,5.75839 12.91119,12.91119 v 37.777172 c 0,7.1528 -5.75839,12.91119 -12.91119,12.91119 H -343.9712 c -7.15279,0 -12.91119,-5.75839 -12.91119,-12.91119 v -37.777172 c 0,-7.1528 5.7584,-12.91119 12.91119,-12.91119 z"
         style="fill:none;fill-opacity:1;stroke:#ff820f;stroke-width:3.77699995;stroke-miterlimit:4;stroke-dasharray:none;stroke-dashoffset:0;stroke-opacity:1"
         inkscape:connector-curvature="0" />
    </g>
  </g>
</svg>
