<?xml version="1.0" encoding="UTF-8" standalone="no"?>
<!-- Created with Inkscape (http://www.inkscape.org/) -->

<svg
   xmlns:dc="http://purl.org/dc/elements/1.1/"
   xmlns:cc="http://creativecommons.org/ns#"
   xmlns:rdf="http://www.w3.org/1999/02/22-rdf-syntax-ns#"
   xmlns:svg="http://www.w3.org/2000/svg"
   xmlns="http://www.w3.org/2000/svg"
   xmlns:sodipodi="http://sodipodi.sourceforge.net/DTD/sodipodi-0.dtd"
   xmlns:inkscape="http://www.inkscape.org/namespaces/inkscape"
   width="123.00613mm"
   height="28.014486mm"
   viewBox="0 0 123.00614 28.014486"
   version="1.1"
   id="svg5940"
   inkscape:version="0.92.4 (5da689c313, 2019-01-14)"
   sodipodi:docname="taikuipment.svg">
  <defs
     id="defs5934" />
  <sodipodi:namedview
     id="base"
     pagecolor="#ffffff"
     bordercolor="#666666"
     borderopacity="1.0"
     inkscape:pageopacity="0.0"
     inkscape:pageshadow="2"
     inkscape:zoom="0.35"
     inkscape:cx="-336.11891"
     inkscape:cy="72.940746"
     inkscape:document-units="mm"
     inkscape:current-layer="layer1"
     showgrid="false"
     inkscape:window-width="1920"
     inkscape:window-height="1043"
     inkscape:window-x="0"
     inkscape:window-y="1098"
     inkscape:window-maximized="0" />
  <metadata
     id="metadata5937">
    <rdf:RDF>
      <cc:Work
         rdf:about="">
        <dc:format>image/svg+xml</dc:format>
        <dc:type
           rdf:resource="http://purl.org/dc/dcmitype/StillImage" />
        <dc:title></dc:title>
      </cc:Work>
    </rdf:RDF>
  </metadata>
  <g
     inkscape:label="Layer 1"
     inkscape:groupmode="layer"
     id="layer1"
     transform="translate(-46.598127,-140.11776)">
    <g
       id="g2056"
       transform="matrix(0.30119929,0,0,0.30119929,217.74569,17.495002)"
       inkscape:export-filename="/home/flyc0r/nuulogos3.png"
       inkscape:export-xdpi="64.722214"
       inkscape:export-ydpi="64.722214">
      <path
         inkscape:connector-curvature="0"
         style="fill:#1c241c;fill-opacity:1;stroke:none;stroke-width:2.39175487;stroke-miterlimit:4;stroke-dasharray:none;stroke-dashoffset:0;stroke-opacity:1"
         d="m -568.22034,407.11502 h 408.38785 v 93.0098 h -408.38785 z"
         id="rect1427" />
      <g
         inkscape:export-ydpi="64.722214"
         inkscape:export-xdpi="64.722214"
         inkscape:export-filename="/home/flyc0r/rect1427.png"
         style="fill:#d5fff6"
         transform="translate(261.92414,18.174328)"
         id="g5771">
        <g
           aria-label="Taikuipment"
           style="font-style:normal;font-weight:normal;font-size:37.3664093px;line-height:1.25;font-family:sans-serif;letter-spacing:0px;word-spacing:0px;fill:#d5fff6;fill-opacity:1;stroke:none;stroke-width:0.93416017"
           id="text5719">
          <path
             inkscape:connector-curvature="0"
             d="m -738.76389,411.72144 h 23.04383 v 3.10171 h -9.67001 v 24.13855 h -3.7038 v -24.13855 h -9.67002 z"
             style="fill:#d5fff6;stroke-width:0.93416017"
             id="path9069" />
          <path
             inkscape:connector-curvature="0"
             d="m -709.20648,428.68959 q -4.0687,0 -5.6378,0.93051 -1.5691,0.93051 -1.5691,3.17468 0,1.78804 1.1677,2.84627 1.18595,1.03999 3.21118,1.03999 2.79153,0 4.4701,-1.9705 1.69682,-1.98874 1.69682,-5.2729 v -0.74805 z m 6.69603,-1.38665 v 11.65876 h -3.35713 V 435.86 q -1.14946,1.86102 -2.86452,2.75504 -1.71506,0.87577 -4.19642,0.87577 -3.1382,0 -4.99922,-1.75155 -1.84278,-1.76979 -1.84278,-4.72553 0,-3.44837 2.29891,-5.19992 2.31716,-1.75155 6.89673,-1.75155 h 4.7073 v -0.32841 q 0,-2.31716 -1.53261,-3.57609 -1.51436,-1.27717 -4.26941,-1.27717 -1.75155,0 -3.41187,0.41964 -1.66032,0.41965 -3.19293,1.25893 v -3.1017 q 1.84278,-0.71157 3.57608,-1.05823 1.73331,-0.36491 3.37539,-0.36491 4.43361,0 6.62305,2.29891 2.18943,2.29891 2.18943,6.96971 z"
             style="fill:#d5fff6;stroke-width:0.93416017"
             id="path9071" />
          <path
             inkscape:connector-curvature="0"
             d="m -695.57723,418.52695 h 3.35714 v 20.43475 h -3.35714 z m 0,-7.95496 h 3.35714 v 4.25116 h -3.35714 z"
             style="fill:#d5fff6;stroke-width:0.93416017"
             id="path9073" />
          <path
             inkscape:connector-curvature="0"
             d="m -685.3416,410.57199 h 3.37538 v 16.76744 l 10.01668,-8.81248 h 4.28765 l -10.83772,9.56054 11.29385,10.87421 h -4.37887 l -10.38159,-9.98019 v 9.98019 h -3.37538 z"
             style="fill:#d5fff6;stroke-width:0.93416017"
             id="path9075" />
          <path
             inkscape:connector-curvature="0"
             d="m -665.05281,430.89727 v -12.37032 h 3.35714 v 12.2426 q 0,2.90101 1.13121,4.36063 1.13121,1.44138 3.39363,1.44138 2.71855,0 4.28765,-1.7333 1.58734,-1.73331 1.58734,-4.72554 v -11.58577 h 3.35714 v 20.43475 h -3.35714 v -3.13819 q -1.22244,1.86102 -2.84627,2.77328 -1.60559,0.89402 -3.74029,0.89402 -3.52134,0 -5.34588,-2.18943 -1.82453,-2.18944 -1.82453,-6.40411 z m 8.44758,-12.86295 z"
             style="fill:#d5fff6;stroke-width:0.93416017"
             id="path9077" />
          <path
             inkscape:connector-curvature="0"
             d="m -640.98724,418.52695 h 3.35714 v 20.43475 h -3.35714 z m 0,-7.95496 h 3.35714 v 4.25116 h -3.35714 z"
             style="fill:#d5fff6;stroke-width:0.93416017"
             id="path9079" />
          <path
             inkscape:connector-curvature="0"
             d="m -627.37623,435.89649 v 10.83772 h -3.37538 v -28.20726 h 3.37538 v 3.1017 q 1.05823,-1.82453 2.66382,-2.70031 1.62383,-0.89402 3.86801,-0.89402 3.72204,0 6.0392,2.95574 2.3354,2.95574 2.3354,7.77251 0,4.81676 -2.3354,7.7725 -2.31716,2.95574 -6.0392,2.95574 -2.24418,0 -3.86801,-0.87577 -1.60559,-0.89402 -2.66382,-2.71855 z m 11.42157,-7.13392 q 0,-3.7038 -1.53261,-5.80201 -1.51436,-2.11646 -4.17817,-2.11646 -2.66382,0 -4.19643,2.11646 -1.51436,2.09821 -1.51436,5.80201 0,3.7038 1.51436,5.82025 1.53261,2.09822 4.19643,2.09822 2.66381,0 4.17817,-2.09822 1.53261,-2.11645 1.53261,-5.82025 z"
             style="fill:#d5fff6;stroke-width:0.93416017"
             id="path9081" />
          <path
             inkscape:connector-curvature="0"
             d="m -590.99507,422.44969 q 1.25893,-2.26242 3.01048,-3.33889 1.75155,-1.07648 4.12344,-1.07648 3.19293,0 4.92624,2.24418 1.7333,2.22592 1.7333,6.34937 v 12.33383 h -3.37538 v -12.22436 q 0,-2.9375 -1.03998,-4.36063 -1.03999,-1.42314 -3.17469,-1.42314 -2.60908,0 -4.12344,1.73331 -1.51436,1.7333 -1.51436,4.72553 v 11.54929 h -3.37539 v -12.22436 q 0,-2.95574 -1.03998,-4.36063 -1.03998,-1.42314 -3.21118,-1.42314 -2.57259,0 -4.08695,1.75155 -1.51436,1.73331 -1.51436,4.70729 v 11.54929 h -3.37538 v -20.43475 h 3.37538 v 3.17468 q 1.14946,-1.87927 2.75504,-2.77329 1.60559,-0.89402 3.81328,-0.89402 2.22592,0 3.77678,1.13121 1.56909,1.13121 2.31715,3.28416 z"
             style="fill:#d5fff6;stroke-width:0.93416017"
             id="path9083" />
          <path
             inkscape:connector-curvature="0"
             d="m -553.00832,427.90504 v 1.64208 h -15.43554 q 0.21894,3.46661 2.07997,5.29114 1.87926,1.80629 5.21816,1.80629 1.934,0 3.74029,-0.47438 1.82453,-0.47438 3.61257,-1.42314 v 3.17469 q -1.80629,0.7663 -3.7038,1.1677 -1.89751,0.40139 -3.84976,0.40139 -4.88975,0 -7.75426,-2.84626 -2.84627,-2.84627 -2.84627,-7.69953 0,-5.01746 2.70031,-7.95496 2.71855,-2.95574 7.31637,-2.95574 4.12344,0 6.51358,2.66382 2.40838,2.64557 2.40838,7.2069 z m -3.35714,-0.98525 q -0.0365,-2.75504 -1.55085,-4.39712 -1.49612,-1.64208 -3.97748,-1.64208 -2.80978,0 -4.5066,1.58734 -1.67856,1.58735 -1.934,4.47011 z"
             style="fill:#d5fff6;stroke-width:0.93416017"
             id="path9085" />
          <path
             inkscape:connector-curvature="0"
             d="m -530.51184,426.62787 v 12.33383 h -3.35714 v -12.22436 q 0,-2.90101 -1.13121,-4.34239 -1.13121,-1.44138 -3.39363,-1.44138 -2.71855,0 -4.28765,1.73331 -1.56909,1.7333 -1.56909,4.72553 v 11.54929 h -3.37539 v -20.43475 h 3.37539 v 3.17468 q 1.20419,-1.84278 2.82802,-2.75504 1.64208,-0.91227 3.77678,-0.91227 3.52135,0 5.32763,2.18944 1.80629,2.17119 1.80629,6.40411 z"
             style="fill:#d5fff6;stroke-width:0.93416017"
             id="path9087" />
          <path
             inkscape:connector-curvature="0"
             d="m -520.45867,412.72493 v 5.80202 h 6.91498 v 2.60908 h -6.91498 v 11.09315 q 0,2.49961 0.67508,3.21117 0.69332,0.71157 2.79153,0.71157 h 3.44837 v 2.80978 h -3.44837 q -3.88625,0 -5.36412,-1.44138 -1.47787,-1.45962 -1.47787,-5.29114 v -11.09315 h -2.46312 v -2.60908 h 2.46312 v -5.80202 z"
             style="fill:#d5fff6;stroke-width:0.93416017"
             id="path9089" />
        </g>
        <g
           aria-label="The sky is big and the emperor is far away"
           transform="scale(0.97517007,1.0254621)"
           style="font-style:normal;font-weight:normal;font-size:14.64641285px;line-height:1.25;font-family:sans-serif;letter-spacing:0px;word-spacing:0px;fill:#d5fff6;fill-opacity:1;stroke:none;stroke-width:0.3661603"
           id="text5723">
          <path
             inkscape:connector-curvature="0"
             d="m -743.90934,438.89511 v 1.12777 h -2.25555 v 9.02219 h -1.31818 v -9.02219 h -2.25554 v -1.12777 z"
             style="font-style:normal;font-variant:normal;font-weight:normal;font-stretch:normal;font-size:14.64641285px;font-family:'Ubuntu Condensed';-inkscape-font-specification:'Ubuntu Condensed, Normal';font-variant-ligatures:normal;font-variant-caps:normal;font-variant-numeric:normal;font-feature-settings:normal;text-align:start;writing-mode:lr-tb;text-anchor:start;fill:#d5fff6;stroke-width:0.3661603"
             id="path9092" />
          <path
             inkscape:connector-curvature="0"
             d="m -742.56508,449.04507 v -11.14592 l 1.2596,-0.21969 v 3.72019 q 0.27828,-0.0879 0.6005,-0.14647 0.33687,-0.0586 0.67373,-0.0586 0.48333,0 0.90808,0.16111 0.42475,0.14646 0.73232,0.51262 0.32222,0.36616 0.49798,0.99596 0.1904,0.61515 0.1904,1.53787 v 4.64291 h -1.25959 v -4.54038 q 0,-1.14242 -0.29293,-1.66969 -0.29293,-0.52728 -1.09848,-0.52728 -0.42474,0 -0.95201,0.14647 v 6.59088 z"
             style="font-style:normal;font-variant:normal;font-weight:normal;font-stretch:normal;font-size:14.64641285px;font-family:'Ubuntu Condensed';-inkscape-font-specification:'Ubuntu Condensed, Normal';font-variant-ligatures:normal;font-variant-caps:normal;font-variant-numeric:normal;font-feature-settings:normal;text-align:start;writing-mode:lr-tb;text-anchor:start;fill:#d5fff6;stroke-width:0.3661603"
             id="path9094" />
          <path
             inkscape:connector-curvature="0"
             d="m -734.63519,445.57387 q 0.0146,0.55657 0.10253,1.02525 0.0879,0.45404 0.27828,0.80556 0.20505,0.33686 0.52727,0.52727 0.33687,0.1904 0.84949,0.1904 0.42475,0 0.77626,-0.11717 0.36616,-0.13182 0.52727,-0.2197 l 0.23434,1.01061 q -0.1904,0.13181 -0.64444,0.27828 -0.43939,0.16111 -1.05454,0.16111 -0.80555,0 -1.36212,-0.29293 -0.54191,-0.29293 -0.89343,-0.8202 -0.33686,-0.52727 -0.48333,-1.25959 -0.14646,-0.73232 -0.14646,-1.61111 0,-2.12373 0.70303,-3.10504 0.70302,-0.98131 1.86009,-0.98131 1.30353,0 1.84545,0.98131 0.54192,0.98131 0.54192,2.75353 0,0.16111 0,0.33687 0,0.16111 -0.0147,0.33686 z m 1.27424,-3.33938 q -0.6298,0 -0.92272,0.6298 -0.27829,0.62979 -0.33687,1.68434 h 2.32878 q 0,-1.06919 -0.2197,-1.68434 -0.21969,-0.6298 -0.84949,-0.6298 z"
             style="font-style:normal;font-variant:normal;font-weight:normal;font-stretch:normal;font-size:14.64641285px;font-family:'Ubuntu Condensed';-inkscape-font-specification:'Ubuntu Condensed, Normal';font-variant-ligatures:normal;font-variant-caps:normal;font-variant-numeric:normal;font-feature-settings:normal;text-align:start;writing-mode:lr-tb;text-anchor:start;fill:#d5fff6;stroke-width:0.3661603"
             id="path9096" />
          <path
             inkscape:connector-curvature="0"
             d="m -725.19031,448.15164 q 0.55656,0 0.83484,-0.30757 0.29293,-0.32222 0.29293,-0.83485 0,-0.32222 -0.11717,-0.54191 -0.11717,-0.23435 -0.30757,-0.4101 -0.19041,-0.17576 -0.4394,-0.30758 -0.24899,-0.14646 -0.49797,-0.30757 -0.24899,-0.14647 -0.48334,-0.33687 -0.23434,-0.20505 -0.42474,-0.45404 -0.17576,-0.26363 -0.29293,-0.58586 -0.10253,-0.33686 -0.10253,-0.77626 0,-0.95201 0.58586,-1.53787 0.6005,-0.58586 1.61111,-0.58586 0.42474,0 0.80555,0.11718 0.38081,0.10252 0.6298,0.23434 l -0.27829,1.0106 q -0.26363,-0.14646 -0.52727,-0.2197 -0.26363,-0.0732 -0.57121,-0.0732 -0.46868,0 -0.74696,0.27828 -0.27829,0.26364 -0.27829,0.77626 0,0.29293 0.10253,0.51263 0.10252,0.20505 0.26363,0.38081 0.17576,0.16111 0.38081,0.30757 0.2197,0.14646 0.45404,0.27828 0.27828,0.16111 0.54192,0.35152 0.27828,0.1904 0.48333,0.45403 0.21969,0.24899 0.35151,0.60051 0.13182,0.33687 0.13182,0.8202 0,1.0106 -0.6005,1.62575 -0.58586,0.61515 -1.72828,0.61515 -0.58586,0 -1.05454,-0.16111 -0.46869,-0.16111 -0.70303,-0.29293 l 0.26364,-1.0399 q 0.21969,0.11718 0.58585,0.26364 0.38081,0.14646 0.83485,0.14646 z"
             style="font-style:normal;font-variant:normal;font-weight:normal;font-stretch:normal;font-size:14.64641285px;font-family:'Ubuntu Condensed';-inkscape-font-specification:'Ubuntu Condensed, Normal';font-variant-ligatures:normal;font-variant-caps:normal;font-variant-numeric:normal;font-feature-settings:normal;text-align:start;writing-mode:lr-tb;text-anchor:start;fill:#d5fff6;stroke-width:0.3661603"
             id="path9098" />
          <path
             inkscape:connector-curvature="0"
             d="m -716.49332,441.35571 q -0.61515,1.05454 -1.18636,1.93332 -0.55656,0.86414 -1.11312,1.62576 0.35151,0.4101 0.71767,0.92272 0.36616,0.51262 0.70303,1.06919 0.33687,0.54192 0.62979,1.09848 0.29293,0.54192 0.49798,1.03989 h -1.37676 q -0.2197,-0.48333 -0.51262,-1.0106 -0.29293,-0.52727 -0.61515,-1.02525 -0.32222,-0.51262 -0.64445,-0.96666 -0.32222,-0.45404 -0.6005,-0.76161 v 3.76412 h -1.25959 v -11.14592 l 1.25959,-0.21969 v 6.98634 q 0.26364,-0.35152 0.55656,-0.79091 0.30758,-0.43939 0.60051,-0.87878 0.29293,-0.45404 0.55656,-0.87879 0.26364,-0.42474 0.43939,-0.76161 z"
             style="font-style:normal;font-variant:normal;font-weight:normal;font-stretch:normal;font-size:14.64641285px;font-family:'Ubuntu Condensed';-inkscape-font-specification:'Ubuntu Condensed, Normal';font-variant-ligatures:normal;font-variant-caps:normal;font-variant-numeric:normal;font-feature-settings:normal;text-align:start;writing-mode:lr-tb;text-anchor:start;fill:#d5fff6;stroke-width:0.3661603"
             id="path9100" />
          <path
             inkscape:connector-curvature="0"
             d="m -713.07338,447.44862 q 0.42475,-1.46465 0.77626,-2.94393 0.35152,-1.47929 0.67374,-3.14898 h 1.24494 q -0.21969,1.06919 -0.48333,2.10908 -0.24899,1.0399 -0.52727,2.00656 -0.26364,0.96666 -0.54192,1.8308 -0.26363,0.84949 -0.49798,1.55252 -0.27828,0.8202 -0.54191,1.37676 -0.24899,0.57121 -0.55657,0.90808 -0.29293,0.35152 -0.64444,0.49798 -0.35151,0.16111 -0.83484,0.16111 -0.26364,0 -0.52728,-0.0732 -0.26363,-0.0586 -0.43939,-0.13182 l 0.23434,-1.02525 q 0.38081,0.16111 0.71768,0.16111 0.42474,0 0.68838,-0.30757 0.26364,-0.30758 0.51262,-0.92273 l 0.14647,-0.36616 q -0.27828,-0.76161 -0.57121,-1.68433 -0.27828,-0.93737 -0.55656,-1.94798 -0.26364,-1.0106 -0.51263,-2.06514 -0.24899,-1.06919 -0.45404,-2.07979 h 1.33283 q 0.11717,0.68838 0.27828,1.50858 0.16111,0.8202 0.33686,1.6404 0.19041,0.8202 0.38081,1.59646 0.1904,0.76161 0.36616,1.34747 z"
             style="font-style:normal;font-variant:normal;font-weight:normal;font-stretch:normal;font-size:14.64641285px;font-family:'Ubuntu Condensed';-inkscape-font-specification:'Ubuntu Condensed, Normal';font-variant-ligatures:normal;font-variant-caps:normal;font-variant-numeric:normal;font-feature-settings:normal;text-align:start;writing-mode:lr-tb;text-anchor:start;fill:#d5fff6;stroke-width:0.3661603"
             id="path9102" />
          <path
             inkscape:connector-curvature="0"
             d="m -704.9183,449.04507 h -1.25959 v -7.68936 h 1.25959 z m -0.6298,-9.05148 q -0.33686,0 -0.58585,-0.21969 -0.23435,-0.23435 -0.23435,-0.61515 0,-0.38081 0.23435,-0.60051 0.24899,-0.23434 0.58585,-0.23434 0.33687,0 0.57121,0.23434 0.24899,0.2197 0.24899,0.60051 0,0.3808 -0.24899,0.61515 -0.23434,0.21969 -0.57121,0.21969 z"
             style="font-style:normal;font-variant:normal;font-weight:normal;font-stretch:normal;font-size:14.64641285px;font-family:'Ubuntu Condensed';-inkscape-font-specification:'Ubuntu Condensed, Normal';font-variant-ligatures:normal;font-variant-caps:normal;font-variant-numeric:normal;font-feature-settings:normal;text-align:start;writing-mode:lr-tb;text-anchor:start;fill:#d5fff6;stroke-width:0.3661603"
             id="path9104" />
          <path
             inkscape:connector-curvature="0"
             d="m -701.56153,448.15164 q 0.55657,0 0.83485,-0.30757 0.29293,-0.32222 0.29293,-0.83485 0,-0.32222 -0.11718,-0.54191 -0.11717,-0.23435 -0.30757,-0.4101 -0.1904,-0.17576 -0.43939,-0.30758 -0.24899,-0.14646 -0.49798,-0.30757 -0.24899,-0.14647 -0.48333,-0.33687 -0.23434,-0.20505 -0.42475,-0.45404 -0.17575,-0.26363 -0.29293,-0.58586 -0.10252,-0.33686 -0.10252,-0.77626 0,-0.95201 0.58586,-1.53787 0.6005,-0.58586 1.6111,-0.58586 0.42475,0 0.80555,0.11718 0.38081,0.10252 0.6298,0.23434 l -0.27828,1.0106 q -0.26364,-0.14646 -0.52727,-0.2197 -0.26364,-0.0732 -0.57121,-0.0732 -0.46869,0 -0.74697,0.27828 -0.27828,0.26364 -0.27828,0.77626 0,0.29293 0.10252,0.51263 0.10253,0.20505 0.26364,0.38081 0.17575,0.16111 0.3808,0.30757 0.2197,0.14646 0.45404,0.27828 0.27829,0.16111 0.54192,0.35152 0.27828,0.1904 0.48333,0.45403 0.2197,0.24899 0.35152,0.60051 0.13181,0.33687 0.13181,0.8202 0,1.0106 -0.6005,1.62575 -0.58586,0.61515 -1.72828,0.61515 -0.58585,0 -1.05454,-0.16111 -0.46868,-0.16111 -0.70303,-0.29293 l 0.26364,-1.0399 q 0.2197,0.11718 0.58586,0.26364 0.3808,0.14646 0.83484,0.14646 z"
             style="font-style:normal;font-variant:normal;font-weight:normal;font-stretch:normal;font-size:14.64641285px;font-family:'Ubuntu Condensed';-inkscape-font-specification:'Ubuntu Condensed, Normal';font-variant-ligatures:normal;font-variant-caps:normal;font-variant-numeric:normal;font-feature-settings:normal;text-align:start;writing-mode:lr-tb;text-anchor:start;fill:#d5fff6;stroke-width:0.3661603"
             id="path9106" />
          <path
             inkscape:connector-curvature="0"
             d="m -693.51904,448.01983 q 0.20504,0.0586 0.39545,0.0879 0.1904,0.0146 0.35151,0.0146 0.84949,0 1.25959,-0.67373 0.42475,-0.68839 0.42475,-2.2702 0,-0.8202 -0.10253,-1.37676 -0.10252,-0.55657 -0.30757,-0.89343 -0.1904,-0.33687 -0.46869,-0.48333 -0.27828,-0.14647 -0.64444,-0.14647 -0.48333,0 -0.90807,0.23434 z m 0,-6.60554 q 0.23434,-0.11717 0.46868,-0.17575 0.24899,-0.0732 0.58586,-0.0732 0.71767,0 1.2303,0.29293 0.51262,0.27828 0.83484,0.80556 0.32222,0.51262 0.46869,1.25959 0.16111,0.73232 0.16111,1.65504 0,2.03585 -0.73232,3.04646 -0.71768,1.0106 -2.2702,1.0106 -0.54192,0 -1.06919,-0.11717 -0.52727,-0.10253 -0.93737,-0.27829 v -10.94087 l 1.2596,-0.21969 z"
             style="font-style:normal;font-variant:normal;font-weight:normal;font-stretch:normal;font-size:14.64641285px;font-family:'Ubuntu Condensed';-inkscape-font-specification:'Ubuntu Condensed, Normal';font-variant-ligatures:normal;font-variant-caps:normal;font-variant-numeric:normal;font-feature-settings:normal;text-align:start;writing-mode:lr-tb;text-anchor:start;fill:#d5fff6;stroke-width:0.3661603"
             id="path9108" />
          <path
             inkscape:connector-curvature="0"
             d="m -686.6675,449.04507 h -1.25959 v -7.68936 h 1.25959 z m -0.6298,-9.05148 q -0.33686,0 -0.58585,-0.21969 -0.23434,-0.23435 -0.23434,-0.61515 0,-0.38081 0.23434,-0.60051 0.24899,-0.23434 0.58585,-0.23434 0.33687,0 0.57121,0.23434 0.24899,0.2197 0.24899,0.60051 0,0.3808 -0.24899,0.61515 -0.23434,0.21969 -0.57121,0.21969 z"
             style="font-style:normal;font-variant:normal;font-weight:normal;font-stretch:normal;font-size:14.64641285px;font-family:'Ubuntu Condensed';-inkscape-font-specification:'Ubuntu Condensed, Normal';font-variant-ligatures:normal;font-variant-caps:normal;font-variant-numeric:normal;font-feature-settings:normal;text-align:start;writing-mode:lr-tb;text-anchor:start;fill:#d5fff6;stroke-width:0.3661603"
             id="path9110" />
          <path
             inkscape:connector-curvature="0"
             d="m -679.81023,448.82538 q 0,0.8202 -0.2197,1.37676 -0.20505,0.57121 -0.57121,0.92273 -0.36616,0.35151 -0.86413,0.51262 -0.48334,0.16111 -1.0399,0.16111 -0.46869,0 -0.93737,-0.10252 -0.46869,-0.10253 -0.86414,-0.30758 l 0.26364,-1.05454 q 0.26363,0.14646 0.64444,0.26363 0.38081,0.11718 0.7909,0.11718 0.71768,0 1.12778,-0.4101 0.4101,-0.4101 0.4101,-1.40606 v -0.36616 q -0.23434,0.10252 -0.49798,0.17576 -0.26364,0.0586 -0.6005,0.0586 -1.37677,0 -2.02121,-0.93737 -0.62979,-0.95201 -0.62979,-2.68029 0,-0.92273 0.16111,-1.65505 0.17575,-0.74696 0.52727,-1.25959 0.36616,-0.52727 0.93737,-0.7909 0.57121,-0.27829 1.39141,-0.27829 0.54191,0 1.05454,0.11718 0.52727,0.10252 0.93737,0.27828 z m -1.25959,-6.44442 q -0.20505,-0.0586 -0.39545,-0.0732 -0.19041,-0.0293 -0.35152,-0.0293 -0.87878,0 -1.28888,0.67374 -0.39546,0.67373 -0.39546,2.19696 0,1.37676 0.39546,1.94797 0.39545,0.55657 1.12777,0.55657 0.24899,0 0.46869,-0.0586 0.23434,-0.0586 0.43939,-0.16111 z"
             style="font-style:normal;font-variant:normal;font-weight:normal;font-stretch:normal;font-size:14.64641285px;font-family:'Ubuntu Condensed';-inkscape-font-specification:'Ubuntu Condensed, Normal';font-variant-ligatures:normal;font-variant-caps:normal;font-variant-numeric:normal;font-feature-settings:normal;text-align:start;writing-mode:lr-tb;text-anchor:start;fill:#d5fff6;stroke-width:0.3661603"
             id="path9112" />
          <path
             inkscape:connector-curvature="0"
             d="m -674.56521,441.51682 q 0.3808,-0.16111 0.80555,-0.24899 0.42474,-0.10253 0.92272,-0.10253 1.02525,0 1.66969,0.64445 0.64445,0.62979 0.64445,1.97726 v 5.09695 q -0.52728,0.14647 -1.08384,0.23435 -0.54192,0.0879 -1.06919,0.0879 -0.52727,0 -0.99595,-0.13182 -0.45404,-0.13182 -0.80556,-0.42475 -0.33686,-0.29293 -0.54191,-0.73232 -0.20505,-0.45404 -0.20505,-1.09848 0,-0.6005 0.17575,-1.0399 0.19041,-0.45403 0.51263,-0.74696 0.32222,-0.30758 0.76161,-0.45404 0.43939,-0.16111 0.95202,-0.16111 0.48333,0 1.06919,0.11717 v -0.70303 q 0,-0.84949 -0.33687,-1.18636 -0.32222,-0.33687 -0.93737,-0.33687 -0.33687,0 -0.64444,0.0732 -0.29293,0.0586 -0.6298,0.20505 z m 0.6005,5.28735 q 0,0.67374 0.35151,0.99596 0.35152,0.32222 0.99596,0.32222 0.39545,0 0.86414,-0.10252 v -2.44596 q -0.4394,-0.11717 -0.86414,-0.11717 -0.27828,0 -0.52727,0.0732 -0.24899,0.0586 -0.4394,0.21969 -0.17575,0.14647 -0.27828,0.4101 -0.10252,0.24899 -0.10252,0.64444 z"
             style="font-style:normal;font-variant:normal;font-weight:normal;font-stretch:normal;font-size:14.64641285px;font-family:'Ubuntu Condensed';-inkscape-font-specification:'Ubuntu Condensed, Normal';font-variant-ligatures:normal;font-variant-caps:normal;font-variant-numeric:normal;font-feature-settings:normal;text-align:start;writing-mode:lr-tb;text-anchor:start;fill:#d5fff6;stroke-width:0.3661603"
             id="path9114" />
          <path
             inkscape:connector-curvature="0"
             d="m -668.33179,441.5754 q 0.54191,-0.16111 1.17171,-0.26363 0.6298,-0.11717 1.15707,-0.11717 0.57121,0 1.03989,0.16111 0.46869,0.14646 0.79091,0.51262 0.33687,0.36616 0.51262,0.99596 0.19041,0.61515 0.19041,1.53787 v 4.64291 h -1.25959 v -4.54038 q 0,-1.14242 -0.29293,-1.66969 -0.29293,-0.52728 -1.09848,-0.52728 -0.42475,0 -0.95202,0.14647 v 6.59088 h -1.25959 z"
             style="font-style:normal;font-variant:normal;font-weight:normal;font-stretch:normal;font-size:14.64641285px;font-family:'Ubuntu Condensed';-inkscape-font-specification:'Ubuntu Condensed, Normal';font-variant-ligatures:normal;font-variant-caps:normal;font-variant-numeric:normal;font-feature-settings:normal;text-align:start;writing-mode:lr-tb;text-anchor:start;fill:#d5fff6;stroke-width:0.3661603"
             id="path9116" />
          <path
             inkscape:connector-curvature="0"
             d="m -657.95595,442.51277 q -0.42475,-0.23434 -0.90808,-0.23434 -0.36616,0 -0.64444,0.14647 -0.27828,0.14646 -0.48333,0.48333 -0.19041,0.33686 -0.29293,0.89343 -0.10253,0.55656 -0.10253,1.37676 0,1.58181 0.4101,2.2702 0.42475,0.67373 1.27424,0.67373 0.16111,0 0.35151,-0.0146 0.19041,-0.0293 0.39546,-0.0879 z m 0,-4.61362 1.25959,-0.21969 v 11.16056 q -0.4101,0.17576 -0.93737,0.27829 -0.52727,0.11717 -1.06919,0.11717 -1.58181,0 -2.29949,-1.0106 -0.70302,-1.01061 -0.70302,-3.04646 0,-0.92272 0.14646,-1.65504 0.16111,-0.74697 0.48333,-1.25959 0.33687,-0.52728 0.84949,-0.80556 0.51263,-0.29293 1.21566,-0.29293 0.33686,0 0.57121,0.0732 0.24898,0.0586 0.48333,0.17575 z"
             style="font-style:normal;font-variant:normal;font-weight:normal;font-stretch:normal;font-size:14.64641285px;font-family:'Ubuntu Condensed';-inkscape-font-specification:'Ubuntu Condensed, Normal';font-variant-ligatures:normal;font-variant-caps:normal;font-variant-numeric:normal;font-feature-settings:normal;text-align:start;writing-mode:lr-tb;text-anchor:start;fill:#d5fff6;stroke-width:0.3661603"
             id="path9118" />
          <path
             inkscape:connector-curvature="0"
             d="m -650.3968,441.35571 h 1.93332 v 1.08383 h -1.93332 v 4.23282 q 0,0.7909 0.27828,1.11312 0.29293,0.30758 0.77626,0.30758 0.24899,0 0.46868,-0.0732 0.23435,-0.0732 0.39546,-0.17576 l 0.24898,1.0106 q -0.6005,0.35152 -1.27423,0.35152 -1.08384,0 -1.62575,-0.60051 -0.52728,-0.61515 -0.52728,-2.0212 v -7.29392 l 1.2596,-0.21969 z"
             style="font-style:normal;font-variant:normal;font-weight:normal;font-stretch:normal;font-size:14.64641285px;font-family:'Ubuntu Condensed';-inkscape-font-specification:'Ubuntu Condensed, Normal';font-variant-ligatures:normal;font-variant-caps:normal;font-variant-numeric:normal;font-feature-settings:normal;text-align:start;writing-mode:lr-tb;text-anchor:start;fill:#d5fff6;stroke-width:0.3661603"
             id="path9120" />
          <path
             inkscape:connector-curvature="0"
             d="m -646.87709,449.04507 v -11.14592 l 1.25959,-0.21969 v 3.72019 q 0.27829,-0.0879 0.60051,-0.14647 0.33686,-0.0586 0.67373,-0.0586 0.48333,0 0.90808,0.16111 0.42474,0.14646 0.73232,0.51262 0.32222,0.36616 0.49798,0.99596 0.1904,0.61515 0.1904,1.53787 v 4.64291 h -1.25959 v -4.54038 q 0,-1.14242 -0.29293,-1.66969 -0.29293,-0.52728 -1.09848,-0.52728 -0.42475,0 -0.95202,0.14647 v 6.59088 z"
             style="font-style:normal;font-variant:normal;font-weight:normal;font-stretch:normal;font-size:14.64641285px;font-family:'Ubuntu Condensed';-inkscape-font-specification:'Ubuntu Condensed, Normal';font-variant-ligatures:normal;font-variant-caps:normal;font-variant-numeric:normal;font-feature-settings:normal;text-align:start;writing-mode:lr-tb;text-anchor:start;fill:#d5fff6;stroke-width:0.3661603"
             id="path9122" />
          <path
             inkscape:connector-curvature="0"
             d="m -638.9472,445.57387 q 0.0146,0.55657 0.10253,1.02525 0.0879,0.45404 0.27828,0.80556 0.20505,0.33686 0.52727,0.52727 0.33687,0.1904 0.84949,0.1904 0.42475,0 0.77626,-0.11717 0.36616,-0.13182 0.52727,-0.2197 l 0.23434,1.01061 q -0.1904,0.13181 -0.64444,0.27828 -0.43939,0.16111 -1.05454,0.16111 -0.80555,0 -1.36212,-0.29293 -0.54191,-0.29293 -0.89343,-0.8202 -0.33687,-0.52727 -0.48333,-1.25959 -0.14646,-0.73232 -0.14646,-1.61111 0,-2.12373 0.70302,-3.10504 0.70303,-0.98131 1.8601,-0.98131 1.30353,0 1.84545,0.98131 0.54191,0.98131 0.54191,2.75353 0,0.16111 0,0.33687 0,0.16111 -0.0146,0.33686 z m 1.27424,-3.33938 q -0.6298,0 -0.92273,0.6298 -0.27828,0.62979 -0.33686,1.68434 h 2.32878 q 0,-1.06919 -0.2197,-1.68434 -0.2197,-0.6298 -0.84949,-0.6298 z"
             style="font-style:normal;font-variant:normal;font-weight:normal;font-stretch:normal;font-size:14.64641285px;font-family:'Ubuntu Condensed';-inkscape-font-specification:'Ubuntu Condensed, Normal';font-variant-ligatures:normal;font-variant-caps:normal;font-variant-numeric:normal;font-feature-settings:normal;text-align:start;writing-mode:lr-tb;text-anchor:start;fill:#d5fff6;stroke-width:0.3661603"
             id="path9124" />
          <path
             inkscape:connector-curvature="0"
             d="m -629.70737,445.57387 q 0.0146,0.55657 0.10253,1.02525 0.0879,0.45404 0.27828,0.80556 0.20505,0.33686 0.52727,0.52727 0.33687,0.1904 0.84949,0.1904 0.42475,0 0.77626,-0.11717 0.36616,-0.13182 0.52727,-0.2197 l 0.23434,1.01061 q -0.1904,0.13181 -0.64444,0.27828 -0.43939,0.16111 -1.05454,0.16111 -0.80555,0 -1.36212,-0.29293 -0.54191,-0.29293 -0.89343,-0.8202 -0.33687,-0.52727 -0.48333,-1.25959 -0.14646,-0.73232 -0.14646,-1.61111 0,-2.12373 0.70302,-3.10504 0.70303,-0.98131 1.8601,-0.98131 1.30353,0 1.84545,0.98131 0.54191,0.98131 0.54191,2.75353 0,0.16111 0,0.33687 0,0.16111 -0.0146,0.33686 z m 1.27424,-3.33938 q -0.6298,0 -0.92273,0.6298 -0.27828,0.62979 -0.33686,1.68434 h 2.32878 q 0,-1.06919 -0.2197,-1.68434 -0.2197,-0.6298 -0.84949,-0.6298 z"
             style="font-style:normal;font-variant:normal;font-weight:normal;font-stretch:normal;font-size:14.64641285px;font-family:'Ubuntu Condensed';-inkscape-font-specification:'Ubuntu Condensed, Normal';font-variant-ligatures:normal;font-variant-caps:normal;font-variant-numeric:normal;font-feature-settings:normal;text-align:start;writing-mode:lr-tb;text-anchor:start;fill:#d5fff6;stroke-width:0.3661603"
             id="path9126" />
          <path
             inkscape:connector-curvature="0"
             d="m -624.19231,441.5754 q 0.51262,-0.16111 1.11313,-0.26363 0.6005,-0.11717 1.09848,-0.11717 0.51262,0 0.92272,0.13181 0.42475,0.13182 0.74697,0.4394 0.3808,-0.24899 0.8202,-0.4101 0.43939,-0.16111 0.96666,-0.16111 0.52727,0 0.95202,0.16111 0.43939,0.14646 0.74696,0.51262 0.30758,0.36616 0.48334,0.99596 0.17575,0.61515 0.17575,1.53787 v 4.64291 h -1.25959 v -4.54038 q 0,-1.14242 -0.26363,-1.66969 -0.26364,-0.52728 -0.99596,-0.52728 -0.27828,0 -0.57121,0.10253 -0.27828,0.10252 -0.52727,0.27828 0.11717,0.33687 0.17576,0.76161 0.0586,0.42475 0.0586,0.95202 v 4.64291 h -1.25959 v -4.54038 q 0,-1.14242 -0.26364,-1.66969 -0.26363,-0.52728 -0.99595,-0.52728 -0.38081,0 -0.86414,0.14647 v 6.59088 h -1.25959 z"
             style="font-style:normal;font-variant:normal;font-weight:normal;font-stretch:normal;font-size:14.64641285px;font-family:'Ubuntu Condensed';-inkscape-font-specification:'Ubuntu Condensed, Normal';font-variant-ligatures:normal;font-variant-caps:normal;font-variant-numeric:normal;font-feature-settings:normal;text-align:start;writing-mode:lr-tb;text-anchor:start;fill:#d5fff6;stroke-width:0.3661603"
             id="path9128" />
          <path
             inkscape:connector-curvature="0"
             d="m -612.73492,447.88801 q 0.42475,0.23434 0.90808,0.23434 0.36616,0 0.64444,-0.14646 0.27828,-0.14647 0.46869,-0.48334 0.20505,-0.33686 0.30757,-0.89343 0.10253,-0.55656 0.10253,-1.37676 0,-1.58181 -0.4101,-2.25555 -0.39546,-0.68838 -1.27424,-0.68838 -0.16111,0 -0.35152,0.0293 -0.1904,0.0146 -0.39545,0.0732 z m 0,3.86665 h -1.25959 v -10.1939 q 0.4101,-0.17576 0.92272,-0.27828 0.52727,-0.11718 1.06919,-0.11718 0.80555,0 1.37676,0.27829 0.58586,0.27828 0.93738,0.80555 0.36616,0.51262 0.52727,1.27424 0.17575,0.74696 0.17575,1.71363 0,1.94797 -0.62979,2.97322 -0.61515,1.02525 -2.02121,1.02525 -0.33687,0 -0.6005,-0.0732 -0.26364,-0.0586 -0.49798,-0.17576 z"
             style="font-style:normal;font-variant:normal;font-weight:normal;font-stretch:normal;font-size:14.64641285px;font-family:'Ubuntu Condensed';-inkscape-font-specification:'Ubuntu Condensed, Normal';font-variant-ligatures:normal;font-variant-caps:normal;font-variant-numeric:normal;font-feature-settings:normal;text-align:start;writing-mode:lr-tb;text-anchor:start;fill:#d5fff6;stroke-width:0.3661603"
             id="path9130" />
          <path
             inkscape:connector-curvature="0"
             d="m -606.27883,445.57387 q 0.0146,0.55657 0.10253,1.02525 0.0879,0.45404 0.27828,0.80556 0.20505,0.33686 0.52727,0.52727 0.33687,0.1904 0.84949,0.1904 0.42475,0 0.77626,-0.11717 0.36616,-0.13182 0.52727,-0.2197 l 0.23435,1.01061 q -0.19041,0.13181 -0.64445,0.27828 -0.43939,0.16111 -1.05454,0.16111 -0.80555,0 -1.36211,-0.29293 -0.54192,-0.29293 -0.89344,-0.8202 -0.33686,-0.52727 -0.48333,-1.25959 -0.14646,-0.73232 -0.14646,-1.61111 0,-2.12373 0.70303,-3.10504 0.70302,-0.98131 1.86009,-0.98131 1.30353,0 1.84545,0.98131 0.54192,0.98131 0.54192,2.75353 0,0.16111 0,0.33687 0,0.16111 -0.0147,0.33686 z m 1.27424,-3.33938 q -0.62979,0 -0.92272,0.6298 -0.27828,0.62979 -0.33687,1.68434 h 2.32878 q 0,-1.06919 -0.2197,-1.68434 -0.21969,-0.6298 -0.84949,-0.6298 z"
             style="font-style:normal;font-variant:normal;font-weight:normal;font-stretch:normal;font-size:14.64641285px;font-family:'Ubuntu Condensed';-inkscape-font-specification:'Ubuntu Condensed, Normal';font-variant-ligatures:normal;font-variant-caps:normal;font-variant-numeric:normal;font-feature-settings:normal;text-align:start;writing-mode:lr-tb;text-anchor:start;fill:#d5fff6;stroke-width:0.3661603"
             id="path9132" />
          <path
             inkscape:connector-curvature="0"
             d="m -597.43903,442.49813 q -0.46869,-0.20505 -1.05454,-0.20505 -0.54192,0 -1.01061,0.1904 v 6.56159 h -1.25959 v -7.35249 q 0.42475,-0.20505 0.96666,-0.33687 0.55657,-0.14647 1.21566,-0.14647 0.35151,0 0.70302,0.0439 0.35152,0.0439 0.65909,0.16111 z"
             style="font-style:normal;font-variant:normal;font-weight:normal;font-stretch:normal;font-size:14.64641285px;font-family:'Ubuntu Condensed';-inkscape-font-specification:'Ubuntu Condensed, Normal';font-variant-ligatures:normal;font-variant-caps:normal;font-variant-numeric:normal;font-feature-settings:normal;text-align:start;writing-mode:lr-tb;text-anchor:start;fill:#d5fff6;stroke-width:0.3661603"
             id="path9134" />
          <path
             inkscape:connector-curvature="0"
             d="m -591.1651,445.20771 q 0,0.90808 -0.16111,1.65505 -0.16111,0.73232 -0.49798,1.25959 -0.32222,0.52727 -0.83485,0.8202 -0.49797,0.29293 -1.18635,0.29293 -0.68839,0 -1.20101,-0.29293 -0.51262,-0.29293 -0.84949,-0.8202 -0.32222,-0.52727 -0.48333,-1.25959 -0.16111,-0.74697 -0.16111,-1.65505 0,-0.89343 0.16111,-1.64039 0.16111,-0.74697 0.48333,-1.27424 0.33687,-0.54192 0.84949,-0.83485 0.51262,-0.29293 1.20101,-0.29293 0.68838,0 1.18635,0.29293 0.51263,0.29293 0.83485,0.83485 0.33687,0.52727 0.49798,1.27424 0.16111,0.74696 0.16111,1.64039 z m -1.31818,0 q 0,-0.64444 -0.0732,-1.17171 -0.0732,-0.54192 -0.23434,-0.92272 -0.16111,-0.39546 -0.42475,-0.60051 -0.26363,-0.21969 -0.62979,-0.21969 -0.38081,0 -0.64445,0.21969 -0.24899,0.20505 -0.42474,0.60051 -0.16111,0.3808 -0.23435,0.92272 -0.0732,0.52727 -0.0732,1.17171 0,0.64445 0.0732,1.18636 0.0732,0.52727 0.23435,0.90808 0.17575,0.38081 0.42474,0.6005 0.26364,0.20505 0.64445,0.20505 0.36616,0 0.62979,-0.20505 0.26364,-0.21969 0.42475,-0.6005 0.16111,-0.38081 0.23434,-0.90808 0.0732,-0.54191 0.0732,-1.18636 z"
             style="font-style:normal;font-variant:normal;font-weight:normal;font-stretch:normal;font-size:14.64641285px;font-family:'Ubuntu Condensed';-inkscape-font-specification:'Ubuntu Condensed, Normal';font-variant-ligatures:normal;font-variant-caps:normal;font-variant-numeric:normal;font-feature-settings:normal;text-align:start;writing-mode:lr-tb;text-anchor:start;fill:#d5fff6;stroke-width:0.3661603"
             id="path9136" />
          <path
             inkscape:connector-curvature="0"
             d="m -585.99653,442.49813 q -0.46868,-0.20505 -1.05454,-0.20505 -0.54192,0 -1.0106,0.1904 v 6.56159 h -1.25959 v -7.35249 q 0.42474,-0.20505 0.96666,-0.33687 0.55656,-0.14647 1.21565,-0.14647 0.35152,0 0.70303,0.0439 0.35151,0.0439 0.65909,0.16111 z"
             style="font-style:normal;font-variant:normal;font-weight:normal;font-stretch:normal;font-size:14.64641285px;font-family:'Ubuntu Condensed';-inkscape-font-specification:'Ubuntu Condensed, Normal';font-variant-ligatures:normal;font-variant-caps:normal;font-variant-numeric:normal;font-feature-settings:normal;text-align:start;writing-mode:lr-tb;text-anchor:start;fill:#d5fff6;stroke-width:0.3661603"
             id="path9138" />
          <path
             inkscape:connector-curvature="0"
             d="m -580.39518,449.04507 h -1.2596 v -7.68936 h 1.2596 z m -0.6298,-9.05148 q -0.33687,0 -0.58586,-0.21969 -0.23434,-0.23435 -0.23434,-0.61515 0,-0.38081 0.23434,-0.60051 0.24899,-0.23434 0.58586,-0.23434 0.33687,0 0.57121,0.23434 0.24899,0.2197 0.24899,0.60051 0,0.3808 -0.24899,0.61515 -0.23434,0.21969 -0.57121,0.21969 z"
             style="font-style:normal;font-variant:normal;font-weight:normal;font-stretch:normal;font-size:14.64641285px;font-family:'Ubuntu Condensed';-inkscape-font-specification:'Ubuntu Condensed, Normal';font-variant-ligatures:normal;font-variant-caps:normal;font-variant-numeric:normal;font-feature-settings:normal;text-align:start;writing-mode:lr-tb;text-anchor:start;fill:#d5fff6;stroke-width:0.3661603"
             id="path9140" />
          <path
             inkscape:connector-curvature="0"
             d="m -577.03841,448.15164 q 0.55657,0 0.83485,-0.30757 0.29293,-0.32222 0.29293,-0.83485 0,-0.32222 -0.11717,-0.54191 -0.11718,-0.23435 -0.30758,-0.4101 -0.1904,-0.17576 -0.43939,-0.30758 -0.24899,-0.14646 -0.49798,-0.30757 -0.24899,-0.14647 -0.48333,-0.33687 -0.23434,-0.20505 -0.42475,-0.45404 -0.17575,-0.26363 -0.29293,-0.58586 -0.10252,-0.33686 -0.10252,-0.77626 0,-0.95201 0.58586,-1.53787 0.6005,-0.58586 1.6111,-0.58586 0.42475,0 0.80555,0.11718 0.38081,0.10252 0.6298,0.23434 l -0.27828,1.0106 q -0.26364,-0.14646 -0.52727,-0.2197 -0.26364,-0.0732 -0.57121,-0.0732 -0.46869,0 -0.74697,0.27828 -0.27828,0.26364 -0.27828,0.77626 0,0.29293 0.10252,0.51263 0.10253,0.20505 0.26364,0.38081 0.17576,0.16111 0.38081,0.30757 0.21969,0.14646 0.45403,0.27828 0.27829,0.16111 0.54192,0.35152 0.27828,0.1904 0.48333,0.45403 0.2197,0.24899 0.35152,0.60051 0.13181,0.33687 0.13181,0.8202 0,1.0106 -0.6005,1.62575 -0.58585,0.61515 -1.72827,0.61515 -0.58586,0 -1.05455,-0.16111 -0.46868,-0.16111 -0.70302,-0.29293 l 0.26363,-1.0399 q 0.2197,0.11718 0.58586,0.26364 0.3808,0.14646 0.83484,0.14646 z"
             style="font-style:normal;font-variant:normal;font-weight:normal;font-stretch:normal;font-size:14.64641285px;font-family:'Ubuntu Condensed';-inkscape-font-specification:'Ubuntu Condensed, Normal';font-variant-ligatures:normal;font-variant-caps:normal;font-variant-numeric:normal;font-feature-settings:normal;text-align:start;writing-mode:lr-tb;text-anchor:start;fill:#d5fff6;stroke-width:0.3661603"
             id="path9142" />
          <path
             inkscape:connector-curvature="0"
             d="m -567.99998,437.67946 q 0.42475,0 0.74697,0.0879 0.32222,0.0879 0.52727,0.1904 l -0.26364,0.99596 q -0.20505,-0.10253 -0.42474,-0.14647 -0.2197,-0.0586 -0.46869,-0.0586 -0.33687,0 -0.55656,0.11717 -0.2197,0.11717 -0.33687,0.32222 -0.11717,0.20505 -0.16111,0.49798 -0.0439,0.27828 -0.0439,0.6005 v 1.06919 h 1.97727 v 1.08383 h -1.97727 v 6.60553 h -1.25959 v -8.75855 q 0,-1.24495 0.55656,-1.91868 0.55657,-0.68838 1.68434,-0.68838 z"
             style="font-style:normal;font-variant:normal;font-weight:normal;font-stretch:normal;font-size:14.64641285px;font-family:'Ubuntu Condensed';-inkscape-font-specification:'Ubuntu Condensed, Normal';font-variant-ligatures:normal;font-variant-caps:normal;font-variant-numeric:normal;font-feature-settings:normal;text-align:start;writing-mode:lr-tb;text-anchor:start;fill:#d5fff6;stroke-width:0.3661603"
             id="path9144" />
          <path
             inkscape:connector-curvature="0"
             d="m -565.63251,441.51682 q 0.3808,-0.16111 0.80555,-0.24899 0.42475,-0.10253 0.92272,-0.10253 1.02525,0 1.66969,0.64445 0.64445,0.62979 0.64445,1.97726 v 5.09695 q -0.52727,0.14647 -1.08384,0.23435 -0.54192,0.0879 -1.06919,0.0879 -0.52727,0 -0.99595,-0.13182 -0.45404,-0.13182 -0.80556,-0.42475 -0.33686,-0.29293 -0.54191,-0.73232 -0.20505,-0.45404 -0.20505,-1.09848 0,-0.6005 0.17575,-1.0399 0.19041,-0.45403 0.51263,-0.74696 0.32222,-0.30758 0.76161,-0.45404 0.4394,-0.16111 0.95202,-0.16111 0.48333,0 1.06919,0.11717 v -0.70303 q 0,-0.84949 -0.33687,-1.18636 -0.32222,-0.33687 -0.93737,-0.33687 -0.33687,0 -0.64444,0.0732 -0.29293,0.0586 -0.6298,0.20505 z m 0.6005,5.28735 q 0,0.67374 0.35151,0.99596 0.35152,0.32222 0.99596,0.32222 0.39545,0 0.86414,-0.10252 v -2.44596 q -0.43939,-0.11717 -0.86414,-0.11717 -0.27828,0 -0.52727,0.0732 -0.24899,0.0586 -0.43939,0.21969 -0.17576,0.14647 -0.27829,0.4101 -0.10252,0.24899 -0.10252,0.64444 z"
             style="font-style:normal;font-variant:normal;font-weight:normal;font-stretch:normal;font-size:14.64641285px;font-family:'Ubuntu Condensed';-inkscape-font-specification:'Ubuntu Condensed, Normal';font-variant-ligatures:normal;font-variant-caps:normal;font-variant-numeric:normal;font-feature-settings:normal;text-align:start;writing-mode:lr-tb;text-anchor:start;fill:#d5fff6;stroke-width:0.3661603"
             id="path9146" />
          <path
             inkscape:connector-curvature="0"
             d="m -556.07436,442.49813 q -0.46869,-0.20505 -1.05454,-0.20505 -0.54192,0 -1.01061,0.1904 v 6.56159 h -1.25959 v -7.35249 q 0.42475,-0.20505 0.96666,-0.33687 0.55657,-0.14647 1.21566,-0.14647 0.35151,0 0.70302,0.0439 0.35152,0.0439 0.65909,0.16111 z"
             style="font-style:normal;font-variant:normal;font-weight:normal;font-stretch:normal;font-size:14.64641285px;font-family:'Ubuntu Condensed';-inkscape-font-specification:'Ubuntu Condensed, Normal';font-variant-ligatures:normal;font-variant-caps:normal;font-variant-numeric:normal;font-feature-settings:normal;text-align:start;writing-mode:lr-tb;text-anchor:start;fill:#d5fff6;stroke-width:0.3661603"
             id="path9148" />
          <path
             inkscape:connector-curvature="0"
             d="m -551.61544,441.51682 q 0.38081,-0.16111 0.80555,-0.24899 0.42475,-0.10253 0.92273,-0.10253 1.02525,0 1.66969,0.64445 0.64444,0.62979 0.64444,1.97726 v 5.09695 q -0.52727,0.14647 -1.08383,0.23435 -0.54192,0.0879 -1.06919,0.0879 -0.52727,0 -0.99596,-0.13182 -0.45404,-0.13182 -0.80555,-0.42475 -0.33687,-0.29293 -0.54192,-0.73232 -0.20505,-0.45404 -0.20505,-1.09848 0,-0.6005 0.17576,-1.0399 0.1904,-0.45403 0.51262,-0.74696 0.32222,-0.30758 0.76162,-0.45404 0.43939,-0.16111 0.95201,-0.16111 0.48334,0 1.06919,0.11717 v -0.70303 q 0,-0.84949 -0.33687,-1.18636 -0.32222,-0.33687 -0.93737,-0.33687 -0.33686,0 -0.64444,0.0732 -0.29293,0.0586 -0.62979,0.20505 z m 0.6005,5.28735 q 0,0.67374 0.35152,0.99596 0.35151,0.32222 0.99595,0.32222 0.39546,0 0.86414,-0.10252 v -2.44596 q -0.43939,-0.11717 -0.86414,-0.11717 -0.27828,0 -0.52727,0.0732 -0.24899,0.0586 -0.43939,0.21969 -0.17576,0.14647 -0.27828,0.4101 -0.10253,0.24899 -0.10253,0.64444 z"
             style="font-style:normal;font-variant:normal;font-weight:normal;font-stretch:normal;font-size:14.64641285px;font-family:'Ubuntu Condensed';-inkscape-font-specification:'Ubuntu Condensed, Normal';font-variant-ligatures:normal;font-variant-caps:normal;font-variant-numeric:normal;font-feature-settings:normal;text-align:start;writing-mode:lr-tb;text-anchor:start;fill:#d5fff6;stroke-width:0.3661603"
             id="path9150" />
          <path
             inkscape:connector-curvature="0"
             d="m -543.44663,449.04507 h -1.27424 q -0.45404,-1.50858 -0.86414,-3.4712 -0.39545,-1.96261 -0.73232,-4.21816 h 1.24494 q 0.0586,0.62979 0.17576,1.47929 0.11717,0.83484 0.24899,1.72827 0.14646,0.87879 0.29293,1.71363 0.14646,0.8202 0.27828,1.40606 0.13182,-0.58586 0.29293,-1.43535 0.17575,-0.84949 0.33687,-1.74292 0.17575,-0.89343 0.32222,-1.72828 0.14646,-0.84949 0.23434,-1.4207 h 1.18636 q 0.0586,0.57121 0.17576,1.40605 0.13181,0.83485 0.26363,1.74293 0.14646,0.89343 0.29293,1.74292 0.14646,0.84949 0.26363,1.43535 0.13182,-0.58586 0.27829,-1.4207 0.14646,-0.83485 0.27828,-1.71363 0.14646,-0.87879 0.26363,-1.71363 0.11717,-0.8495 0.17576,-1.47929 h 1.20101 q -0.33687,2.25555 -0.74697,4.21816 -0.39545,1.96262 -0.84949,3.4712 h -1.2303 q -0.11717,-0.45403 -0.26364,-1.15706 -0.13181,-0.71768 -0.27828,-1.52323 -0.13182,-0.80555 -0.24899,-1.6111 -0.11717,-0.8202 -0.20505,-1.49394 -0.0879,0.67374 -0.23434,1.49394 -0.14646,0.80555 -0.30757,1.6111 -0.16112,0.80555 -0.32223,1.52323 -0.14646,0.70303 -0.24898,1.15706 z"
             style="font-style:normal;font-variant:normal;font-weight:normal;font-stretch:normal;font-size:14.64641285px;font-family:'Ubuntu Condensed';-inkscape-font-specification:'Ubuntu Condensed, Normal';font-variant-ligatures:normal;font-variant-caps:normal;font-variant-numeric:normal;font-feature-settings:normal;text-align:start;writing-mode:lr-tb;text-anchor:start;fill:#d5fff6;stroke-width:0.3661603"
             id="path9152" />
          <path
             inkscape:connector-curvature="0"
             d="m -537.11207,441.51682 q 0.38081,-0.16111 0.80556,-0.24899 0.42474,-0.10253 0.92272,-0.10253 1.02525,0 1.66969,0.64445 0.64444,0.62979 0.64444,1.97726 v 5.09695 q -0.52727,0.14647 -1.08383,0.23435 -0.54192,0.0879 -1.06919,0.0879 -0.52727,0 -0.99596,-0.13182 -0.45403,-0.13182 -0.80555,-0.42475 -0.33687,-0.29293 -0.54192,-0.73232 -0.20505,-0.45404 -0.20505,-1.09848 0,-0.6005 0.17576,-1.0399 0.1904,-0.45403 0.51263,-0.74696 0.32222,-0.30758 0.76161,-0.45404 0.43939,-0.16111 0.95202,-0.16111 0.48333,0 1.06918,0.11717 v -0.70303 q 0,-0.84949 -0.33686,-1.18636 -0.32222,-0.33687 -0.93737,-0.33687 -0.33687,0 -0.64445,0.0732 -0.29292,0.0586 -0.62979,0.20505 z m 0.60051,5.28735 q 0,0.67374 0.35151,0.99596 0.35151,0.32222 0.99596,0.32222 0.39545,0 0.86413,-0.10252 v -2.44596 q -0.43939,-0.11717 -0.86413,-0.11717 -0.27829,0 -0.52727,0.0732 -0.24899,0.0586 -0.4394,0.21969 -0.17575,0.14647 -0.27828,0.4101 -0.10252,0.24899 -0.10252,0.64444 z"
             style="font-style:normal;font-variant:normal;font-weight:normal;font-stretch:normal;font-size:14.64641285px;font-family:'Ubuntu Condensed';-inkscape-font-specification:'Ubuntu Condensed, Normal';font-variant-ligatures:normal;font-variant-caps:normal;font-variant-numeric:normal;font-feature-settings:normal;text-align:start;writing-mode:lr-tb;text-anchor:start;fill:#d5fff6;stroke-width:0.3661603"
             id="path9154" />
          <path
             inkscape:connector-curvature="0"
             d="m -529.24946,447.44862 q 0.42475,-1.46465 0.77626,-2.94393 0.35152,-1.47929 0.67374,-3.14898 h 1.24494 q -0.21969,1.06919 -0.48333,2.10908 -0.24899,1.0399 -0.52727,2.00656 -0.26363,0.96666 -0.54192,1.8308 -0.26363,0.84949 -0.49797,1.55252 -0.27829,0.8202 -0.54192,1.37676 -0.24899,0.57121 -0.55657,0.90808 -0.29292,0.35152 -0.64444,0.49798 -0.35151,0.16111 -0.83484,0.16111 -0.26364,0 -0.52727,-0.0732 -0.26364,-0.0586 -0.4394,-0.13182 l 0.23435,-1.02525 q 0.3808,0.16111 0.71767,0.16111 0.42475,0 0.68838,-0.30757 0.26364,-0.30758 0.51263,-0.92273 l 0.14646,-0.36616 q -0.27828,-0.76161 -0.57121,-1.68433 -0.27828,-0.93737 -0.55656,-1.94798 -0.26364,-1.0106 -0.51263,-2.06514 -0.24899,-1.06919 -0.45404,-2.07979 h 1.33283 q 0.11717,0.68838 0.27828,1.50858 0.16111,0.8202 0.33687,1.6404 0.1904,0.8202 0.3808,1.59646 0.19041,0.76161 0.36616,1.34747 z"
             style="font-style:normal;font-variant:normal;font-weight:normal;font-stretch:normal;font-size:14.64641285px;font-family:'Ubuntu Condensed';-inkscape-font-specification:'Ubuntu Condensed, Normal';font-variant-ligatures:normal;font-variant-caps:normal;font-variant-numeric:normal;font-feature-settings:normal;text-align:start;writing-mode:lr-tb;text-anchor:start;fill:#d5fff6;stroke-width:0.3661603"
             id="path9156" />
        </g>
        <g
           aria-label="備"
           style="font-style:normal;font-weight:normal;font-size:69.58322906px;line-height:1.25;font-family:sans-serif;letter-spacing:0px;word-spacing:0px;fill:#d5fff6;fill-opacity:1;stroke:none;stroke-width:1.73958063"
           id="text5733">
          <path
             inkscape:connector-curvature="0"
             d="m -448.71054,463.76512 q 1.18291,0.0696 1.39166,-0.34792 0.20875,-0.4175 0.20875,-2.57458 v -4.52291 h -11.68998 v 11.6204 h -5.00999 v -11.6204 h -11.48124 v 12.24665 h -5.07957 V 431.896 h 38.47952 v 29.22495 q 0,4.94041 -0.97416,6.05374 -0.97417,1.11334 -4.94041,1.11334 -2.43541,0 -6.54083,-0.20875 l -0.20874,-4.52291 q 4.5229,0.20875 5.84499,0.20875 z m -34.37412,-25.81538 q 0,17.18706 -6.26249,29.64245 l -3.75749,-4.10541 q 2.64416,-6.33207 3.75749,-12.73373 1.11333,-6.40165 1.04375,-16.07372 v -11.27249 h 48.36034 v 4.31416 h -43.1416 z m 32.49537,-26.02413 h 9.9504 v 4.45333 h -9.9504 v 5.42749 h -5.35791 v -5.42749 h -15.02998 v 5.42749 h -5.21874 v -5.42749 h -10.7854 v -4.45333 h 10.7854 v -5.98416 h 5.21874 v 5.98416 h 15.02998 v -5.98416 h 5.35791 z m -8.21082,30.26871 h 11.68998 v -6.12333 h -11.68998 z m -5.00999,0 v -6.12333 h -11.48124 v 6.12333 z m 5.00999,3.89666 v 6.33207 h 11.68998 v -6.33207 z m -5.00999,0 h -11.48124 v 6.33207 h 11.48124 z m -29.92079,-19.41372 v 42.3066 h -5.21875 v -32.3562 q -2.71374,5.00999 -5.00999,7.93249 l -2.01791,-6.12333 q 8.83707,-12.73373 12.80331,-31.86912 l 5.21875,0.90458 q -2.01792,10.57666 -5.77541,19.20498 z"
             style="fill:#d5fff6;stroke-width:1.73958063"
             id="path9159" />
        </g>
        <g
           aria-label="空"
           style="font-style:normal;font-weight:normal;font-size:77.71738434px;line-height:1.25;font-family:sans-serif;letter-spacing:0px;word-spacing:0px;fill:#d5fff6;fill-opacity:1;stroke:none;stroke-width:1.94293463"
           id="text5737">
          <path
             inkscape:connector-curvature="0"
             d="m -777.18974,406.69163 h 29.14402 v 13.21196 h -5.98424 v -8.16033 h -16.32065 v 15.38805 q 0,1.78749 0.46631,2.2538 0.4663,0.4663 2.7201,0.54402 1.3212,0.0777 3.96359,0.0777 2.64239,0 3.96359,-0.0777 3.65271,-0.0777 4.42989,-1.01033 0.77717,-0.9326 1.08804,-5.59565 l 5.82881,0.62174 q -0.54403,7.30544 -2.25381,8.85978 -1.70978,1.55435 -8.85978,1.86522 -3.26413,0.15544 -4.74076,0.15544 -1.63207,0 -4.74076,-0.15544 -4.97391,-0.15543 -6.37283,-1.08804 -1.39891,-0.93261 -1.39891,-4.19674 v -17.64185 h -8.00489 q -0.23315,9.24837 -7.15,15.93207 -6.91685,6.68369 -20.20652,9.94782 l -1.47663,-4.89619 q 22.84891,-5.75109 22.84891,-20.9837 h -16.32065 v 11.42446 h -5.98424 v -16.47609 h 29.14402 v -8.00489 h 6.21739 z m -36.06087,55.72337 h 29.68805 v -17.48641 h -22.92663 v -5.05163 h 52.07064 v 5.05163 h -22.92662 V 462.415 h 29.68804 v 5.12934 h -65.59348 z"
             style="fill:#d5fff6;stroke-width:1.94293463"
             id="path9162" />
        </g>
      </g>
    </g>
  </g>
</svg>
