<?xml version="1.0" encoding="UTF-8" standalone="no"?>
<!-- Created with Inkscape (http://www.inkscape.org/) -->

<svg
   xmlns:dc="http://purl.org/dc/elements/1.1/"
   xmlns:cc="http://creativecommons.org/ns#"
   xmlns:rdf="http://www.w3.org/1999/02/22-rdf-syntax-ns#"
   xmlns:svg="http://www.w3.org/2000/svg"
   xmlns="http://www.w3.org/2000/svg"
   xmlns:sodipodi="http://sodipodi.sourceforge.net/DTD/sodipodi-0.dtd"
   xmlns:inkscape="http://www.inkscape.org/namespaces/inkscape"
   width="74.346725mm"
   height="39.276417mm"
   viewBox="0 0 74.346725 39.276417"
   version="1.1"
   id="svg3566"
   inkscape:version="0.92.4 (5da689c313, 2019-01-14)"
   sodipodi:docname="tau.svg">
  <defs
     id="defs3560" />
  <sodipodi:namedview
     id="base"
     pagecolor="#ffffff"
     bordercolor="#666666"
     borderopacity="1.0"
     inkscape:pageopacity="0.0"
     inkscape:pageshadow="2"
     inkscape:zoom="0.35"
     inkscape:cx="-202.35939"
     inkscape:cy="-80.062568"
     inkscape:document-units="mm"
     inkscape:current-layer="layer1"
     showgrid="false"
     inkscape:window-width="1920"
     inkscape:window-height="1043"
     inkscape:window-x="0"
     inkscape:window-y="1098"
     inkscape:window-maximized="0" />
  <metadata
     id="metadata3563">
    <rdf:RDF>
      <cc:Work
         rdf:about="">
        <dc:format>image/svg+xml</dc:format>
        <dc:type
           rdf:resource="http://purl.org/dc/dcmitype/StillImage" />
        <dc:title></dc:title>
      </cc:Work>
    </rdf:RDF>
  </metadata>
  <g
     inkscape:label="Layer 1"
     inkscape:groupmode="layer"
     id="layer1"
     transform="translate(-11.207589,-88.373697)">
    <g
       id="g8880"
       transform="matrix(1.8001321,0,0,1.8001321,-4.1963493,-15.170446)">
      <path
         inkscape:connector-curvature="0"
         transform="matrix(0.62552526,0,0,0.39023132,12.578199,45.735376)"
         style="opacity:1;fill:#aaffee;fill-opacity:1;stroke:none;stroke-width:0.54284;stroke-linecap:round;stroke-linejoin:miter;stroke-miterlimit:4;stroke-dasharray:none;stroke-dashoffset:0;stroke-opacity:1"
         inkscape:transform-center-y="-3.3916675"
         d="M 57.503969,83.808798 26.552828,84.295603 -4.3983138,83.808798 10.655671,56.760921 26.552828,30.199848 42.449984,56.76092 Z"
         id="path8871" />
      <g
         aria-label="ΤλΨ"
         transform="scale(1.0246532,0.97593996)"
         style="font-style:normal;font-variant:normal;font-weight:bold;font-stretch:normal;font-size:19.15284348px;line-height:1.25;font-family:'Linux Biolinum Keyboard O';-inkscape-font-specification:'Linux Biolinum Keyboard O, Bold';font-variant-ligatures:normal;font-variant-caps:normal;font-variant-numeric:normal;font-feature-settings:normal;text-align:start;letter-spacing:0px;word-spacing:0px;writing-mode:lr-tb;text-anchor:start;fill:#22002b;fill-opacity:1;stroke:none;stroke-width:0.47881874"
         id="text8865">
        <path
           inkscape:connector-curvature="0"
           d="M 8.3512312,61.413723 H 21.219548 v 2.721425 H 16.590321 V 75.376221 H 12.98981 V 64.135148 H 8.3512312 Z"
           style="font-style:normal;font-variant:normal;font-weight:bold;font-stretch:normal;font-size:19.15284348px;font-family:'Linux Biolinum Keyboard O';-inkscape-font-specification:'Linux Biolinum Keyboard O, Bold';font-variant-ligatures:normal;font-variant-caps:normal;font-variant-numeric:normal;font-feature-settings:normal;text-align:start;writing-mode:lr-tb;text-anchor:start;fill:#22002b;stroke-width:0.47881874"
           id="path9811" />
        <path
           inkscape:connector-curvature="0"
           d="M 25.932943,65.837207 25.35312,64.266075 Q 25.091265,63.545973 24.73589,63.284118 24.389867,63.022263 23.510781,63.022263 H 22.46336 v -2.197714 h 1.935859 q 1.702059,0 2.618553,0.720102 0.925845,0.720102 1.56178,2.422161 l 4.283204,11.409409 h -3.348007 l -2.08549,-5.498961 -2.197714,5.498961 h -3.348007 z"
           style="font-style:normal;font-variant:normal;font-weight:bold;font-stretch:normal;font-size:19.15284348px;font-family:'Linux Biolinum Keyboard O';-inkscape-font-specification:'Linux Biolinum Keyboard O, Bold';font-variant-ligatures:normal;font-variant-caps:normal;font-variant-numeric:normal;font-feature-settings:normal;text-align:start;writing-mode:lr-tb;text-anchor:start;fill:#22002b;stroke-width:0.47881874"
           id="path9813" />
        <path
           inkscape:connector-curvature="0"
           d="m 39.783216,75.376221 v -2.899112 q -1.720763,0 -3.497638,-1.945211 -1.776875,-1.954563 -1.776875,-5.293217 v -3.824958 h 3.591158 v 3.273191 q 0,2.281882 0.402135,3.03004 0.776214,1.412148 1.28122,1.412148 v -7.715379 h 3.591158 v 7.715379 q 0.514359,0 1.281221,-1.412148 0.411487,-0.748158 0.411487,-3.03004 v -3.273191 h 3.591158 v 3.824958 q 0,3.310598 -1.767523,5.274513 -1.758171,1.963915 -3.516343,1.963915 v 2.899112 z"
           style="font-style:normal;font-variant:normal;font-weight:bold;font-stretch:normal;font-size:19.15284348px;font-family:'Linux Biolinum Keyboard O';-inkscape-font-specification:'Linux Biolinum Keyboard O, Bold';font-variant-ligatures:normal;font-variant-caps:normal;font-variant-numeric:normal;font-feature-settings:normal;text-align:start;writing-mode:lr-tb;text-anchor:start;fill:#22002b;stroke-width:0.47881874"
           id="path9815" />
      </g>
      <g
         aria-label="spacebros"
         style="font-style:normal;font-variant:normal;font-weight:normal;font-stretch:normal;font-size:5.11536264px;line-height:1.25;font-family:Ubuntu;-inkscape-font-specification:'Ubuntu, Normal';font-variant-ligatures:normal;font-variant-caps:normal;font-variant-numeric:normal;font-feature-settings:normal;text-align:start;letter-spacing:0px;word-spacing:0px;writing-mode:lr-tb;text-anchor:start;fill:#22002b;fill-opacity:1;stroke:none;stroke-width:0.12788638"
         id="text8869">
        <path
           inkscape:connector-curvature="0"
           d="m 18.827249,78.049856 q 0.291575,0 0.42969,-0.07673 0.14323,-0.07673 0.14323,-0.245537 0,-0.173923 -0.138114,-0.27623 -0.138115,-0.102307 -0.455268,-0.230191 -0.153461,-0.06139 -0.296691,-0.122769 -0.138115,-0.0665 -0.240422,-0.153461 -0.102307,-0.08696 -0.163691,-0.20973 -0.06138,-0.122768 -0.06138,-0.301806 0,-0.35296 0.260884,-0.557575 0.260883,-0.20973 0.711035,-0.20973 0.112538,0 0.225076,0.01535 0.112538,0.01023 0.20973,0.03069 0.09719,0.01535 0.168807,0.03581 0.07673,0.02046 0.117653,0.03581 l -0.08696,0.409229 q -0.07673,-0.04092 -0.240422,-0.08185 -0.163692,-0.04604 -0.393883,-0.04604 -0.199499,0 -0.347845,0.08185 -0.148345,0.07673 -0.148345,0.245537 0,0.08696 0.03069,0.153461 0.03581,0.0665 0.102307,0.122769 0.07162,0.05115 0.173923,0.09719 0.102307,0.04604 0.245537,0.09719 0.189269,0.07162 0.337614,0.14323 0.148346,0.0665 0.250653,0.158577 0.107422,0.09208 0.163691,0.225076 0.05627,0.127884 0.05627,0.317152 0,0.368306 -0.276229,0.557575 -0.271114,0.189268 -0.777535,0.189268 -0.35296,0 -0.552459,-0.06138 -0.1995,-0.05627 -0.271115,-0.08696 l 0.08696,-0.409229 q 0.08185,0.03069 0.260884,0.09208 0.179038,0.06138 0.475729,0.06138 z"
           style="font-style:normal;font-variant:normal;font-weight:normal;font-stretch:normal;font-size:5.11536264px;font-family:Ubuntu;-inkscape-font-specification:'Ubuntu, Normal';font-variant-ligatures:normal;font-variant-caps:normal;font-variant-numeric:normal;font-feature-settings:normal;text-align:start;writing-mode:lr-tb;text-anchor:start;fill:#22002b;stroke-width:0.12788638"
           id="path9818" />
        <path
           inkscape:connector-curvature="0"
           d="m 22.332871,77.067707 q 0,-0.465498 -0.230192,-0.716151 -0.230191,-0.250653 -0.613843,-0.250653 -0.214845,0 -0.337614,0.01535 -0.117653,0.01535 -0.189268,0.03581 v 1.677839 q 0.08696,0.07161 0.250652,0.138115 0.163692,0.0665 0.358076,0.0665 0.204614,0 0.347844,-0.07161 0.148346,-0.07673 0.240422,-0.204614 0.09208,-0.133 0.133,-0.306922 0.04092,-0.179038 0.04092,-0.383652 z m 0.49619,0 q 0,0.301806 -0.08185,0.557574 -0.07673,0.255768 -0.230191,0.439922 -0.153461,0.184153 -0.378537,0.28646 -0.219961,0.102307 -0.506421,0.102307 -0.230191,0 -0.409229,-0.06138 -0.173922,-0.06139 -0.260883,-0.117654 v 1.063996 h -0.475729 v -3.524485 q 0.168807,-0.04092 0.41946,-0.08696 0.255768,-0.05115 0.588266,-0.05115 0.306922,0 0.552459,0.09719 0.245538,0.09719 0.41946,0.27623 0.173923,0.179037 0.265999,0.439921 0.09719,0.255768 0.09719,0.578036 z"
           style="font-style:normal;font-variant:normal;font-weight:normal;font-stretch:normal;font-size:5.11536264px;font-family:Ubuntu;-inkscape-font-specification:'Ubuntu, Normal';font-variant-ligatures:normal;font-variant-caps:normal;font-variant-numeric:normal;font-feature-settings:normal;text-align:start;writing-mode:lr-tb;text-anchor:start;fill:#22002b;stroke-width:0.12788638"
           id="path9820" />
        <path
           inkscape:connector-curvature="0"
           d="m 24.403793,78.049856 q 0.168807,0 0.296691,-0.0051 0.133,-0.01023 0.219961,-0.03069 v -0.792881 q -0.05115,-0.02558 -0.168807,-0.04092 -0.112538,-0.02046 -0.27623,-0.02046 -0.107422,0 -0.230191,0.01535 -0.117654,0.01535 -0.219961,0.0665 -0.09719,0.04604 -0.163691,0.133 -0.0665,0.08185 -0.0665,0.21996 0,0.255768 0.163692,0.358076 0.163691,0.09719 0.445036,0.09719 z m -0.04092,-2.383759 q 0.28646,0 0.480844,0.07673 0.199499,0.07161 0.317153,0.20973 0.122768,0.132999 0.173922,0.322268 0.05115,0.184153 0.05115,0.409229 v 1.662492 q -0.06139,0.01023 -0.173923,0.03069 -0.107422,0.01535 -0.245537,0.03069 -0.138115,0.01535 -0.301806,0.02558 -0.158577,0.01535 -0.317153,0.01535 -0.225076,0 -0.414344,-0.04604 -0.189269,-0.04604 -0.327384,-0.14323 -0.138114,-0.102307 -0.214845,-0.265999 -0.07673,-0.163691 -0.07673,-0.393882 0,-0.219961 0.08696,-0.378537 0.09208,-0.158577 0.245537,-0.255768 0.153461,-0.09719 0.358076,-0.143231 0.204614,-0.04604 0.42969,-0.04604 0.07162,0 0.148346,0.01023 0.07673,0.0051 0.14323,0.02046 0.07161,0.01023 0.122769,0.02046 0.05115,0.01023 0.07162,0.01535 v -0.133 q 0,-0.117653 -0.02558,-0.230191 -0.02558,-0.117653 -0.09208,-0.204614 -0.0665,-0.09208 -0.184153,-0.143231 -0.112538,-0.05627 -0.296691,-0.05627 -0.235306,0 -0.414344,0.03581 -0.173922,0.03069 -0.260884,0.0665 l -0.05627,-0.393883 q 0.09208,-0.04092 0.306922,-0.07673 0.214845,-0.04092 0.465498,-0.04092 z"
           style="font-style:normal;font-variant:normal;font-weight:normal;font-stretch:normal;font-size:5.11536264px;font-family:Ubuntu;-inkscape-font-specification:'Ubuntu, Normal';font-variant-ligatures:normal;font-variant-caps:normal;font-variant-numeric:normal;font-feature-settings:normal;text-align:start;writing-mode:lr-tb;text-anchor:start;fill:#22002b;stroke-width:0.12788638"
           id="path9822" />
        <path
           inkscape:connector-curvature="0"
           d="m 27.327143,78.45397 q -0.322268,0 -0.567805,-0.102307 -0.240422,-0.102307 -0.409229,-0.28646 -0.163692,-0.184154 -0.245537,-0.434806 -0.08185,-0.255768 -0.08185,-0.56269 0,-0.306922 0.08696,-0.56269 0.09208,-0.255768 0.255768,-0.439921 0.163692,-0.189269 0.398998,-0.291576 0.240422,-0.107423 0.531998,-0.107423 0.179038,0 0.358075,0.03069 0.179038,0.03069 0.34273,0.09719 l -0.107423,0.404113 q -0.107423,-0.05115 -0.250653,-0.08185 -0.138114,-0.03069 -0.296691,-0.03069 -0.398998,0 -0.613843,0.250653 -0.20973,0.250653 -0.20973,0.731497 0,0.214845 0.04604,0.393883 0.05115,0.179037 0.153461,0.306922 0.107423,0.127884 0.271114,0.199499 0.163692,0.0665 0.398999,0.0665 0.189268,0 0.342729,-0.03581 0.153461,-0.03581 0.240422,-0.07673 l 0.0665,0.398999 q -0.04092,0.02558 -0.117654,0.05115 -0.07673,0.02046 -0.173922,0.03581 -0.09719,0.02046 -0.20973,0.03069 -0.107423,0.01535 -0.20973,0.01535 z"
           style="font-style:normal;font-variant:normal;font-weight:normal;font-stretch:normal;font-size:5.11536264px;font-family:Ubuntu;-inkscape-font-specification:'Ubuntu, Normal';font-variant-ligatures:normal;font-variant-caps:normal;font-variant-numeric:normal;font-feature-settings:normal;text-align:start;writing-mode:lr-tb;text-anchor:start;fill:#22002b;stroke-width:0.12788638"
           id="path9824" />
        <path
           inkscape:connector-curvature="0"
           d="m 28.40057,77.067707 q 0,-0.35296 0.102307,-0.613844 0.102308,-0.265999 0.271115,-0.439921 0.168807,-0.173922 0.388767,-0.260883 0.219961,-0.08696 0.450152,-0.08696 0.537113,0 0.823573,0.337614 0.286461,0.332499 0.286461,1.017958 0,0.03069 0,0.08185 0,0.04604 -0.0051,0.08696 H 28.89676 q 0.03069,0.414344 0.240422,0.629189 0.20973,0.214845 0.654767,0.214845 0.250652,0 0.419459,-0.04092 0.173923,-0.04604 0.260884,-0.08696 l 0.0665,0.398999 q -0.08696,0.04604 -0.306922,0.09719 -0.214845,0.05115 -0.491075,0.05115 -0.347845,0 -0.603613,-0.102307 -0.250652,-0.107423 -0.414344,-0.291576 -0.163692,-0.184153 -0.245537,-0.434806 -0.07673,-0.255768 -0.07673,-0.557574 z m 1.826185,-0.260884 q 0.0051,-0.322268 -0.163692,-0.526882 -0.163692,-0.20973 -0.455267,-0.20973 -0.163692,0 -0.291576,0.0665 -0.122769,0.06138 -0.20973,0.163691 -0.08696,0.102308 -0.138115,0.235307 -0.04604,0.133 -0.06138,0.271114 z"
           style="font-style:normal;font-variant:normal;font-weight:normal;font-stretch:normal;font-size:5.11536264px;font-family:Ubuntu;-inkscape-font-specification:'Ubuntu, Normal';font-variant-ligatures:normal;font-variant-caps:normal;font-variant-numeric:normal;font-feature-settings:normal;text-align:start;writing-mode:lr-tb;text-anchor:start;fill:#22002b;stroke-width:0.12788638"
           id="path9826" />
        <path
           inkscape:connector-curvature="0"
           d="m 31.882054,75.850251 q 0.08696,-0.05627 0.260883,-0.117654 0.179038,-0.06138 0.409229,-0.06138 0.286461,0 0.506421,0.102307 0.225076,0.102307 0.378537,0.28646 0.153461,0.184153 0.230191,0.439922 0.08185,0.255768 0.08185,0.562689 0,0.322268 -0.09719,0.583152 -0.09208,0.255768 -0.265999,0.434806 -0.173922,0.179037 -0.419459,0.276229 -0.245538,0.09719 -0.552459,0.09719 -0.332499,0 -0.588267,-0.04604 -0.255768,-0.04604 -0.41946,-0.09208 V 74.50491 l 0.475729,-0.08185 z m 0,2.12799 q 0.07162,0.02046 0.199499,0.04092 0.132999,0.01535 0.327383,0.01535 0.383652,0 0.613844,-0.250652 0.230191,-0.255769 0.230191,-0.721267 0,-0.204614 -0.04092,-0.383652 -0.04092,-0.179037 -0.132999,-0.306921 -0.09208,-0.133 -0.240422,-0.204615 -0.143231,-0.07673 -0.347845,-0.07673 -0.194384,0 -0.358075,0.0665 -0.163692,0.0665 -0.250653,0.138115 z"
           style="font-style:normal;font-variant:normal;font-weight:normal;font-stretch:normal;font-size:5.11536264px;font-family:Ubuntu;-inkscape-font-specification:'Ubuntu, Normal';font-variant-ligatures:normal;font-variant-caps:normal;font-variant-numeric:normal;font-feature-settings:normal;text-align:start;writing-mode:lr-tb;text-anchor:start;fill:#22002b;stroke-width:0.12788638"
           id="path9828" />
        <path
           inkscape:connector-curvature="0"
           d="m 35.405739,75.676328 q 0.06138,0 0.138115,0.01023 0.08185,0.0051 0.158576,0.02046 0.07673,0.01023 0.138115,0.02558 0.0665,0.01023 0.09719,0.02046 l -0.08185,0.414344 q -0.05627,-0.02046 -0.189268,-0.04604 -0.127885,-0.03069 -0.332499,-0.03069 -0.132999,0 -0.265999,0.03069 -0.127884,0.02558 -0.168807,0.03581 v 2.235414 h -0.475729 v -2.547451 q 0.168807,-0.06138 0.41946,-0.112538 0.250653,-0.05627 0.56269,-0.05627 z"
           style="font-style:normal;font-variant:normal;font-weight:normal;font-stretch:normal;font-size:5.11536264px;font-family:Ubuntu;-inkscape-font-specification:'Ubuntu, Normal';font-variant-ligatures:normal;font-variant-caps:normal;font-variant-numeric:normal;font-feature-settings:normal;text-align:start;writing-mode:lr-tb;text-anchor:start;fill:#22002b;stroke-width:0.12788638"
           id="path9830" />
        <path
           inkscape:connector-curvature="0"
           d="m 38.749748,77.062591 q 0,0.317153 -0.09208,0.572921 -0.09208,0.255768 -0.260883,0.439921 -0.163692,0.184153 -0.393883,0.286461 -0.230192,0.09719 -0.501306,0.09719 -0.271114,0 -0.501305,-0.09719 -0.230192,-0.102308 -0.398999,-0.286461 -0.163691,-0.184153 -0.255768,-0.439921 -0.09208,-0.255768 -0.09208,-0.572921 0,-0.312037 0.09208,-0.567805 0.09208,-0.260883 0.255768,-0.445036 0.168807,-0.184153 0.398999,-0.281345 0.230191,-0.102308 0.501305,-0.102308 0.271114,0 0.501306,0.102308 0.230191,0.09719 0.393883,0.281345 0.168806,0.184153 0.260883,0.445036 0.09208,0.255768 0.09208,0.567805 z m -0.496191,0 q 0,-0.450151 -0.204614,-0.711035 -0.199499,-0.265999 -0.547344,-0.265999 -0.347845,0 -0.552459,0.265999 -0.199499,0.260884 -0.199499,0.711035 0,0.450152 0.199499,0.716151 0.204614,0.260884 0.552459,0.260884 0.347845,0 0.547344,-0.260884 0.204614,-0.265999 0.204614,-0.716151 z"
           style="font-style:normal;font-variant:normal;font-weight:normal;font-stretch:normal;font-size:5.11536264px;font-family:Ubuntu;-inkscape-font-specification:'Ubuntu, Normal';font-variant-ligatures:normal;font-variant-caps:normal;font-variant-numeric:normal;font-feature-settings:normal;text-align:start;writing-mode:lr-tb;text-anchor:start;fill:#22002b;stroke-width:0.12788638"
           id="path9832" />
        <path
           inkscape:connector-curvature="0"
           d="m 40.03802,78.049856 q 0.291576,0 0.429691,-0.07673 0.14323,-0.07673 0.14323,-0.245537 0,-0.173923 -0.138115,-0.27623 -0.138115,-0.102307 -0.455267,-0.230191 -0.153461,-0.06139 -0.296691,-0.122769 -0.138115,-0.0665 -0.240422,-0.153461 -0.102308,-0.08696 -0.163692,-0.20973 -0.06138,-0.122768 -0.06138,-0.301806 0,-0.35296 0.260883,-0.557575 0.260884,-0.20973 0.711036,-0.20973 0.112538,0 0.225076,0.01535 0.112538,0.01023 0.20973,0.03069 0.09719,0.01535 0.168806,0.03581 0.07673,0.02046 0.117654,0.03581 l -0.08696,0.409229 q -0.07673,-0.04092 -0.240422,-0.08185 -0.163692,-0.04604 -0.393883,-0.04604 -0.199499,0 -0.347845,0.08185 -0.148345,0.07673 -0.148345,0.245537 0,0.08696 0.03069,0.153461 0.03581,0.0665 0.102307,0.122769 0.07162,0.05115 0.173922,0.09719 0.102308,0.04604 0.245538,0.09719 0.189268,0.07162 0.337614,0.14323 0.148345,0.0665 0.250652,0.158577 0.107423,0.09208 0.163692,0.225076 0.05627,0.127884 0.05627,0.317152 0,0.368306 -0.27623,0.557575 -0.271114,0.189268 -0.777535,0.189268 -0.35296,0 -0.552459,-0.06138 -0.199499,-0.05627 -0.271114,-0.08696 l 0.08696,-0.409229 q 0.08185,0.03069 0.260884,0.09208 0.179037,0.06138 0.475728,0.06138 z"
           style="font-style:normal;font-variant:normal;font-weight:normal;font-stretch:normal;font-size:5.11536264px;font-family:Ubuntu;-inkscape-font-specification:'Ubuntu, Normal';font-variant-ligatures:normal;font-variant-caps:normal;font-variant-numeric:normal;font-feature-settings:normal;text-align:start;writing-mode:lr-tb;text-anchor:start;fill:#22002b;stroke-width:0.12788638"
           id="path9834" />
      </g>
    </g>
  </g>
</svg>
