<?xml version="1.0" encoding="UTF-8" standalone="no"?>
<!-- Created with Inkscape (http://www.inkscape.org/) -->

<svg
   xmlns:dc="http://purl.org/dc/elements/1.1/"
   xmlns:cc="http://creativecommons.org/ns#"
   xmlns:rdf="http://www.w3.org/1999/02/22-rdf-syntax-ns#"
   xmlns:svg="http://www.w3.org/2000/svg"
   xmlns="http://www.w3.org/2000/svg"
   xmlns:sodipodi="http://sodipodi.sourceforge.net/DTD/sodipodi-0.dtd"
   xmlns:inkscape="http://www.inkscape.org/namespaces/inkscape"
   width="126.71084mm"
   height="17.49564mm"
   viewBox="0 0 126.71084 17.49564"
   version="1.1"
   id="svg8338"
   inkscape:version="0.92.4 (5da689c313, 2019-01-14)"
   sodipodi:docname="tepeshkovalaser.svg">
  <defs
     id="defs8332">
    <filter
       inkscape:collect="always"
       style="color-interpolation-filters:sRGB"
       id="filter1685"
       x="-0.0060882354"
       width="1.0121765"
       y="-0.414"
       height="1.8279999">
      <feGaussianBlur
         inkscape:collect="always"
         stdDeviation="1.4753278"
         id="feGaussianBlur1687" />
    </filter>
  </defs>
  <sodipodi:namedview
     id="base"
     pagecolor="#ffffff"
     bordercolor="#666666"
     borderopacity="1.0"
     inkscape:pageopacity="0.0"
     inkscape:pageshadow="2"
     inkscape:zoom="1.4"
     inkscape:cx="159.43525"
     inkscape:cy="-66.249206"
     inkscape:document-units="mm"
     inkscape:current-layer="layer1"
     showgrid="false"
     inkscape:window-width="1920"
     inkscape:window-height="1043"
     inkscape:window-x="0"
     inkscape:window-y="1098"
     inkscape:window-maximized="0" />
  <metadata
     id="metadata8335">
    <rdf:RDF>
      <cc:Work
         rdf:about="">
        <dc:format>image/svg+xml</dc:format>
        <dc:type
           rdf:resource="http://purl.org/dc/dcmitype/StillImage" />
        <dc:title></dc:title>
      </cc:Work>
    </rdf:RDF>
  </metadata>
  <g
     inkscape:label="Layer 1"
     inkscape:groupmode="layer"
     id="layer1"
     transform="translate(-22.067194,-76.585513)">
    <g
       id="g1979"
       inkscape:export-filename="/home/flyc0r/nuulogos3.png"
       inkscape:export-xdpi="64.722214"
       inkscape:export-ydpi="64.722214"
       transform="matrix(0.24795704,0,0,0.24795704,274.40804,33.957264)">
      <path
         inkscape:connector-curvature="0"
         style="fill:#000000;fill-opacity:1;stroke:none;stroke-width:2.45003176;stroke-miterlimit:4;stroke-dasharray:none;stroke-dashoffset:0;stroke-opacity:1"
         d="m -989.64926,171.91788 h 454.95847 c 15.52885,0 28.03042,12.50157 28.03042,28.03042 v 14.49831 c 0,15.52886 -12.50157,28.03043 -28.03042,28.03043 h -454.95847 c -15.52884,0 -28.03044,-12.50157 -28.03044,-28.03043 V 199.9483 c 0,-15.52885 12.5016,-28.03042 28.03044,-28.03042 z"
         id="rect1533" />
      <path
         inkscape:connector-curvature="0"
         transform="matrix(0.84250232,0,0,1.0156116,-105.96404,-3.234683)"
         style="fill:#aa0000;fill-opacity:1;stroke:#ff820f;stroke-width:3.14599991;stroke-miterlimit:4;stroke-dasharray:none;stroke-dashoffset:0;stroke-opacity:1;filter:url(#filter1685)"
         d="m -1060.4428,202.92113 h 573.02586 c 2.36908,0 4.27632,1.90723 4.27632,4.27631 0,2.36908 -1.90724,4.27631 -4.27632,4.27631 h -573.02586 c -2.3691,0 -4.2763,-1.90723 -4.2763,-4.27631 0,-2.36908 1.9072,-4.27631 4.2763,-4.27631 z"
         id="rect1535" />
      <g
         aria-label="Терешко́ва Лазер"
         transform="scale(0.97382099,1.0268828)"
         style="font-style:normal;font-variant:normal;font-weight:900;font-stretch:condensed;font-size:52.29745865px;line-height:1.25;font-family:'X.Template';-inkscape-font-specification:'X.Template, Heavy Condensed';font-variant-ligatures:normal;font-variant-caps:normal;font-variant-numeric:normal;font-feature-settings:normal;text-align:start;letter-spacing:0px;word-spacing:0px;writing-mode:lr-tb;text-anchor:start;opacity:0.778;fill:#80ffb3;fill-opacity:1;stroke:none;stroke-width:1.30746329"
         id="text4542">
        <path
           inkscape:connector-curvature="0"
           d="m -1024.9032,178.65685 h 31.61337 v 7.43094 h -11.36347 v 30.69412 h -8.8609 v -30.69412 h -11.389 z"
           style="font-style:normal;font-variant:normal;font-weight:900;font-stretch:condensed;font-size:52.29745865px;font-family:'X.Template';-inkscape-font-specification:'X.Template, Heavy Condensed';font-variant-ligatures:normal;font-variant-caps:normal;font-variant-numeric:normal;font-feature-settings:normal;text-align:start;writing-mode:lr-tb;text-anchor:start;fill:#80ffb3;stroke-width:1.30746329"
           id="path8885" />
        <path
           inkscape:connector-curvature="0"
           d="m -963.41286,202.40521 v 2.60466 h -19.22851 q 0.28089,3.21752 2.0684,4.82628 1.81305,1.60876 5.03057,1.60876 2.60466,0 5.31146,-0.84268 2.73234,-0.86822 5.59236,-2.60466 v 7.0479 q -2.91109,1.22572 -5.84772,1.83858 -2.91109,0.6384 -5.82218,0.6384 -6.99682,0 -10.87828,-3.93253 -3.85591,-3.95806 -3.85591,-11.08256 0,-6.99683 3.80484,-11.00596 3.80485,-4.00914 10.46971,-4.00914 6.07754,0 9.70363,4.06021 3.65163,4.0602 3.65163,10.85274 z m -8.45237,-3.03877 q 0,-2.60465 -1.37894,-4.18788 -1.3534,-1.60876 -3.57502,-1.60876 -2.37484,0 -3.88145,1.50662 -1.48109,1.48108 -1.86412,4.29002 z"
           style="font-style:normal;font-variant:normal;font-weight:900;font-stretch:condensed;font-size:52.29745865px;font-family:'X.Template';-inkscape-font-specification:'X.Template, Heavy Condensed';font-variant-ligatures:normal;font-variant-caps:normal;font-variant-numeric:normal;font-feature-settings:normal;text-align:start;writing-mode:lr-tb;text-anchor:start;fill:#80ffb3;stroke-width:1.30746329"
           id="path8887" />
        <path
           inkscape:connector-curvature="0"
           d="m -948.90849,212.6451 v 15.01509 h -8.22255 v -39.47846 h 8.22255 v 4.18789 q 1.71091,-2.50252 3.77931,-3.67717 2.06841,-1.20019 4.74967,-1.20019 4.74967,0 7.81398,4.21342 3.0643,4.18789 3.0643,10.80168 0,6.61379 -3.0643,10.8272 -3.06431,4.18789 -7.81398,4.18789 -2.68126,0 -4.74967,-1.17465 -2.0684,-1.20019 -3.77931,-3.7027 z m 5.46468,-18.51351 q -2.6302,0 -4.0602,2.17055 -1.40448,2.14501 -1.40448,6.20522 0,4.0602 1.40448,6.23075 1.43,2.14501 4.0602,2.14501 2.65573,0 4.03467,-2.14501 1.40447,-2.14502 1.40447,-6.23075 0,-4.08574 -1.40447,-6.23076 -1.37894,-2.14501 -4.03467,-2.14501 z"
           style="font-style:normal;font-variant:normal;font-weight:900;font-stretch:condensed;font-size:52.29745865px;font-family:'X.Template';-inkscape-font-specification:'X.Template, Heavy Condensed';font-variant-ligatures:normal;font-variant-caps:normal;font-variant-numeric:normal;font-feature-settings:normal;text-align:start;writing-mode:lr-tb;text-anchor:start;fill:#80ffb3;stroke-width:1.30746329"
           id="path8889" />
        <path
           inkscape:connector-curvature="0"
           d="m -897.73461,202.40521 v 2.60466 h -19.22851 q 0.2809,3.21752 2.06841,4.82628 1.81304,1.60876 5.03056,1.60876 2.60466,0 5.31146,-0.84268 2.73234,-0.86822 5.59236,-2.60466 v 7.0479 q -2.91109,1.22572 -5.84771,1.83858 -2.91109,0.6384 -5.82218,0.6384 -6.99683,0 -10.87828,-3.93253 -3.85592,-3.95806 -3.85592,-11.08256 0,-6.99683 3.80485,-11.00596 3.80484,-4.00914 10.4697,-4.00914 6.07754,0 9.70363,4.06021 3.65163,4.0602 3.65163,10.85274 z m -8.45237,-3.03877 q 0,-2.60465 -1.37894,-4.18788 -1.3534,-1.60876 -3.57502,-1.60876 -2.37484,0 -3.88145,1.50662 -1.48108,1.48108 -1.86412,4.29002 z"
           style="font-style:normal;font-variant:normal;font-weight:900;font-stretch:condensed;font-size:52.29745865px;font-family:'X.Template';-inkscape-font-specification:'X.Template, Heavy Condensed';font-variant-ligatures:normal;font-variant-caps:normal;font-variant-numeric:normal;font-feature-settings:normal;text-align:start;writing-mode:lr-tb;text-anchor:start;fill:#80ffb3;stroke-width:1.30746329"
           id="path8891" />
        <path
           inkscape:connector-curvature="0"
           d="m -866.45317,210.24472 h 8.55452 v -22.06299 h 8.22255 v 28.60018 h -41.77668 v -28.60018 h 8.22255 v 22.06299 h 8.55451 v -22.06299 h 8.22255 z"
           style="font-style:normal;font-variant:normal;font-weight:900;font-stretch:condensed;font-size:52.29745865px;font-family:'X.Template';-inkscape-font-specification:'X.Template, Heavy Condensed';font-variant-ligatures:normal;font-variant-caps:normal;font-variant-numeric:normal;font-feature-settings:normal;text-align:start;writing-mode:lr-tb;text-anchor:start;fill:#80ffb3;stroke-width:1.30746329"
           id="path8893" />
        <path
           inkscape:connector-curvature="0"
           d="m -841.50462,188.18173 h 8.22255 v 9.6781 l 9.16738,-9.6781 h 9.01416 l -10.98042,11.61882 11.87418,16.98136 h -8.50345 l -8.24808,-11.82311 -2.32377,2.45144 v 9.37167 h -8.22255 z"
           style="font-style:normal;font-variant:normal;font-weight:900;font-stretch:condensed;font-size:52.29745865px;font-family:'X.Template';-inkscape-font-specification:'X.Template, Heavy Condensed';font-variant-ligatures:normal;font-variant-caps:normal;font-variant-numeric:normal;font-feature-settings:normal;text-align:start;writing-mode:lr-tb;text-anchor:start;fill:#80ffb3;stroke-width:1.30746329"
           id="path8895" />
        <path
           inkscape:connector-curvature="0"
           d="m -797.30203,194.02945 q -2.73234,0 -4.16235,2.19608 -1.43001,2.17055 -1.43001,6.28183 0,4.11127 1.43001,6.30736 1.43001,2.17054 4.16235,2.17054 2.7068,0 4.11127,-2.17054 1.43001,-2.19609 1.43001,-6.30736 0,-4.11128 -1.43001,-6.28183 -1.40447,-2.19608 -4.11127,-2.19608 z m 0,-6.53719 q 6.66486,0 10.39309,3.9836 3.72824,3.9836 3.72824,11.0315 0,7.0479 -3.72824,11.03149 -3.72823,3.9836 -10.39309,3.9836 -6.63933,0 -10.41864,-3.9836 -3.75377,-3.98359 -3.75377,-11.03149 0,-7.0479 3.75377,-11.0315 3.77931,-3.9836 10.41864,-3.9836 z"
           style="font-style:normal;font-variant:normal;font-weight:900;font-stretch:condensed;font-size:52.29745865px;font-family:'X.Template';-inkscape-font-specification:'X.Template, Heavy Condensed';font-variant-ligatures:normal;font-variant-caps:normal;font-variant-numeric:normal;font-feature-settings:normal;text-align:start;writing-mode:lr-tb;text-anchor:start;fill:#80ffb3;stroke-width:1.30746329"
           id="path8897" />
        <path
           inkscape:connector-curvature="0"
           d="m -794.39095,174.95415 h 6.51164 l -8.4779,9.60149 h -4.51985 z"
           style="font-style:normal;font-variant:normal;font-weight:900;font-stretch:condensed;font-size:52.29745865px;font-family:'X.Template';-inkscape-font-specification:'X.Template, Heavy Condensed';font-variant-ligatures:normal;font-variant-caps:normal;font-variant-numeric:normal;font-feature-settings:normal;text-align:start;writing-mode:lr-tb;text-anchor:start;fill:#80ffb3;stroke-width:1.30746329"
           id="path8899" />
        <path
           inkscape:connector-curvature="0"
           d="m -765.05023,198.95787 q 1.43001,0 2.14501,-0.6384 0.74054,-0.66393 0.74054,-1.94072 0,-1.2768 -0.74054,-1.91519 -0.715,-0.6384 -2.14501,-0.6384 h -3.88145 v 5.13271 z m 0.2809,12.104 q 1.81304,0 2.73233,-0.79161 0.9193,-0.81715 0.9193,-2.42591 0,-1.58322 -0.9193,-2.37483 -0.91929,-0.79162 -2.73233,-0.79162 h -4.16235 v 6.38397 z m -12.3849,-22.88014 h 11.77204 q 5.74557,0 8.29915,1.81305 2.55359,1.78751 2.55359,5.74557 0,2.09394 -0.94483,3.57502 -0.91929,1.45555 -2.7068,2.17055 2.27269,0.68947 3.52395,2.55359 1.25126,1.83858 1.25126,4.54538 0,4.13681 -2.68127,6.17968 -2.68126,2.01734 -8.14594,2.01734 h -12.92115 z"
           style="font-style:normal;font-variant:normal;font-weight:900;font-stretch:condensed;font-size:52.29745865px;font-family:'X.Template';-inkscape-font-specification:'X.Template, Heavy Condensed';font-variant-ligatures:normal;font-variant-caps:normal;font-variant-numeric:normal;font-feature-settings:normal;text-align:start;writing-mode:lr-tb;text-anchor:start;fill:#80ffb3;stroke-width:1.30746329"
           id="path8901" />
        <path
           inkscape:connector-curvature="0"
           d="m -735.78614,203.91183 q -2.57912,0 -3.88145,0.97036 -1.30233,0.97036 -1.30233,2.86002 0,1.73644 1.04697,2.73234 1.04697,0.97036 2.91109,0.97036 2.32377,0 3.90699,-1.83858 1.58322,-1.86412 1.58322,-4.64753 v -1.04697 z m 12.56365,-3.44734 v 16.31742 h -8.29916 v -4.23896 q -1.65983,2.60466 -3.72823,3.80485 -2.06841,1.17465 -5.03057,1.17465 -4.00913,0 -6.51164,-2.57913 -2.47698,-2.60465 -2.47698,-6.74147 0,-5.03056 3.11537,-7.37986 3.11538,-2.3493 9.78024,-2.3493 h 4.85181 v -0.71501 q 0,-2.17054 -1.55768,-3.16644 -1.53216,-1.02144 -4.77521,-1.02144 -2.65573,0 -4.92842,0.58733 -2.2727,0.58732 -4.23896,1.76197 v -6.97129 q 2.65573,-0.715 5.31146,-1.07251 2.68127,-0.38304 5.337,-0.38304 6.97129,0 10.06113,3.06431 3.08984,3.03877 3.08984,9.90792 z"
           style="font-style:normal;font-variant:normal;font-weight:900;font-stretch:condensed;font-size:52.29745865px;font-family:'X.Template';-inkscape-font-specification:'X.Template, Heavy Condensed';font-variant-ligatures:normal;font-variant-caps:normal;font-variant-numeric:normal;font-feature-settings:normal;text-align:start;writing-mode:lr-tb;text-anchor:start;fill:#80ffb3;stroke-width:1.30746329"
           id="path8903" />
        <path
           inkscape:connector-curvature="0"
           d="m -701.00627,216.78191 v -7.43094 q 5.82218,-0.71501 6.99683,-4.92842 1.17465,-4.23896 1.17465,-18.56458 v -7.20112 h 24.43782 v 38.12506 h -8.86094 v -30.69412 h -6.71594 v 2.32377 q 0,13.99365 -2.24715,20.47976 -2.22162,6.46058 -14.78527,7.89059 z"
           style="font-style:normal;font-variant:normal;font-weight:900;font-stretch:condensed;font-size:52.29745865px;font-family:'X.Template';-inkscape-font-specification:'X.Template, Heavy Condensed';font-variant-ligatures:normal;font-variant-caps:normal;font-variant-numeric:normal;font-feature-settings:normal;text-align:start;writing-mode:lr-tb;text-anchor:start;fill:#80ffb3;stroke-width:1.30746329"
           id="path8905" />
        <path
           inkscape:connector-curvature="0"
           d="m -648.55561,203.91183 q -2.57912,0 -3.88145,0.97036 -1.30233,0.97036 -1.30233,2.86002 0,1.73644 1.04697,2.73234 1.04697,0.97036 2.91109,0.97036 2.32377,0 3.90699,-1.83858 1.58322,-1.86412 1.58322,-4.64753 v -1.04697 z m 12.56365,-3.44734 v 16.31742 h -8.29916 v -4.23896 q -1.65983,2.60466 -3.72823,3.80485 -2.06841,1.17465 -5.03057,1.17465 -4.00913,0 -6.51164,-2.57913 -2.47698,-2.60465 -2.47698,-6.74147 0,-5.03056 3.11537,-7.37986 3.11538,-2.3493 9.78024,-2.3493 h 4.85181 v -0.71501 q 0,-2.17054 -1.55768,-3.16644 -1.53216,-1.02144 -4.77521,-1.02144 -2.65573,0 -4.92842,0.58733 -2.2727,0.58732 -4.23896,1.76197 v -6.97129 q 2.65573,-0.715 5.31146,-1.07251 2.68127,-0.38304 5.337,-0.38304 6.97129,0 10.06113,3.06431 3.08984,3.03877 3.08984,9.90792 z"
           style="font-style:normal;font-variant:normal;font-weight:900;font-stretch:condensed;font-size:52.29745865px;font-family:'X.Template';-inkscape-font-specification:'X.Template, Heavy Condensed';font-variant-ligatures:normal;font-variant-caps:normal;font-variant-numeric:normal;font-feature-settings:normal;text-align:start;writing-mode:lr-tb;text-anchor:start;fill:#80ffb3;stroke-width:1.30746329"
           id="path8907" />
        <path
           inkscape:connector-curvature="0"
           d="m -625.67546,198.95787 h 3.77931 q 3.37074,0 4.59646,-0.81715 1.22572,-0.81715 1.22572,-1.94072 0,-2.6302 -5.4136,-2.6302 -4.51985,0 -7.3288,1.76198 v -6.61379 q 4.18788,-1.22573 9.11631,-1.22573 5.79664,0 8.45237,1.83859 2.68127,1.81304 2.68127,5.66896 0,5.0561 -5.03057,6.35843 5.66896,1.55769 5.66896,7.30326 0,4.41771 -3.14091,6.63933 -3.11537,2.22162 -9.80577,2.22162 -4.9795,0 -9.11631,-1.43001 v -7.0479 q 5.15825,2.40037 8.19702,2.40037 3.37073,0 4.87735,-0.9959 1.50661,-1.02143 1.50661,-2.29823 0,-3.54948 -6.63932,-3.54948 h -3.6261 z"
           style="font-style:normal;font-variant:normal;font-weight:900;font-stretch:condensed;font-size:52.29745865px;font-family:'X.Template';-inkscape-font-specification:'X.Template, Heavy Condensed';font-variant-ligatures:normal;font-variant-caps:normal;font-variant-numeric:normal;font-feature-settings:normal;text-align:start;writing-mode:lr-tb;text-anchor:start;fill:#80ffb3;stroke-width:1.30746329"
           id="path8909" />
        <path
           inkscape:connector-curvature="0"
           d="m -575.26765,202.40521 v 2.60466 h -19.22851 q 0.28089,3.21752 2.0684,4.82628 1.81305,1.60876 5.03057,1.60876 2.60466,0 5.31146,-0.84268 2.73234,-0.86822 5.59236,-2.60466 v 7.0479 q -2.91109,1.22572 -5.84772,1.83858 -2.91109,0.6384 -5.82218,0.6384 -6.99682,0 -10.87828,-3.93253 -3.85591,-3.95806 -3.85591,-11.08256 0,-6.99683 3.80484,-11.00596 3.80485,-4.00914 10.46971,-4.00914 6.07754,0 9.70363,4.06021 3.65163,4.0602 3.65163,10.85274 z m -8.45237,-3.03877 q 0,-2.60465 -1.37894,-4.18788 -1.3534,-1.60876 -3.57502,-1.60876 -2.37484,0 -3.88145,1.50662 -1.48108,1.48108 -1.86412,4.29002 z"
           style="font-style:normal;font-variant:normal;font-weight:900;font-stretch:condensed;font-size:52.29745865px;font-family:'X.Template';-inkscape-font-specification:'X.Template, Heavy Condensed';font-variant-ligatures:normal;font-variant-caps:normal;font-variant-numeric:normal;font-feature-settings:normal;text-align:start;writing-mode:lr-tb;text-anchor:start;fill:#80ffb3;stroke-width:1.30746329"
           id="path8911" />
        <path
           inkscape:connector-curvature="0"
           d="m -560.7633,212.6451 v 15.01509 h -8.22255 v -39.47846 h 8.22255 v 4.18789 q 1.7109,-2.50252 3.77931,-3.67717 2.0684,-1.20019 4.74967,-1.20019 4.74967,0 7.81398,4.21342 3.0643,4.18789 3.0643,10.80168 0,6.61379 -3.0643,10.8272 -3.06431,4.18789 -7.81398,4.18789 -2.68127,0 -4.74967,-1.17465 -2.06841,-1.20019 -3.77931,-3.7027 z m 5.46468,-18.51351 q -2.6302,0 -4.06021,2.17055 -1.40447,2.14501 -1.40447,6.20522 0,4.0602 1.40447,6.23075 1.43001,2.14501 4.06021,2.14501 2.65573,0 4.03466,-2.14501 1.40448,-2.14502 1.40448,-6.23075 0,-4.08574 -1.40448,-6.23076 -1.37893,-2.14501 -4.03466,-2.14501 z"
           style="font-style:normal;font-variant:normal;font-weight:900;font-stretch:condensed;font-size:52.29745865px;font-family:'X.Template';-inkscape-font-specification:'X.Template, Heavy Condensed';font-variant-ligatures:normal;font-variant-caps:normal;font-variant-numeric:normal;font-feature-settings:normal;text-align:start;writing-mode:lr-tb;text-anchor:start;fill:#80ffb3;stroke-width:1.30746329"
           id="path8913" />
      </g>
    </g>
  </g>
</svg>
