<?xml version="1.0" encoding="UTF-8" standalone="no"?>
<!-- Created with Inkscape (http://www.inkscape.org/) -->

<svg
   xmlns:dc="http://purl.org/dc/elements/1.1/"
   xmlns:cc="http://creativecommons.org/ns#"
   xmlns:rdf="http://www.w3.org/1999/02/22-rdf-syntax-ns#"
   xmlns:svg="http://www.w3.org/2000/svg"
   xmlns="http://www.w3.org/2000/svg"
   xmlns:sodipodi="http://sodipodi.sourceforge.net/DTD/sodipodi-0.dtd"
   xmlns:inkscape="http://www.inkscape.org/namespaces/inkscape"
   width="92.736794mm"
   height="37.942265mm"
   viewBox="0 0 92.736794 37.942265"
   version="1.1"
   id="svg2297"
   inkscape:version="0.92.4 (5da689c313, 2019-01-14)"
   sodipodi:docname="valkyrie.svg">
  <defs
     id="defs2291" />
  <sodipodi:namedview
     id="base"
     pagecolor="#ffffff"
     bordercolor="#666666"
     borderopacity="1.0"
     inkscape:pageopacity="0.0"
     inkscape:pageshadow="2"
     inkscape:zoom="0.35"
     inkscape:cx="-150.46377"
     inkscape:cy="-71.155078"
     inkscape:document-units="mm"
     inkscape:current-layer="layer1"
     showgrid="false"
     inkscape:window-width="1920"
     inkscape:window-height="1043"
     inkscape:window-x="0"
     inkscape:window-y="1098"
     inkscape:window-maximized="0" />
  <metadata
     id="metadata2294">
    <rdf:RDF>
      <cc:Work
         rdf:about="">
        <dc:format>image/svg+xml</dc:format>
        <dc:type
           rdf:resource="http://purl.org/dc/dcmitype/StillImage" />
        <dc:title></dc:title>
      </cc:Work>
    </rdf:RDF>
  </metadata>
  <g
     inkscape:label="Layer 1"
     inkscape:groupmode="layer"
     id="layer1"
     transform="translate(2.523128,-92.064623)">
    <g
       transform="matrix(7.5672492,0,0,7.5672492,2606.3807,-1067.0011)"
       id="g3140">
      <path
         inkscape:connector-curvature="0"
         style="opacity:1;fill:#1a1a1a;fill-opacity:1;stroke:none;stroke-width:0.47405562;stroke-linecap:round;stroke-miterlimit:4;stroke-dasharray:none;stroke-dashoffset:0;stroke-opacity:1"
         d="m -344.65342,153.1687 h 12.03684 c 0.0604,0 0.10909,0.0487 0.10909,0.10909 v 4.79583 c 0,0.0604 -0.0487,0.10909 -0.10909,0.10909 h -12.03684 c -0.0604,0 -0.10909,-0.0487 -0.10909,-0.10909 v -4.79583 c 0,-0.0604 0.0487,-0.10909 0.10909,-0.10909 z"
         id="rect2301" />
      <path
         inkscape:connector-curvature="0"
         transform="matrix(0.99938152,-0.03516488,-0.23680101,-0.97155817,0,0)"
         style="opacity:1;fill:none;fill-opacity:1;stroke:#ff4200;stroke-width:0.46343333;stroke-linecap:round;stroke-miterlimit:4;stroke-dasharray:none;stroke-dashoffset:0;stroke-opacity:1"
         d="m -370.04269,-146.1161 a 3.9415038,1.1547948 0 0 1 -3.4663,1.14637 3.9415038,1.1547948 0 0 1 -4.30212,-0.86995"
         id="path2299" />
      <g
         aria-label="valkyrie"
         style="font-style:normal;font-variant:normal;font-weight:normal;font-stretch:normal;font-size:3.50690293px;line-height:1.25;font-family:Ubuntu-Title;-inkscape-font-specification:'Ubuntu-Title, Normal';font-variant-ligatures:normal;font-variant-caps:normal;font-variant-numeric:normal;font-feature-settings:normal;text-align:start;letter-spacing:0px;word-spacing:0px;writing-mode:lr-tb;text-anchor:start;fill:#f4e3d7;fill-opacity:1;stroke:none;stroke-width:0.08767361"
         id="text2291">
        <path
           inkscape:connector-curvature="0"
           d="m -344.01624,155.37923 q 0.11924,-0.007 0.17535,0.0982 l 0.014,0.0281 q 0.1543,0.66631 0.28055,0.97492 l 0.0561,0.11222 q 0.014,0.021 0.0281,-0.0211 0.1543,-0.32964 0.32964,-0.99596 0.014,-0.14027 0.12625,-0.18235 l 0.0281,-0.014 q 0.11923,-0.0281 0.2034,0.0771 0.0561,0.0631 0.0421,0.14028 -0.0772,0.34367 -0.21041,0.75047 -0.14028,0.38576 -0.23146,0.52604 -0.0281,0.0421 -0.0561,0.0772 -0.0982,0.13326 -0.25951,0.12625 -0.0351,0 -0.0701,-0.014 -0.17534,-0.0561 -0.30861,-0.33666 -0.014,-0.021 -0.021,-0.0491 -0.16833,-0.39277 -0.31562,-1.05908 -0.0281,-0.11924 0.0771,-0.2034 0.0491,-0.0421 0.11222,-0.0351 z"
           style="font-style:normal;font-variant:normal;font-weight:normal;font-stretch:normal;font-size:3.50690293px;font-family:Ubuntu-Title;-inkscape-font-specification:'Ubuntu-Title, Normal';font-variant-ligatures:normal;font-variant-caps:normal;font-variant-numeric:normal;font-feature-settings:normal;text-align:start;writing-mode:lr-tb;text-anchor:start;fill:#f4e3d7;stroke-width:0.08767361"
           id="path9791" />
        <path
           inkscape:connector-curvature="0"
           d="m -341.242,156.86615 v -0.7154 q -0.021,-0.32965 -0.23146,-0.51903 -0.0561,-0.0491 -0.11923,-0.0842 -0.13326,-0.0701 -0.26653,-0.0701 -0.31562,0 -0.512,0.26653 -0.21743,0.32263 -0.11924,0.78554 0.0631,0.29458 0.29458,0.44187 0.0561,0.0351 0.11924,0.0631 0.25951,0.0842 0.47693,-0.0281 0.0421,0.11222 0.16834,0.11924 0.0842,0.007 0.14027,-0.0561 0.0491,-0.0631 0.0491,-0.2034 z m -0.63124,-1.00998 q 0.14027,0 0.21742,0.12624 0.0491,0.0912 0.0421,0.41382 -0.021,0.23146 -0.16132,0.28757 -0.0491,0.014 -0.13326,0.007 -0.14028,-0.021 -0.19639,-0.1543 -0.014,-0.0281 -0.014,-0.0561 -0.0561,-0.21743 0,-0.42785 0.0281,-0.14027 0.16833,-0.18236 0.0421,-0.014 0.0772,-0.014 z"
           style="font-style:normal;font-variant:normal;font-weight:normal;font-stretch:normal;font-size:3.50690293px;font-family:Ubuntu-Title;-inkscape-font-specification:'Ubuntu-Title, Normal';font-variant-ligatures:normal;font-variant-caps:normal;font-variant-numeric:normal;font-feature-settings:normal;text-align:start;writing-mode:lr-tb;text-anchor:start;fill:#f4e3d7;stroke-width:0.08767361"
           id="path9793" />
        <path
           inkscape:connector-curvature="0"
           d="m -340.54336,154.97243 q 0,-0.12625 -0.11222,-0.17535 -0.0281,-0.014 -0.0701,-0.014 -0.11222,0 -0.16833,0.10521 -0.014,0.0351 -0.014,0.0842 v 1.92178 q 0,0.11222 0.10521,0.16132 0.0351,0.014 0.0771,0.014 0.11924,0 0.16833,-0.1052 0.014,-0.0351 0.014,-0.0701 z"
           style="font-style:normal;font-variant:normal;font-weight:normal;font-stretch:normal;font-size:3.50690293px;font-family:Ubuntu-Title;-inkscape-font-specification:'Ubuntu-Title, Normal';font-variant-ligatures:normal;font-variant-caps:normal;font-variant-numeric:normal;font-feature-settings:normal;text-align:start;writing-mode:lr-tb;text-anchor:start;fill:#f4e3d7;stroke-width:0.08767361"
           id="path9795" />
        <path
           inkscape:connector-curvature="0"
           d="m -340.06933,154.72694 q 0.0772,0 0.13327,0.0561 0.0561,0.0561 0.0561,0.13327 v 1.03103 l 0.59617,-0.56812 q 0.0912,-0.0842 0.21041,-0.0351 0.0281,0.014 0.0561,0.0421 0.0842,0.0912 0.0351,0.2034 -0.021,0.0351 -0.0421,0.0631 l -0.43485,0.4068 0.52603,0.7154 q 0.0772,0.10521 0.007,0.21042 -0.021,0.0281 -0.0491,0.0491 -0.0982,0.0771 -0.21042,0.007 -0.0281,-0.014 -0.0491,-0.0421 l -0.49798,-0.68034 -0.14729,0.14027 v 0.42785 q 0,0.1052 -0.0912,0.16131 -0.0982,0.0561 -0.18938,0 -0.0912,-0.0561 -0.0912,-0.16131 v -1.97088 q 0,-0.11924 0.1052,-0.16833 0.0351,-0.021 0.0772,-0.021 z"
           style="font-style:normal;font-variant:normal;font-weight:normal;font-stretch:normal;font-size:3.50690293px;font-family:Ubuntu-Title;-inkscape-font-specification:'Ubuntu-Title, Normal';font-variant-ligatures:normal;font-variant-caps:normal;font-variant-numeric:normal;font-feature-settings:normal;text-align:start;writing-mode:lr-tb;text-anchor:start;fill:#f4e3d7;stroke-width:0.08767361"
           id="path9797" />
        <path
           inkscape:connector-curvature="0"
           d="m -337.34254,155.59666 v 1.3747 q 0,0.42083 -0.18236,0.59618 -0.14729,0.1543 -0.48396,0.1543 -0.32263,0.0421 -0.58916,-0.11924 -0.0912,-0.0561 -0.0912,-0.16131 0,-0.11222 0.0982,-0.16132 0.0912,-0.0561 0.18236,0.007 0.11222,0.0631 0.37874,0.0631 h 0.014 q 0.18236,0 0.23146,-0.0491 0.0631,-0.0561 0.0631,-0.29458 -0.19639,0.0982 -0.42083,0.0561 -0.44888,-0.11923 -0.53305,-0.64527 -0.014,-0.0842 -0.014,-0.17534 v -0.64527 q 0,-0.12625 0.11223,-0.17535 0.0281,-0.014 0.0701,-0.014 0.0842,0 0.14028,0.0561 0.0561,0.0561 0.0561,0.13327 v 0.64527 q 0,0.30159 0.1543,0.41381 0.0701,0.0491 0.14028,0.0491 0.0912,-0.007 0.1543,-0.0491 0.0982,-0.0421 0.12625,-0.11222 0.014,-0.0561 0.014,-0.14028 v -0.80658 q 0,-0.10521 0.0982,-0.16834 0.0982,-0.0491 0.18236,0 0.0982,0.0631 0.0982,0.16834 z"
           style="font-style:normal;font-variant:normal;font-weight:normal;font-stretch:normal;font-size:3.50690293px;font-family:Ubuntu-Title;-inkscape-font-specification:'Ubuntu-Title, Normal';font-variant-ligatures:normal;font-variant-caps:normal;font-variant-numeric:normal;font-feature-settings:normal;text-align:start;writing-mode:lr-tb;text-anchor:start;fill:#f4e3d7;stroke-width:0.08767361"
           id="path9799" />
        <path
           inkscape:connector-curvature="0"
           d="m -336.38571,155.40728 q 0.38576,0 0.58215,0.34368 0.0561,0.10521 0,0.2034 -0.0631,0.0912 -0.17535,0.0842 -0.11222,-0.014 -0.1543,-0.11924 -0.0491,-0.0982 -0.12625,-0.11923 -0.0561,-0.014 -0.12625,-0.014 -0.18236,0 -0.24548,0.0982 -0.007,0.014 -0.021,0.0351 -0.0351,0.0772 -0.0421,0.16132 v 0.80659 q 0,0.1052 -0.0842,0.16131 -0.0982,0.0561 -0.18937,0 -0.0912,-0.0561 -0.0912,-0.16131 v -0.80659 q 0.0351,-0.48395 0.42784,-0.62423 0.11222,-0.0491 0.24548,-0.0491 z"
           style="font-style:normal;font-variant:normal;font-weight:normal;font-stretch:normal;font-size:3.50690293px;font-family:Ubuntu-Title;-inkscape-font-specification:'Ubuntu-Title, Normal';font-variant-ligatures:normal;font-variant-caps:normal;font-variant-numeric:normal;font-feature-settings:normal;text-align:start;writing-mode:lr-tb;text-anchor:start;fill:#f4e3d7;stroke-width:0.08767361"
           id="path9801" />
        <path
           inkscape:connector-curvature="0"
           d="m -335.30131,154.73396 q -0.11923,0.014 -0.1543,0.12625 -0.014,0.0281 -0.014,0.0631 v 0.0281 q 0,0.1052 0.0912,0.16131 0.0912,0.0561 0.18937,0 0.0912,-0.0561 0.0912,-0.16131 v -0.0281 q 0,-0.0842 -0.0631,-0.14729 -0.0631,-0.0561 -0.14028,-0.0421 z m 0.014,0.67332 q -0.11924,0 -0.16132,0.11222 -0.021,0.0351 -0.021,0.0772 v 1.29054 q 0,0.1052 0.0912,0.16131 0.0912,0.0561 0.18937,0 0.0912,-0.0561 0.0912,-0.16131 v -1.29054 q 0,-0.0772 -0.0561,-0.13327 -0.0491,-0.0561 -0.13326,-0.0561 z"
           style="font-style:normal;font-variant:normal;font-weight:normal;font-stretch:normal;font-size:3.50690293px;font-family:Ubuntu-Title;-inkscape-font-specification:'Ubuntu-Title, Normal';font-variant-ligatures:normal;font-variant-caps:normal;font-variant-numeric:normal;font-feature-settings:normal;text-align:start;writing-mode:lr-tb;text-anchor:start;fill:#f4e3d7;stroke-width:0.08767361"
           id="path9803" />
        <path
           inkscape:connector-curvature="0"
           d="m -334.05592,156.69081 h -0.0631 q -0.23146,-0.0351 -0.28056,-0.27354 h 0.76451 q 0.12625,0 0.16833,-0.11222 0.014,-0.0351 0.014,-0.0701 v -0.0701 q 0,-0.49096 -0.33666,-0.70138 -0.12625,-0.0701 -0.28757,-0.0701 -0.21743,0 -0.38576,0.11923 -0.30861,0.2034 -0.32965,0.68034 -0.007,0.0421 0,0.0772 0.021,0.4559 0.32965,0.68034 0.16833,0.11923 0.34368,0.11923 0.24548,0.007 0.35069,-0.014 0.14729,-0.0351 0.24548,-0.11924 0.0912,-0.0631 0.0701,-0.16833 -0.014,-0.11222 -0.10521,-0.1543 -0.10521,-0.0351 -0.18937,0.0351 -0.0631,0.0421 -0.30861,0.0421 z m -0.0281,-0.91881 q 0.0701,0 0.11923,0.0281 0.11222,0.0561 0.14028,0.23145 v 0.014 h -0.57514 q 0.0281,-0.1543 0.14028,-0.23146 0.0772,-0.0421 0.14028,-0.0421 h 0.021 z"
           style="font-style:normal;font-variant:normal;font-weight:normal;font-stretch:normal;font-size:3.50690293px;font-family:Ubuntu-Title;-inkscape-font-specification:'Ubuntu-Title, Normal';font-variant-ligatures:normal;font-variant-caps:normal;font-variant-numeric:normal;font-feature-settings:normal;text-align:start;writing-mode:lr-tb;text-anchor:start;fill:#f4e3d7;stroke-width:0.08767361"
           id="path9805" />
      </g>
      <path
         inkscape:connector-curvature="0"
         style="opacity:1;fill:#ffe900;fill-opacity:1;stroke:#ff8a00;stroke-width:0.1821105;stroke-linecap:round;stroke-linejoin:miter;stroke-miterlimit:4;stroke-dasharray:none;stroke-dashoffset:0;stroke-opacity:1"
         d="m -334.89951,154.72403 a 0.39794326,0.39794326 0 0 1 -0.39794,0.39794 0.39794326,0.39794326 0 0 1 -0.39795,-0.39794 0.39794326,0.39794326 0 0 1 0.39795,-0.39794 0.39794326,0.39794326 0 0 1 0.39794,0.39794 z"
         id="path3133" />
    </g>
  </g>
</svg>
